<?xml version="1.0" encoding="utf-8" standalone="no"?>
<!DOCTYPE svg PUBLIC "-//W3C//DTD SVG 1.1//EN"
  "http://www.w3.org/Graphics/SVG/1.1/DTD/svg11.dtd">
<!-- Created with matplotlib (https://matplotlib.org/) -->
<svg height="216pt" version="1.1" viewBox="0 0 504 216" width="504pt" xmlns="http://www.w3.org/2000/svg" xmlns:xlink="http://www.w3.org/1999/xlink">
 <defs>
  <style type="text/css">
*{stroke-linecap:butt;stroke-linejoin:round;}
  </style>
 </defs>
 <g id="figure_1">
  <g id="patch_1">
   <path d="M 0 216 
L 504 216 
L 504 0 
L 0 0 
z
" style="fill:#ffffff;"/>
  </g>
  <g id="axes_1">
   <g id="patch_2">
    <path d="M 40.32 144.72 
L 493.92 144.72 
L 493.92 10.8 
L 40.32 10.8 
z
" style="fill:#ffffff;"/>
   </g>
   <g id="matplotlib.axis_1">
    <g id="xtick_1">
     <g id="line2d_1">
      <defs>
       <path d="M 0 0 
L 0 3.5 
" id="m40af575c42" style="stroke:#000000;stroke-width:0.8;"/>
      </defs>
      <g>
       <use style="stroke:#000000;stroke-width:0.8;" x="50.629091" xlink:href="#m40af575c42" y="144.72"/>
      </g>
     </g>
    </g>
    <g id="xtick_2">
     <g id="line2d_2">
      <g>
       <use style="stroke:#000000;stroke-width:0.8;" x="71.247273" xlink:href="#m40af575c42" y="144.72"/>
      </g>
     </g>
    </g>
    <g id="xtick_3">
     <g id="line2d_3">
      <g>
       <use style="stroke:#000000;stroke-width:0.8;" x="91.865455" xlink:href="#m40af575c42" y="144.72"/>
      </g>
     </g>
    </g>
    <g id="xtick_4">
     <g id="line2d_4">
      <g>
       <use style="stroke:#000000;stroke-width:0.8;" x="112.483636" xlink:href="#m40af575c42" y="144.72"/>
      </g>
     </g>
    </g>
    <g id="xtick_5">
     <g id="line2d_5">
      <g>
       <use style="stroke:#000000;stroke-width:0.8;" x="133.101818" xlink:href="#m40af575c42" y="144.72"/>
      </g>
     </g>
    </g>
    <g id="xtick_6">
     <g id="line2d_6">
      <g>
       <use style="stroke:#000000;stroke-width:0.8;" x="153.72" xlink:href="#m40af575c42" y="144.72"/>
      </g>
     </g>
    </g>
    <g id="xtick_7">
     <g id="line2d_7">
      <g>
       <use style="stroke:#000000;stroke-width:0.8;" x="174.338182" xlink:href="#m40af575c42" y="144.72"/>
      </g>
     </g>
    </g>
    <g id="xtick_8">
     <g id="line2d_8">
      <g>
       <use style="stroke:#000000;stroke-width:0.8;" x="194.956364" xlink:href="#m40af575c42" y="144.72"/>
      </g>
     </g>
    </g>
    <g id="xtick_9">
     <g id="line2d_9">
      <g>
       <use style="stroke:#000000;stroke-width:0.8;" x="215.574545" xlink:href="#m40af575c42" y="144.72"/>
      </g>
     </g>
    </g>
    <g id="xtick_10">
     <g id="line2d_10">
      <g>
       <use style="stroke:#000000;stroke-width:0.8;" x="236.192727" xlink:href="#m40af575c42" y="144.72"/>
      </g>
     </g>
    </g>
    <g id="xtick_11">
     <g id="line2d_11">
      <g>
       <use style="stroke:#000000;stroke-width:0.8;" x="256.810909" xlink:href="#m40af575c42" y="144.72"/>
      </g>
     </g>
    </g>
    <g id="xtick_12">
     <g id="line2d_12">
      <g>
       <use style="stroke:#000000;stroke-width:0.8;" x="277.429091" xlink:href="#m40af575c42" y="144.72"/>
      </g>
     </g>
    </g>
    <g id="xtick_13">
     <g id="line2d_13">
      <g>
       <use style="stroke:#000000;stroke-width:0.8;" x="298.047273" xlink:href="#m40af575c42" y="144.72"/>
      </g>
     </g>
    </g>
    <g id="xtick_14">
     <g id="line2d_14">
      <g>
       <use style="stroke:#000000;stroke-width:0.8;" x="318.665455" xlink:href="#m40af575c42" y="144.72"/>
      </g>
     </g>
    </g>
    <g id="xtick_15">
     <g id="line2d_15">
      <g>
       <use style="stroke:#000000;stroke-width:0.8;" x="339.283636" xlink:href="#m40af575c42" y="144.72"/>
      </g>
     </g>
    </g>
    <g id="xtick_16">
     <g id="line2d_16">
      <g>
       <use style="stroke:#000000;stroke-width:0.8;" x="359.901818" xlink:href="#m40af575c42" y="144.72"/>
      </g>
     </g>
    </g>
    <g id="xtick_17">
     <g id="line2d_17">
      <g>
       <use style="stroke:#000000;stroke-width:0.8;" x="380.52" xlink:href="#m40af575c42" y="144.72"/>
      </g>
     </g>
    </g>
    <g id="xtick_18">
     <g id="line2d_18">
      <g>
       <use style="stroke:#000000;stroke-width:0.8;" x="401.138182" xlink:href="#m40af575c42" y="144.72"/>
      </g>
     </g>
    </g>
    <g id="xtick_19">
     <g id="line2d_19">
      <g>
       <use style="stroke:#000000;stroke-width:0.8;" x="421.756364" xlink:href="#m40af575c42" y="144.72"/>
      </g>
     </g>
    </g>
    <g id="xtick_20">
     <g id="line2d_20">
      <g>
       <use style="stroke:#000000;stroke-width:0.8;" x="442.374545" xlink:href="#m40af575c42" y="144.72"/>
      </g>
     </g>
    </g>
    <g id="xtick_21">
     <g id="line2d_21">
      <g>
       <use style="stroke:#000000;stroke-width:0.8;" x="462.992727" xlink:href="#m40af575c42" y="144.72"/>
      </g>
     </g>
    </g>
    <g id="xtick_22">
     <g id="line2d_22">
      <g>
       <use style="stroke:#000000;stroke-width:0.8;" x="483.610909" xlink:href="#m40af575c42" y="144.72"/>
      </g>
     </g>
    </g>
   </g>
   <g id="matplotlib.axis_2">
    <g id="ytick_1">
     <g id="line2d_23">
      <path clip-path="url(#p7cfd05d766)" d="M 40.32 144.72 
L 493.92 144.72 
" style="fill:none;stroke:#808080;stroke-dasharray:2.96,1.28;stroke-dashoffset:0;stroke-width:0.8;"/>
     </g>
     <g id="line2d_24">
      <defs>
       <path d="M 0 0 
L -3.5 0 
" id="m4bffa075f0" style="stroke:#000000;stroke-width:0.8;"/>
      </defs>
      <g>
       <use style="stroke:#000000;stroke-width:0.8;" x="40.32" xlink:href="#m4bffa075f0" y="144.72"/>
      </g>
     </g>
     <g id="text_1">
      <!-- 0 -->
      <defs>
       <path d="M 31.78125 66.40625 
Q 24.171875 66.40625 20.328125 58.90625 
Q 16.5 51.421875 16.5 36.375 
Q 16.5 21.390625 20.328125 13.890625 
Q 24.171875 6.390625 31.78125 6.390625 
Q 39.453125 6.390625 43.28125 13.890625 
Q 47.125 21.390625 47.125 36.375 
Q 47.125 51.421875 43.28125 58.90625 
Q 39.453125 66.40625 31.78125 66.40625 
z
M 31.78125 74.21875 
Q 44.046875 74.21875 50.515625 64.515625 
Q 56.984375 54.828125 56.984375 36.375 
Q 56.984375 17.96875 50.515625 8.265625 
Q 44.046875 -1.421875 31.78125 -1.421875 
Q 19.53125 -1.421875 13.0625 8.265625 
Q 6.59375 17.96875 6.59375 36.375 
Q 6.59375 54.828125 13.0625 64.515625 
Q 19.53125 74.21875 31.78125 74.21875 
z
" id="DejaVuSans-48"/>
      </defs>
      <g transform="translate(26.9575 148.519219)scale(0.1 -0.1)">
       <use xlink:href="#DejaVuSans-48"/>
      </g>
     </g>
    </g>
    <g id="ytick_2">
     <g id="line2d_25">
      <path clip-path="url(#p7cfd05d766)" d="M 40.32 101.849783 
L 493.92 101.849783 
" style="fill:none;stroke:#808080;stroke-dasharray:2.96,1.28;stroke-dashoffset:0;stroke-width:0.8;"/>
     </g>
     <g id="line2d_26">
      <g>
       <use style="stroke:#000000;stroke-width:0.8;" x="40.32" xlink:href="#m4bffa075f0" y="101.849783"/>
      </g>
     </g>
     <g id="text_2">
      <!-- 20 -->
      <defs>
       <path d="M 19.1875 8.296875 
L 53.609375 8.296875 
L 53.609375 0 
L 7.328125 0 
L 7.328125 8.296875 
Q 12.9375 14.109375 22.625 23.890625 
Q 32.328125 33.6875 34.8125 36.53125 
Q 39.546875 41.84375 41.421875 45.53125 
Q 43.3125 49.21875 43.3125 52.78125 
Q 43.3125 58.59375 39.234375 62.25 
Q 35.15625 65.921875 28.609375 65.921875 
Q 23.96875 65.921875 18.8125 64.3125 
Q 13.671875 62.703125 7.8125 59.421875 
L 7.8125 69.390625 
Q 13.765625 71.78125 18.9375 73 
Q 24.125 74.21875 28.421875 74.21875 
Q 39.75 74.21875 46.484375 68.546875 
Q 53.21875 62.890625 53.21875 53.421875 
Q 53.21875 48.921875 51.53125 44.890625 
Q 49.859375 40.875 45.40625 35.40625 
Q 44.1875 33.984375 37.640625 27.21875 
Q 31.109375 20.453125 19.1875 8.296875 
z
" id="DejaVuSans-50"/>
      </defs>
      <g transform="translate(20.595 105.649001)scale(0.1 -0.1)">
       <use xlink:href="#DejaVuSans-50"/>
       <use x="63.623047" xlink:href="#DejaVuSans-48"/>
      </g>
     </g>
    </g>
    <g id="ytick_3">
     <g id="line2d_27">
      <path clip-path="url(#p7cfd05d766)" d="M 40.32 58.979565 
L 493.92 58.979565 
" style="fill:none;stroke:#808080;stroke-dasharray:2.96,1.28;stroke-dashoffset:0;stroke-width:0.8;"/>
     </g>
     <g id="line2d_28">
      <g>
       <use style="stroke:#000000;stroke-width:0.8;" x="40.32" xlink:href="#m4bffa075f0" y="58.979565"/>
      </g>
     </g>
     <g id="text_3">
      <!-- 40 -->
      <defs>
       <path d="M 37.796875 64.3125 
L 12.890625 25.390625 
L 37.796875 25.390625 
z
M 35.203125 72.90625 
L 47.609375 72.90625 
L 47.609375 25.390625 
L 58.015625 25.390625 
L 58.015625 17.1875 
L 47.609375 17.1875 
L 47.609375 0 
L 37.796875 0 
L 37.796875 17.1875 
L 4.890625 17.1875 
L 4.890625 26.703125 
z
" id="DejaVuSans-52"/>
      </defs>
      <g transform="translate(20.595 62.778784)scale(0.1 -0.1)">
       <use xlink:href="#DejaVuSans-52"/>
       <use x="63.623047" xlink:href="#DejaVuSans-48"/>
      </g>
     </g>
    </g>
    <g id="ytick_4">
     <g id="line2d_29">
      <path clip-path="url(#p7cfd05d766)" d="M 40.32 16.109348 
L 493.92 16.109348 
" style="fill:none;stroke:#808080;stroke-dasharray:2.96,1.28;stroke-dashoffset:0;stroke-width:0.8;"/>
     </g>
     <g id="line2d_30">
      <g>
       <use style="stroke:#000000;stroke-width:0.8;" x="40.32" xlink:href="#m4bffa075f0" y="16.109348"/>
      </g>
     </g>
     <g id="text_4">
      <!-- 60 -->
      <defs>
       <path d="M 33.015625 40.375 
Q 26.375 40.375 22.484375 35.828125 
Q 18.609375 31.296875 18.609375 23.390625 
Q 18.609375 15.53125 22.484375 10.953125 
Q 26.375 6.390625 33.015625 6.390625 
Q 39.65625 6.390625 43.53125 10.953125 
Q 47.40625 15.53125 47.40625 23.390625 
Q 47.40625 31.296875 43.53125 35.828125 
Q 39.65625 40.375 33.015625 40.375 
z
M 52.59375 71.296875 
L 52.59375 62.3125 
Q 48.875 64.0625 45.09375 64.984375 
Q 41.3125 65.921875 37.59375 65.921875 
Q 27.828125 65.921875 22.671875 59.328125 
Q 17.53125 52.734375 16.796875 39.40625 
Q 19.671875 43.65625 24.015625 45.921875 
Q 28.375 48.1875 33.59375 48.1875 
Q 44.578125 48.1875 50.953125 41.515625 
Q 57.328125 34.859375 57.328125 23.390625 
Q 57.328125 12.15625 50.6875 5.359375 
Q 44.046875 -1.421875 33.015625 -1.421875 
Q 20.359375 -1.421875 13.671875 8.265625 
Q 6.984375 17.96875 6.984375 36.375 
Q 6.984375 53.65625 15.1875 63.9375 
Q 23.390625 74.21875 37.203125 74.21875 
Q 40.921875 74.21875 44.703125 73.484375 
Q 48.484375 72.75 52.59375 71.296875 
z
" id="DejaVuSans-54"/>
      </defs>
      <g transform="translate(20.595 19.908567)scale(0.1 -0.1)">
       <use xlink:href="#DejaVuSans-54"/>
       <use x="63.623047" xlink:href="#DejaVuSans-48"/>
      </g>
     </g>
    </g>
    <g id="text_5">
     <!-- Area ($mm^2$) -->
     <defs>
      <path d="M 34.1875 63.1875 
L 20.796875 26.90625 
L 47.609375 26.90625 
z
M 28.609375 72.90625 
L 39.796875 72.90625 
L 67.578125 0 
L 57.328125 0 
L 50.6875 18.703125 
L 17.828125 18.703125 
L 11.1875 0 
L 0.78125 0 
z
" id="DejaVuSans-65"/>
      <path d="M 41.109375 46.296875 
Q 39.59375 47.171875 37.8125 47.578125 
Q 36.03125 48 33.890625 48 
Q 26.265625 48 22.1875 43.046875 
Q 18.109375 38.09375 18.109375 28.8125 
L 18.109375 0 
L 9.078125 0 
L 9.078125 54.6875 
L 18.109375 54.6875 
L 18.109375 46.1875 
Q 20.953125 51.171875 25.484375 53.578125 
Q 30.03125 56 36.53125 56 
Q 37.453125 56 38.578125 55.875 
Q 39.703125 55.765625 41.0625 55.515625 
z
" id="DejaVuSans-114"/>
      <path d="M 56.203125 29.59375 
L 56.203125 25.203125 
L 14.890625 25.203125 
Q 15.484375 15.921875 20.484375 11.0625 
Q 25.484375 6.203125 34.421875 6.203125 
Q 39.59375 6.203125 44.453125 7.46875 
Q 49.3125 8.734375 54.109375 11.28125 
L 54.109375 2.78125 
Q 49.265625 0.734375 44.1875 -0.34375 
Q 39.109375 -1.421875 33.890625 -1.421875 
Q 20.796875 -1.421875 13.15625 6.1875 
Q 5.515625 13.8125 5.515625 26.8125 
Q 5.515625 40.234375 12.765625 48.109375 
Q 20.015625 56 32.328125 56 
Q 43.359375 56 49.78125 48.890625 
Q 56.203125 41.796875 56.203125 29.59375 
z
M 47.21875 32.234375 
Q 47.125 39.59375 43.09375 43.984375 
Q 39.0625 48.390625 32.421875 48.390625 
Q 24.90625 48.390625 20.390625 44.140625 
Q 15.875 39.890625 15.1875 32.171875 
z
" id="DejaVuSans-101"/>
      <path d="M 34.28125 27.484375 
Q 23.390625 27.484375 19.1875 25 
Q 14.984375 22.515625 14.984375 16.5 
Q 14.984375 11.71875 18.140625 8.90625 
Q 21.296875 6.109375 26.703125 6.109375 
Q 34.1875 6.109375 38.703125 11.40625 
Q 43.21875 16.703125 43.21875 25.484375 
L 43.21875 27.484375 
z
M 52.203125 31.203125 
L 52.203125 0 
L 43.21875 0 
L 43.21875 8.296875 
Q 40.140625 3.328125 35.546875 0.953125 
Q 30.953125 -1.421875 24.3125 -1.421875 
Q 15.921875 -1.421875 10.953125 3.296875 
Q 6 8.015625 6 15.921875 
Q 6 25.140625 12.171875 29.828125 
Q 18.359375 34.515625 30.609375 34.515625 
L 43.21875 34.515625 
L 43.21875 35.40625 
Q 43.21875 41.609375 39.140625 45 
Q 35.0625 48.390625 27.6875 48.390625 
Q 23 48.390625 18.546875 47.265625 
Q 14.109375 46.140625 10.015625 43.890625 
L 10.015625 52.203125 
Q 14.9375 54.109375 19.578125 55.046875 
Q 24.21875 56 28.609375 56 
Q 40.484375 56 46.34375 49.84375 
Q 52.203125 43.703125 52.203125 31.203125 
z
" id="DejaVuSans-97"/>
      <path id="DejaVuSans-32"/>
      <path d="M 31 75.875 
Q 24.46875 64.65625 21.28125 53.65625 
Q 18.109375 42.671875 18.109375 31.390625 
Q 18.109375 20.125 21.3125 9.0625 
Q 24.515625 -2 31 -13.1875 
L 23.1875 -13.1875 
Q 15.875 -1.703125 12.234375 9.375 
Q 8.59375 20.453125 8.59375 31.390625 
Q 8.59375 42.28125 12.203125 53.3125 
Q 15.828125 64.359375 23.1875 75.875 
z
" id="DejaVuSans-40"/>
      <path d="M 89.796875 33.015625 
L 83.40625 0 
L 74.421875 0 
L 80.71875 32.71875 
Q 81.109375 34.8125 81.296875 36.328125 
Q 81.5 37.84375 81.5 38.921875 
Q 81.5 43.3125 79.046875 45.75 
Q 76.609375 48.1875 72.21875 48.1875 
Q 65.671875 48.1875 60.546875 43.28125 
Q 55.421875 38.375 53.90625 30.515625 
L 47.90625 0 
L 38.921875 0 
L 45.3125 32.71875 
Q 45.703125 34.515625 45.890625 36.046875 
Q 46.09375 37.59375 46.09375 38.8125 
Q 46.09375 43.265625 43.65625 45.71875 
Q 41.21875 48.1875 36.921875 48.1875 
Q 30.28125 48.1875 25.140625 43.28125 
Q 20.015625 38.375 18.5 30.515625 
L 12.5 0 
L 3.515625 0 
L 14.203125 54.6875 
L 23.1875 54.6875 
L 21.484375 46.1875 
Q 25.140625 50.984375 30.046875 53.484375 
Q 34.96875 56 40.578125 56 
Q 46.53125 56 50.359375 52.875 
Q 54.203125 49.75 54.984375 44.1875 
Q 59.078125 49.953125 64.46875 52.96875 
Q 69.875 56 75.875 56 
Q 82.90625 56 86.734375 51.953125 
Q 90.578125 47.90625 90.578125 40.484375 
Q 90.578125 38.875 90.375 36.9375 
Q 90.1875 35.015625 89.796875 33.015625 
z
" id="DejaVuSans-Oblique-109"/>
      <path d="M 8.015625 75.875 
L 15.828125 75.875 
Q 23.140625 64.359375 26.78125 53.3125 
Q 30.421875 42.28125 30.421875 31.390625 
Q 30.421875 20.453125 26.78125 9.375 
Q 23.140625 -1.703125 15.828125 -13.1875 
L 8.015625 -13.1875 
Q 14.5 -2 17.703125 9.0625 
Q 20.90625 20.125 20.90625 31.390625 
Q 20.90625 42.671875 17.703125 53.65625 
Q 14.5 64.65625 8.015625 75.875 
z
" id="DejaVuSans-41"/>
     </defs>
     <g transform="translate(14.515312 107.21)rotate(-90)scale(0.1 -0.1)">
      <use transform="translate(0 0.765625)" xlink:href="#DejaVuSans-65"/>
      <use transform="translate(68.408203 0.765625)" xlink:href="#DejaVuSans-114"/>
      <use transform="translate(109.521484 0.765625)" xlink:href="#DejaVuSans-101"/>
      <use transform="translate(171.044922 0.765625)" xlink:href="#DejaVuSans-97"/>
      <use transform="translate(232.324219 0.765625)" xlink:href="#DejaVuSans-32"/>
      <use transform="translate(264.111328 0.765625)" xlink:href="#DejaVuSans-40"/>
      <use transform="translate(303.125 0.765625)" xlink:href="#DejaVuSans-Oblique-109"/>
      <use transform="translate(400.537109 0.765625)" xlink:href="#DejaVuSans-Oblique-109"/>
      <use transform="translate(502.599115 39.046875)scale(0.7)" xlink:href="#DejaVuSans-50"/>
      <use transform="translate(549.869622 0.765625)" xlink:href="#DejaVuSans-41"/>
     </g>
    </g>
   </g>
   <g id="patch_3">
    <path clip-path="url(#p7cfd05d766)" d="M 46.505455 144.72 
L 54.752727 144.72 
L 54.752727 95.26425 
L 46.505455 95.26425 
z
" style="fill:#a6cee3;"/>
   </g>
   <g id="patch_4">
    <path clip-path="url(#p7cfd05d766)" d="M 67.123636 144.72 
L 75.370909 144.72 
L 75.370909 130.039383 
L 67.123636 130.039383 
z
" style="fill:#a6cee3;"/>
   </g>
   <g id="patch_5">
    <path clip-path="url(#p7cfd05d766)" d="M 87.741818 144.72 
L 95.989091 144.72 
L 95.989091 136.448914 
L 87.741818 136.448914 
z
" style="fill:#a6cee3;"/>
   </g>
   <g id="patch_6">
    <path clip-path="url(#p7cfd05d766)" d="M 108.36 144.72 
L 116.607273 144.72 
L 116.607273 130.039383 
L 108.36 130.039383 
z
" style="fill:#a6cee3;"/>
   </g>
   <g id="patch_7">
    <path clip-path="url(#p7cfd05d766)" d="M 128.978182 144.72 
L 137.225455 144.72 
L 137.225455 136.448914 
L 128.978182 136.448914 
z
" style="fill:#a6cee3;"/>
   </g>
   <g id="patch_8">
    <path clip-path="url(#p7cfd05d766)" d="M 149.596364 144.72 
L 157.843636 144.72 
L 157.843636 130.039383 
L 149.596364 130.039383 
z
" style="fill:#a6cee3;"/>
   </g>
   <g id="patch_9">
    <path clip-path="url(#p7cfd05d766)" d="M 170.214545 144.72 
L 178.461818 144.72 
L 178.461818 118.465015 
L 170.214545 118.465015 
z
" style="fill:#a6cee3;"/>
   </g>
   <g id="patch_10">
    <path clip-path="url(#p7cfd05d766)" d="M 190.832727 144.72 
L 199.08 144.72 
L 199.08 129.777386 
L 190.832727 129.777386 
z
" style="fill:#a6cee3;"/>
   </g>
   <g id="patch_11">
    <path clip-path="url(#p7cfd05d766)" d="M 211.450909 144.72 
L 219.698182 144.72 
L 219.698182 118.465015 
L 211.450909 118.465015 
z
" style="fill:#a6cee3;"/>
   </g>
   <g id="patch_12">
    <path clip-path="url(#p7cfd05d766)" d="M 232.069091 144.72 
L 240.316364 144.72 
L 240.316364 129.777386 
L 232.069091 129.777386 
z
" style="fill:#a6cee3;"/>
   </g>
   <g id="patch_13">
    <path clip-path="url(#p7cfd05d766)" d="M 252.687273 144.72 
L 260.934545 144.72 
L 260.934545 118.465015 
L 252.687273 118.465015 
z
" style="fill:#a6cee3;"/>
   </g>
   <g id="patch_14">
    <path clip-path="url(#p7cfd05d766)" d="M 273.305455 144.72 
L 281.552727 144.72 
L 281.552727 116.401653 
L 273.305455 116.401653 
z
" style="fill:#a6cee3;"/>
   </g>
   <g id="patch_15">
    <path clip-path="url(#p7cfd05d766)" d="M 293.923636 144.72 
L 302.170909 144.72 
L 302.170909 116.401653 
L 293.923636 116.401653 
z
" style="fill:#a6cee3;"/>
   </g>
   <g id="patch_16">
    <path clip-path="url(#p7cfd05d766)" d="M 314.541818 144.72 
L 322.789091 144.72 
L 322.789091 95.26425 
L 314.541818 95.26425 
z
" style="fill:#a6cee3;"/>
   </g>
   <g id="patch_17">
    <path clip-path="url(#p7cfd05d766)" d="M 335.16 144.72 
L 343.407273 144.72 
L 343.407273 116.401653 
L 335.16 116.401653 
z
" style="fill:#a6cee3;"/>
   </g>
   <g id="patch_18">
    <path clip-path="url(#p7cfd05d766)" d="M 355.778182 144.72 
L 364.025455 144.72 
L 364.025455 116.401653 
L 355.778182 116.401653 
z
" style="fill:#a6cee3;"/>
   </g>
   <g id="patch_19">
    <path clip-path="url(#p7cfd05d766)" d="M 376.396364 144.72 
L 384.643636 144.72 
L 384.643636 95.26425 
L 376.396364 95.26425 
z
" style="fill:#a6cee3;"/>
   </g>
   <g id="patch_20">
    <path clip-path="url(#p7cfd05d766)" d="M 397.014545 144.72 
L 405.261818 144.72 
L 405.261818 144.72 
L 397.014545 144.72 
z
" style="fill:#a6cee3;"/>
   </g>
   <g id="patch_21">
    <path clip-path="url(#p7cfd05d766)" d="M 417.632727 144.72 
L 425.88 144.72 
L 425.88 144.72 
L 417.632727 144.72 
z
" style="fill:#a6cee3;"/>
   </g>
   <g id="patch_22">
    <path clip-path="url(#p7cfd05d766)" d="M 438.250909 144.72 
L 446.498182 144.72 
L 446.498182 144.72 
L 438.250909 144.72 
z
" style="fill:#a6cee3;"/>
   </g>
   <g id="patch_23">
    <path clip-path="url(#p7cfd05d766)" d="M 458.869091 144.72 
L 467.116364 144.72 
L 467.116364 144.72 
L 458.869091 144.72 
z
" style="fill:#a6cee3;"/>
   </g>
   <g id="patch_24">
    <path clip-path="url(#p7cfd05d766)" d="M 479.487273 144.72 
L 487.734545 144.72 
L 487.734545 144.72 
L 479.487273 144.72 
z
" style="fill:#a6cee3;"/>
   </g>
   <g id="patch_25">
    <path clip-path="url(#p7cfd05d766)" d="M 46.505455 95.26425 
L 54.752727 95.26425 
L 54.752727 95.26425 
L 46.505455 95.26425 
z
" style="fill:url(#hbe3316aba1);"/>
   </g>
   <g id="patch_26">
    <path clip-path="url(#p7cfd05d766)" d="M 67.123636 130.039383 
L 75.370909 130.039383 
L 75.370909 116.510693 
L 67.123636 116.510693 
z
" style="fill:url(#hbe3316aba1);"/>
   </g>
   <g id="patch_27">
    <path clip-path="url(#p7cfd05d766)" d="M 87.741818 136.448914 
L 95.989091 136.448914 
L 95.989091 104.407893 
L 87.741818 104.407893 
z
" style="fill:url(#hbe3316aba1);"/>
   </g>
   <g id="patch_28">
    <path clip-path="url(#p7cfd05d766)" d="M 108.36 130.039383 
L 116.607273 130.039383 
L 116.607273 97.998362 
L 108.36 97.998362 
z
" style="fill:url(#hbe3316aba1);"/>
   </g>
   <g id="patch_29">
    <path clip-path="url(#p7cfd05d766)" d="M 128.978182 136.448914 
L 137.225455 136.448914 
L 137.225455 78.921566 
L 128.978182 78.921566 
z
" style="fill:url(#hbe3316aba1);"/>
   </g>
   <g id="patch_30">
    <path clip-path="url(#p7cfd05d766)" d="M 149.596364 130.039383 
L 157.843636 130.039383 
L 157.843636 72.512035 
L 149.596364 72.512035 
z
" style="fill:url(#hbe3316aba1);"/>
   </g>
   <g id="patch_31">
    <path clip-path="url(#p7cfd05d766)" d="M 170.214545 118.465015 
L 178.461818 118.465015 
L 178.461818 104.936326 
L 170.214545 104.936326 
z
" style="fill:url(#hbe3316aba1);"/>
   </g>
   <g id="patch_32">
    <path clip-path="url(#p7cfd05d766)" d="M 190.832727 129.777386 
L 199.08 129.777386 
L 199.08 97.736365 
L 190.832727 97.736365 
z
" style="fill:url(#hbe3316aba1);"/>
   </g>
   <g id="patch_33">
    <path clip-path="url(#p7cfd05d766)" d="M 211.450909 118.465015 
L 219.698182 118.465015 
L 219.698182 86.423995 
L 211.450909 86.423995 
z
" style="fill:url(#hbe3316aba1);"/>
   </g>
   <g id="patch_34">
    <path clip-path="url(#p7cfd05d766)" d="M 232.069091 129.777386 
L 240.316364 129.777386 
L 240.316364 72.250038 
L 232.069091 72.250038 
z
" style="fill:url(#hbe3316aba1);"/>
   </g>
   <g id="patch_35">
    <path clip-path="url(#p7cfd05d766)" d="M 252.687273 118.465015 
L 260.934545 118.465015 
L 260.934545 60.937667 
L 252.687273 60.937667 
z
" style="fill:url(#hbe3316aba1);"/>
   </g>
   <g id="patch_36">
    <path clip-path="url(#p7cfd05d766)" d="M 273.305455 116.401653 
L 281.552727 116.401653 
L 281.552727 102.872963 
L 273.305455 102.872963 
z
" style="fill:url(#hbe3316aba1);"/>
   </g>
   <g id="patch_37">
    <path clip-path="url(#p7cfd05d766)" d="M 293.923636 116.401653 
L 302.170909 116.401653 
L 302.170909 84.360632 
L 293.923636 84.360632 
z
" style="fill:url(#hbe3316aba1);"/>
   </g>
   <g id="patch_38">
    <path clip-path="url(#p7cfd05d766)" d="M 314.541818 95.26425 
L 322.789091 95.26425 
L 322.789091 63.22323 
L 314.541818 63.22323 
z
" style="fill:url(#hbe3316aba1);"/>
   </g>
   <g id="patch_39">
    <path clip-path="url(#p7cfd05d766)" d="M 335.16 116.401653 
L 343.407273 116.401653 
L 343.407273 90.585957 
L 335.16 90.585957 
z
" style="fill:url(#hbe3316aba1);"/>
   </g>
   <g id="patch_40">
    <path clip-path="url(#p7cfd05d766)" d="M 355.778182 116.401653 
L 364.025455 116.401653 
L 364.025455 58.874305 
L 355.778182 58.874305 
z
" style="fill:url(#hbe3316aba1);"/>
   </g>
   <g id="patch_41">
    <path clip-path="url(#p7cfd05d766)" d="M 376.396364 95.26425 
L 384.643636 95.26425 
L 384.643636 37.736902 
L 376.396364 37.736902 
z
" style="fill:url(#hbe3316aba1);"/>
   </g>
   <g id="patch_42">
    <path clip-path="url(#p7cfd05d766)" d="M 397.014545 144.72 
L 405.261818 144.72 
L 405.261818 131.191311 
L 397.014545 131.191311 
z
" style="fill:url(#hbe3316aba1);"/>
   </g>
   <g id="patch_43">
    <path clip-path="url(#p7cfd05d766)" d="M 417.632727 144.72 
L 425.88 144.72 
L 425.88 112.67898 
L 417.632727 112.67898 
z
" style="fill:url(#hbe3316aba1);"/>
   </g>
   <g id="patch_44">
    <path clip-path="url(#p7cfd05d766)" d="M 438.250909 144.72 
L 446.498182 144.72 
L 446.498182 118.904305 
L 438.250909 118.904305 
z
" style="fill:url(#hbe3316aba1);"/>
   </g>
   <g id="patch_45">
    <path clip-path="url(#p7cfd05d766)" d="M 458.869091 144.72 
L 467.116364 144.72 
L 467.116364 87.192652 
L 458.869091 87.192652 
z
" style="fill:url(#hbe3316aba1);"/>
   </g>
   <g id="patch_46">
    <path clip-path="url(#p7cfd05d766)" d="M 479.487273 144.72 
L 487.734545 144.72 
L 487.734545 95.618828 
L 479.487273 95.618828 
z
" style="fill:url(#hbe3316aba1);"/>
   </g>
   <g id="patch_47">
    <path clip-path="url(#p7cfd05d766)" d="M 46.505455 95.26425 
L 54.752727 95.26425 
L 54.752727 95.26425 
L 46.505455 95.26425 
z
" style="fill:#33a02c;"/>
   </g>
   <g id="patch_48">
    <path clip-path="url(#p7cfd05d766)" d="M 67.123636 116.510693 
L 75.370909 116.510693 
L 75.370909 111.893791 
L 67.123636 111.893791 
z
" style="fill:#33a02c;"/>
   </g>
   <g id="patch_49">
    <path clip-path="url(#p7cfd05d766)" d="M 87.741818 104.407893 
L 95.989091 104.407893 
L 95.989091 99.790992 
L 87.741818 99.790992 
z
" style="fill:#33a02c;"/>
   </g>
   <g id="patch_50">
    <path clip-path="url(#p7cfd05d766)" d="M 108.36 97.998362 
L 116.607273 97.998362 
L 116.607273 93.381461 
L 108.36 93.381461 
z
" style="fill:#33a02c;"/>
   </g>
   <g id="patch_51">
    <path clip-path="url(#p7cfd05d766)" d="M 128.978182 78.921566 
L 137.225455 78.921566 
L 137.225455 74.304664 
L 128.978182 74.304664 
z
" style="fill:#33a02c;"/>
   </g>
   <g id="patch_52">
    <path clip-path="url(#p7cfd05d766)" d="M 149.596364 72.512035 
L 157.843636 72.512035 
L 157.843636 67.895133 
L 149.596364 67.895133 
z
" style="fill:#33a02c;"/>
   </g>
   <g id="patch_53">
    <path clip-path="url(#p7cfd05d766)" d="M 170.214545 104.936326 
L 178.461818 104.936326 
L 178.461818 100.319424 
L 170.214545 100.319424 
z
" style="fill:#33a02c;"/>
   </g>
   <g id="patch_54">
    <path clip-path="url(#p7cfd05d766)" d="M 190.832727 97.736365 
L 199.08 97.736365 
L 199.08 93.119463 
L 190.832727 93.119463 
z
" style="fill:#33a02c;"/>
   </g>
   <g id="patch_55">
    <path clip-path="url(#p7cfd05d766)" d="M 211.450909 86.423995 
L 219.698182 86.423995 
L 219.698182 81.807093 
L 211.450909 81.807093 
z
" style="fill:#33a02c;"/>
   </g>
   <g id="patch_56">
    <path clip-path="url(#p7cfd05d766)" d="M 232.069091 72.250038 
L 240.316364 72.250038 
L 240.316364 67.633136 
L 232.069091 67.633136 
z
" style="fill:#33a02c;"/>
   </g>
   <g id="patch_57">
    <path clip-path="url(#p7cfd05d766)" d="M 252.687273 60.937667 
L 260.934545 60.937667 
L 260.934545 56.320765 
L 252.687273 56.320765 
z
" style="fill:#33a02c;"/>
   </g>
   <g id="patch_58">
    <path clip-path="url(#p7cfd05d766)" d="M 273.305455 102.872963 
L 281.552727 102.872963 
L 281.552727 98.256061 
L 273.305455 98.256061 
z
" style="fill:#33a02c;"/>
   </g>
   <g id="patch_59">
    <path clip-path="url(#p7cfd05d766)" d="M 293.923636 84.360632 
L 302.170909 84.360632 
L 302.170909 79.74373 
L 293.923636 79.74373 
z
" style="fill:#33a02c;"/>
   </g>
   <g id="patch_60">
    <path clip-path="url(#p7cfd05d766)" d="M 314.541818 63.22323 
L 322.789091 63.22323 
L 322.789091 58.606328 
L 314.541818 58.606328 
z
" style="fill:#33a02c;"/>
   </g>
   <g id="patch_61">
    <path clip-path="url(#p7cfd05d766)" d="M 335.16 90.585957 
L 343.407273 90.585957 
L 343.407273 86.825502 
L 335.16 86.825502 
z
" style="fill:#33a02c;"/>
   </g>
   <g id="patch_62">
    <path clip-path="url(#p7cfd05d766)" d="M 355.778182 58.874305 
L 364.025455 58.874305 
L 364.025455 54.257403 
L 355.778182 54.257403 
z
" style="fill:#33a02c;"/>
   </g>
   <g id="patch_63">
    <path clip-path="url(#p7cfd05d766)" d="M 376.396364 37.736902 
L 384.643636 37.736902 
L 384.643636 33.12 
L 376.396364 33.12 
z
" style="fill:#33a02c;"/>
   </g>
   <g id="patch_64">
    <path clip-path="url(#p7cfd05d766)" d="M 397.014545 131.191311 
L 405.261818 131.191311 
L 405.261818 126.574409 
L 397.014545 126.574409 
z
" style="fill:#33a02c;"/>
   </g>
   <g id="patch_65">
    <path clip-path="url(#p7cfd05d766)" d="M 417.632727 112.67898 
L 425.88 112.67898 
L 425.88 108.062078 
L 417.632727 108.062078 
z
" style="fill:#33a02c;"/>
   </g>
   <g id="patch_66">
    <path clip-path="url(#p7cfd05d766)" d="M 438.250909 118.904305 
L 446.498182 118.904305 
L 446.498182 115.143849 
L 438.250909 115.143849 
z
" style="fill:#33a02c;"/>
   </g>
   <g id="patch_67">
    <path clip-path="url(#p7cfd05d766)" d="M 458.869091 87.192652 
L 467.116364 87.192652 
L 467.116364 82.57575 
L 458.869091 82.57575 
z
" style="fill:#33a02c;"/>
   </g>
   <g id="patch_68">
    <path clip-path="url(#p7cfd05d766)" d="M 479.487273 95.618828 
L 487.734545 95.618828 
L 487.734545 91.858373 
L 479.487273 91.858373 
z
" style="fill:#33a02c;"/>
   </g>
   <g id="patch_69">
    <path d="M 40.32 144.72 
L 40.32 10.8 
" style="fill:none;stroke:#000000;stroke-linecap:square;stroke-linejoin:miter;stroke-width:0.8;"/>
   </g>
   <g id="patch_70">
    <path d="M 493.92 144.72 
L 493.92 10.8 
" style="fill:none;stroke:#000000;stroke-linecap:square;stroke-linejoin:miter;stroke-width:0.8;"/>
   </g>
   <g id="patch_71">
    <path d="M 40.32 144.72 
L 493.92 144.72 
" style="fill:none;stroke:#000000;stroke-linecap:square;stroke-linejoin:miter;stroke-width:0.8;"/>
   </g>
   <g id="patch_72">
    <path d="M 40.32 10.8 
L 493.92 10.8 
" style="fill:none;stroke:#000000;stroke-linecap:square;stroke-linejoin:miter;stroke-width:0.8;"/>
   </g>
   <g id="text_6">
    <!-- D -->
    <defs>
     <path d="M 19.671875 64.796875 
L 19.671875 8.109375 
L 31.59375 8.109375 
Q 46.6875 8.109375 53.6875 14.9375 
Q 60.6875 21.78125 60.6875 36.53125 
Q 60.6875 51.171875 53.6875 57.984375 
Q 46.6875 64.796875 31.59375 64.796875 
z
M 9.8125 72.90625 
L 30.078125 72.90625 
Q 51.265625 72.90625 61.171875 64.09375 
Q 71.09375 55.28125 71.09375 36.53125 
Q 71.09375 17.671875 61.125 8.828125 
Q 51.171875 0 30.078125 0 
L 9.8125 0 
z
" id="DejaVuSans-68"/>
    </defs>
    <g transform="translate(47.422041 157.581065)scale(0.0833 -0.0833)">
     <use xlink:href="#DejaVuSans-68"/>
    </g>
   </g>
   <g id="text_7">
    <!-- x0 -->
    <defs>
     <path d="M 54.890625 54.6875 
L 35.109375 28.078125 
L 55.90625 0 
L 45.3125 0 
L 29.390625 21.484375 
L 13.484375 0 
L 2.875 0 
L 24.125 28.609375 
L 4.6875 54.6875 
L 15.28125 54.6875 
L 29.78125 35.203125 
L 44.28125 54.6875 
z
" id="DejaVuSans-120"/>
    </defs>
    <g transform="translate(45.51395 168.29862)scale(0.0833 -0.0833)">
     <use xlink:href="#DejaVuSans-120"/>
     <use x="59.179688" xlink:href="#DejaVuSans-48"/>
    </g>
   </g>
   <g id="text_8">
    <!-- f512 -->
    <defs>
     <path d="M 37.109375 75.984375 
L 37.109375 68.5 
L 28.515625 68.5 
Q 23.6875 68.5 21.796875 66.546875 
Q 19.921875 64.59375 19.921875 59.515625 
L 19.921875 54.6875 
L 34.71875 54.6875 
L 34.71875 47.703125 
L 19.921875 47.703125 
L 19.921875 0 
L 10.890625 0 
L 10.890625 47.703125 
L 2.296875 47.703125 
L 2.296875 54.6875 
L 10.890625 54.6875 
L 10.890625 58.5 
Q 10.890625 67.625 15.140625 71.796875 
Q 19.390625 75.984375 28.609375 75.984375 
z
" id="DejaVuSans-102"/>
     <path d="M 10.796875 72.90625 
L 49.515625 72.90625 
L 49.515625 64.59375 
L 19.828125 64.59375 
L 19.828125 46.734375 
Q 21.96875 47.46875 24.109375 47.828125 
Q 26.265625 48.1875 28.421875 48.1875 
Q 40.625 48.1875 47.75 41.5 
Q 54.890625 34.8125 54.890625 23.390625 
Q 54.890625 11.625 47.5625 5.09375 
Q 40.234375 -1.421875 26.90625 -1.421875 
Q 22.3125 -1.421875 17.546875 -0.640625 
Q 12.796875 0.140625 7.71875 1.703125 
L 7.71875 11.625 
Q 12.109375 9.234375 16.796875 8.0625 
Q 21.484375 6.890625 26.703125 6.890625 
Q 35.15625 6.890625 40.078125 11.328125 
Q 45.015625 15.765625 45.015625 23.390625 
Q 45.015625 31 40.078125 35.4375 
Q 35.15625 39.890625 26.703125 39.890625 
Q 22.75 39.890625 18.8125 39.015625 
Q 14.890625 38.140625 10.796875 36.28125 
z
" id="DejaVuSans-53"/>
     <path d="M 12.40625 8.296875 
L 28.515625 8.296875 
L 28.515625 63.921875 
L 10.984375 60.40625 
L 10.984375 69.390625 
L 28.421875 72.90625 
L 38.28125 72.90625 
L 38.28125 8.296875 
L 54.390625 8.296875 
L 54.390625 0 
L 12.40625 0 
z
" id="DejaVuSans-49"/>
    </defs>
    <g transform="translate(41.212937 179.016174)scale(0.0833 -0.0833)">
     <use xlink:href="#DejaVuSans-102"/>
     <use x="35.205078" xlink:href="#DejaVuSans-53"/>
     <use x="98.828125" xlink:href="#DejaVuSans-49"/>
     <use x="162.451172" xlink:href="#DejaVuSans-50"/>
    </g>
   </g>
   <g id="text_9">
    <!-- v4 -->
    <defs>
     <path d="M 2.984375 54.6875 
L 12.5 54.6875 
L 29.59375 8.796875 
L 46.6875 54.6875 
L 56.203125 54.6875 
L 35.6875 0 
L 23.484375 0 
z
" id="DejaVuSans-118"/>
    </defs>
    <g transform="translate(45.51395 189.733728)scale(0.0833 -0.0833)">
     <use xlink:href="#DejaVuSans-118"/>
     <use x="59.179688" xlink:href="#DejaVuSans-52"/>
    </g>
   </g>
   <g id="text_10">
    <!-- db -->
    <defs>
     <path d="M 45.40625 46.390625 
L 45.40625 75.984375 
L 54.390625 75.984375 
L 54.390625 0 
L 45.40625 0 
L 45.40625 8.203125 
Q 42.578125 3.328125 38.25 0.953125 
Q 33.9375 -1.421875 27.875 -1.421875 
Q 17.96875 -1.421875 11.734375 6.484375 
Q 5.515625 14.40625 5.515625 27.296875 
Q 5.515625 40.1875 11.734375 48.09375 
Q 17.96875 56 27.875 56 
Q 33.9375 56 38.25 53.625 
Q 42.578125 51.265625 45.40625 46.390625 
z
M 14.796875 27.296875 
Q 14.796875 17.390625 18.875 11.75 
Q 22.953125 6.109375 30.078125 6.109375 
Q 37.203125 6.109375 41.296875 11.75 
Q 45.40625 17.390625 45.40625 27.296875 
Q 45.40625 37.203125 41.296875 42.84375 
Q 37.203125 48.484375 30.078125 48.484375 
Q 22.953125 48.484375 18.875 42.84375 
Q 14.796875 37.203125 14.796875 27.296875 
z
" id="DejaVuSans-100"/>
     <path d="M 48.6875 27.296875 
Q 48.6875 37.203125 44.609375 42.84375 
Q 40.53125 48.484375 33.40625 48.484375 
Q 26.265625 48.484375 22.1875 42.84375 
Q 18.109375 37.203125 18.109375 27.296875 
Q 18.109375 17.390625 22.1875 11.75 
Q 26.265625 6.109375 33.40625 6.109375 
Q 40.53125 6.109375 44.609375 11.75 
Q 48.6875 17.390625 48.6875 27.296875 
z
M 18.109375 46.390625 
Q 20.953125 51.265625 25.265625 53.625 
Q 29.59375 56 35.59375 56 
Q 45.5625 56 51.78125 48.09375 
Q 58.015625 40.1875 58.015625 27.296875 
Q 58.015625 14.40625 51.78125 6.484375 
Q 45.5625 -1.421875 35.59375 -1.421875 
Q 29.59375 -1.421875 25.265625 0.953125 
Q 20.953125 3.328125 18.109375 8.203125 
L 18.109375 0 
L 9.078125 0 
L 9.078125 75.984375 
L 18.109375 75.984375 
z
" id="DejaVuSans-98"/>
    </defs>
    <g transform="translate(45.340842 200.451283)scale(0.0833 -0.0833)">
     <use xlink:href="#DejaVuSans-100"/>
     <use x="63.476562" xlink:href="#DejaVuSans-98"/>
    </g>
   </g>
   <g id="text_11">
    <!-- H -->
    <defs>
     <path d="M 9.8125 72.90625 
L 19.671875 72.90625 
L 19.671875 43.015625 
L 55.515625 43.015625 
L 55.515625 72.90625 
L 65.375 72.90625 
L 65.375 0 
L 55.515625 0 
L 55.515625 34.71875 
L 19.671875 34.71875 
L 19.671875 0 
L 9.8125 0 
z
" id="DejaVuSans-72"/>
    </defs>
    <g transform="translate(68.115063 157.581065)scale(0.0833 -0.0833)">
     <use xlink:href="#DejaVuSans-72"/>
    </g>
   </g>
   <g id="text_12">
    <!-- x1 -->
    <g transform="translate(66.132132 168.29862)scale(0.0833 -0.0833)">
     <use xlink:href="#DejaVuSans-120"/>
     <use x="59.179688" xlink:href="#DejaVuSans-49"/>
    </g>
   </g>
   <g id="text_13">
    <!-- f128 -->
    <defs>
     <path d="M 31.78125 34.625 
Q 24.75 34.625 20.71875 30.859375 
Q 16.703125 27.09375 16.703125 20.515625 
Q 16.703125 13.921875 20.71875 10.15625 
Q 24.75 6.390625 31.78125 6.390625 
Q 38.8125 6.390625 42.859375 10.171875 
Q 46.921875 13.96875 46.921875 20.515625 
Q 46.921875 27.09375 42.890625 30.859375 
Q 38.875 34.625 31.78125 34.625 
z
M 21.921875 38.8125 
Q 15.578125 40.375 12.03125 44.71875 
Q 8.5 49.078125 8.5 55.328125 
Q 8.5 64.0625 14.71875 69.140625 
Q 20.953125 74.21875 31.78125 74.21875 
Q 42.671875 74.21875 48.875 69.140625 
Q 55.078125 64.0625 55.078125 55.328125 
Q 55.078125 49.078125 51.53125 44.71875 
Q 48 40.375 41.703125 38.8125 
Q 48.828125 37.15625 52.796875 32.3125 
Q 56.78125 27.484375 56.78125 20.515625 
Q 56.78125 9.90625 50.3125 4.234375 
Q 43.84375 -1.421875 31.78125 -1.421875 
Q 19.734375 -1.421875 13.25 4.234375 
Q 6.78125 9.90625 6.78125 20.515625 
Q 6.78125 27.484375 10.78125 32.3125 
Q 14.796875 37.15625 21.921875 38.8125 
z
M 18.3125 54.390625 
Q 18.3125 48.734375 21.84375 45.5625 
Q 25.390625 42.390625 31.78125 42.390625 
Q 38.140625 42.390625 41.71875 45.5625 
Q 45.3125 48.734375 45.3125 54.390625 
Q 45.3125 60.0625 41.71875 63.234375 
Q 38.140625 66.40625 31.78125 66.40625 
Q 25.390625 66.40625 21.84375 63.234375 
Q 18.3125 60.0625 18.3125 54.390625 
z
" id="DejaVuSans-56"/>
    </defs>
    <g transform="translate(61.831119 179.016174)scale(0.0833 -0.0833)">
     <use xlink:href="#DejaVuSans-102"/>
     <use x="35.205078" xlink:href="#DejaVuSans-49"/>
     <use x="98.828125" xlink:href="#DejaVuSans-50"/>
     <use x="162.451172" xlink:href="#DejaVuSans-56"/>
    </g>
   </g>
   <g id="text_14">
    <!-- v4 -->
    <g transform="translate(66.132132 189.733728)scale(0.0833 -0.0833)">
     <use xlink:href="#DejaVuSans-118"/>
     <use x="59.179688" xlink:href="#DejaVuSans-52"/>
    </g>
   </g>
   <g id="text_15">
    <!-- db -->
    <g transform="translate(65.959024 200.451283)scale(0.0833 -0.0833)">
     <use xlink:href="#DejaVuSans-100"/>
     <use x="63.476562" xlink:href="#DejaVuSans-98"/>
    </g>
   </g>
   <g id="text_16">
    <!-- H -->
    <g transform="translate(88.733244 157.581065)scale(0.0833 -0.0833)">
     <use xlink:href="#DejaVuSans-72"/>
    </g>
   </g>
   <g id="text_17">
    <!-- x2 -->
    <g transform="translate(86.750314 168.29862)scale(0.0833 -0.0833)">
     <use xlink:href="#DejaVuSans-120"/>
     <use x="59.179688" xlink:href="#DejaVuSans-50"/>
    </g>
   </g>
   <g id="text_18">
    <!-- f128 -->
    <g transform="translate(82.449301 179.016174)scale(0.0833 -0.0833)">
     <use xlink:href="#DejaVuSans-102"/>
     <use x="35.205078" xlink:href="#DejaVuSans-49"/>
     <use x="98.828125" xlink:href="#DejaVuSans-50"/>
     <use x="162.451172" xlink:href="#DejaVuSans-56"/>
    </g>
   </g>
   <g id="text_19">
    <!-- v2 -->
    <g transform="translate(86.750314 189.733728)scale(0.0833 -0.0833)">
     <use xlink:href="#DejaVuSans-118"/>
     <use x="59.179688" xlink:href="#DejaVuSans-50"/>
    </g>
   </g>
   <g id="text_20">
    <!-- db -->
    <g transform="translate(86.577206 200.451283)scale(0.0833 -0.0833)">
     <use xlink:href="#DejaVuSans-100"/>
     <use x="63.476562" xlink:href="#DejaVuSans-98"/>
    </g>
   </g>
   <g id="text_21">
    <!-- H -->
    <g transform="translate(109.351426 157.581065)scale(0.0833 -0.0833)">
     <use xlink:href="#DejaVuSans-72"/>
    </g>
   </g>
   <g id="text_22">
    <!-- x2 -->
    <g transform="translate(107.368496 168.29862)scale(0.0833 -0.0833)">
     <use xlink:href="#DejaVuSans-120"/>
     <use x="59.179688" xlink:href="#DejaVuSans-50"/>
    </g>
   </g>
   <g id="text_23">
    <!-- f128 -->
    <g transform="translate(103.067482 179.016174)scale(0.0833 -0.0833)">
     <use xlink:href="#DejaVuSans-102"/>
     <use x="35.205078" xlink:href="#DejaVuSans-49"/>
     <use x="98.828125" xlink:href="#DejaVuSans-50"/>
     <use x="162.451172" xlink:href="#DejaVuSans-56"/>
    </g>
   </g>
   <g id="text_24">
    <!-- v4 -->
    <g transform="translate(107.368496 189.733728)scale(0.0833 -0.0833)">
     <use xlink:href="#DejaVuSans-118"/>
     <use x="59.179688" xlink:href="#DejaVuSans-52"/>
    </g>
   </g>
   <g id="text_25">
    <!-- db -->
    <g transform="translate(107.195388 200.451283)scale(0.0833 -0.0833)">
     <use xlink:href="#DejaVuSans-100"/>
     <use x="63.476562" xlink:href="#DejaVuSans-98"/>
    </g>
   </g>
   <g id="text_26">
    <!-- H -->
    <g transform="translate(129.969608 157.581065)scale(0.0833 -0.0833)">
     <use xlink:href="#DejaVuSans-72"/>
    </g>
   </g>
   <g id="text_27">
    <!-- x3 -->
    <defs>
     <path d="M 40.578125 39.3125 
Q 47.65625 37.796875 51.625 33 
Q 55.609375 28.21875 55.609375 21.1875 
Q 55.609375 10.40625 48.1875 4.484375 
Q 40.765625 -1.421875 27.09375 -1.421875 
Q 22.515625 -1.421875 17.65625 -0.515625 
Q 12.796875 0.390625 7.625 2.203125 
L 7.625 11.71875 
Q 11.71875 9.328125 16.59375 8.109375 
Q 21.484375 6.890625 26.8125 6.890625 
Q 36.078125 6.890625 40.9375 10.546875 
Q 45.796875 14.203125 45.796875 21.1875 
Q 45.796875 27.640625 41.28125 31.265625 
Q 36.765625 34.90625 28.71875 34.90625 
L 20.21875 34.90625 
L 20.21875 43.015625 
L 29.109375 43.015625 
Q 36.375 43.015625 40.234375 45.921875 
Q 44.09375 48.828125 44.09375 54.296875 
Q 44.09375 59.90625 40.109375 62.90625 
Q 36.140625 65.921875 28.71875 65.921875 
Q 24.65625 65.921875 20.015625 65.03125 
Q 15.375 64.15625 9.8125 62.3125 
L 9.8125 71.09375 
Q 15.4375 72.65625 20.34375 73.4375 
Q 25.25 74.21875 29.59375 74.21875 
Q 40.828125 74.21875 47.359375 69.109375 
Q 53.90625 64.015625 53.90625 55.328125 
Q 53.90625 49.265625 50.4375 45.09375 
Q 46.96875 40.921875 40.578125 39.3125 
z
" id="DejaVuSans-51"/>
    </defs>
    <g transform="translate(127.986678 168.29862)scale(0.0833 -0.0833)">
     <use xlink:href="#DejaVuSans-120"/>
     <use x="59.179688" xlink:href="#DejaVuSans-51"/>
    </g>
   </g>
   <g id="text_28">
    <!-- f128 -->
    <g transform="translate(123.685664 179.016174)scale(0.0833 -0.0833)">
     <use xlink:href="#DejaVuSans-102"/>
     <use x="35.205078" xlink:href="#DejaVuSans-49"/>
     <use x="98.828125" xlink:href="#DejaVuSans-50"/>
     <use x="162.451172" xlink:href="#DejaVuSans-56"/>
    </g>
   </g>
   <g id="text_29">
    <!-- v2 -->
    <g transform="translate(127.986678 189.733728)scale(0.0833 -0.0833)">
     <use xlink:href="#DejaVuSans-118"/>
     <use x="59.179688" xlink:href="#DejaVuSans-50"/>
    </g>
   </g>
   <g id="text_30">
    <!-- db -->
    <g transform="translate(127.81357 200.451283)scale(0.0833 -0.0833)">
     <use xlink:href="#DejaVuSans-100"/>
     <use x="63.476562" xlink:href="#DejaVuSans-98"/>
    </g>
   </g>
   <g id="text_31">
    <!-- H -->
    <g transform="translate(150.58779 157.581065)scale(0.0833 -0.0833)">
     <use xlink:href="#DejaVuSans-72"/>
    </g>
   </g>
   <g id="text_32">
    <!-- x3 -->
    <g transform="translate(148.604859 168.29862)scale(0.0833 -0.0833)">
     <use xlink:href="#DejaVuSans-120"/>
     <use x="59.179688" xlink:href="#DejaVuSans-51"/>
    </g>
   </g>
   <g id="text_33">
    <!-- f128 -->
    <g transform="translate(144.303846 179.016174)scale(0.0833 -0.0833)">
     <use xlink:href="#DejaVuSans-102"/>
     <use x="35.205078" xlink:href="#DejaVuSans-49"/>
     <use x="98.828125" xlink:href="#DejaVuSans-50"/>
     <use x="162.451172" xlink:href="#DejaVuSans-56"/>
    </g>
   </g>
   <g id="text_34">
    <!-- v4 -->
    <g transform="translate(148.604859 189.733728)scale(0.0833 -0.0833)">
     <use xlink:href="#DejaVuSans-118"/>
     <use x="59.179688" xlink:href="#DejaVuSans-52"/>
    </g>
   </g>
   <g id="text_35">
    <!-- db -->
    <g transform="translate(148.431752 200.451283)scale(0.0833 -0.0833)">
     <use xlink:href="#DejaVuSans-100"/>
     <use x="63.476562" xlink:href="#DejaVuSans-98"/>
    </g>
   </g>
   <g id="text_36">
    <!-- H -->
    <g transform="translate(171.205972 157.581065)scale(0.0833 -0.0833)">
     <use xlink:href="#DejaVuSans-72"/>
    </g>
   </g>
   <g id="text_37">
    <!-- x1 -->
    <g transform="translate(169.223041 168.29862)scale(0.0833 -0.0833)">
     <use xlink:href="#DejaVuSans-120"/>
     <use x="59.179688" xlink:href="#DejaVuSans-49"/>
    </g>
   </g>
   <g id="text_38">
    <!-- f256 -->
    <g transform="translate(164.922028 179.016174)scale(0.0833 -0.0833)">
     <use xlink:href="#DejaVuSans-102"/>
     <use x="35.205078" xlink:href="#DejaVuSans-50"/>
     <use x="98.828125" xlink:href="#DejaVuSans-53"/>
     <use x="162.451172" xlink:href="#DejaVuSans-54"/>
    </g>
   </g>
   <g id="text_39">
    <!-- v4 -->
    <g transform="translate(169.223041 189.733728)scale(0.0833 -0.0833)">
     <use xlink:href="#DejaVuSans-118"/>
     <use x="59.179688" xlink:href="#DejaVuSans-52"/>
    </g>
   </g>
   <g id="text_40">
    <!-- db -->
    <g transform="translate(169.049933 200.451283)scale(0.0833 -0.0833)">
     <use xlink:href="#DejaVuSans-100"/>
     <use x="63.476562" xlink:href="#DejaVuSans-98"/>
    </g>
   </g>
   <g id="text_41">
    <!-- H -->
    <g transform="translate(191.824153 157.581065)scale(0.0833 -0.0833)">
     <use xlink:href="#DejaVuSans-72"/>
    </g>
   </g>
   <g id="text_42">
    <!-- x2 -->
    <g transform="translate(189.841223 168.29862)scale(0.0833 -0.0833)">
     <use xlink:href="#DejaVuSans-120"/>
     <use x="59.179688" xlink:href="#DejaVuSans-50"/>
    </g>
   </g>
   <g id="text_43">
    <!-- f256 -->
    <g transform="translate(185.54021 179.016174)scale(0.0833 -0.0833)">
     <use xlink:href="#DejaVuSans-102"/>
     <use x="35.205078" xlink:href="#DejaVuSans-50"/>
     <use x="98.828125" xlink:href="#DejaVuSans-53"/>
     <use x="162.451172" xlink:href="#DejaVuSans-54"/>
    </g>
   </g>
   <g id="text_44">
    <!-- v2 -->
    <g transform="translate(189.841223 189.733728)scale(0.0833 -0.0833)">
     <use xlink:href="#DejaVuSans-118"/>
     <use x="59.179688" xlink:href="#DejaVuSans-50"/>
    </g>
   </g>
   <g id="text_45">
    <!-- db -->
    <g transform="translate(189.668115 200.451283)scale(0.0833 -0.0833)">
     <use xlink:href="#DejaVuSans-100"/>
     <use x="63.476562" xlink:href="#DejaVuSans-98"/>
    </g>
   </g>
   <g id="text_46">
    <!-- H -->
    <g transform="translate(212.442335 157.581065)scale(0.0833 -0.0833)">
     <use xlink:href="#DejaVuSans-72"/>
    </g>
   </g>
   <g id="text_47">
    <!-- x2 -->
    <g transform="translate(210.459405 168.29862)scale(0.0833 -0.0833)">
     <use xlink:href="#DejaVuSans-120"/>
     <use x="59.179688" xlink:href="#DejaVuSans-50"/>
    </g>
   </g>
   <g id="text_48">
    <!-- f256 -->
    <g transform="translate(206.158392 179.016174)scale(0.0833 -0.0833)">
     <use xlink:href="#DejaVuSans-102"/>
     <use x="35.205078" xlink:href="#DejaVuSans-50"/>
     <use x="98.828125" xlink:href="#DejaVuSans-53"/>
     <use x="162.451172" xlink:href="#DejaVuSans-54"/>
    </g>
   </g>
   <g id="text_49">
    <!-- v4 -->
    <g transform="translate(210.459405 189.733728)scale(0.0833 -0.0833)">
     <use xlink:href="#DejaVuSans-118"/>
     <use x="59.179688" xlink:href="#DejaVuSans-52"/>
    </g>
   </g>
   <g id="text_50">
    <!-- db -->
    <g transform="translate(210.286297 200.451283)scale(0.0833 -0.0833)">
     <use xlink:href="#DejaVuSans-100"/>
     <use x="63.476562" xlink:href="#DejaVuSans-98"/>
    </g>
   </g>
   <g id="text_51">
    <!-- H -->
    <g transform="translate(233.060517 157.581065)scale(0.0833 -0.0833)">
     <use xlink:href="#DejaVuSans-72"/>
    </g>
   </g>
   <g id="text_52">
    <!-- x3 -->
    <g transform="translate(231.077587 168.29862)scale(0.0833 -0.0833)">
     <use xlink:href="#DejaVuSans-120"/>
     <use x="59.179688" xlink:href="#DejaVuSans-51"/>
    </g>
   </g>
   <g id="text_53">
    <!-- f256 -->
    <g transform="translate(226.776573 179.016174)scale(0.0833 -0.0833)">
     <use xlink:href="#DejaVuSans-102"/>
     <use x="35.205078" xlink:href="#DejaVuSans-50"/>
     <use x="98.828125" xlink:href="#DejaVuSans-53"/>
     <use x="162.451172" xlink:href="#DejaVuSans-54"/>
    </g>
   </g>
   <g id="text_54">
    <!-- v2 -->
    <g transform="translate(231.077587 189.733728)scale(0.0833 -0.0833)">
     <use xlink:href="#DejaVuSans-118"/>
     <use x="59.179688" xlink:href="#DejaVuSans-50"/>
    </g>
   </g>
   <g id="text_55">
    <!-- db -->
    <g transform="translate(230.904479 200.451283)scale(0.0833 -0.0833)">
     <use xlink:href="#DejaVuSans-100"/>
     <use x="63.476562" xlink:href="#DejaVuSans-98"/>
    </g>
   </g>
   <g id="text_56">
    <!-- H -->
    <g transform="translate(253.678699 157.581065)scale(0.0833 -0.0833)">
     <use xlink:href="#DejaVuSans-72"/>
    </g>
   </g>
   <g id="text_57">
    <!-- x3 -->
    <g transform="translate(251.695768 168.29862)scale(0.0833 -0.0833)">
     <use xlink:href="#DejaVuSans-120"/>
     <use x="59.179688" xlink:href="#DejaVuSans-51"/>
    </g>
   </g>
   <g id="text_58">
    <!-- f256 -->
    <g transform="translate(247.394755 179.016174)scale(0.0833 -0.0833)">
     <use xlink:href="#DejaVuSans-102"/>
     <use x="35.205078" xlink:href="#DejaVuSans-50"/>
     <use x="98.828125" xlink:href="#DejaVuSans-53"/>
     <use x="162.451172" xlink:href="#DejaVuSans-54"/>
    </g>
   </g>
   <g id="text_59">
    <!-- v4 -->
    <g transform="translate(251.695768 189.733728)scale(0.0833 -0.0833)">
     <use xlink:href="#DejaVuSans-118"/>
     <use x="59.179688" xlink:href="#DejaVuSans-52"/>
    </g>
   </g>
   <g id="text_60">
    <!-- db -->
    <g transform="translate(251.522661 200.451283)scale(0.0833 -0.0833)">
     <use xlink:href="#DejaVuSans-100"/>
     <use x="63.476562" xlink:href="#DejaVuSans-98"/>
    </g>
   </g>
   <g id="text_61">
    <!-- H -->
    <g transform="translate(274.296881 157.581065)scale(0.0833 -0.0833)">
     <use xlink:href="#DejaVuSans-72"/>
    </g>
   </g>
   <g id="text_62">
    <!-- x1 -->
    <g transform="translate(272.31395 168.29862)scale(0.0833 -0.0833)">
     <use xlink:href="#DejaVuSans-120"/>
     <use x="59.179688" xlink:href="#DejaVuSans-49"/>
    </g>
   </g>
   <g id="text_63">
    <!-- f512 -->
    <g transform="translate(268.012937 179.016174)scale(0.0833 -0.0833)">
     <use xlink:href="#DejaVuSans-102"/>
     <use x="35.205078" xlink:href="#DejaVuSans-53"/>
     <use x="98.828125" xlink:href="#DejaVuSans-49"/>
     <use x="162.451172" xlink:href="#DejaVuSans-50"/>
    </g>
   </g>
   <g id="text_64">
    <!-- v2 -->
    <g transform="translate(272.31395 189.733728)scale(0.0833 -0.0833)">
     <use xlink:href="#DejaVuSans-118"/>
     <use x="59.179688" xlink:href="#DejaVuSans-50"/>
    </g>
   </g>
   <g id="text_65">
    <!-- db -->
    <g transform="translate(272.140842 200.451283)scale(0.0833 -0.0833)">
     <use xlink:href="#DejaVuSans-100"/>
     <use x="63.476562" xlink:href="#DejaVuSans-98"/>
    </g>
   </g>
   <g id="text_66">
    <!-- H -->
    <g transform="translate(294.915063 157.581065)scale(0.0833 -0.0833)">
     <use xlink:href="#DejaVuSans-72"/>
    </g>
   </g>
   <g id="text_67">
    <!-- x2 -->
    <g transform="translate(292.932132 168.29862)scale(0.0833 -0.0833)">
     <use xlink:href="#DejaVuSans-120"/>
     <use x="59.179688" xlink:href="#DejaVuSans-50"/>
    </g>
   </g>
   <g id="text_68">
    <!-- f512 -->
    <g transform="translate(288.631119 179.016174)scale(0.0833 -0.0833)">
     <use xlink:href="#DejaVuSans-102"/>
     <use x="35.205078" xlink:href="#DejaVuSans-53"/>
     <use x="98.828125" xlink:href="#DejaVuSans-49"/>
     <use x="162.451172" xlink:href="#DejaVuSans-50"/>
    </g>
   </g>
   <g id="text_69">
    <!-- v2 -->
    <g transform="translate(292.932132 189.733728)scale(0.0833 -0.0833)">
     <use xlink:href="#DejaVuSans-118"/>
     <use x="59.179688" xlink:href="#DejaVuSans-50"/>
    </g>
   </g>
   <g id="text_70">
    <!-- db -->
    <g transform="translate(292.759024 200.451283)scale(0.0833 -0.0833)">
     <use xlink:href="#DejaVuSans-100"/>
     <use x="63.476562" xlink:href="#DejaVuSans-98"/>
    </g>
   </g>
   <g id="text_71">
    <!-- H -->
    <g transform="translate(315.533244 157.581065)scale(0.0833 -0.0833)">
     <use xlink:href="#DejaVuSans-72"/>
    </g>
   </g>
   <g id="text_72">
    <!-- x2 -->
    <g transform="translate(313.550314 168.29862)scale(0.0833 -0.0833)">
     <use xlink:href="#DejaVuSans-120"/>
     <use x="59.179688" xlink:href="#DejaVuSans-50"/>
    </g>
   </g>
   <g id="text_73">
    <!-- f512 -->
    <g transform="translate(309.249301 179.016174)scale(0.0833 -0.0833)">
     <use xlink:href="#DejaVuSans-102"/>
     <use x="35.205078" xlink:href="#DejaVuSans-53"/>
     <use x="98.828125" xlink:href="#DejaVuSans-49"/>
     <use x="162.451172" xlink:href="#DejaVuSans-50"/>
    </g>
   </g>
   <g id="text_74">
    <!-- v4 -->
    <g transform="translate(313.550314 189.733728)scale(0.0833 -0.0833)">
     <use xlink:href="#DejaVuSans-118"/>
     <use x="59.179688" xlink:href="#DejaVuSans-52"/>
    </g>
   </g>
   <g id="text_75">
    <!-- db -->
    <g transform="translate(313.377206 200.451283)scale(0.0833 -0.0833)">
     <use xlink:href="#DejaVuSans-100"/>
     <use x="63.476562" xlink:href="#DejaVuSans-98"/>
    </g>
   </g>
   <g id="text_76">
    <!-- H -->
    <g transform="translate(336.151426 157.581065)scale(0.0833 -0.0833)">
     <use xlink:href="#DejaVuSans-72"/>
    </g>
   </g>
   <g id="text_77">
    <!-- x2 -->
    <g transform="translate(334.168496 168.29862)scale(0.0833 -0.0833)">
     <use xlink:href="#DejaVuSans-120"/>
     <use x="59.179688" xlink:href="#DejaVuSans-50"/>
    </g>
   </g>
   <g id="text_78">
    <!-- f512 -->
    <g transform="translate(329.867482 179.016174)scale(0.0833 -0.0833)">
     <use xlink:href="#DejaVuSans-102"/>
     <use x="35.205078" xlink:href="#DejaVuSans-53"/>
     <use x="98.828125" xlink:href="#DejaVuSans-49"/>
     <use x="162.451172" xlink:href="#DejaVuSans-50"/>
    </g>
   </g>
   <g id="text_79">
    <!-- v2 -->
    <g transform="translate(334.168496 189.733728)scale(0.0833 -0.0833)">
     <use xlink:href="#DejaVuSans-118"/>
     <use x="59.179688" xlink:href="#DejaVuSans-50"/>
    </g>
   </g>
   <g id="text_80">
    <!-- cd -->
    <defs>
     <path d="M 48.78125 52.59375 
L 48.78125 44.1875 
Q 44.96875 46.296875 41.140625 47.34375 
Q 37.3125 48.390625 33.40625 48.390625 
Q 24.65625 48.390625 19.8125 42.84375 
Q 14.984375 37.3125 14.984375 27.296875 
Q 14.984375 17.28125 19.8125 11.734375 
Q 24.65625 6.203125 33.40625 6.203125 
Q 37.3125 6.203125 41.140625 7.25 
Q 44.96875 8.296875 48.78125 10.40625 
L 48.78125 2.09375 
Q 45.015625 0.34375 40.984375 -0.53125 
Q 36.96875 -1.421875 32.421875 -1.421875 
Q 20.0625 -1.421875 12.78125 6.34375 
Q 5.515625 14.109375 5.515625 27.296875 
Q 5.515625 40.671875 12.859375 48.328125 
Q 20.21875 56 33.015625 56 
Q 37.15625 56 41.109375 55.140625 
Q 45.0625 54.296875 48.78125 52.59375 
z
" id="DejaVuSans-99"/>
    </defs>
    <g transform="translate(334.349413 200.451283)scale(0.0833 -0.0833)">
     <use xlink:href="#DejaVuSans-99"/>
     <use x="54.980469" xlink:href="#DejaVuSans-100"/>
    </g>
   </g>
   <g id="text_81">
    <!-- H -->
    <g transform="translate(356.769608 157.581065)scale(0.0833 -0.0833)">
     <use xlink:href="#DejaVuSans-72"/>
    </g>
   </g>
   <g id="text_82">
    <!-- x3 -->
    <g transform="translate(354.786678 168.29862)scale(0.0833 -0.0833)">
     <use xlink:href="#DejaVuSans-120"/>
     <use x="59.179688" xlink:href="#DejaVuSans-51"/>
    </g>
   </g>
   <g id="text_83">
    <!-- f512 -->
    <g transform="translate(350.485664 179.016174)scale(0.0833 -0.0833)">
     <use xlink:href="#DejaVuSans-102"/>
     <use x="35.205078" xlink:href="#DejaVuSans-53"/>
     <use x="98.828125" xlink:href="#DejaVuSans-49"/>
     <use x="162.451172" xlink:href="#DejaVuSans-50"/>
    </g>
   </g>
   <g id="text_84">
    <!-- v2 -->
    <g transform="translate(354.786678 189.733728)scale(0.0833 -0.0833)">
     <use xlink:href="#DejaVuSans-118"/>
     <use x="59.179688" xlink:href="#DejaVuSans-50"/>
    </g>
   </g>
   <g id="text_85">
    <!-- db -->
    <g transform="translate(354.61357 200.451283)scale(0.0833 -0.0833)">
     <use xlink:href="#DejaVuSans-100"/>
     <use x="63.476562" xlink:href="#DejaVuSans-98"/>
    </g>
   </g>
   <g id="text_86">
    <!-- H -->
    <g transform="translate(377.38779 157.581065)scale(0.0833 -0.0833)">
     <use xlink:href="#DejaVuSans-72"/>
    </g>
   </g>
   <g id="text_87">
    <!-- x3 -->
    <g transform="translate(375.404859 168.29862)scale(0.0833 -0.0833)">
     <use xlink:href="#DejaVuSans-120"/>
     <use x="59.179688" xlink:href="#DejaVuSans-51"/>
    </g>
   </g>
   <g id="text_88">
    <!-- f512 -->
    <g transform="translate(371.103846 179.016174)scale(0.0833 -0.0833)">
     <use xlink:href="#DejaVuSans-102"/>
     <use x="35.205078" xlink:href="#DejaVuSans-53"/>
     <use x="98.828125" xlink:href="#DejaVuSans-49"/>
     <use x="162.451172" xlink:href="#DejaVuSans-50"/>
    </g>
   </g>
   <g id="text_89">
    <!-- v4 -->
    <g transform="translate(375.404859 189.733728)scale(0.0833 -0.0833)">
     <use xlink:href="#DejaVuSans-118"/>
     <use x="59.179688" xlink:href="#DejaVuSans-52"/>
    </g>
   </g>
   <g id="text_90">
    <!-- db -->
    <g transform="translate(375.231752 200.451283)scale(0.0833 -0.0833)">
     <use xlink:href="#DejaVuSans-100"/>
     <use x="63.476562" xlink:href="#DejaVuSans-98"/>
    </g>
   </g>
   <g id="text_91">
    <!-- S -->
    <defs>
     <path d="M 53.515625 70.515625 
L 53.515625 60.890625 
Q 47.90625 63.578125 42.921875 64.890625 
Q 37.9375 66.21875 33.296875 66.21875 
Q 25.25 66.21875 20.875 63.09375 
Q 16.5 59.96875 16.5 54.203125 
Q 16.5 49.359375 19.40625 46.890625 
Q 22.3125 44.4375 30.421875 42.921875 
L 36.375 41.703125 
Q 47.40625 39.59375 52.65625 34.296875 
Q 57.90625 29 57.90625 20.125 
Q 57.90625 9.515625 50.796875 4.046875 
Q 43.703125 -1.421875 29.984375 -1.421875 
Q 24.8125 -1.421875 18.96875 -0.25 
Q 13.140625 0.921875 6.890625 3.21875 
L 6.890625 13.375 
Q 12.890625 10.015625 18.65625 8.296875 
Q 24.421875 6.59375 29.984375 6.59375 
Q 38.421875 6.59375 43.015625 9.90625 
Q 47.609375 13.234375 47.609375 19.390625 
Q 47.609375 24.75 44.3125 27.78125 
Q 41.015625 30.8125 33.5 32.328125 
L 27.484375 33.5 
Q 16.453125 35.6875 11.515625 40.375 
Q 6.59375 45.0625 6.59375 53.421875 
Q 6.59375 63.09375 13.40625 68.65625 
Q 20.21875 74.21875 32.171875 74.21875 
Q 37.3125 74.21875 42.625 73.28125 
Q 47.953125 72.359375 53.515625 70.515625 
z
" id="DejaVuSans-83"/>
    </defs>
    <g transform="translate(398.494058 157.581065)scale(0.0833 -0.0833)">
     <use xlink:href="#DejaVuSans-83"/>
    </g>
   </g>
   <g id="text_92">
    <!-- x1 -->
    <g transform="translate(396.023041 168.29862)scale(0.0833 -0.0833)">
     <use xlink:href="#DejaVuSans-120"/>
     <use x="59.179688" xlink:href="#DejaVuSans-49"/>
    </g>
   </g>
   <g id="text_93">
    <!-- db -->
    <g transform="translate(395.849933 200.451283)scale(0.0833 -0.0833)">
     <use xlink:href="#DejaVuSans-100"/>
     <use x="63.476562" xlink:href="#DejaVuSans-98"/>
    </g>
   </g>
   <g id="text_94">
    <!-- S -->
    <g transform="translate(419.112239 157.581065)scale(0.0833 -0.0833)">
     <use xlink:href="#DejaVuSans-83"/>
    </g>
   </g>
   <g id="text_95">
    <!-- x2 -->
    <g transform="translate(416.641223 168.29862)scale(0.0833 -0.0833)">
     <use xlink:href="#DejaVuSans-120"/>
     <use x="59.179688" xlink:href="#DejaVuSans-50"/>
    </g>
   </g>
   <g id="text_96">
    <!-- db -->
    <g transform="translate(416.468115 200.451283)scale(0.0833 -0.0833)">
     <use xlink:href="#DejaVuSans-100"/>
     <use x="63.476562" xlink:href="#DejaVuSans-98"/>
    </g>
   </g>
   <g id="text_97">
    <!-- S -->
    <g transform="translate(439.730421 157.581065)scale(0.0833 -0.0833)">
     <use xlink:href="#DejaVuSans-83"/>
    </g>
   </g>
   <g id="text_98">
    <!-- x2 -->
    <g transform="translate(437.259405 168.29862)scale(0.0833 -0.0833)">
     <use xlink:href="#DejaVuSans-120"/>
     <use x="59.179688" xlink:href="#DejaVuSans-50"/>
    </g>
   </g>
   <g id="text_99">
    <!-- cd -->
    <g transform="translate(437.440322 200.451283)scale(0.0833 -0.0833)">
     <use xlink:href="#DejaVuSans-99"/>
     <use x="54.980469" xlink:href="#DejaVuSans-100"/>
    </g>
   </g>
   <g id="text_100">
    <!-- S -->
    <g transform="translate(460.348603 157.581065)scale(0.0833 -0.0833)">
     <use xlink:href="#DejaVuSans-83"/>
    </g>
   </g>
   <g id="text_101">
    <!-- x3 -->
    <g transform="translate(457.877587 168.29862)scale(0.0833 -0.0833)">
     <use xlink:href="#DejaVuSans-120"/>
     <use x="59.179688" xlink:href="#DejaVuSans-51"/>
    </g>
   </g>
   <g id="text_102">
    <!-- db -->
    <g transform="translate(457.704479 200.451283)scale(0.0833 -0.0833)">
     <use xlink:href="#DejaVuSans-100"/>
     <use x="63.476562" xlink:href="#DejaVuSans-98"/>
    </g>
   </g>
   <g id="text_103">
    <!-- S -->
    <g transform="translate(480.966785 157.581065)scale(0.0833 -0.0833)">
     <use xlink:href="#DejaVuSans-83"/>
    </g>
   </g>
   <g id="text_104">
    <!-- x3 -->
    <g transform="translate(478.495768 168.29862)scale(0.0833 -0.0833)">
     <use xlink:href="#DejaVuSans-120"/>
     <use x="59.179688" xlink:href="#DejaVuSans-51"/>
    </g>
   </g>
   <g id="text_105">
    <!-- cd -->
    <g transform="translate(478.676686 200.451283)scale(0.0833 -0.0833)">
     <use xlink:href="#DejaVuSans-99"/>
     <use x="54.980469" xlink:href="#DejaVuSans-100"/>
    </g>
   </g>
   <g id="legend_1">
    <g id="patch_73">
     <path d="M 46.151 29.690878 
L 483.024358 29.690878 
Q 484.690358 29.690878 484.690358 28.024878 
L 484.690358 16.631 
Q 484.690358 14.965 483.024358 14.965 
L 46.151 14.965 
Q 44.485 14.965 44.485 16.631 
L 44.485 28.024878 
Q 44.485 29.690878 46.151 29.690878 
z
" style="fill:#ffffff;opacity:0.8;stroke:#cccccc;stroke-linejoin:miter;"/>
    </g>
    <g id="patch_74">
     <path d="M 47.817 24.626498 
L 64.477 24.626498 
L 64.477 18.795498 
L 47.817 18.795498 
z
" style="fill:#a6cee3;"/>
    </g>
    <g id="text_106">
     <!-- total area for routers -->
     <defs>
      <path d="M 18.3125 70.21875 
L 18.3125 54.6875 
L 36.8125 54.6875 
L 36.8125 47.703125 
L 18.3125 47.703125 
L 18.3125 18.015625 
Q 18.3125 11.328125 20.140625 9.421875 
Q 21.96875 7.515625 27.59375 7.515625 
L 36.8125 7.515625 
L 36.8125 0 
L 27.59375 0 
Q 17.1875 0 13.234375 3.875 
Q 9.28125 7.765625 9.28125 18.015625 
L 9.28125 47.703125 
L 2.6875 47.703125 
L 2.6875 54.6875 
L 9.28125 54.6875 
L 9.28125 70.21875 
z
" id="DejaVuSans-116"/>
      <path d="M 30.609375 48.390625 
Q 23.390625 48.390625 19.1875 42.75 
Q 14.984375 37.109375 14.984375 27.296875 
Q 14.984375 17.484375 19.15625 11.84375 
Q 23.34375 6.203125 30.609375 6.203125 
Q 37.796875 6.203125 41.984375 11.859375 
Q 46.1875 17.53125 46.1875 27.296875 
Q 46.1875 37.015625 41.984375 42.703125 
Q 37.796875 48.390625 30.609375 48.390625 
z
M 30.609375 56 
Q 42.328125 56 49.015625 48.375 
Q 55.71875 40.765625 55.71875 27.296875 
Q 55.71875 13.875 49.015625 6.21875 
Q 42.328125 -1.421875 30.609375 -1.421875 
Q 18.84375 -1.421875 12.171875 6.21875 
Q 5.515625 13.875 5.515625 27.296875 
Q 5.515625 40.765625 12.171875 48.375 
Q 18.84375 56 30.609375 56 
z
" id="DejaVuSans-111"/>
      <path d="M 9.421875 75.984375 
L 18.40625 75.984375 
L 18.40625 0 
L 9.421875 0 
z
" id="DejaVuSans-108"/>
      <path d="M 8.5 21.578125 
L 8.5 54.6875 
L 17.484375 54.6875 
L 17.484375 21.921875 
Q 17.484375 14.15625 20.5 10.265625 
Q 23.53125 6.390625 29.59375 6.390625 
Q 36.859375 6.390625 41.078125 11.03125 
Q 45.3125 15.671875 45.3125 23.6875 
L 45.3125 54.6875 
L 54.296875 54.6875 
L 54.296875 0 
L 45.3125 0 
L 45.3125 8.40625 
Q 42.046875 3.421875 37.71875 1 
Q 33.40625 -1.421875 27.6875 -1.421875 
Q 18.265625 -1.421875 13.375 4.4375 
Q 8.5 10.296875 8.5 21.578125 
z
M 31.109375 56 
z
" id="DejaVuSans-117"/>
      <path d="M 44.28125 53.078125 
L 44.28125 44.578125 
Q 40.484375 46.53125 36.375 47.5 
Q 32.28125 48.484375 27.875 48.484375 
Q 21.1875 48.484375 17.84375 46.4375 
Q 14.5 44.390625 14.5 40.28125 
Q 14.5 37.15625 16.890625 35.375 
Q 19.28125 33.59375 26.515625 31.984375 
L 29.59375 31.296875 
Q 39.15625 29.25 43.1875 25.515625 
Q 47.21875 21.78125 47.21875 15.09375 
Q 47.21875 7.46875 41.1875 3.015625 
Q 35.15625 -1.421875 24.609375 -1.421875 
Q 20.21875 -1.421875 15.453125 -0.5625 
Q 10.6875 0.296875 5.421875 2 
L 5.421875 11.28125 
Q 10.40625 8.6875 15.234375 7.390625 
Q 20.0625 6.109375 24.8125 6.109375 
Q 31.15625 6.109375 34.5625 8.28125 
Q 37.984375 10.453125 37.984375 14.40625 
Q 37.984375 18.0625 35.515625 20.015625 
Q 33.0625 21.96875 24.703125 23.78125 
L 21.578125 24.515625 
Q 13.234375 26.265625 9.515625 29.90625 
Q 5.8125 33.546875 5.8125 39.890625 
Q 5.8125 47.609375 11.28125 51.796875 
Q 16.75 56 26.8125 56 
Q 31.78125 56 36.171875 55.265625 
Q 40.578125 54.546875 44.28125 53.078125 
z
" id="DejaVuSans-115"/>
     </defs>
     <g transform="translate(71.141 24.626498)scale(0.0833 -0.0833)">
      <use xlink:href="#DejaVuSans-116"/>
      <use x="39.208984" xlink:href="#DejaVuSans-111"/>
      <use x="100.390625" xlink:href="#DejaVuSans-116"/>
      <use x="139.599609" xlink:href="#DejaVuSans-97"/>
      <use x="200.878906" xlink:href="#DejaVuSans-108"/>
      <use x="228.662109" xlink:href="#DejaVuSans-32"/>
      <use x="260.449219" xlink:href="#DejaVuSans-97"/>
      <use x="321.728516" xlink:href="#DejaVuSans-114"/>
      <use x="362.810547" xlink:href="#DejaVuSans-101"/>
      <use x="424.333984" xlink:href="#DejaVuSans-97"/>
      <use x="485.613281" xlink:href="#DejaVuSans-32"/>
      <use x="517.400391" xlink:href="#DejaVuSans-102"/>
      <use x="552.605469" xlink:href="#DejaVuSans-111"/>
      <use x="613.787109" xlink:href="#DejaVuSans-114"/>
      <use x="654.900391" xlink:href="#DejaVuSans-32"/>
      <use x="686.6875" xlink:href="#DejaVuSans-114"/>
      <use x="727.769531" xlink:href="#DejaVuSans-111"/>
      <use x="788.951172" xlink:href="#DejaVuSans-117"/>
      <use x="852.330078" xlink:href="#DejaVuSans-116"/>
      <use x="891.539062" xlink:href="#DejaVuSans-101"/>
      <use x="953.0625" xlink:href="#DejaVuSans-114"/>
      <use x="994.175781" xlink:href="#DejaVuSans-115"/>
     </g>
    </g>
    <g id="patch_75">
     <path d="M 174.953625 24.626498 
L 191.613625 24.626498 
L 191.613625 18.795498 
L 174.953625 18.795498 
z
" style="fill:url(#hbe3316aba1);"/>
    </g>
    <g id="text_107">
     <!-- total area for vector swtiches -->
     <defs>
      <path d="M 4.203125 54.6875 
L 13.1875 54.6875 
L 24.421875 12.015625 
L 35.59375 54.6875 
L 46.1875 54.6875 
L 57.421875 12.015625 
L 68.609375 54.6875 
L 77.59375 54.6875 
L 63.28125 0 
L 52.6875 0 
L 40.921875 44.828125 
L 29.109375 0 
L 18.5 0 
z
" id="DejaVuSans-119"/>
      <path d="M 9.421875 54.6875 
L 18.40625 54.6875 
L 18.40625 0 
L 9.421875 0 
z
M 9.421875 75.984375 
L 18.40625 75.984375 
L 18.40625 64.59375 
L 9.421875 64.59375 
z
" id="DejaVuSans-105"/>
      <path d="M 54.890625 33.015625 
L 54.890625 0 
L 45.90625 0 
L 45.90625 32.71875 
Q 45.90625 40.484375 42.875 44.328125 
Q 39.84375 48.1875 33.796875 48.1875 
Q 26.515625 48.1875 22.3125 43.546875 
Q 18.109375 38.921875 18.109375 30.90625 
L 18.109375 0 
L 9.078125 0 
L 9.078125 75.984375 
L 18.109375 75.984375 
L 18.109375 46.1875 
Q 21.34375 51.125 25.703125 53.5625 
Q 30.078125 56 35.796875 56 
Q 45.21875 56 50.046875 50.171875 
Q 54.890625 44.34375 54.890625 33.015625 
z
" id="DejaVuSans-104"/>
     </defs>
     <g transform="translate(198.277625 24.626498)scale(0.0833 -0.0833)">
      <use xlink:href="#DejaVuSans-116"/>
      <use x="39.208984" xlink:href="#DejaVuSans-111"/>
      <use x="100.390625" xlink:href="#DejaVuSans-116"/>
      <use x="139.599609" xlink:href="#DejaVuSans-97"/>
      <use x="200.878906" xlink:href="#DejaVuSans-108"/>
      <use x="228.662109" xlink:href="#DejaVuSans-32"/>
      <use x="260.449219" xlink:href="#DejaVuSans-97"/>
      <use x="321.728516" xlink:href="#DejaVuSans-114"/>
      <use x="362.810547" xlink:href="#DejaVuSans-101"/>
      <use x="424.333984" xlink:href="#DejaVuSans-97"/>
      <use x="485.613281" xlink:href="#DejaVuSans-32"/>
      <use x="517.400391" xlink:href="#DejaVuSans-102"/>
      <use x="552.605469" xlink:href="#DejaVuSans-111"/>
      <use x="613.787109" xlink:href="#DejaVuSans-114"/>
      <use x="654.900391" xlink:href="#DejaVuSans-32"/>
      <use x="686.6875" xlink:href="#DejaVuSans-118"/>
      <use x="745.867188" xlink:href="#DejaVuSans-101"/>
      <use x="807.390625" xlink:href="#DejaVuSans-99"/>
      <use x="862.371094" xlink:href="#DejaVuSans-116"/>
      <use x="901.580078" xlink:href="#DejaVuSans-111"/>
      <use x="962.761719" xlink:href="#DejaVuSans-114"/>
      <use x="1003.875" xlink:href="#DejaVuSans-32"/>
      <use x="1035.662109" xlink:href="#DejaVuSans-115"/>
      <use x="1087.761719" xlink:href="#DejaVuSans-119"/>
      <use x="1169.548828" xlink:href="#DejaVuSans-116"/>
      <use x="1208.757812" xlink:href="#DejaVuSans-105"/>
      <use x="1236.541016" xlink:href="#DejaVuSans-99"/>
      <use x="1291.521484" xlink:href="#DejaVuSans-104"/>
      <use x="1354.900391" xlink:href="#DejaVuSans-101"/>
      <use x="1416.423828" xlink:href="#DejaVuSans-115"/>
     </g>
    </g>
    <g id="patch_76">
     <path d="M 337.263675 24.626498 
L 353.923675 24.626498 
L 353.923675 18.795498 
L 337.263675 18.795498 
z
" style="fill:#33a02c;"/>
    </g>
    <g id="text_108">
     <!-- total area for scalar swtiches -->
     <g transform="translate(360.587675 24.626498)scale(0.0833 -0.0833)">
      <use xlink:href="#DejaVuSans-116"/>
      <use x="39.208984" xlink:href="#DejaVuSans-111"/>
      <use x="100.390625" xlink:href="#DejaVuSans-116"/>
      <use x="139.599609" xlink:href="#DejaVuSans-97"/>
      <use x="200.878906" xlink:href="#DejaVuSans-108"/>
      <use x="228.662109" xlink:href="#DejaVuSans-32"/>
      <use x="260.449219" xlink:href="#DejaVuSans-97"/>
      <use x="321.728516" xlink:href="#DejaVuSans-114"/>
      <use x="362.810547" xlink:href="#DejaVuSans-101"/>
      <use x="424.333984" xlink:href="#DejaVuSans-97"/>
      <use x="485.613281" xlink:href="#DejaVuSans-32"/>
      <use x="517.400391" xlink:href="#DejaVuSans-102"/>
      <use x="552.605469" xlink:href="#DejaVuSans-111"/>
      <use x="613.787109" xlink:href="#DejaVuSans-114"/>
      <use x="654.900391" xlink:href="#DejaVuSans-32"/>
      <use x="686.6875" xlink:href="#DejaVuSans-115"/>
      <use x="738.787109" xlink:href="#DejaVuSans-99"/>
      <use x="793.767578" xlink:href="#DejaVuSans-97"/>
      <use x="855.046875" xlink:href="#DejaVuSans-108"/>
      <use x="882.830078" xlink:href="#DejaVuSans-97"/>
      <use x="944.109375" xlink:href="#DejaVuSans-114"/>
      <use x="985.222656" xlink:href="#DejaVuSans-32"/>
      <use x="1017.009766" xlink:href="#DejaVuSans-115"/>
      <use x="1069.109375" xlink:href="#DejaVuSans-119"/>
      <use x="1150.896484" xlink:href="#DejaVuSans-116"/>
      <use x="1190.105469" xlink:href="#DejaVuSans-105"/>
      <use x="1217.888672" xlink:href="#DejaVuSans-99"/>
      <use x="1272.869141" xlink:href="#DejaVuSans-104"/>
      <use x="1336.248047" xlink:href="#DejaVuSans-101"/>
      <use x="1397.771484" xlink:href="#DejaVuSans-115"/>
     </g>
    </g>
   </g>
  </g>
 </g>
 <defs>
  <clipPath id="p7cfd05d766">
   <rect height="133.92" width="453.6" x="40.32" y="10.8"/>
  </clipPath>
 </defs>
 <defs>
  <pattern height="72" id="hbe3316aba1" patternUnits="userSpaceOnUse" width="72" x="0" y="0">
   <rect fill="#1f78b4" height="73" width="73" x="0" y="0"/>
   <path d="M -36 36 
L 36 -36 
M -33 39 
L 39 -33 
M -30 42 
L 42 -30 
M -27 45 
L 45 -27 
M -24 48 
L 48 -24 
M -21 51 
L 51 -21 
M -18 54 
L 54 -18 
M -15 57 
L 57 -15 
M -12 60 
L 60 -12 
M -9 63 
L 63 -9 
M -6 66 
L 66 -6 
M -3 69 
L 69 -3 
M 0 72 
L 72 0 
M 3 75 
L 75 3 
M 6 78 
L 78 6 
M 9 81 
L 81 9 
M 12 84 
L 84 12 
M 15 87 
L 87 15 
M 18 90 
L 90 18 
M 21 93 
L 93 21 
M 24 96 
L 96 24 
M 27 99 
L 99 27 
M 30 102 
L 102 30 
M 33 105 
L 105 33 
M 36 108 
L 108 36 
" style="fill:#000000;stroke:#000000;stroke-linecap:butt;stroke-linejoin:miter;stroke-width:1.0;"/>
  </pattern>
 </defs>
</svg>
