<?xml version="1.0" encoding="utf-8" standalone="no"?>
<!DOCTYPE svg PUBLIC "-//W3C//DTD SVG 1.1//EN"
  "http://www.w3.org/Graphics/SVG/1.1/DTD/svg11.dtd">
<!-- Created with matplotlib (https://matplotlib.org/) -->
<svg height="216pt" version="1.1" viewBox="0 0 504 216" width="504pt" xmlns="http://www.w3.org/2000/svg" xmlns:xlink="http://www.w3.org/1999/xlink">
 <defs>
  <style type="text/css">
*{stroke-linecap:butt;stroke-linejoin:round;white-space:pre;}
  </style>
 </defs>
 <g id="figure_1">
  <g id="patch_1">
   <path d="M 0 216 
L 504 216 
L 504 0 
L 0 0 
z
" style="fill:#ffffff;"/>
  </g>
  <g id="axes_1">
   <g id="patch_2">
    <path d="M 40.32 144.72 
L 493.92 144.72 
L 493.92 10.8 
L 40.32 10.8 
z
" style="fill:#ffffff;"/>
   </g>
   <g id="matplotlib.axis_1">
    <g id="xtick_1">
     <g id="line2d_1">
      <defs>
       <path d="M 0 0 
L 0 3.5 
" id="mdefb0b58e0" style="stroke:#000000;stroke-width:0.8;"/>
      </defs>
      <g>
       <use style="stroke:#000000;stroke-width:0.8;" x="50.629091" xlink:href="#mdefb0b58e0" y="144.72"/>
      </g>
     </g>
    </g>
    <g id="xtick_2">
     <g id="line2d_2">
      <g>
       <use style="stroke:#000000;stroke-width:0.8;" x="71.247273" xlink:href="#mdefb0b58e0" y="144.72"/>
      </g>
     </g>
    </g>
    <g id="xtick_3">
     <g id="line2d_3">
      <g>
       <use style="stroke:#000000;stroke-width:0.8;" x="91.865455" xlink:href="#mdefb0b58e0" y="144.72"/>
      </g>
     </g>
    </g>
    <g id="xtick_4">
     <g id="line2d_4">
      <g>
       <use style="stroke:#000000;stroke-width:0.8;" x="112.483636" xlink:href="#mdefb0b58e0" y="144.72"/>
      </g>
     </g>
    </g>
    <g id="xtick_5">
     <g id="line2d_5">
      <g>
       <use style="stroke:#000000;stroke-width:0.8;" x="133.101818" xlink:href="#mdefb0b58e0" y="144.72"/>
      </g>
     </g>
    </g>
    <g id="xtick_6">
     <g id="line2d_6">
      <g>
       <use style="stroke:#000000;stroke-width:0.8;" x="153.72" xlink:href="#mdefb0b58e0" y="144.72"/>
      </g>
     </g>
    </g>
    <g id="xtick_7">
     <g id="line2d_7">
      <g>
       <use style="stroke:#000000;stroke-width:0.8;" x="174.338182" xlink:href="#mdefb0b58e0" y="144.72"/>
      </g>
     </g>
    </g>
    <g id="xtick_8">
     <g id="line2d_8">
      <g>
       <use style="stroke:#000000;stroke-width:0.8;" x="194.956364" xlink:href="#mdefb0b58e0" y="144.72"/>
      </g>
     </g>
    </g>
    <g id="xtick_9">
     <g id="line2d_9">
      <g>
       <use style="stroke:#000000;stroke-width:0.8;" x="215.574545" xlink:href="#mdefb0b58e0" y="144.72"/>
      </g>
     </g>
    </g>
    <g id="xtick_10">
     <g id="line2d_10">
      <g>
       <use style="stroke:#000000;stroke-width:0.8;" x="236.192727" xlink:href="#mdefb0b58e0" y="144.72"/>
      </g>
     </g>
    </g>
    <g id="xtick_11">
     <g id="line2d_11">
      <g>
       <use style="stroke:#000000;stroke-width:0.8;" x="256.810909" xlink:href="#mdefb0b58e0" y="144.72"/>
      </g>
     </g>
    </g>
    <g id="xtick_12">
     <g id="line2d_12">
      <g>
       <use style="stroke:#000000;stroke-width:0.8;" x="277.429091" xlink:href="#mdefb0b58e0" y="144.72"/>
      </g>
     </g>
    </g>
    <g id="xtick_13">
     <g id="line2d_13">
      <g>
       <use style="stroke:#000000;stroke-width:0.8;" x="298.047273" xlink:href="#mdefb0b58e0" y="144.72"/>
      </g>
     </g>
    </g>
    <g id="xtick_14">
     <g id="line2d_14">
      <g>
       <use style="stroke:#000000;stroke-width:0.8;" x="318.665455" xlink:href="#mdefb0b58e0" y="144.72"/>
      </g>
     </g>
    </g>
    <g id="xtick_15">
     <g id="line2d_15">
      <g>
       <use style="stroke:#000000;stroke-width:0.8;" x="339.283636" xlink:href="#mdefb0b58e0" y="144.72"/>
      </g>
     </g>
    </g>
    <g id="xtick_16">
     <g id="line2d_16">
      <g>
       <use style="stroke:#000000;stroke-width:0.8;" x="359.901818" xlink:href="#mdefb0b58e0" y="144.72"/>
      </g>
     </g>
    </g>
    <g id="xtick_17">
     <g id="line2d_17">
      <g>
       <use style="stroke:#000000;stroke-width:0.8;" x="380.52" xlink:href="#mdefb0b58e0" y="144.72"/>
      </g>
     </g>
    </g>
    <g id="xtick_18">
     <g id="line2d_18">
      <g>
       <use style="stroke:#000000;stroke-width:0.8;" x="401.138182" xlink:href="#mdefb0b58e0" y="144.72"/>
      </g>
     </g>
    </g>
    <g id="xtick_19">
     <g id="line2d_19">
      <g>
       <use style="stroke:#000000;stroke-width:0.8;" x="421.756364" xlink:href="#mdefb0b58e0" y="144.72"/>
      </g>
     </g>
    </g>
    <g id="xtick_20">
     <g id="line2d_20">
      <g>
       <use style="stroke:#000000;stroke-width:0.8;" x="442.374545" xlink:href="#mdefb0b58e0" y="144.72"/>
      </g>
     </g>
    </g>
    <g id="xtick_21">
     <g id="line2d_21">
      <g>
       <use style="stroke:#000000;stroke-width:0.8;" x="462.992727" xlink:href="#mdefb0b58e0" y="144.72"/>
      </g>
     </g>
    </g>
    <g id="xtick_22">
     <g id="line2d_22">
      <g>
       <use style="stroke:#000000;stroke-width:0.8;" x="483.610909" xlink:href="#mdefb0b58e0" y="144.72"/>
      </g>
     </g>
    </g>
   </g>
   <g id="matplotlib.axis_2">
    <g id="ytick_1">
     <g id="line2d_23">
      <path clip-path="url(#p81e1867d13)" d="M 40.32 144.72 
L 493.92 144.72 
" style="fill:none;stroke:#808080;stroke-dasharray:2.96,1.28;stroke-dashoffset:0;stroke-width:0.8;"/>
     </g>
     <g id="line2d_24">
      <defs>
       <path d="M 0 0 
L -3.5 0 
" id="m16c55e1a5b" style="stroke:#000000;stroke-width:0.8;"/>
      </defs>
      <g>
       <use style="stroke:#000000;stroke-width:0.8;" x="40.32" xlink:href="#m16c55e1a5b" y="144.72"/>
      </g>
     </g>
     <g id="text_1">
      <!-- $0$ -->
      <defs>
       <path d="M 42 31.640625 
C 42 37.75 41.90625 48.125 37.703125 56.109375 
C 34 63.109375 28.09375 65.59375 22.90625 65.59375 
C 18.09375 65.59375 12 63.40625 8.203125 56.203125 
C 4.203125 48.71875 3.796875 39.4375 3.796875 31.640625 
C 3.796875 25.953125 3.90625 17.28125 7 9.671875 
C 11.296875 -0.609375 19 -2 22.90625 -2 
C 27.5 -2 34.5 -0.109375 38.59375 9.375 
C 41.59375 16.28125 42 24.359375 42 31.640625 
z
M 22.90625 -0.40625 
C 16.5 -0.40625 12.703125 5.078125 11.296875 12.6875 
C 10.203125 18.5625 10.203125 27.15625 10.203125 32.75 
C 10.203125 40.4375 10.203125 46.828125 11.5 52.921875 
C 13.40625 61.390625 19 64 22.90625 64 
C 27 64 32.296875 61.296875 34.203125 53.125 
C 35.5 47.4375 35.59375 40.734375 35.59375 32.75 
C 35.59375 26.25 35.59375 18.265625 34.40625 12.375 
C 32.296875 1.484375 26.40625 -0.40625 22.90625 -0.40625 
z
" id="CMR17-48"/>
      </defs>
      <g transform="translate(28.338665 148.179249)scale(0.1 -0.1)">
       <use transform="scale(0.996264)" xlink:href="#CMR17-48"/>
      </g>
     </g>
    </g>
    <g id="ytick_2">
     <g id="line2d_25">
      <path clip-path="url(#p81e1867d13)" d="M 40.32 101.849783 
L 493.92 101.849783 
" style="fill:none;stroke:#808080;stroke-dasharray:2.96,1.28;stroke-dashoffset:0;stroke-width:0.8;"/>
     </g>
     <g id="line2d_26">
      <g>
       <use style="stroke:#000000;stroke-width:0.8;" x="40.32" xlink:href="#m16c55e1a5b" y="101.849783"/>
      </g>
     </g>
     <g id="text_2">
      <!-- $20$ -->
      <defs>
       <path d="M 41.703125 15.453125 
L 39.90625 15.453125 
C 38.90625 8.375 38.09375 7.171875 37.703125 6.5625 
C 37.203125 5.765625 30 5.765625 28.59375 5.765625 
L 9.40625 5.765625 
C 13 9.671875 20 16.75 28.5 24.953125 
C 34.59375 30.734375 41.703125 37.53125 41.703125 47.421875 
C 41.703125 59.21875 32.296875 66 21.796875 66 
C 10.796875 66 4.09375 56.3125 4.09375 47.34375 
C 4.09375 43.4375 7 42.9375 8.203125 42.9375 
C 9.203125 42.9375 12.203125 43.546875 12.203125 47.03125 
C 12.203125 50.109375 9.59375 51 8.203125 51 
C 7.59375 51 7 50.90625 6.59375 50.703125 
C 8.5 59.21875 14.296875 63.40625 20.40625 63.40625 
C 29.09375 63.40625 34.796875 56.515625 34.796875 47.421875 
C 34.796875 38.734375 29.703125 31.25 24 24.75 
L 4.09375 2.28125 
L 4.09375 0 
L 39.296875 0 
z
" id="CMR17-50"/>
      </defs>
      <g transform="translate(23.357329 105.309032)scale(0.1 -0.1)">
       <use transform="scale(0.996264)" xlink:href="#CMR17-50"/>
       <use transform="translate(45.690477 0)scale(0.996264)" xlink:href="#CMR17-48"/>
      </g>
     </g>
    </g>
    <g id="ytick_3">
     <g id="line2d_27">
      <path clip-path="url(#p81e1867d13)" d="M 40.32 58.979565 
L 493.92 58.979565 
" style="fill:none;stroke:#808080;stroke-dasharray:2.96,1.28;stroke-dashoffset:0;stroke-width:0.8;"/>
     </g>
     <g id="line2d_28">
      <g>
       <use style="stroke:#000000;stroke-width:0.8;" x="40.32" xlink:href="#m16c55e1a5b" y="58.979565"/>
      </g>
     </g>
     <g id="text_3">
      <!-- $40$ -->
      <defs>
       <path d="M 33.59375 64.40625 
C 33.59375 66.5 33.5 66.5 31.703125 66.5 
L 2 19.59375 
L 2 17 
L 27.796875 17 
L 27.796875 7.140625 
C 27.796875 3.5 27.59375 2.5 20.59375 2.5 
L 18.703125 2.5 
L 18.703125 0 
C 21.90625 0 27.296875 0 30.703125 0 
C 34.09375 0 39.5 0 42.703125 0 
L 42.703125 2.5 
L 40.796875 2.5 
C 33.796875 2.5 33.59375 3.5 33.59375 7.140625 
L 33.59375 17 
L 43.796875 17 
L 43.796875 19.59375 
L 33.59375 19.59375 
z
M 28.09375 57.859375 
L 28.09375 19.59375 
L 4 19.59375 
z
" id="CMR17-52"/>
      </defs>
      <g transform="translate(23.357329 62.438814)scale(0.1 -0.1)">
       <use transform="scale(0.996264)" xlink:href="#CMR17-52"/>
       <use transform="translate(45.690477 0)scale(0.996264)" xlink:href="#CMR17-48"/>
      </g>
     </g>
    </g>
    <g id="ytick_4">
     <g id="line2d_29">
      <path clip-path="url(#p81e1867d13)" d="M 40.32 16.109348 
L 493.92 16.109348 
" style="fill:none;stroke:#808080;stroke-dasharray:2.96,1.28;stroke-dashoffset:0;stroke-width:0.8;"/>
     </g>
     <g id="line2d_30">
      <g>
       <use style="stroke:#000000;stroke-width:0.8;" x="40.32" xlink:href="#m16c55e1a5b" y="16.109348"/>
      </g>
     </g>
     <g id="text_4">
      <!-- $60$ -->
      <defs>
       <path d="M 10.59375 34 
C 10.59375 57.65625 21.796875 63 28.296875 63 
C 30.40625 63 35.5 62.640625 37.5 59 
C 35.90625 59 32.90625 59 32.90625 55.515625 
C 32.90625 52.828125 35.09375 51.921875 36.5 51.921875 
C 37.40625 51.921875 40.09375 52.3125 40.09375 55.625 
C 40.09375 61.78125 35.09375 65.296875 28.203125 65.296875 
C 16.296875 65.296875 3.796875 52.96875 3.796875 31 
C 3.796875 3.953125 15.09375 -2 23.09375 -2 
C 32.796875 -2 42 6.671875 42 20.046875 
C 42 32.515625 33.90625 41.59375 23.703125 41.59375 
C 17.59375 41.59375 13.09375 37.609375 10.59375 30.625 
z
M 23.09375 0.390625 
C 10.796875 0.390625 10.796875 18.75 10.796875 22.4375 
C 10.796875 29.625 14.203125 40 23.5 40 
C 25.203125 40 30.09375 40 33.40625 33.125 
C 35.203125 29.21875 35.203125 25.140625 35.203125 20.140625 
C 35.203125 14.75 35.203125 10.78125 33.09375 6.78125 
C 30.90625 2.671875 27.703125 0.390625 23.09375 0.390625 
z
" id="CMR17-54"/>
      </defs>
      <g transform="translate(23.357329 19.568597)scale(0.1 -0.1)">
       <use transform="scale(0.996264)" xlink:href="#CMR17-54"/>
       <use transform="translate(45.690477 0)scale(0.996264)" xlink:href="#CMR17-48"/>
      </g>
     </g>
    </g>
    <g id="text_5">
     <!-- \textbf{Area ($mm^2$)} -->
     <defs>
      <path d="M 45.796875 67.203125 
C 45.09375 69 44.90625 69.5 42.5 69.5 
C 40 69.5 39.796875 69 39.09375 67.203125 
L 14.296875 6.453125 
C 13.59375 4.859375 13.59375 4.671875 10.796875 4.359375 
C 8.296875 4.0625 7.90625 4.0625 5.703125 4.0625 
L 3.90625 4.0625 
L 3.90625 -0.203125 
C 6.5 0 12.5 0 15.40625 0 
C 18.09375 0 25.40625 0 27.703125 -0.203125 
L 27.703125 4.0625 
C 25.5 4.0625 21.703125 4.0625 18.90625 5.171875 
C 19.203125 6.09375 19.203125 6.28125 19.40625 6.6875 
L 24.703125 19.71875 
L 51.5 19.71875 
L 57.796875 4.0625 
L 48.40625 4.0625 
L 48.40625 0 
C 51.59375 0 61.296875 0 65.09375 0 
C 68.296875 0 78.5 0 81 -0.203125 
L 81 4.0625 
L 71.5 4.0625 
z
M 38.09375 52.609375 
L 49.703125 24 
L 26.40625 24 
z
" id="CMBX12-65"/>
      <path d="M 20.796875 22.046875 
C 20.796875 25.296875 21.5 41 33.203125 41 
C 31.796875 39.921875 31.09375 38.25 31.09375 36.5 
C 31.09375 32.484375 34.40625 30.8125 36.90625 30.8125 
C 39.40625 30.8125 42.703125 32.484375 42.703125 36.515625 
C 42.703125 41.53125 37.5 44.28125 32.703125 44.28125 
C 24.796875 44.28125 21.40625 37.515625 20 33.390625 
L 19.90625 33.390625 
L 19.90625 44 
L 3.5 44 
L 3.5 39.328125 
C 9.703125 39.328125 10.40625 39.328125 10.40625 35.46875 
L 10.40625 4.0625 
L 3.5 4.0625 
L 3.5 -0.203125 
C 5.796875 0 13.296875 0 16.09375 0 
C 19 0 27.09375 0 29.5 -0.203125 
L 29.5 4.0625 
L 20.796875 4.0625 
z
" id="CMBX12-114"/>
      <path d="M 45.203125 22 
C 47.5 22 48.09375 22 48.09375 24.484375 
C 48.09375 27.46875 47.40625 34.890625 42.796875 39.5625 
C 38.59375 43.71875 33 45 27.203125 45 
C 11.59375 45 3.09375 34.890625 3.09375 22.40625 
C 3.09375 8.515625 13.40625 -0.5 28.5 -0.5 
C 43.59375 -0.5 48.09375 10 48.09375 11.6875 
C 48.09375 13.171875 46.59375 13.171875 46 13.171875 
C 44.40625 13.171875 44.296875 12.875 43.703125 11.59375 
C 41.09375 5.15625 34.5 3.078125 29.703125 3.078125 
C 15.203125 3.078125 15.09375 16.453125 15.09375 22 
z
M 15.09375 24.890625 
C 15.296875 28.9375 15.40625 32.8125 17.5 36.375 
C 19.40625 39.546875 22.90625 41.71875 27.203125 41.71875 
C 37.90625 41.71875 38.796875 29.828125 38.90625 24.890625 
z
" id="CMBX12-101"/>
      <path d="M 46 29.65625 
C 46 38.8125 38.703125 44.984375 24.59375 44.984375 
C 19 44.984375 7.203125 44.984375 7.203125 36.46875 
C 7.203125 32.203125 10.40625 30.390625 13.09375 30.390625 
C 16.09375 30.390625 19 32.484375 19 36.296875 
C 19 38.203125 18.296875 39.984375 16.59375 41.09375 
C 19.90625 42 22.296875 42 24.203125 42 
C 31 42 35.09375 38.203125 35.09375 29.984375 
L 35.09375 25.984375 
C 19.296875 25.984375 3.40625 21.59375 3.40625 10.5625 
C 3.40625 1.484375 15 -0.5 21.90625 -0.5 
C 29.59375 -0.5 34.5 3.640625 36.5 7.96875 
C 36.5 4.28125 36.5 0 46.59375 0 
L 51.703125 0 
C 53.796875 0 54.59375 0 54.59375 2.265625 
C 54.59375 4.265625 53.703125 4.265625 52.296875 4.265625 
C 46 4.265625 46 5.84375 46 8.15625 
z
M 35.09375 13.78125 
C 35.09375 4.546875 26.703125 2.78125 23.5 2.78125 
C 18.59375 2.78125 14.5 6.09375 14.5 10.71875 
C 14.5 19.890625 25.296875 23 35.09375 23 
z
" id="CMBX12-97"/>
      <path d="M 37.40625 -23.8125 
C 37.40625 -23.40625 37.40625 -23.203125 35.5 -21.421875 
C 24.296875 -10.296875 20 7.203125 20 24.6875 
C 20 44.28125 24.90625 60.390625 36.09375 71.609375 
C 37.296875 72.796875 37.40625 72.90625 37.40625 73.296875 
C 37.40625 74.5 36.203125 74.5 35.703125 74.5 
C 34.796875 74.5 34.59375 74.5 32 72.40625 
C 17.59375 60.984375 10.796875 42.6875 10.796875 24.8125 
C 10.796875 6.515625 17.703125 -11.28125 31.90625 -22.8125 
C 34.5 -25 34.703125 -25 35.703125 -25 
C 36.203125 -25 37.40625 -25 37.40625 -23.8125 
z
" id="CMBX12-40"/>
      <path d="M 20.59375 29.234375 
C 20.796875 29.84375 23.296875 34.828125 27 38.015625 
C 29.59375 40.40625 33 42.015625 36.90625 42.015625 
C 40.90625 42.015625 42.296875 39.015625 42.296875 35.03125 
C 42.296875 34.421875 42.296875 32.4375 41.09375 27.734375 
L 38.59375 17.46875 
C 37.796875 14.46875 35.90625 7.078125 35.703125 5.984375 
C 35.296875 4.484375 34.703125 1.890625 34.703125 1.5 
C 34.703125 0.09375 35.796875 -1 37.296875 -1 
C 40.296875 -1 40.796875 1.296875 41.703125 4.890625 
L 47.703125 28.734375 
C 47.90625 29.53125 53.09375 42.015625 64.09375 42.015625 
C 68.09375 42.015625 69.5 39.015625 69.5 35.03125 
C 69.5 29.4375 65.59375 18.5625 63.40625 12.578125 
C 62.5 10.171875 62 8.875 62 7.078125 
C 62 2.59375 65.09375 -1 69.90625 -1 
C 79.203125 -1 82.703125 13.671875 82.703125 14.265625 
C 82.703125 14.765625 82.296875 15.171875 81.703125 15.171875 
C 80.796875 15.171875 80.703125 14.875 80.203125 13.171875 
C 77.90625 5.1875 74.203125 1 70.203125 1 
C 69.203125 1 67.59375 1 67.59375 4.203125 
C 67.59375 6.8125 68.796875 10 69.203125 11.09375 
C 71 15.90625 75.5 27.703125 75.5 33.515625 
C 75.5 39.5 72 44 64.40625 44 
C 57.703125 44 52.296875 40.21875 48.296875 34.328125 
C 48 39.71875 44.703125 44 37.203125 44 
C 28.296875 44 23.59375 37.734375 21.796875 35.234375 
C 21.5 40.90625 17.40625 44 13 44 
C 10.09375 44 7.796875 42.609375 5.90625 38.8125 
C 4.09375 35.21875 2.703125 29.140625 2.703125 28.734375 
C 2.703125 28.34375 3.09375 27.84375 3.796875 27.84375 
C 4.59375 27.84375 4.703125 27.9375 5.296875 30.234375 
C 6.796875 36.125 8.703125 42.015625 12.703125 42.015625 
C 15 42.015625 15.796875 40.40625 15.796875 37.421875 
C 15.796875 35.21875 14.796875 31.328125 14.09375 28.234375 
L 11.296875 17.46875 
C 10.90625 15.5625 9.796875 11.078125 9.296875 9.28125 
C 8.59375 6.6875 7.5 2 7.5 1.5 
C 7.5 0.09375 8.59375 -1 10.09375 -1 
C 11.296875 -1 12.703125 -0.40625 13.5 1.09375 
C 13.703125 1.59375 14.59375 5.09375 15.09375 7.078125 
L 17.296875 16.0625 
z
" id="CMMI12-109"/>
      <path d="M 32.796875 24.703125 
C 32.796875 42.984375 25.90625 60.78125 11.703125 72.3125 
C 9.09375 74.5 8.90625 74.5 7.90625 74.5 
C 7.40625 74.5 6.203125 74.5 6.203125 73.3125 
C 6.203125 72.921875 6.203125 72.71875 8.09375 70.9375 
C 19.296875 59.796875 23.59375 42.3125 23.59375 24.8125 
C 23.59375 5.21875 18.703125 -10.875 7.5 -22.109375 
C 6.296875 -23.3125 6.203125 -23.40625 6.203125 -23.8125 
C 6.203125 -25 7.40625 -25 7.90625 -25 
C 8.796875 -25 9 -25 11.59375 -22.90625 
C 26 -11.484375 32.796875 6.8125 32.796875 24.703125 
z
" id="CMBX12-41"/>
     </defs>
     <g transform="translate(16.866669 107.207395)rotate(-90)scale(0.1 -0.1)">
      <use transform="scale(0.996264)" xlink:href="#CMBX12-65"/>
      <use transform="translate(84.636395 0)scale(0.996264)" xlink:href="#CMBX12-114"/>
      <use transform="translate(130.413902 0)scale(0.996264)" xlink:href="#CMBX12-101"/>
      <use transform="translate(181.553169 0)scale(0.996264)" xlink:href="#CMBX12-97"/>
      <use transform="translate(273.396258 0)scale(0.996264)" xlink:href="#CMBX12-40"/>
      <use transform="translate(316.982808 0)scale(0.996264)" xlink:href="#CMMI12-109"/>
      <use transform="translate(402.310032 0)scale(0.996264)" xlink:href="#CMMI12-109"/>
      <use transform="translate(487.637257 36.153639)scale(0.697382)" xlink:href="#CMR17-50"/>
      <use transform="translate(520.118571 0)scale(0.996264)" xlink:href="#CMBX12-41"/>
     </g>
    </g>
   </g>
   <g id="patch_3">
    <path clip-path="url(#p81e1867d13)" d="M 46.505455 144.72 
L 54.752727 144.72 
L 54.752727 95.26425 
L 46.505455 95.26425 
z
" style="fill:#a6cee3;"/>
   </g>
   <g id="patch_4">
    <path clip-path="url(#p81e1867d13)" d="M 67.123636 144.72 
L 75.370909 144.72 
L 75.370909 130.039383 
L 67.123636 130.039383 
z
" style="fill:#a6cee3;"/>
   </g>
   <g id="patch_5">
    <path clip-path="url(#p81e1867d13)" d="M 87.741818 144.72 
L 95.989091 144.72 
L 95.989091 136.448914 
L 87.741818 136.448914 
z
" style="fill:#a6cee3;"/>
   </g>
   <g id="patch_6">
    <path clip-path="url(#p81e1867d13)" d="M 108.36 144.72 
L 116.607273 144.72 
L 116.607273 130.039383 
L 108.36 130.039383 
z
" style="fill:#a6cee3;"/>
   </g>
   <g id="patch_7">
    <path clip-path="url(#p81e1867d13)" d="M 128.978182 144.72 
L 137.225455 144.72 
L 137.225455 136.448914 
L 128.978182 136.448914 
z
" style="fill:#a6cee3;"/>
   </g>
   <g id="patch_8">
    <path clip-path="url(#p81e1867d13)" d="M 149.596364 144.72 
L 157.843636 144.72 
L 157.843636 130.039383 
L 149.596364 130.039383 
z
" style="fill:#a6cee3;"/>
   </g>
   <g id="patch_9">
    <path clip-path="url(#p81e1867d13)" d="M 170.214545 144.72 
L 178.461818 144.72 
L 178.461818 118.465015 
L 170.214545 118.465015 
z
" style="fill:#a6cee3;"/>
   </g>
   <g id="patch_10">
    <path clip-path="url(#p81e1867d13)" d="M 190.832727 144.72 
L 199.08 144.72 
L 199.08 129.777386 
L 190.832727 129.777386 
z
" style="fill:#a6cee3;"/>
   </g>
   <g id="patch_11">
    <path clip-path="url(#p81e1867d13)" d="M 211.450909 144.72 
L 219.698182 144.72 
L 219.698182 118.465015 
L 211.450909 118.465015 
z
" style="fill:#a6cee3;"/>
   </g>
   <g id="patch_12">
    <path clip-path="url(#p81e1867d13)" d="M 232.069091 144.72 
L 240.316364 144.72 
L 240.316364 129.777386 
L 232.069091 129.777386 
z
" style="fill:#a6cee3;"/>
   </g>
   <g id="patch_13">
    <path clip-path="url(#p81e1867d13)" d="M 252.687273 144.72 
L 260.934545 144.72 
L 260.934545 118.465015 
L 252.687273 118.465015 
z
" style="fill:#a6cee3;"/>
   </g>
   <g id="patch_14">
    <path clip-path="url(#p81e1867d13)" d="M 273.305455 144.72 
L 281.552727 144.72 
L 281.552727 116.401653 
L 273.305455 116.401653 
z
" style="fill:#a6cee3;"/>
   </g>
   <g id="patch_15">
    <path clip-path="url(#p81e1867d13)" d="M 293.923636 144.72 
L 302.170909 144.72 
L 302.170909 116.401653 
L 293.923636 116.401653 
z
" style="fill:#a6cee3;"/>
   </g>
   <g id="patch_16">
    <path clip-path="url(#p81e1867d13)" d="M 314.541818 144.72 
L 322.789091 144.72 
L 322.789091 95.26425 
L 314.541818 95.26425 
z
" style="fill:#a6cee3;"/>
   </g>
   <g id="patch_17">
    <path clip-path="url(#p81e1867d13)" d="M 335.16 144.72 
L 343.407273 144.72 
L 343.407273 116.401653 
L 335.16 116.401653 
z
" style="fill:#a6cee3;"/>
   </g>
   <g id="patch_18">
    <path clip-path="url(#p81e1867d13)" d="M 355.778182 144.72 
L 364.025455 144.72 
L 364.025455 116.401653 
L 355.778182 116.401653 
z
" style="fill:#a6cee3;"/>
   </g>
   <g id="patch_19">
    <path clip-path="url(#p81e1867d13)" d="M 376.396364 144.72 
L 384.643636 144.72 
L 384.643636 95.26425 
L 376.396364 95.26425 
z
" style="fill:#a6cee3;"/>
   </g>
   <g id="patch_20">
    <path clip-path="url(#p81e1867d13)" d="M 397.014545 144.72 
L 405.261818 144.72 
L 405.261818 144.72 
L 397.014545 144.72 
z
" style="fill:#a6cee3;"/>
   </g>
   <g id="patch_21">
    <path clip-path="url(#p81e1867d13)" d="M 417.632727 144.72 
L 425.88 144.72 
L 425.88 144.72 
L 417.632727 144.72 
z
" style="fill:#a6cee3;"/>
   </g>
   <g id="patch_22">
    <path clip-path="url(#p81e1867d13)" d="M 438.250909 144.72 
L 446.498182 144.72 
L 446.498182 144.72 
L 438.250909 144.72 
z
" style="fill:#a6cee3;"/>
   </g>
   <g id="patch_23">
    <path clip-path="url(#p81e1867d13)" d="M 458.869091 144.72 
L 467.116364 144.72 
L 467.116364 144.72 
L 458.869091 144.72 
z
" style="fill:#a6cee3;"/>
   </g>
   <g id="patch_24">
    <path clip-path="url(#p81e1867d13)" d="M 479.487273 144.72 
L 487.734545 144.72 
L 487.734545 144.72 
L 479.487273 144.72 
z
" style="fill:#a6cee3;"/>
   </g>
   <g id="patch_25">
    <path clip-path="url(#p81e1867d13)" d="M 46.505455 95.26425 
L 54.752727 95.26425 
L 54.752727 95.26425 
L 46.505455 95.26425 
z
" style="fill:url(#hab2a23fbc4);"/>
   </g>
   <g id="patch_26">
    <path clip-path="url(#p81e1867d13)" d="M 67.123636 130.039383 
L 75.370909 130.039383 
L 75.370909 116.510693 
L 67.123636 116.510693 
z
" style="fill:url(#hab2a23fbc4);"/>
   </g>
   <g id="patch_27">
    <path clip-path="url(#p81e1867d13)" d="M 87.741818 136.448914 
L 95.989091 136.448914 
L 95.989091 104.407893 
L 87.741818 104.407893 
z
" style="fill:url(#hab2a23fbc4);"/>
   </g>
   <g id="patch_28">
    <path clip-path="url(#p81e1867d13)" d="M 108.36 130.039383 
L 116.607273 130.039383 
L 116.607273 97.998362 
L 108.36 97.998362 
z
" style="fill:url(#hab2a23fbc4);"/>
   </g>
   <g id="patch_29">
    <path clip-path="url(#p81e1867d13)" d="M 128.978182 136.448914 
L 137.225455 136.448914 
L 137.225455 78.921566 
L 128.978182 78.921566 
z
" style="fill:url(#hab2a23fbc4);"/>
   </g>
   <g id="patch_30">
    <path clip-path="url(#p81e1867d13)" d="M 149.596364 130.039383 
L 157.843636 130.039383 
L 157.843636 72.512035 
L 149.596364 72.512035 
z
" style="fill:url(#hab2a23fbc4);"/>
   </g>
   <g id="patch_31">
    <path clip-path="url(#p81e1867d13)" d="M 170.214545 118.465015 
L 178.461818 118.465015 
L 178.461818 104.936326 
L 170.214545 104.936326 
z
" style="fill:url(#hab2a23fbc4);"/>
   </g>
   <g id="patch_32">
    <path clip-path="url(#p81e1867d13)" d="M 190.832727 129.777386 
L 199.08 129.777386 
L 199.08 97.736365 
L 190.832727 97.736365 
z
" style="fill:url(#hab2a23fbc4);"/>
   </g>
   <g id="patch_33">
    <path clip-path="url(#p81e1867d13)" d="M 211.450909 118.465015 
L 219.698182 118.465015 
L 219.698182 86.423995 
L 211.450909 86.423995 
z
" style="fill:url(#hab2a23fbc4);"/>
   </g>
   <g id="patch_34">
    <path clip-path="url(#p81e1867d13)" d="M 232.069091 129.777386 
L 240.316364 129.777386 
L 240.316364 72.250038 
L 232.069091 72.250038 
z
" style="fill:url(#hab2a23fbc4);"/>
   </g>
   <g id="patch_35">
    <path clip-path="url(#p81e1867d13)" d="M 252.687273 118.465015 
L 260.934545 118.465015 
L 260.934545 60.937667 
L 252.687273 60.937667 
z
" style="fill:url(#hab2a23fbc4);"/>
   </g>
   <g id="patch_36">
    <path clip-path="url(#p81e1867d13)" d="M 273.305455 116.401653 
L 281.552727 116.401653 
L 281.552727 102.872963 
L 273.305455 102.872963 
z
" style="fill:url(#hab2a23fbc4);"/>
   </g>
   <g id="patch_37">
    <path clip-path="url(#p81e1867d13)" d="M 293.923636 116.401653 
L 302.170909 116.401653 
L 302.170909 84.360632 
L 293.923636 84.360632 
z
" style="fill:url(#hab2a23fbc4);"/>
   </g>
   <g id="patch_38">
    <path clip-path="url(#p81e1867d13)" d="M 314.541818 95.26425 
L 322.789091 95.26425 
L 322.789091 63.22323 
L 314.541818 63.22323 
z
" style="fill:url(#hab2a23fbc4);"/>
   </g>
   <g id="patch_39">
    <path clip-path="url(#p81e1867d13)" d="M 335.16 116.401653 
L 343.407273 116.401653 
L 343.407273 90.585957 
L 335.16 90.585957 
z
" style="fill:url(#hab2a23fbc4);"/>
   </g>
   <g id="patch_40">
    <path clip-path="url(#p81e1867d13)" d="M 355.778182 116.401653 
L 364.025455 116.401653 
L 364.025455 58.874305 
L 355.778182 58.874305 
z
" style="fill:url(#hab2a23fbc4);"/>
   </g>
   <g id="patch_41">
    <path clip-path="url(#p81e1867d13)" d="M 376.396364 95.26425 
L 384.643636 95.26425 
L 384.643636 37.736902 
L 376.396364 37.736902 
z
" style="fill:url(#hab2a23fbc4);"/>
   </g>
   <g id="patch_42">
    <path clip-path="url(#p81e1867d13)" d="M 397.014545 144.72 
L 405.261818 144.72 
L 405.261818 131.191311 
L 397.014545 131.191311 
z
" style="fill:url(#hab2a23fbc4);"/>
   </g>
   <g id="patch_43">
    <path clip-path="url(#p81e1867d13)" d="M 417.632727 144.72 
L 425.88 144.72 
L 425.88 112.67898 
L 417.632727 112.67898 
z
" style="fill:url(#hab2a23fbc4);"/>
   </g>
   <g id="patch_44">
    <path clip-path="url(#p81e1867d13)" d="M 438.250909 144.72 
L 446.498182 144.72 
L 446.498182 118.904305 
L 438.250909 118.904305 
z
" style="fill:url(#hab2a23fbc4);"/>
   </g>
   <g id="patch_45">
    <path clip-path="url(#p81e1867d13)" d="M 458.869091 144.72 
L 467.116364 144.72 
L 467.116364 87.192652 
L 458.869091 87.192652 
z
" style="fill:url(#hab2a23fbc4);"/>
   </g>
   <g id="patch_46">
    <path clip-path="url(#p81e1867d13)" d="M 479.487273 144.72 
L 487.734545 144.72 
L 487.734545 95.618828 
L 479.487273 95.618828 
z
" style="fill:url(#hab2a23fbc4);"/>
   </g>
   <g id="patch_47">
    <path clip-path="url(#p81e1867d13)" d="M 46.505455 95.26425 
L 54.752727 95.26425 
L 54.752727 95.26425 
L 46.505455 95.26425 
z
" style="fill:#33a02c;"/>
   </g>
   <g id="patch_48">
    <path clip-path="url(#p81e1867d13)" d="M 67.123636 116.510693 
L 75.370909 116.510693 
L 75.370909 111.893791 
L 67.123636 111.893791 
z
" style="fill:#33a02c;"/>
   </g>
   <g id="patch_49">
    <path clip-path="url(#p81e1867d13)" d="M 87.741818 104.407893 
L 95.989091 104.407893 
L 95.989091 99.790992 
L 87.741818 99.790992 
z
" style="fill:#33a02c;"/>
   </g>
   <g id="patch_50">
    <path clip-path="url(#p81e1867d13)" d="M 108.36 97.998362 
L 116.607273 97.998362 
L 116.607273 93.381461 
L 108.36 93.381461 
z
" style="fill:#33a02c;"/>
   </g>
   <g id="patch_51">
    <path clip-path="url(#p81e1867d13)" d="M 128.978182 78.921566 
L 137.225455 78.921566 
L 137.225455 74.304664 
L 128.978182 74.304664 
z
" style="fill:#33a02c;"/>
   </g>
   <g id="patch_52">
    <path clip-path="url(#p81e1867d13)" d="M 149.596364 72.512035 
L 157.843636 72.512035 
L 157.843636 67.895133 
L 149.596364 67.895133 
z
" style="fill:#33a02c;"/>
   </g>
   <g id="patch_53">
    <path clip-path="url(#p81e1867d13)" d="M 170.214545 104.936326 
L 178.461818 104.936326 
L 178.461818 100.319424 
L 170.214545 100.319424 
z
" style="fill:#33a02c;"/>
   </g>
   <g id="patch_54">
    <path clip-path="url(#p81e1867d13)" d="M 190.832727 97.736365 
L 199.08 97.736365 
L 199.08 93.119463 
L 190.832727 93.119463 
z
" style="fill:#33a02c;"/>
   </g>
   <g id="patch_55">
    <path clip-path="url(#p81e1867d13)" d="M 211.450909 86.423995 
L 219.698182 86.423995 
L 219.698182 81.807093 
L 211.450909 81.807093 
z
" style="fill:#33a02c;"/>
   </g>
   <g id="patch_56">
    <path clip-path="url(#p81e1867d13)" d="M 232.069091 72.250038 
L 240.316364 72.250038 
L 240.316364 67.633136 
L 232.069091 67.633136 
z
" style="fill:#33a02c;"/>
   </g>
   <g id="patch_57">
    <path clip-path="url(#p81e1867d13)" d="M 252.687273 60.937667 
L 260.934545 60.937667 
L 260.934545 56.320765 
L 252.687273 56.320765 
z
" style="fill:#33a02c;"/>
   </g>
   <g id="patch_58">
    <path clip-path="url(#p81e1867d13)" d="M 273.305455 102.872963 
L 281.552727 102.872963 
L 281.552727 98.256061 
L 273.305455 98.256061 
z
" style="fill:#33a02c;"/>
   </g>
   <g id="patch_59">
    <path clip-path="url(#p81e1867d13)" d="M 293.923636 84.360632 
L 302.170909 84.360632 
L 302.170909 79.74373 
L 293.923636 79.74373 
z
" style="fill:#33a02c;"/>
   </g>
   <g id="patch_60">
    <path clip-path="url(#p81e1867d13)" d="M 314.541818 63.22323 
L 322.789091 63.22323 
L 322.789091 58.606328 
L 314.541818 58.606328 
z
" style="fill:#33a02c;"/>
   </g>
   <g id="patch_61">
    <path clip-path="url(#p81e1867d13)" d="M 335.16 90.585957 
L 343.407273 90.585957 
L 343.407273 86.825502 
L 335.16 86.825502 
z
" style="fill:#33a02c;"/>
   </g>
   <g id="patch_62">
    <path clip-path="url(#p81e1867d13)" d="M 355.778182 58.874305 
L 364.025455 58.874305 
L 364.025455 54.257403 
L 355.778182 54.257403 
z
" style="fill:#33a02c;"/>
   </g>
   <g id="patch_63">
    <path clip-path="url(#p81e1867d13)" d="M 376.396364 37.736902 
L 384.643636 37.736902 
L 384.643636 33.12 
L 376.396364 33.12 
z
" style="fill:#33a02c;"/>
   </g>
   <g id="patch_64">
    <path clip-path="url(#p81e1867d13)" d="M 397.014545 131.191311 
L 405.261818 131.191311 
L 405.261818 126.574409 
L 397.014545 126.574409 
z
" style="fill:#33a02c;"/>
   </g>
   <g id="patch_65">
    <path clip-path="url(#p81e1867d13)" d="M 417.632727 112.67898 
L 425.88 112.67898 
L 425.88 108.062078 
L 417.632727 108.062078 
z
" style="fill:#33a02c;"/>
   </g>
   <g id="patch_66">
    <path clip-path="url(#p81e1867d13)" d="M 438.250909 118.904305 
L 446.498182 118.904305 
L 446.498182 115.143849 
L 438.250909 115.143849 
z
" style="fill:#33a02c;"/>
   </g>
   <g id="patch_67">
    <path clip-path="url(#p81e1867d13)" d="M 458.869091 87.192652 
L 467.116364 87.192652 
L 467.116364 82.57575 
L 458.869091 82.57575 
z
" style="fill:#33a02c;"/>
   </g>
   <g id="patch_68">
    <path clip-path="url(#p81e1867d13)" d="M 479.487273 95.618828 
L 487.734545 95.618828 
L 487.734545 91.858373 
L 479.487273 91.858373 
z
" style="fill:#33a02c;"/>
   </g>
   <g id="patch_69">
    <path d="M 40.32 144.72 
L 40.32 10.8 
" style="fill:none;stroke:#000000;stroke-linecap:square;stroke-linejoin:miter;stroke-width:0.8;"/>
   </g>
   <g id="patch_70">
    <path d="M 493.92 144.72 
L 493.92 10.8 
" style="fill:none;stroke:#000000;stroke-linecap:square;stroke-linejoin:miter;stroke-width:0.8;"/>
   </g>
   <g id="patch_71">
    <path d="M 40.32 144.72 
L 493.92 144.72 
" style="fill:none;stroke:#000000;stroke-linecap:square;stroke-linejoin:miter;stroke-width:0.8;"/>
   </g>
   <g id="patch_72">
    <path d="M 40.32 10.8 
L 493.92 10.8 
" style="fill:none;stroke:#000000;stroke-linecap:square;stroke-linejoin:miter;stroke-width:0.8;"/>
   </g>
   <g id="text_6">
    <!-- \textbf{D} -->
    <defs>
     <path d="M 3.796875 68.28125 
L 3.796875 64 
L 14.40625 64 
L 14.40625 4.265625 
L 3.796875 4.265625 
L 3.796875 0 
L 45.90625 0 
C 65.09375 0 79.90625 12.234375 79.90625 33.546875 
C 79.90625 56.046875 64.703125 68.28125 45.90625 68.28125 
z
M 27.09375 4.265625 
L 27.09375 64 
L 42.09375 64 
C 50.796875 64 57.796875 60.625 61.5 55.4375 
C 64.40625 51.359375 66.296875 46.484375 66.296875 33.640625 
C 66.296875 21.984375 64.796875 16.828125 61.296875 12.140625 
C 57.796875 7.546875 51.09375 4.265625 42.09375 4.265625 
z
" id="CMBX12-68"/>
    </defs>
    <g transform="translate(46.738962 157.581065)scale(0.0833 -0.0833)">
     <use transform="scale(0.996264)" xlink:href="#CMBX12-68"/>
    </g>
   </g>
   <g id="text_7">
    <!-- \textbf{x0} -->
    <defs>
     <path d="M 33.703125 24.484375 
L 45.296875 37.734375 
C 46.40625 39.03125 47.296875 39.828125 55.59375 39.828125 
L 55.59375 44 
C 50 44 49.796875 44 46.40625 44 
C 43.5 44 39.203125 44 36.40625 44.09375 
L 36.40625 39.828125 
C 38.296875 39.828125 40.40625 39.328125 40.40625 38.625 
C 40.40625 38.4375 39.90625 37.734375 39.703125 37.53125 
L 31 27.78125 
L 21.09375 39.828125 
L 25.296875 39.828125 
L 25.296875 44.09375 
C 23 44 16.203125 44 13.5 44 
C 10.5 44 5.09375 44 2.296875 44.09375 
L 2.296875 39.828125 
L 9.40625 39.828125 
L 25 20.90625 
L 12 6.265625 
C 10.796875 4.875 10.09375 4.171875 1.796875 4.171875 
L 1.796875 0 
C 7.796875 0 8 0 11.09375 0 
C 14 0 18.203125 0 21 -0.09375 
L 21 4.171875 
C 19.09375 4.171875 17 4.671875 17 5.375 
C 17 5.46875 17 5.5625 17.703125 6.359375 
L 27.703125 17.625 
L 38.796875 4.171875 
L 34.59375 4.171875 
L 34.59375 -0.09375 
C 37 0 43.703125 0 46.5 0 
C 49.5 0 54.796875 0 57.59375 -0.09375 
L 57.59375 4.171875 
L 50.59375 4.171875 
z
" id="CMBX12-120"/>
     <path d="M 51.703125 31.84375 
C 51.703125 41.375 51.703125 65.28125 28.09375 65.28125 
C 4.40625 65.28125 4.40625 41.46875 4.40625 31.84375 
C 4.40625 22.3125 4.40625 -1 28 -1 
C 51.59375 -1 51.703125 22.015625 51.703125 31.84375 
z
M 28.09375 2.28125 
C 24.90625 2.28125 22.5 3.5625 20.5 5.65625 
C 18 8.140625 16.40625 9.703125 16.40625 33.03125 
C 16.40625 39.984375 16.40625 46.3125 17.203125 51.484375 
C 18.59375 61.3125 25.796875 62 28 62 
C 31.203125 62 37.40625 60.515625 38.796875 52.1875 
C 39.703125 47.109375 39.703125 39.078125 39.703125 33.03125 
C 39.703125 9.609375 38.203125 8.234375 35.203125 5.25 
C 33.203125 3.265625 30.5 2.28125 28.09375 2.28125 
z
" id="CMBX12-48"/>
    </defs>
    <g transform="translate(45.404793 168.29862)scale(0.0833 -0.0833)">
     <use transform="scale(0.996264)" xlink:href="#CMBX12-120"/>
     <use transform="translate(59.153176 0)scale(0.996264)" xlink:href="#CMBX12-48"/>
    </g>
   </g>
   <g id="text_8">
    <!-- \textbf{f512} -->
    <defs>
     <path d="M 21.703125 39.734375 
L 33.09375 39.734375 
L 33.09375 44 
L 21.203125 44 
L 21.203125 54.15625 
C 21.203125 64.421875 27.796875 66 31.09375 66 
C 32.203125 66 32.40625 65.890625 33 65.703125 
C 31.5 64.703125 30.59375 63.03125 30.59375 60.96875 
C 30.59375 57.015625 33.796875 55.25 36.40625 55.25 
C 38.59375 55.25 42.203125 56.71875 42.203125 61.078125 
C 42.203125 65.125 38.59375 69.28125 31.5 69.28125 
C 22.40625 69.28125 11.296875 65.515625 11.296875 54.0625 
L 11.296875 44 
L 3.90625 44 
L 3.90625 39.734375 
L 11.296875 39.734375 
L 11.296875 4.0625 
L 4.40625 4.0625 
L 4.40625 -0.203125 
C 6.703125 0 14.203125 0 17 0 
C 19.90625 0 28 0 30.40625 -0.203125 
L 30.40625 4.0625 
L 21.703125 4.0625 
z
" id="CMBX12-102"/>
     <path d="M 15.40625 51.796875 
C 18.796875 51 21.5 51 23 51 
C 25.40625 51 31.09375 51 37.796875 55.109375 
C 40.90625 56.984375 46.09375 61.5 46.09375 63.796875 
C 46.09375 64.296875 46.09375 65.5 44.90625 65.5 
C 44.796875 65.5 44.59375 65.5 43.59375 64.984375 
C 39 63.34375 34.09375 62.21875 28.5 62.21875 
C 22.796875 62.21875 18 63.3125 13.296875 65 
C 12.59375 65.203125 12.296875 65.40625 12 65.40625 
C 10.796875 65.40625 10.796875 64.40625 10.796875 62.71875 
L 10.796875 33.796875 
C 10.796875 31.90625 10.796875 30.8125 12.796875 30.8125 
C 13.796875 30.8125 14 30.921875 14.796875 31.90625 
C 16 33.3125 19.59375 37.71875 28.09375 37.71875 
C 37.296875 37.71875 37.296875 28.359375 37.296875 20.5 
C 37.296875 13.3125 37.296875 2.96875 25 2.96875 
C 21.296875 2.96875 15 4.359375 11.59375 10 
C 16.90625 10 18.203125 13.984375 18.203125 16.171875 
C 18.203125 19.75 15.59375 22.421875 11.90625 22.421875 
C 8.90625 22.421875 5.59375 20.640625 5.59375 15.96875 
C 5.59375 7.34375 13.5 -1 25.40625 -1 
C 40.796875 -1 50.5 7.859375 50.5 20.203125 
C 50.5 32.34375 42.203125 41 28.5 41 
C 24.5 41 19.703125 40.203125 15.40625 37.015625 
z
" id="CMBX12-53"/>
     <path d="M 34.59375 62.109375 
C 34.59375 65 34.40625 65 31.203125 65 
C 23.796875 59 12.703125 59 10.5 59 
L 8.59375 59 
L 8.59375 54.734375 
L 10.5 54.734375 
C 14 54.734375 19.296875 55.328125 23.296875 56.625 
L 23.296875 4.171875 
L 9.40625 4.171875 
L 9.40625 0 
C 13.59375 0 24.09375 0 28.796875 0 
C 33.5 0 44.09375 0 48.296875 0 
L 48.296875 4.171875 
L 34.59375 4.171875 
z
" id="CMBX12-49"/>
     <path d="M 50.5 21.375 
L 46.296875 21.375 
C 46 19.28125 45.296875 13.40625 43.796875 12.421875 
C 43 11.71875 35.203125 11.71875 33.703125 11.71875 
L 18.203125 11.71875 
C 22 14.90625 31.09375 22.46875 32.59375 23.578125 
C 43.703125 31.84375 50.5 36.90625 50.5 46.46875 
C 50.5 58.203125 39.796875 65.28125 26.59375 65.28125 
C 15.296875 65.28125 5.59375 58.90625 5.59375 49.453125 
C 5.59375 44.171875 9.90625 42.6875 12.203125 42.6875 
C 15.296875 42.6875 18.90625 44.765625 18.90625 49.359375 
C 18.90625 53.546875 15.796875 55.625 12.703125 56.03125 
C 16.703125 60.609375 22 61 24.09375 61 
C 33.296875 61 37.703125 53.546875 37.703125 46.375 
C 37.703125 38.609375 32.40625 31.453125 28.296875 27.171875 
L 6.59375 4.578125 
C 5.59375 3.671875 5.59375 3.484375 5.59375 1.6875 
L 5.59375 0 
L 47.59375 0 
z
" id="CMBX12-50"/>
    </defs>
    <g transform="translate(41.451273 179.016174)scale(0.0833 -0.0833)">
     <use transform="scale(0.996264)" xlink:href="#CMBX12-102"/>
     <use transform="translate(34.246575 0)scale(0.996264)" xlink:href="#CMBX12-53"/>
     <use transform="translate(90.286426 0)scale(0.996264)" xlink:href="#CMBX12-49"/>
     <use transform="translate(146.326276 0)scale(0.996264)" xlink:href="#CMBX12-50"/>
    </g>
   </g>
   <g id="text_9">
    <!-- \textbf{v4} -->
    <defs>
     <path d="M 49.5 37.53125 
C 50.203125 39.03125 50.59375 39.828125 56.90625 39.828125 
L 56.90625 44 
C 53.296875 44 53.09375 44 49 44 
C 46.296875 44 46.09375 44 40.40625 44 
L 40.40625 39.828125 
C 43.09375 39.828125 45.296875 39.328125 45.296875 38.625 
C 45.296875 38.53125 45.296875 38.4375 44.796875 37.4375 
L 33.09375 11.921875 
L 20.203125 39.828125 
L 25.703125 39.828125 
L 25.703125 44.09375 
C 23.40625 44 16.40625 44 13.703125 44 
C 10.796875 44 5 44 2.40625 44.09375 
L 2.40625 39.828125 
L 8.703125 39.828125 
L 26.296875 1.890625 
C 27.203125 0 27.40625 -0.5 29.703125 -0.5 
C 31.296875 -0.5 32.09375 -0.296875 33 1.6875 
z
" id="CMBX12-118"/>
     <path d="M 43.296875 15.71875 
L 53 15.71875 
L 53 20 
L 43.296875 20 
L 43.296875 62.609375 
C 43.296875 65.09375 43.203125 65.5 40.703125 65.5 
C 38.90625 65.5 38.703125 65.5 37.5 64 
L 3.09375 20 
L 3.09375 15.71875 
L 31.5 15.71875 
L 31.5 4.171875 
L 20.59375 4.171875 
L 20.59375 0 
C 23.5 0 33.40625 0 37 0 
C 40.40625 0 50.296875 0 53 -0.09375 
L 53 4.171875 
L 43.296875 4.171875 
z
M 32.40625 51.59375 
L 32.40625 20 
L 7.703125 20 
z
" id="CMBX12-52"/>
    </defs>
    <g transform="translate(45.404793 189.733728)scale(0.0833 -0.0833)">
     <use transform="scale(0.996264)" xlink:href="#CMBX12-118"/>
     <use transform="translate(59.153176 0)scale(0.996264)" xlink:href="#CMBX12-52"/>
    </g>
   </g>
   <g id="text_10">
    <!-- \textbf{db} -->
    <defs>
     <path d="M 34.703125 69 
L 34.703125 64.328125 
C 40.90625 64.328125 41.59375 64.328125 41.59375 60.421875 
L 41.59375 40.234375 
C 39.40625 42.125 35 45 28.09375 45 
C 13.90625 45 3.796875 36.21875 3.796875 22.25 
C 3.796875 7.96875 13.703125 -0.5 27 -0.5 
C 32.5 -0.5 37.203125 1.46875 41.09375 4.859375 
L 41.09375 0 
L 58.90625 0 
L 58.90625 4.5625 
C 52.703125 4.5625 52 4.5625 52 8.4375 
L 52 69 
z
M 41.09375 10.328125 
C 36.90625 4.09375 31.796875 2.78125 28.203125 2.78125 
C 15.796875 2.78125 15.796875 15.453125 15.796875 22.046875 
C 15.796875 26.75 15.796875 31.75 18 35.53125 
C 21.09375 41.125 27 41.71875 29.296875 41.71875 
C 33.40625 41.71875 37.796875 39.9375 41.09375 35.5625 
z
" id="CMBX12-100"/>
     <path d="M 20.796875 69 
L 3.5 69 
L 3.5 64.328125 
C 9.703125 64.328125 10.40625 64.328125 10.40625 60.421875 
L 10.40625 0 
L 14.59375 0 
C 16.296875 1.921875 18 3.859375 19.59375 5.875 
C 24.703125 0.59375 30.203125 -0.5 34.203125 -0.5 
C 48 -0.5 58.59375 7.875 58.59375 22.359375 
C 58.59375 36.015625 49.203125 45 35.5 45 
C 29.59375 45 24.90625 43.109375 20.796875 39.921875 
z
M 21.296875 35.125 
C 24.796875 39.921875 30 41.71875 34.203125 41.71875 
C 46.59375 41.71875 46.59375 29.046875 46.59375 22.453125 
C 46.59375 17.953125 46.59375 12.265625 44.203125 8.5625 
C 41.09375 3.765625 36.40625 2.78125 33.203125 2.78125 
C 26.40625 2.78125 22.703125 7.5625 21.296875 9.765625 
z
" id="CMBX12-98"/>
    </defs>
    <g transform="translate(44.981203 200.451283)scale(0.0833 -0.0833)">
     <use transform="scale(0.996264)" xlink:href="#CMBX12-100"/>
     <use transform="translate(62.266501 0)scale(0.996264)" xlink:href="#CMBX12-98"/>
    </g>
   </g>
   <g id="text_11">
    <!-- \textbf{H} -->
    <defs>
     <path d="M 73.5 63.828125 
L 84.09375 63.828125 
L 84.09375 68 
C 81.203125 68 70.5 68 66.90625 68 
C 63.296875 68 52.59375 68 49.703125 68 
L 49.703125 63.828125 
L 60.296875 63.828125 
L 60.296875 37.265625 
L 27.59375 37.265625 
L 27.59375 63.828125 
L 38.203125 63.828125 
L 38.203125 68 
C 35.296875 68 24.59375 68 21 68 
C 17.40625 68 6.703125 68 3.796875 68 
L 3.796875 63.828125 
L 14.40625 63.828125 
L 14.40625 4.171875 
L 3.796875 4.171875 
L 3.796875 0 
C 6.703125 0 17.40625 0 21 0 
C 24.59375 0 35.296875 0 38.203125 0 
L 38.203125 4.171875 
L 27.59375 4.171875 
L 27.59375 33 
L 60.296875 33 
L 60.296875 4.171875 
L 49.703125 4.171875 
L 49.703125 0 
C 52.59375 0 63.296875 0 66.90625 0 
C 70.5 0 81.203125 0 84.09375 0 
L 84.09375 4.171875 
L 73.5 4.171875 
z
" id="CMBX12-72"/>
    </defs>
    <g transform="translate(67.285118 157.581065)scale(0.0833 -0.0833)">
     <use transform="scale(0.996264)" xlink:href="#CMBX12-72"/>
    </g>
   </g>
   <g id="text_12">
    <!-- \textbf{x1} -->
    <g transform="translate(66.022975 168.29862)scale(0.0833 -0.0833)">
     <use transform="scale(0.996264)" xlink:href="#CMBX12-120"/>
     <use transform="translate(59.153176 0)scale(0.996264)" xlink:href="#CMBX12-49"/>
    </g>
   </g>
   <g id="text_13">
    <!-- \textbf{f128} -->
    <defs>
     <path d="M 37.703125 36.921875 
C 42.703125 39.515625 48.296875 43.203125 48.296875 51 
C 48.296875 61.28125 39.09375 65.671875 28.203125 65.671875 
C 14.90625 65.671875 7.796875 58.09375 7.796875 48.40625 
C 7.796875 43.03125 10.5 37.03125 17.90625 33.140625 
C 6.59375 28.140625 4.703125 21.265625 4.703125 16.078125 
C 4.703125 4.59375 14.703125 -1 27.90625 -1 
C 42.703125 -1 51.40625 6.96875 51.40625 18.5625 
C 51.40625 29.4375 42.796875 34.140625 37.703125 36.921875 
z
M 19.703125 47.265625 
C 17.703125 48.375 14.90625 50.671875 14.90625 53.984375 
C 14.90625 62 25.59375 62 27.90625 62 
C 36.40625 62 41.203125 57.53125 41.203125 50.96875 
C 41.203125 46.890625 39.40625 42.609375 33.703125 39.328125 
z
M 22 30.59375 
L 35.796875 22.734375 
C 39.09375 20.84375 43.40625 18.46875 43.40625 13.40625 
C 43.40625 5.453125 35.40625 2.96875 28.203125 2.96875 
C 18.296875 2.96875 12.703125 8.234375 12.703125 16.078125 
C 12.703125 23.328125 17.203125 27.90625 22 30.59375 
z
" id="CMBX12-56"/>
    </defs>
    <g transform="translate(62.069455 179.016174)scale(0.0833 -0.0833)">
     <use transform="scale(0.996264)" xlink:href="#CMBX12-102"/>
     <use transform="translate(34.246575 0)scale(0.996264)" xlink:href="#CMBX12-49"/>
     <use transform="translate(90.286426 0)scale(0.996264)" xlink:href="#CMBX12-50"/>
     <use transform="translate(146.326276 0)scale(0.996264)" xlink:href="#CMBX12-56"/>
    </g>
   </g>
   <g id="text_14">
    <!-- \textbf{v4} -->
    <g transform="translate(66.022975 189.733728)scale(0.0833 -0.0833)">
     <use transform="scale(0.996264)" xlink:href="#CMBX12-118"/>
     <use transform="translate(59.153176 0)scale(0.996264)" xlink:href="#CMBX12-52"/>
    </g>
   </g>
   <g id="text_15">
    <!-- \textbf{db} -->
    <g transform="translate(65.599385 200.451283)scale(0.0833 -0.0833)">
     <use transform="scale(0.996264)" xlink:href="#CMBX12-100"/>
     <use transform="translate(62.266501 0)scale(0.996264)" xlink:href="#CMBX12-98"/>
    </g>
   </g>
   <g id="text_16">
    <!-- \textbf{H} -->
    <g transform="translate(87.9033 157.581065)scale(0.0833 -0.0833)">
     <use transform="scale(0.996264)" xlink:href="#CMBX12-72"/>
    </g>
   </g>
   <g id="text_17">
    <!-- \textbf{x2} -->
    <g transform="translate(86.641157 168.29862)scale(0.0833 -0.0833)">
     <use transform="scale(0.996264)" xlink:href="#CMBX12-120"/>
     <use transform="translate(59.153176 0)scale(0.996264)" xlink:href="#CMBX12-50"/>
    </g>
   </g>
   <g id="text_18">
    <!-- \textbf{f128} -->
    <g transform="translate(82.687637 179.016174)scale(0.0833 -0.0833)">
     <use transform="scale(0.996264)" xlink:href="#CMBX12-102"/>
     <use transform="translate(34.246575 0)scale(0.996264)" xlink:href="#CMBX12-49"/>
     <use transform="translate(90.286426 0)scale(0.996264)" xlink:href="#CMBX12-50"/>
     <use transform="translate(146.326276 0)scale(0.996264)" xlink:href="#CMBX12-56"/>
    </g>
   </g>
   <g id="text_19">
    <!-- \textbf{v2} -->
    <g transform="translate(86.641157 189.733728)scale(0.0833 -0.0833)">
     <use transform="scale(0.996264)" xlink:href="#CMBX12-118"/>
     <use transform="translate(59.153176 0)scale(0.996264)" xlink:href="#CMBX12-50"/>
    </g>
   </g>
   <g id="text_20">
    <!-- \textbf{db} -->
    <g transform="translate(86.217567 200.451283)scale(0.0833 -0.0833)">
     <use transform="scale(0.996264)" xlink:href="#CMBX12-100"/>
     <use transform="translate(62.266501 0)scale(0.996264)" xlink:href="#CMBX12-98"/>
    </g>
   </g>
   <g id="text_21">
    <!-- \textbf{H} -->
    <g transform="translate(108.521482 157.581065)scale(0.0833 -0.0833)">
     <use transform="scale(0.996264)" xlink:href="#CMBX12-72"/>
    </g>
   </g>
   <g id="text_22">
    <!-- \textbf{x2} -->
    <g transform="translate(107.259339 168.29862)scale(0.0833 -0.0833)">
     <use transform="scale(0.996264)" xlink:href="#CMBX12-120"/>
     <use transform="translate(59.153176 0)scale(0.996264)" xlink:href="#CMBX12-50"/>
    </g>
   </g>
   <g id="text_23">
    <!-- \textbf{f128} -->
    <g transform="translate(103.305819 179.016174)scale(0.0833 -0.0833)">
     <use transform="scale(0.996264)" xlink:href="#CMBX12-102"/>
     <use transform="translate(34.246575 0)scale(0.996264)" xlink:href="#CMBX12-49"/>
     <use transform="translate(90.286426 0)scale(0.996264)" xlink:href="#CMBX12-50"/>
     <use transform="translate(146.326276 0)scale(0.996264)" xlink:href="#CMBX12-56"/>
    </g>
   </g>
   <g id="text_24">
    <!-- \textbf{v4} -->
    <g transform="translate(107.259339 189.733728)scale(0.0833 -0.0833)">
     <use transform="scale(0.996264)" xlink:href="#CMBX12-118"/>
     <use transform="translate(59.153176 0)scale(0.996264)" xlink:href="#CMBX12-52"/>
    </g>
   </g>
   <g id="text_25">
    <!-- \textbf{db} -->
    <g transform="translate(106.835749 200.451283)scale(0.0833 -0.0833)">
     <use transform="scale(0.996264)" xlink:href="#CMBX12-100"/>
     <use transform="translate(62.266501 0)scale(0.996264)" xlink:href="#CMBX12-98"/>
    </g>
   </g>
   <g id="text_26">
    <!-- \textbf{H} -->
    <g transform="translate(129.139664 157.581065)scale(0.0833 -0.0833)">
     <use transform="scale(0.996264)" xlink:href="#CMBX12-72"/>
    </g>
   </g>
   <g id="text_27">
    <!-- \textbf{x3} -->
    <defs>
     <path d="M 26.09375 33 
C 37.296875 33 37.296875 22.71875 37.296875 17.984375 
C 37.296875 13.53125 37.296875 3.0625 26.5 3.0625 
C 24.40625 3.0625 17.796875 3.0625 13 6.625 
C 17.296875 7.515625 18.796875 10.59375 18.796875 13.5625 
C 18.796875 17.625 15.90625 20.5 11.796875 20.5 
C 7.59375 20.5 4.703125 17.625 4.703125 13.46875 
C 4.703125 4.34375 14.703125 -1 27 -1 
C 43.5 -1 51.40625 8.015625 51.40625 17.921875 
C 51.40625 22.796875 48.90625 32.203125 33.40625 34.875 
C 42.203125 37.59375 48.296875 43.8125 48.296875 51.71875 
C 48.296875 59.25 41.09375 65.578125 27.203125 65.578125 
C 16 65.578125 7.796875 59.65625 7.796875 51.53125 
C 7.796875 46.515625 11.703125 44.90625 14.296875 44.90625 
C 17.203125 44.90625 20.703125 46.8125 20.703125 51.4375 
C 20.703125 53.765625 19.703125 57.171875 15 57.875 
C 19.203125 62 26 62 26.59375 62 
C 35.5 62 35.5 55.03125 35.5 52.015625 
C 35.5 48.984375 35.09375 44.328125 31.90625 40.203125 
C 29.296875 36.75 26.703125 36.5625 22.90625 36.5625 
C 21.703125 36.265625 19.703125 36.265625 19.296875 36.078125 
C 18.703125 35.78125 18.703125 35.078125 18.703125 34.6875 
C 18.703125 33 19.296875 33 21.296875 33 
z
" id="CMBX12-51"/>
    </defs>
    <g transform="translate(127.87752 168.29862)scale(0.0833 -0.0833)">
     <use transform="scale(0.996264)" xlink:href="#CMBX12-120"/>
     <use transform="translate(59.153176 0)scale(0.996264)" xlink:href="#CMBX12-51"/>
    </g>
   </g>
   <g id="text_28">
    <!-- \textbf{f128} -->
    <g transform="translate(123.924001 179.016174)scale(0.0833 -0.0833)">
     <use transform="scale(0.996264)" xlink:href="#CMBX12-102"/>
     <use transform="translate(34.246575 0)scale(0.996264)" xlink:href="#CMBX12-49"/>
     <use transform="translate(90.286426 0)scale(0.996264)" xlink:href="#CMBX12-50"/>
     <use transform="translate(146.326276 0)scale(0.996264)" xlink:href="#CMBX12-56"/>
    </g>
   </g>
   <g id="text_29">
    <!-- \textbf{v2} -->
    <g transform="translate(127.87752 189.733728)scale(0.0833 -0.0833)">
     <use transform="scale(0.996264)" xlink:href="#CMBX12-118"/>
     <use transform="translate(59.153176 0)scale(0.996264)" xlink:href="#CMBX12-50"/>
    </g>
   </g>
   <g id="text_30">
    <!-- \textbf{db} -->
    <g transform="translate(127.45393 200.451283)scale(0.0833 -0.0833)">
     <use transform="scale(0.996264)" xlink:href="#CMBX12-100"/>
     <use transform="translate(62.266501 0)scale(0.996264)" xlink:href="#CMBX12-98"/>
    </g>
   </g>
   <g id="text_31">
    <!-- \textbf{H} -->
    <g transform="translate(149.757845 157.581065)scale(0.0833 -0.0833)">
     <use transform="scale(0.996264)" xlink:href="#CMBX12-72"/>
    </g>
   </g>
   <g id="text_32">
    <!-- \textbf{x3} -->
    <g transform="translate(148.495702 168.29862)scale(0.0833 -0.0833)">
     <use transform="scale(0.996264)" xlink:href="#CMBX12-120"/>
     <use transform="translate(59.153176 0)scale(0.996264)" xlink:href="#CMBX12-51"/>
    </g>
   </g>
   <g id="text_33">
    <!-- \textbf{f128} -->
    <g transform="translate(144.542182 179.016174)scale(0.0833 -0.0833)">
     <use transform="scale(0.996264)" xlink:href="#CMBX12-102"/>
     <use transform="translate(34.246575 0)scale(0.996264)" xlink:href="#CMBX12-49"/>
     <use transform="translate(90.286426 0)scale(0.996264)" xlink:href="#CMBX12-50"/>
     <use transform="translate(146.326276 0)scale(0.996264)" xlink:href="#CMBX12-56"/>
    </g>
   </g>
   <g id="text_34">
    <!-- \textbf{v4} -->
    <g transform="translate(148.495702 189.733728)scale(0.0833 -0.0833)">
     <use transform="scale(0.996264)" xlink:href="#CMBX12-118"/>
     <use transform="translate(59.153176 0)scale(0.996264)" xlink:href="#CMBX12-52"/>
    </g>
   </g>
   <g id="text_35">
    <!-- \textbf{db} -->
    <g transform="translate(148.072112 200.451283)scale(0.0833 -0.0833)">
     <use transform="scale(0.996264)" xlink:href="#CMBX12-100"/>
     <use transform="translate(62.266501 0)scale(0.996264)" xlink:href="#CMBX12-98"/>
    </g>
   </g>
   <g id="text_36">
    <!-- \textbf{H} -->
    <g transform="translate(170.376027 157.581065)scale(0.0833 -0.0833)">
     <use transform="scale(0.996264)" xlink:href="#CMBX12-72"/>
    </g>
   </g>
   <g id="text_37">
    <!-- \textbf{x1} -->
    <g transform="translate(169.113884 168.29862)scale(0.0833 -0.0833)">
     <use transform="scale(0.996264)" xlink:href="#CMBX12-120"/>
     <use transform="translate(59.153176 0)scale(0.996264)" xlink:href="#CMBX12-49"/>
    </g>
   </g>
   <g id="text_38">
    <!-- \textbf{f256} -->
    <defs>
     <path d="M 17.40625 36.25 
C 17.40625 42.328125 17.703125 48.53125 20.5 53.90625 
C 22.703125 58.109375 27.796875 62 34.296875 62 
C 36.203125 62 39.796875 61.703125 42.203125 59.203125 
C 38.40625 58.8125 36.796875 56.015625 36.796875 53.3125 
C 36.796875 49.703125 39.5 47.40625 42.703125 47.40625 
C 45.296875 47.40625 48.59375 49.109375 48.59375 53.5 
C 48.59375 59.484375 44.59375 65.578125 34.09375 65.578125 
C 21.59375 65.578125 4.703125 57.796875 4.703125 31.796875 
C 4.703125 25.109375 4.703125 -1 28.40625 -1 
C 41.59375 -1 51.40625 6.765625 51.40625 20.703125 
C 51.40625 34.640625 41.703125 42 29.796875 42 
C 27.796875 42 21.40625 42 17.40625 33.546875 
z
M 28.296875 2.96875 
C 21.90625 2.96875 19.40625 8.34375 19 9.140625 
C 17.59375 12.4375 17.59375 20.40625 17.59375 21.296875 
C 17.59375 33.546875 22.90625 38.734375 28.796875 38.734375 
C 38.703125 38.734375 38.703125 30.765625 38.703125 20.796875 
C 38.703125 10.9375 38.703125 2.96875 28.296875 2.96875 
z
" id="CMBX12-54"/>
    </defs>
    <g transform="translate(165.160364 179.016174)scale(0.0833 -0.0833)">
     <use transform="scale(0.996264)" xlink:href="#CMBX12-102"/>
     <use transform="translate(34.246575 0)scale(0.996264)" xlink:href="#CMBX12-50"/>
     <use transform="translate(90.286426 0)scale(0.996264)" xlink:href="#CMBX12-53"/>
     <use transform="translate(146.326276 0)scale(0.996264)" xlink:href="#CMBX12-54"/>
    </g>
   </g>
   <g id="text_39">
    <!-- \textbf{v4} -->
    <g transform="translate(169.113884 189.733728)scale(0.0833 -0.0833)">
     <use transform="scale(0.996264)" xlink:href="#CMBX12-118"/>
     <use transform="translate(59.153176 0)scale(0.996264)" xlink:href="#CMBX12-52"/>
    </g>
   </g>
   <g id="text_40">
    <!-- \textbf{db} -->
    <g transform="translate(168.690294 200.451283)scale(0.0833 -0.0833)">
     <use transform="scale(0.996264)" xlink:href="#CMBX12-100"/>
     <use transform="translate(62.266501 0)scale(0.996264)" xlink:href="#CMBX12-98"/>
    </g>
   </g>
   <g id="text_41">
    <!-- \textbf{H} -->
    <g transform="translate(190.994209 157.581065)scale(0.0833 -0.0833)">
     <use transform="scale(0.996264)" xlink:href="#CMBX12-72"/>
    </g>
   </g>
   <g id="text_42">
    <!-- \textbf{x2} -->
    <g transform="translate(189.732066 168.29862)scale(0.0833 -0.0833)">
     <use transform="scale(0.996264)" xlink:href="#CMBX12-120"/>
     <use transform="translate(59.153176 0)scale(0.996264)" xlink:href="#CMBX12-50"/>
    </g>
   </g>
   <g id="text_43">
    <!-- \textbf{f256} -->
    <g transform="translate(185.778546 179.016174)scale(0.0833 -0.0833)">
     <use transform="scale(0.996264)" xlink:href="#CMBX12-102"/>
     <use transform="translate(34.246575 0)scale(0.996264)" xlink:href="#CMBX12-50"/>
     <use transform="translate(90.286426 0)scale(0.996264)" xlink:href="#CMBX12-53"/>
     <use transform="translate(146.326276 0)scale(0.996264)" xlink:href="#CMBX12-54"/>
    </g>
   </g>
   <g id="text_44">
    <!-- \textbf{v2} -->
    <g transform="translate(189.732066 189.733728)scale(0.0833 -0.0833)">
     <use transform="scale(0.996264)" xlink:href="#CMBX12-118"/>
     <use transform="translate(59.153176 0)scale(0.996264)" xlink:href="#CMBX12-50"/>
    </g>
   </g>
   <g id="text_45">
    <!-- \textbf{db} -->
    <g transform="translate(189.308476 200.451283)scale(0.0833 -0.0833)">
     <use transform="scale(0.996264)" xlink:href="#CMBX12-100"/>
     <use transform="translate(62.266501 0)scale(0.996264)" xlink:href="#CMBX12-98"/>
    </g>
   </g>
   <g id="text_46">
    <!-- \textbf{H} -->
    <g transform="translate(211.612391 157.581065)scale(0.0833 -0.0833)">
     <use transform="scale(0.996264)" xlink:href="#CMBX12-72"/>
    </g>
   </g>
   <g id="text_47">
    <!-- \textbf{x2} -->
    <g transform="translate(210.350248 168.29862)scale(0.0833 -0.0833)">
     <use transform="scale(0.996264)" xlink:href="#CMBX12-120"/>
     <use transform="translate(59.153176 0)scale(0.996264)" xlink:href="#CMBX12-50"/>
    </g>
   </g>
   <g id="text_48">
    <!-- \textbf{f256} -->
    <g transform="translate(206.396728 179.016174)scale(0.0833 -0.0833)">
     <use transform="scale(0.996264)" xlink:href="#CMBX12-102"/>
     <use transform="translate(34.246575 0)scale(0.996264)" xlink:href="#CMBX12-50"/>
     <use transform="translate(90.286426 0)scale(0.996264)" xlink:href="#CMBX12-53"/>
     <use transform="translate(146.326276 0)scale(0.996264)" xlink:href="#CMBX12-54"/>
    </g>
   </g>
   <g id="text_49">
    <!-- \textbf{v4} -->
    <g transform="translate(210.350248 189.733728)scale(0.0833 -0.0833)">
     <use transform="scale(0.996264)" xlink:href="#CMBX12-118"/>
     <use transform="translate(59.153176 0)scale(0.996264)" xlink:href="#CMBX12-52"/>
    </g>
   </g>
   <g id="text_50">
    <!-- \textbf{db} -->
    <g transform="translate(209.926658 200.451283)scale(0.0833 -0.0833)">
     <use transform="scale(0.996264)" xlink:href="#CMBX12-100"/>
     <use transform="translate(62.266501 0)scale(0.996264)" xlink:href="#CMBX12-98"/>
    </g>
   </g>
   <g id="text_51">
    <!-- \textbf{H} -->
    <g transform="translate(232.230573 157.581065)scale(0.0833 -0.0833)">
     <use transform="scale(0.996264)" xlink:href="#CMBX12-72"/>
    </g>
   </g>
   <g id="text_52">
    <!-- \textbf{x3} -->
    <g transform="translate(230.96843 168.29862)scale(0.0833 -0.0833)">
     <use transform="scale(0.996264)" xlink:href="#CMBX12-120"/>
     <use transform="translate(59.153176 0)scale(0.996264)" xlink:href="#CMBX12-51"/>
    </g>
   </g>
   <g id="text_53">
    <!-- \textbf{f256} -->
    <g transform="translate(227.01491 179.016174)scale(0.0833 -0.0833)">
     <use transform="scale(0.996264)" xlink:href="#CMBX12-102"/>
     <use transform="translate(34.246575 0)scale(0.996264)" xlink:href="#CMBX12-50"/>
     <use transform="translate(90.286426 0)scale(0.996264)" xlink:href="#CMBX12-53"/>
     <use transform="translate(146.326276 0)scale(0.996264)" xlink:href="#CMBX12-54"/>
    </g>
   </g>
   <g id="text_54">
    <!-- \textbf{v2} -->
    <g transform="translate(230.96843 189.733728)scale(0.0833 -0.0833)">
     <use transform="scale(0.996264)" xlink:href="#CMBX12-118"/>
     <use transform="translate(59.153176 0)scale(0.996264)" xlink:href="#CMBX12-50"/>
    </g>
   </g>
   <g id="text_55">
    <!-- \textbf{db} -->
    <g transform="translate(230.544839 200.451283)scale(0.0833 -0.0833)">
     <use transform="scale(0.996264)" xlink:href="#CMBX12-100"/>
     <use transform="translate(62.266501 0)scale(0.996264)" xlink:href="#CMBX12-98"/>
    </g>
   </g>
   <g id="text_56">
    <!-- \textbf{H} -->
    <g transform="translate(252.848755 157.581065)scale(0.0833 -0.0833)">
     <use transform="scale(0.996264)" xlink:href="#CMBX12-72"/>
    </g>
   </g>
   <g id="text_57">
    <!-- \textbf{x3} -->
    <g transform="translate(251.586611 168.29862)scale(0.0833 -0.0833)">
     <use transform="scale(0.996264)" xlink:href="#CMBX12-120"/>
     <use transform="translate(59.153176 0)scale(0.996264)" xlink:href="#CMBX12-51"/>
    </g>
   </g>
   <g id="text_58">
    <!-- \textbf{f256} -->
    <g transform="translate(247.633091 179.016174)scale(0.0833 -0.0833)">
     <use transform="scale(0.996264)" xlink:href="#CMBX12-102"/>
     <use transform="translate(34.246575 0)scale(0.996264)" xlink:href="#CMBX12-50"/>
     <use transform="translate(90.286426 0)scale(0.996264)" xlink:href="#CMBX12-53"/>
     <use transform="translate(146.326276 0)scale(0.996264)" xlink:href="#CMBX12-54"/>
    </g>
   </g>
   <g id="text_59">
    <!-- \textbf{v4} -->
    <g transform="translate(251.586611 189.733728)scale(0.0833 -0.0833)">
     <use transform="scale(0.996264)" xlink:href="#CMBX12-118"/>
     <use transform="translate(59.153176 0)scale(0.996264)" xlink:href="#CMBX12-52"/>
    </g>
   </g>
   <g id="text_60">
    <!-- \textbf{db} -->
    <g transform="translate(251.163021 200.451283)scale(0.0833 -0.0833)">
     <use transform="scale(0.996264)" xlink:href="#CMBX12-100"/>
     <use transform="translate(62.266501 0)scale(0.996264)" xlink:href="#CMBX12-98"/>
    </g>
   </g>
   <g id="text_61">
    <!-- \textbf{H} -->
    <g transform="translate(273.466936 157.581065)scale(0.0833 -0.0833)">
     <use transform="scale(0.996264)" xlink:href="#CMBX12-72"/>
    </g>
   </g>
   <g id="text_62">
    <!-- \textbf{x1} -->
    <g transform="translate(272.204793 168.29862)scale(0.0833 -0.0833)">
     <use transform="scale(0.996264)" xlink:href="#CMBX12-120"/>
     <use transform="translate(59.153176 0)scale(0.996264)" xlink:href="#CMBX12-49"/>
    </g>
   </g>
   <g id="text_63">
    <!-- \textbf{f512} -->
    <g transform="translate(268.251273 179.016174)scale(0.0833 -0.0833)">
     <use transform="scale(0.996264)" xlink:href="#CMBX12-102"/>
     <use transform="translate(34.246575 0)scale(0.996264)" xlink:href="#CMBX12-53"/>
     <use transform="translate(90.286426 0)scale(0.996264)" xlink:href="#CMBX12-49"/>
     <use transform="translate(146.326276 0)scale(0.996264)" xlink:href="#CMBX12-50"/>
    </g>
   </g>
   <g id="text_64">
    <!-- \textbf{v2} -->
    <g transform="translate(272.204793 189.733728)scale(0.0833 -0.0833)">
     <use transform="scale(0.996264)" xlink:href="#CMBX12-118"/>
     <use transform="translate(59.153176 0)scale(0.996264)" xlink:href="#CMBX12-50"/>
    </g>
   </g>
   <g id="text_65">
    <!-- \textbf{db} -->
    <g transform="translate(271.781203 200.451283)scale(0.0833 -0.0833)">
     <use transform="scale(0.996264)" xlink:href="#CMBX12-100"/>
     <use transform="translate(62.266501 0)scale(0.996264)" xlink:href="#CMBX12-98"/>
    </g>
   </g>
   <g id="text_66">
    <!-- \textbf{H} -->
    <g transform="translate(294.085118 157.581065)scale(0.0833 -0.0833)">
     <use transform="scale(0.996264)" xlink:href="#CMBX12-72"/>
    </g>
   </g>
   <g id="text_67">
    <!-- \textbf{x2} -->
    <g transform="translate(292.822975 168.29862)scale(0.0833 -0.0833)">
     <use transform="scale(0.996264)" xlink:href="#CMBX12-120"/>
     <use transform="translate(59.153176 0)scale(0.996264)" xlink:href="#CMBX12-50"/>
    </g>
   </g>
   <g id="text_68">
    <!-- \textbf{f512} -->
    <g transform="translate(288.869455 179.016174)scale(0.0833 -0.0833)">
     <use transform="scale(0.996264)" xlink:href="#CMBX12-102"/>
     <use transform="translate(34.246575 0)scale(0.996264)" xlink:href="#CMBX12-53"/>
     <use transform="translate(90.286426 0)scale(0.996264)" xlink:href="#CMBX12-49"/>
     <use transform="translate(146.326276 0)scale(0.996264)" xlink:href="#CMBX12-50"/>
    </g>
   </g>
   <g id="text_69">
    <!-- \textbf{v2} -->
    <g transform="translate(292.822975 189.733728)scale(0.0833 -0.0833)">
     <use transform="scale(0.996264)" xlink:href="#CMBX12-118"/>
     <use transform="translate(59.153176 0)scale(0.996264)" xlink:href="#CMBX12-50"/>
    </g>
   </g>
   <g id="text_70">
    <!-- \textbf{db} -->
    <g transform="translate(292.399385 200.451283)scale(0.0833 -0.0833)">
     <use transform="scale(0.996264)" xlink:href="#CMBX12-100"/>
     <use transform="translate(62.266501 0)scale(0.996264)" xlink:href="#CMBX12-98"/>
    </g>
   </g>
   <g id="text_71">
    <!-- \textbf{H} -->
    <g transform="translate(314.7033 157.581065)scale(0.0833 -0.0833)">
     <use transform="scale(0.996264)" xlink:href="#CMBX12-72"/>
    </g>
   </g>
   <g id="text_72">
    <!-- \textbf{x2} -->
    <g transform="translate(313.441157 168.29862)scale(0.0833 -0.0833)">
     <use transform="scale(0.996264)" xlink:href="#CMBX12-120"/>
     <use transform="translate(59.153176 0)scale(0.996264)" xlink:href="#CMBX12-50"/>
    </g>
   </g>
   <g id="text_73">
    <!-- \textbf{f512} -->
    <g transform="translate(309.487637 179.016174)scale(0.0833 -0.0833)">
     <use transform="scale(0.996264)" xlink:href="#CMBX12-102"/>
     <use transform="translate(34.246575 0)scale(0.996264)" xlink:href="#CMBX12-53"/>
     <use transform="translate(90.286426 0)scale(0.996264)" xlink:href="#CMBX12-49"/>
     <use transform="translate(146.326276 0)scale(0.996264)" xlink:href="#CMBX12-50"/>
    </g>
   </g>
   <g id="text_74">
    <!-- \textbf{v4} -->
    <g transform="translate(313.441157 189.733728)scale(0.0833 -0.0833)">
     <use transform="scale(0.996264)" xlink:href="#CMBX12-118"/>
     <use transform="translate(59.153176 0)scale(0.996264)" xlink:href="#CMBX12-52"/>
    </g>
   </g>
   <g id="text_75">
    <!-- \textbf{db} -->
    <g transform="translate(313.017567 200.451283)scale(0.0833 -0.0833)">
     <use transform="scale(0.996264)" xlink:href="#CMBX12-100"/>
     <use transform="translate(62.266501 0)scale(0.996264)" xlink:href="#CMBX12-98"/>
    </g>
   </g>
   <g id="text_76">
    <!-- \textbf{H} -->
    <g transform="translate(335.321482 157.581065)scale(0.0833 -0.0833)">
     <use transform="scale(0.996264)" xlink:href="#CMBX12-72"/>
    </g>
   </g>
   <g id="text_77">
    <!-- \textbf{x2} -->
    <g transform="translate(334.059339 168.29862)scale(0.0833 -0.0833)">
     <use transform="scale(0.996264)" xlink:href="#CMBX12-120"/>
     <use transform="translate(59.153176 0)scale(0.996264)" xlink:href="#CMBX12-50"/>
    </g>
   </g>
   <g id="text_78">
    <!-- \textbf{f512} -->
    <g transform="translate(330.105819 179.016174)scale(0.0833 -0.0833)">
     <use transform="scale(0.996264)" xlink:href="#CMBX12-102"/>
     <use transform="translate(34.246575 0)scale(0.996264)" xlink:href="#CMBX12-53"/>
     <use transform="translate(90.286426 0)scale(0.996264)" xlink:href="#CMBX12-49"/>
     <use transform="translate(146.326276 0)scale(0.996264)" xlink:href="#CMBX12-50"/>
    </g>
   </g>
   <g id="text_79">
    <!-- \textbf{v2} -->
    <g transform="translate(334.059339 189.733728)scale(0.0833 -0.0833)">
     <use transform="scale(0.996264)" xlink:href="#CMBX12-118"/>
     <use transform="translate(59.153176 0)scale(0.996264)" xlink:href="#CMBX12-50"/>
    </g>
   </g>
   <g id="text_80">
    <!-- \textbf{cd} -->
    <defs>
     <path d="M 46.796875 11.765625 
C 46.796875 12.953125 45.703125 12.953125 44.703125 12.953125 
C 43.09375 12.953125 43 12.859375 42.5 11.671875 
C 41.796875 9.765625 39.09375 3.078125 29.90625 3.078125 
C 15.796875 3.078125 15.796875 18.21875 15.796875 22.703125 
C 15.796875 28.578125 15.90625 41.625 29 41.625 
C 29.703125 41.625 35.59375 41.625 35.59375 41.125 
C 35.59375 41 35.5 40.90625 35.296875 40.8125 
C 35 40.515625 33.703125 39 33.703125 36.46875 
C 33.703125 32.25 37.09375 30.53125 39.59375 30.53125 
C 41.703125 30.53125 45.5 31.859375 45.5 36.65625 
C 45.5 45 34 45 28.59375 45 
C 10.796875 45 3.796875 33.515625 3.796875 22.09375 
C 3.796875 8.625 13.296875 -0.5 28 -0.5 
C 43.703125 -0.5 46.796875 11.0625 46.796875 11.765625 
z
" id="CMBX12-99"/>
    </defs>
    <g transform="translate(334.20054 200.451283)scale(0.0833 -0.0833)">
     <use transform="scale(0.996264)" xlink:href="#CMBX12-99"/>
     <use transform="translate(49.8132 0)scale(0.996264)" xlink:href="#CMBX12-100"/>
    </g>
   </g>
   <g id="text_81">
    <!-- \textbf{H} -->
    <g transform="translate(355.939664 157.581065)scale(0.0833 -0.0833)">
     <use transform="scale(0.996264)" xlink:href="#CMBX12-72"/>
    </g>
   </g>
   <g id="text_82">
    <!-- \textbf{x3} -->
    <g transform="translate(354.67752 168.29862)scale(0.0833 -0.0833)">
     <use transform="scale(0.996264)" xlink:href="#CMBX12-120"/>
     <use transform="translate(59.153176 0)scale(0.996264)" xlink:href="#CMBX12-51"/>
    </g>
   </g>
   <g id="text_83">
    <!-- \textbf{f512} -->
    <g transform="translate(350.724001 179.016174)scale(0.0833 -0.0833)">
     <use transform="scale(0.996264)" xlink:href="#CMBX12-102"/>
     <use transform="translate(34.246575 0)scale(0.996264)" xlink:href="#CMBX12-53"/>
     <use transform="translate(90.286426 0)scale(0.996264)" xlink:href="#CMBX12-49"/>
     <use transform="translate(146.326276 0)scale(0.996264)" xlink:href="#CMBX12-50"/>
    </g>
   </g>
   <g id="text_84">
    <!-- \textbf{v2} -->
    <g transform="translate(354.67752 189.733728)scale(0.0833 -0.0833)">
     <use transform="scale(0.996264)" xlink:href="#CMBX12-118"/>
     <use transform="translate(59.153176 0)scale(0.996264)" xlink:href="#CMBX12-50"/>
    </g>
   </g>
   <g id="text_85">
    <!-- \textbf{db} -->
    <g transform="translate(354.25393 200.451283)scale(0.0833 -0.0833)">
     <use transform="scale(0.996264)" xlink:href="#CMBX12-100"/>
     <use transform="translate(62.266501 0)scale(0.996264)" xlink:href="#CMBX12-98"/>
    </g>
   </g>
   <g id="text_86">
    <!-- \textbf{H} -->
    <g transform="translate(376.557845 157.581065)scale(0.0833 -0.0833)">
     <use transform="scale(0.996264)" xlink:href="#CMBX12-72"/>
    </g>
   </g>
   <g id="text_87">
    <!-- \textbf{x3} -->
    <g transform="translate(375.295702 168.29862)scale(0.0833 -0.0833)">
     <use transform="scale(0.996264)" xlink:href="#CMBX12-120"/>
     <use transform="translate(59.153176 0)scale(0.996264)" xlink:href="#CMBX12-51"/>
    </g>
   </g>
   <g id="text_88">
    <!-- \textbf{f512} -->
    <g transform="translate(371.342182 179.016174)scale(0.0833 -0.0833)">
     <use transform="scale(0.996264)" xlink:href="#CMBX12-102"/>
     <use transform="translate(34.246575 0)scale(0.996264)" xlink:href="#CMBX12-53"/>
     <use transform="translate(90.286426 0)scale(0.996264)" xlink:href="#CMBX12-49"/>
     <use transform="translate(146.326276 0)scale(0.996264)" xlink:href="#CMBX12-50"/>
    </g>
   </g>
   <g id="text_89">
    <!-- \textbf{v4} -->
    <g transform="translate(375.295702 189.733728)scale(0.0833 -0.0833)">
     <use transform="scale(0.996264)" xlink:href="#CMBX12-118"/>
     <use transform="translate(59.153176 0)scale(0.996264)" xlink:href="#CMBX12-52"/>
    </g>
   </g>
   <g id="text_90">
    <!-- \textbf{db} -->
    <g transform="translate(374.872112 200.451283)scale(0.0833 -0.0833)">
     <use transform="scale(0.996264)" xlink:href="#CMBX12-100"/>
     <use transform="translate(62.266501 0)scale(0.996264)" xlink:href="#CMBX12-98"/>
    </g>
   </g>
   <g id="text_91">
    <!-- \textbf{S} -->
    <defs>
     <path d="M 25.40625 43.46875 
C 15.5 45.625 15.203125 52.75 15.203125 54.140625 
C 15.203125 59.171875 18.5 65.03125 28.203125 65.03125 
C 37.90625 65.03125 46.59375 60.359375 48.703125 47.34375 
C 49 45.25 49 45.25 50.90625 45.25 
C 53 45.25 53 45.546875 53 47.8125 
L 53 66.4375 
C 53 68.3125 53 69.015625 51.5 69.015625 
C 50.796875 69.015625 50.5 68.921875 49.59375 67.921875 
L 45.296875 63.046875 
C 42.796875 65.140625 37.796875 69 28.09375 69 
C 13.796875 69 6.203125 60.09375 6.203125 49.3125 
C 6.203125 42.6875 9.796875 38.03125 11.203125 36.640625 
C 16.40625 31.5 19.203125 30.90625 29.59375 28.625 
C 39.59375 26.453125 40.796875 26.25 43 24.1875 
C 44.296875 22.890625 47.203125 20.125 47.203125 15.078125 
C 47.203125 10.8125 45.09375 3 33.90625 3 
C 25.09375 3 11.203125 5.96875 10.40625 20.421875 
C 10.296875 22.203125 10.296875 22.5 8.296875 22.5 
C 6.203125 22.5 6.203125 22.203125 6.203125 19.921875 
L 6.203125 1.296875 
C 6.203125 -0.59375 6.203125 -1.28125 7.703125 -1.28125 
C 8.40625 -1.28125 8.5 -1.1875 9.5 -0.296875 
C 10.59375 0.796875 11.5 2.09375 14 4.578125 
C 19.796875 0.015625 28 -1.265625 34 -1.265625 
C 49.59375 -1.265625 56.203125 9.21875 56.203125 19.71875 
C 56.203125 29 50 37.90625 39.09375 40.375 
z
" id="CMBX12-83"/>
    </defs>
    <g transform="translate(398.314238 157.581065)scale(0.0833 -0.0833)">
     <use transform="scale(0.996264)" xlink:href="#CMBX12-83"/>
    </g>
   </g>
   <g id="text_92">
    <!-- \textbf{x1} -->
    <g transform="translate(395.913884 168.29862)scale(0.0833 -0.0833)">
     <use transform="scale(0.996264)" xlink:href="#CMBX12-120"/>
     <use transform="translate(59.153176 0)scale(0.996264)" xlink:href="#CMBX12-49"/>
    </g>
   </g>
   <g id="text_93">
    <!-- \textbf{} -->
    <g transform="translate(nan nan)scale(0.0833 -0.0833)"/>
   </g>
   <g id="text_94">
    <!-- \textbf{} -->
    <g transform="translate(nan nan)scale(0.0833 -0.0833)"/>
   </g>
   <g id="text_95">
    <!-- \textbf{db} -->
    <g transform="translate(395.490294 200.451283)scale(0.0833 -0.0833)">
     <use transform="scale(0.996264)" xlink:href="#CMBX12-100"/>
     <use transform="translate(62.266501 0)scale(0.996264)" xlink:href="#CMBX12-98"/>
    </g>
   </g>
   <g id="text_96">
    <!-- \textbf{S} -->
    <g transform="translate(418.93242 157.581065)scale(0.0833 -0.0833)">
     <use transform="scale(0.996264)" xlink:href="#CMBX12-83"/>
    </g>
   </g>
   <g id="text_97">
    <!-- \textbf{x2} -->
    <g transform="translate(416.532066 168.29862)scale(0.0833 -0.0833)">
     <use transform="scale(0.996264)" xlink:href="#CMBX12-120"/>
     <use transform="translate(59.153176 0)scale(0.996264)" xlink:href="#CMBX12-50"/>
    </g>
   </g>
   <g id="text_98">
    <!-- \textbf{} -->
    <g transform="translate(nan nan)scale(0.0833 -0.0833)"/>
   </g>
   <g id="text_99">
    <!-- \textbf{} -->
    <g transform="translate(nan nan)scale(0.0833 -0.0833)"/>
   </g>
   <g id="text_100">
    <!-- \textbf{db} -->
    <g transform="translate(416.108476 200.451283)scale(0.0833 -0.0833)">
     <use transform="scale(0.996264)" xlink:href="#CMBX12-100"/>
     <use transform="translate(62.266501 0)scale(0.996264)" xlink:href="#CMBX12-98"/>
    </g>
   </g>
   <g id="text_101">
    <!-- \textbf{S} -->
    <g transform="translate(439.550602 157.581065)scale(0.0833 -0.0833)">
     <use transform="scale(0.996264)" xlink:href="#CMBX12-83"/>
    </g>
   </g>
   <g id="text_102">
    <!-- \textbf{x2} -->
    <g transform="translate(437.150248 168.29862)scale(0.0833 -0.0833)">
     <use transform="scale(0.996264)" xlink:href="#CMBX12-120"/>
     <use transform="translate(59.153176 0)scale(0.996264)" xlink:href="#CMBX12-50"/>
    </g>
   </g>
   <g id="text_103">
    <!-- \textbf{} -->
    <g transform="translate(nan nan)scale(0.0833 -0.0833)"/>
   </g>
   <g id="text_104">
    <!-- \textbf{} -->
    <g transform="translate(nan nan)scale(0.0833 -0.0833)"/>
   </g>
   <g id="text_105">
    <!-- \textbf{cd} -->
    <g transform="translate(437.291449 200.451283)scale(0.0833 -0.0833)">
     <use transform="scale(0.996264)" xlink:href="#CMBX12-99"/>
     <use transform="translate(49.8132 0)scale(0.996264)" xlink:href="#CMBX12-100"/>
    </g>
   </g>
   <g id="text_106">
    <!-- \textbf{S} -->
    <g transform="translate(460.168783 157.581065)scale(0.0833 -0.0833)">
     <use transform="scale(0.996264)" xlink:href="#CMBX12-83"/>
    </g>
   </g>
   <g id="text_107">
    <!-- \textbf{x3} -->
    <g transform="translate(457.76843 168.29862)scale(0.0833 -0.0833)">
     <use transform="scale(0.996264)" xlink:href="#CMBX12-120"/>
     <use transform="translate(59.153176 0)scale(0.996264)" xlink:href="#CMBX12-51"/>
    </g>
   </g>
   <g id="text_108">
    <!-- \textbf{} -->
    <g transform="translate(nan nan)scale(0.0833 -0.0833)"/>
   </g>
   <g id="text_109">
    <!-- \textbf{} -->
    <g transform="translate(nan nan)scale(0.0833 -0.0833)"/>
   </g>
   <g id="text_110">
    <!-- \textbf{db} -->
    <g transform="translate(457.344839 200.451283)scale(0.0833 -0.0833)">
     <use transform="scale(0.996264)" xlink:href="#CMBX12-100"/>
     <use transform="translate(62.266501 0)scale(0.996264)" xlink:href="#CMBX12-98"/>
    </g>
   </g>
   <g id="text_111">
    <!-- \textbf{S} -->
    <g transform="translate(480.786965 157.581065)scale(0.0833 -0.0833)">
     <use transform="scale(0.996264)" xlink:href="#CMBX12-83"/>
    </g>
   </g>
   <g id="text_112">
    <!-- \textbf{x3} -->
    <g transform="translate(478.386611 168.29862)scale(0.0833 -0.0833)">
     <use transform="scale(0.996264)" xlink:href="#CMBX12-120"/>
     <use transform="translate(59.153176 0)scale(0.996264)" xlink:href="#CMBX12-51"/>
    </g>
   </g>
   <g id="text_113">
    <!-- \textbf{} -->
    <g transform="translate(nan nan)scale(0.0833 -0.0833)"/>
   </g>
   <g id="text_114">
    <!-- \textbf{} -->
    <g transform="translate(nan nan)scale(0.0833 -0.0833)"/>
   </g>
   <g id="text_115">
    <!-- \textbf{cd} -->
    <g transform="translate(478.527813 200.451283)scale(0.0833 -0.0833)">
     <use transform="scale(0.996264)" xlink:href="#CMBX12-99"/>
     <use transform="translate(49.8132 0)scale(0.996264)" xlink:href="#CMBX12-100"/>
    </g>
   </g>
   <g id="legend_1">
    <g id="patch_73">
     <path d="M 46.151 29.073669 
L 386.373463 29.073669 
Q 388.039463 29.073669 388.039463 27.407669 
L 388.039463 16.631 
Q 388.039463 14.965 386.373463 14.965 
L 46.151 14.965 
Q 44.485 14.965 44.485 16.631 
L 44.485 27.407669 
Q 44.485 29.073669 46.151 29.073669 
z
" style="fill:#ffffff;opacity:0.8;stroke:#cccccc;stroke-linejoin:miter;"/>
    </g>
    <g id="patch_74">
     <path d="M 47.817 24.128 
L 64.477 24.128 
L 64.477 18.297 
L 47.817 18.297 
z
" style="fill:#a6cee3;"/>
    </g>
    <g id="text_116">
     <!-- \textbf{total\_router\_area} -->
     <defs>
      <path d="M 21.09375 40 
L 35.5 40 
L 35.5 44.265625 
L 21.09375 44.265625 
L 21.09375 63 
L 16.90625 63 
C 16.796875 53.203125 12 43.375 2.09375 43.375 
L 2.09375 40 
L 10.203125 40 
L 10.203125 12.328125 
C 10.203125 1.78125 18.40625 -0.5 25.59375 -0.5 
C 33 -0.5 37.40625 5.078125 37.40625 12.421875 
L 37.40625 17.703125 
L 33.203125 17.703125 
L 33.203125 12.53125 
C 33.203125 5.953125 30.203125 3.078125 27.09375 3.078125 
C 21.09375 3.078125 21.09375 9.75 21.09375 12.03125 
z
" id="CMBX12-116"/>
      <path d="M 53 21.796875 
C 53 35.1875 43.796875 45 28.09375 45 
C 11.796875 45 3.09375 34.6875 3.09375 21.796875 
C 3.09375 8.828125 12.296875 -0.5 28 -0.5 
C 44.296875 -0.5 53 9.3125 53 21.796875 
z
M 28.09375 3.078125 
C 15.09375 3.078125 15.09375 14.671875 15.09375 22.796875 
C 15.09375 27.453125 15.09375 32.40625 17 35.984375 
C 19.203125 39.9375 23.703125 41.71875 28 41.71875 
C 33.703125 41.71875 37.296875 39.046875 39 36.28125 
C 41 32.703125 41 27.546875 41 22.796875 
C 41 14.5625 41 3.078125 28.09375 3.078125 
z
" id="CMBX12-111"/>
      <path d="M 21.703125 69 
L 4.40625 69 
L 4.40625 64.328125 
C 10.59375 64.328125 11.296875 64.328125 11.296875 60.40625 
L 11.296875 4.0625 
L 4.40625 4.0625 
L 4.40625 -0.203125 
C 6.703125 0 13.796875 0 16.5 0 
C 19.203125 0 26.296875 0 28.59375 -0.203125 
L 28.59375 4.0625 
L 21.703125 4.0625 
z
" id="CMBX12-108"/>
      <path d="M 35.296875 44.671875 
L 35.296875 40 
C 41.5 40 42.203125 40 42.203125 36.125 
L 42.203125 16.5 
C 42.203125 8.890625 37.703125 2.78125 29.90625 2.78125 
C 22.40625 2.78125 22 5.265625 22 10.6875 
L 22 44.671875 
L 4.203125 44.671875 
L 4.203125 40 
C 10.40625 40 11.09375 40 11.09375 36.125 
L 11.09375 12.40625 
C 11.09375 2.390625 17.796875 -0.5 28.5 -0.5 
C 30.90625 -0.5 38.296875 -0.5 42.59375 7.75 
L 42.703125 7.75 
L 42.703125 0 
L 60 0 
L 60 4.5625 
C 53.796875 4.5625 53.09375 4.5625 53.09375 8.4375 
L 53.09375 44.671875 
z
" id="CMBX12-117"/>
     </defs>
     <g transform="translate(71.141 24.128)scale(0.0833 -0.0833)">
      <use transform="scale(0.996264)" xlink:href="#CMBX12-116"/>
      <use transform="translate(43.58655 0)scale(0.996264)" xlink:href="#CMBX12-111"/>
      <use transform="translate(99.626401 0)scale(0.996264)" xlink:href="#CMBX12-116"/>
      <use transform="translate(143.212951 0)scale(0.996264)" xlink:href="#CMBX12-97"/>
      <use transform="translate(197.696139 0)scale(0.996264)" xlink:href="#CMBX12-108"/>
      <use transform="translate(269.178143 0)scale(0.996264)" xlink:href="#CMBX12-114"/>
      <use transform="translate(314.95565 0)scale(0.996264)" xlink:href="#CMBX12-111"/>
      <use transform="translate(370.995501 0)scale(0.996264)" xlink:href="#CMBX12-117"/>
      <use transform="translate(433.262002 0)scale(0.996264)" xlink:href="#CMBX12-116"/>
      <use transform="translate(476.848552 0)scale(0.996264)" xlink:href="#CMBX12-101"/>
      <use transform="translate(527.987819 0)scale(0.996264)" xlink:href="#CMBX12-114"/>
      <use transform="translate(614.11408 0)scale(0.996264)" xlink:href="#CMBX12-97"/>
      <use transform="translate(668.597268 0)scale(0.996264)" xlink:href="#CMBX12-114"/>
      <use transform="translate(714.374775 0)scale(0.996264)" xlink:href="#CMBX12-101"/>
      <use transform="translate(765.514042 0)scale(0.996264)" xlink:href="#CMBX12-97"/>
      <path d="M 235.553898 0 
L 269.178143 0 
L 269.178143 0.3985 
L 235.553898 0.3985 
L 235.553898 0 
z
"/>
      <path d="M 580.489835 0 
L 614.11408 0 
L 614.11408 0.3985 
L 580.489835 0.3985 
L 580.489835 0 
z
"/>
     </g>
    </g>
    <g id="patch_75">
     <path d="M 162.36217 24.128 
L 179.02217 24.128 
L 179.02217 18.297 
L 162.36217 18.297 
z
" style="fill:url(#hab2a23fbc4);"/>
    </g>
    <g id="text_117">
     <!-- \textbf{total\_vswitch\_area} -->
     <defs>
      <path d="M 37.703125 42.421875 
C 37.703125 44.3125 37.703125 45 36.203125 45 
C 35.59375 45 35.40625 45 33.90625 44.109375 
C 33.5 43.8125 32.40625 43.109375 31.90625 42.8125 
C 29.09375 44.40625 25.40625 45 21.796875 45 
C 18.796875 45 3.796875 45 3.796875 32.125 
C 3.796875 21.703125 16.203125 19.53125 19.296875 19.03125 
C 22 18.546875 25.296875 17.9375 25.703125 17.9375 
C 29.703125 17.046875 33.703125 14.5625 33.703125 10.40625 
C 33.703125 2.78125 24.59375 2.78125 22.5 2.78125 
C 17.40625 2.78125 11.09375 4.359375 8.296875 14 
C 7.703125 15.984375 7.59375 15.984375 5.90625 15.984375 
C 3.796875 15.984375 3.796875 15.6875 3.796875 13.40625 
L 3.796875 2.0625 
C 3.796875 0.1875 3.796875 -0.5 5.296875 -0.5 
C 6 -0.5 6.203125 -0.5 8.203125 1.09375 
L 10.796875 2.984375 
C 15.296875 -0.5 20.703125 -0.5 22.5 -0.5 
C 28 -0.5 40.5 0.6875 40.5 13.875 
C 40.5 18.625 37.90625 21.90625 35.90625 23.6875 
C 31.796875 27.046875 28.40625 27.65625 23 28.640625 
C 16.59375 29.734375 10.59375 30.828125 10.59375 35.578125 
C 10.59375 42.015625 19.5 42.015625 21.59375 42.015625 
C 32.703125 42.015625 33.296875 35.078125 33.5 32.609375 
C 33.59375 31.328125 34.40625 31.328125 35.59375 31.328125 
C 37.703125 31.328125 37.703125 31.625 37.703125 33.90625 
z
" id="CMBX12-115"/>
      <path d="M 72 37.4375 
C 72.703125 39.125 73 39.828125 78.796875 39.828125 
L 78.796875 44 
C 75.90625 44 74.59375 44 71 44 
C 66.90625 44 65.59375 44 62 44 
L 62 39.828125 
C 62.90625 39.828125 67.796875 39.828125 67.796875 38.53125 
C 67.796875 38.4375 67.796875 38.328125 67.40625 37.34375 
L 56.90625 11.515625 
L 45.40625 39.828125 
L 51.09375 39.828125 
L 51.09375 44.09375 
C 48.703125 44 42.796875 44 40.09375 44 
C 35 44 34.796875 44 29.796875 44 
L 29.796875 39.828125 
L 35.703125 39.828125 
C 36 39.03125 36.5 37.734375 36.90625 36.84375 
C 37.203125 36.25 38.203125 33.859375 38.203125 33.359375 
C 38.203125 33.171875 37.90625 32.46875 37.796875 32.171875 
L 30.203125 13.40625 
L 19.40625 39.828125 
L 25.09375 39.828125 
L 25.09375 44.09375 
C 22.796875 44 16 44 13.296875 44 
C 10.09375 44 5.296875 44 2.296875 44 
L 2.296875 39.828125 
L 8.203125 39.828125 
L 23.5 1.984375 
C 24.203125 0.203125 24.59375 -0.5 26.796875 -0.5 
C 27.90625 -0.5 29.09375 -0.5 29.90625 1.484375 
L 40.5 27.8125 
L 51.09375 1.6875 
C 52 -0.5 53.09375 -0.5 54.296875 -0.5 
C 56.5 -0.5 56.796875 0.09375 57.5 1.890625 
z
" id="CMBX12-119"/>
      <path d="M 22.296875 61.84375 
C 22.296875 65.921875 19 69 15.09375 69 
C 11 69 7.90625 65.625 7.90625 61.84375 
C 7.90625 58.0625 11 54.6875 15.09375 54.6875 
C 19 54.6875 22.296875 57.765625 22.296875 61.84375 
z
M 4.703125 44 
L 4.703125 39.328125 
C 10.59375 39.328125 11.296875 39.328125 11.296875 35.46875 
L 11.296875 4.0625 
L 4.40625 4.0625 
L 4.40625 -0.203125 
C 6.703125 0 13.59375 0 16.296875 0 
C 19.09375 0 25.5 0 27.90625 -0.203125 
L 27.90625 4.0625 
L 21.703125 4.0625 
L 21.703125 44 
z
" id="CMBX12-105"/>
      <path d="M 53.09375 30.0625 
C 53.09375 39.453125 49 44.28125 38 44.28125 
C 27.90625 44.28125 23 37.25 21.59375 34.28125 
L 21.5 34.28125 
L 21.5 69 
L 4.203125 69 
L 4.203125 64.328125 
C 10.40625 64.328125 11.09375 64.328125 11.09375 60.28125 
L 11.09375 4.0625 
L 4.203125 4.0625 
L 4.203125 -0.203125 
C 6.5 0 13.703125 0 16.5 0 
C 19.296875 0 26.59375 0 28.90625 -0.203125 
L 28.90625 4.0625 
L 22 4.0625 
L 22 25.109375 
C 22 35.765625 30 41 36.40625 41 
C 40.09375 41 42.203125 38.640625 42.203125 31.140625 
L 42.203125 4.0625 
L 35.296875 4.0625 
L 35.296875 -0.203125 
C 37.59375 0 44.796875 0 47.59375 0 
C 50.40625 0 57.703125 0 60 -0.203125 
L 60 4.0625 
L 53.09375 4.0625 
z
" id="CMBX12-104"/>
     </defs>
     <g transform="translate(185.68617 24.128)scale(0.0833 -0.0833)">
      <use transform="scale(0.996264)" xlink:href="#CMBX12-116"/>
      <use transform="translate(43.58655 0)scale(0.996264)" xlink:href="#CMBX12-111"/>
      <use transform="translate(99.626401 0)scale(0.996264)" xlink:href="#CMBX12-116"/>
      <use transform="translate(143.212951 0)scale(0.996264)" xlink:href="#CMBX12-97"/>
      <use transform="translate(197.696139 0)scale(0.996264)" xlink:href="#CMBX12-108"/>
      <use transform="translate(269.178143 0)scale(0.996264)" xlink:href="#CMBX12-118"/>
      <use transform="translate(328.331319 0)scale(0.996264)" xlink:href="#CMBX12-115"/>
      <use transform="translate(372.540656 0)scale(0.996264)" xlink:href="#CMBX12-119"/>
      <use transform="translate(453.487106 0)scale(0.996264)" xlink:href="#CMBX12-105"/>
      <use transform="translate(484.620357 0)scale(0.996264)" xlink:href="#CMBX12-116"/>
      <use transform="translate(528.206907 0)scale(0.996264)" xlink:href="#CMBX12-99"/>
      <use transform="translate(574.906783 0)scale(0.996264)" xlink:href="#CMBX12-104"/>
      <use transform="translate(677.522037 0)scale(0.996264)" xlink:href="#CMBX12-97"/>
      <use transform="translate(732.005225 0)scale(0.996264)" xlink:href="#CMBX12-114"/>
      <use transform="translate(777.782732 0)scale(0.996264)" xlink:href="#CMBX12-101"/>
      <use transform="translate(828.921999 0)scale(0.996264)" xlink:href="#CMBX12-97"/>
      <path d="M 235.553898 0 
L 269.178143 0 
L 269.178143 0.3985 
L 235.553898 0.3985 
L 235.553898 0 
z
"/>
      <path d="M 643.897792 0 
L 677.522037 0 
L 677.522037 0.3985 
L 643.897792 0.3985 
L 643.897792 0 
z
"/>
     </g>
    </g>
    <g id="patch_76">
     <path d="M 282.542565 24.128 
L 299.202565 24.128 
L 299.202565 18.297 
L 282.542565 18.297 
z
" style="fill:#33a02c;"/>
    </g>
    <g id="text_118">
     <!-- \textbf{total\_sswitch\_area} -->
     <g transform="translate(305.866565 24.128)scale(0.0833 -0.0833)">
      <use transform="scale(0.996264)" xlink:href="#CMBX12-116"/>
      <use transform="translate(43.58655 0)scale(0.996264)" xlink:href="#CMBX12-111"/>
      <use transform="translate(99.626401 0)scale(0.996264)" xlink:href="#CMBX12-116"/>
      <use transform="translate(143.212951 0)scale(0.996264)" xlink:href="#CMBX12-97"/>
      <use transform="translate(197.696139 0)scale(0.996264)" xlink:href="#CMBX12-108"/>
      <use transform="translate(269.178143 0)scale(0.996264)" xlink:href="#CMBX12-115"/>
      <use transform="translate(313.38748 0)scale(0.996264)" xlink:href="#CMBX12-115"/>
      <use transform="translate(357.596817 0)scale(0.996264)" xlink:href="#CMBX12-119"/>
      <use transform="translate(438.543268 0)scale(0.996264)" xlink:href="#CMBX12-105"/>
      <use transform="translate(469.676518 0)scale(0.996264)" xlink:href="#CMBX12-116"/>
      <use transform="translate(513.263069 0)scale(0.996264)" xlink:href="#CMBX12-99"/>
      <use transform="translate(559.962944 0)scale(0.996264)" xlink:href="#CMBX12-104"/>
      <use transform="translate(662.578198 0)scale(0.996264)" xlink:href="#CMBX12-97"/>
      <use transform="translate(717.061386 0)scale(0.996264)" xlink:href="#CMBX12-114"/>
      <use transform="translate(762.838893 0)scale(0.996264)" xlink:href="#CMBX12-101"/>
      <use transform="translate(813.978161 0)scale(0.996264)" xlink:href="#CMBX12-97"/>
      <path d="M 235.553898 0 
L 269.178143 0 
L 269.178143 0.3985 
L 235.553898 0.3985 
L 235.553898 0 
z
"/>
      <path d="M 628.953953 0 
L 662.578198 0 
L 662.578198 0.3985 
L 628.953953 0.3985 
L 628.953953 0 
z
"/>
     </g>
    </g>
   </g>
  </g>
 </g>
 <defs>
  <clipPath id="p81e1867d13">
   <rect height="133.92" width="453.6" x="40.32" y="10.8"/>
  </clipPath>
 </defs>
 <defs>
  <pattern height="72" id="hab2a23fbc4" patternUnits="userSpaceOnUse" width="72" x="0" y="0">
   <rect fill="#1f78b4" height="73" width="73" x="0" y="0"/>
   <path d="M -36 36 
L 36 -36 
M -33 39 
L 39 -33 
M -30 42 
L 42 -30 
M -27 45 
L 45 -27 
M -24 48 
L 48 -24 
M -21 51 
L 51 -21 
M -18 54 
L 54 -18 
M -15 57 
L 57 -15 
M -12 60 
L 60 -12 
M -9 63 
L 63 -9 
M -6 66 
L 66 -6 
M -3 69 
L 69 -3 
M 0 72 
L 72 0 
M 3 75 
L 75 3 
M 6 78 
L 78 6 
M 9 81 
L 81 9 
M 12 84 
L 84 12 
M 15 87 
L 87 15 
M 18 90 
L 90 18 
M 21 93 
L 93 21 
M 24 96 
L 96 24 
M 27 99 
L 99 27 
M 30 102 
L 102 30 
M 33 105 
L 105 33 
M 36 108 
L 108 36 
" style="fill:#000000;stroke:#000000;stroke-linecap:butt;stroke-linejoin:miter;stroke-width:1.0;"/>
  </pattern>
 </defs>
</svg>
