<?xml version="1.0" encoding="utf-8" standalone="no"?>
<!DOCTYPE svg PUBLIC "-//W3C//DTD SVG 1.1//EN"
  "http://www.w3.org/Graphics/SVG/1.1/DTD/svg11.dtd">
<!-- Created with matplotlib (https://matplotlib.org/) -->
<svg height="259.2pt" version="1.1" viewBox="0 0 518.4 259.2" width="518.4pt" xmlns="http://www.w3.org/2000/svg" xmlns:xlink="http://www.w3.org/1999/xlink">
 <defs>
  <style type="text/css">
*{stroke-linecap:butt;stroke-linejoin:round;}
  </style>
 </defs>
 <g id="figure_1">
  <g id="patch_1">
   <path d="M 0 259.2 
L 518.4 259.2 
L 518.4 0 
L 0 0 
z
" style="fill:#ffffff;"/>
  </g>
  <g id="axes_1">
   <g id="patch_2">
    <path d="M 62.208 119.414063 
L 497.34 119.414063 
L 497.34 51.84 
L 62.208 51.84 
z
" style="fill:#ffffff;"/>
   </g>
   <g id="matplotlib.axis_1">
    <g id="xtick_1">
     <g id="line2d_1">
      <defs>
       <path d="M 0 0 
L 0 3.5 
" id="m208bc5ddee" style="stroke:#000000;stroke-width:0.8;"/>
      </defs>
      <g>
       <use style="stroke:#000000;stroke-width:0.8;" x="73.923092" xlink:href="#m208bc5ddee" y="119.414063"/>
      </g>
     </g>
    </g>
    <g id="xtick_2">
     <g id="line2d_2">
      <g>
       <use style="stroke:#000000;stroke-width:0.8;" x="107.394785" xlink:href="#m208bc5ddee" y="119.414063"/>
      </g>
     </g>
    </g>
    <g id="xtick_3">
     <g id="line2d_3">
      <g>
       <use style="stroke:#000000;stroke-width:0.8;" x="140.866477" xlink:href="#m208bc5ddee" y="119.414063"/>
      </g>
     </g>
    </g>
    <g id="xtick_4">
     <g id="line2d_4">
      <g>
       <use style="stroke:#000000;stroke-width:0.8;" x="174.338169" xlink:href="#m208bc5ddee" y="119.414063"/>
      </g>
     </g>
    </g>
    <g id="xtick_5">
     <g id="line2d_5">
      <g>
       <use style="stroke:#000000;stroke-width:0.8;" x="207.809862" xlink:href="#m208bc5ddee" y="119.414063"/>
      </g>
     </g>
    </g>
    <g id="xtick_6">
     <g id="line2d_6">
      <g>
       <use style="stroke:#000000;stroke-width:0.8;" x="241.281554" xlink:href="#m208bc5ddee" y="119.414063"/>
      </g>
     </g>
    </g>
    <g id="xtick_7">
     <g id="line2d_7">
      <g>
       <use style="stroke:#000000;stroke-width:0.8;" x="274.753246" xlink:href="#m208bc5ddee" y="119.414063"/>
      </g>
     </g>
    </g>
    <g id="xtick_8">
     <g id="line2d_8">
      <g>
       <use style="stroke:#000000;stroke-width:0.8;" x="308.224938" xlink:href="#m208bc5ddee" y="119.414063"/>
      </g>
     </g>
    </g>
    <g id="xtick_9">
     <g id="line2d_9">
      <g>
       <use style="stroke:#000000;stroke-width:0.8;" x="341.696631" xlink:href="#m208bc5ddee" y="119.414063"/>
      </g>
     </g>
    </g>
    <g id="xtick_10">
     <g id="line2d_10">
      <g>
       <use style="stroke:#000000;stroke-width:0.8;" x="375.168323" xlink:href="#m208bc5ddee" y="119.414063"/>
      </g>
     </g>
    </g>
    <g id="xtick_11">
     <g id="line2d_11">
      <g>
       <use style="stroke:#000000;stroke-width:0.8;" x="408.640015" xlink:href="#m208bc5ddee" y="119.414063"/>
      </g>
     </g>
    </g>
    <g id="xtick_12">
     <g id="line2d_12">
      <g>
       <use style="stroke:#000000;stroke-width:0.8;" x="442.111708" xlink:href="#m208bc5ddee" y="119.414063"/>
      </g>
     </g>
    </g>
    <g id="xtick_13">
     <g id="line2d_13">
      <g>
       <use style="stroke:#000000;stroke-width:0.8;" x="475.5834" xlink:href="#m208bc5ddee" y="119.414063"/>
      </g>
     </g>
    </g>
   </g>
   <g id="matplotlib.axis_2">
    <g id="ytick_1">
     <g id="line2d_14">
      <path clip-path="url(#p41378d5abe)" d="M 62.208 119.414063 
L 497.34 119.414063 
" style="fill:none;stroke:#808080;stroke-dasharray:2.96,1.28;stroke-dashoffset:0;stroke-width:0.8;"/>
     </g>
     <g id="line2d_15">
      <defs>
       <path d="M 0 0 
L -3.5 0 
" id="m141c2a8e0c" style="stroke:#000000;stroke-width:0.8;"/>
      </defs>
      <g>
       <use style="stroke:#000000;stroke-width:0.8;" x="62.208" xlink:href="#m141c2a8e0c" y="119.414063"/>
      </g>
     </g>
     <g id="text_1">
      <!-- 0 -->
      <defs>
       <path d="M 31.78125 66.40625 
Q 24.171875 66.40625 20.328125 58.90625 
Q 16.5 51.421875 16.5 36.375 
Q 16.5 21.390625 20.328125 13.890625 
Q 24.171875 6.390625 31.78125 6.390625 
Q 39.453125 6.390625 43.28125 13.890625 
Q 47.125 21.390625 47.125 36.375 
Q 47.125 51.421875 43.28125 58.90625 
Q 39.453125 66.40625 31.78125 66.40625 
z
M 31.78125 74.21875 
Q 44.046875 74.21875 50.515625 64.515625 
Q 56.984375 54.828125 56.984375 36.375 
Q 56.984375 17.96875 50.515625 8.265625 
Q 44.046875 -1.421875 31.78125 -1.421875 
Q 19.53125 -1.421875 13.0625 8.265625 
Q 6.59375 17.96875 6.59375 36.375 
Q 6.59375 54.828125 13.0625 64.515625 
Q 19.53125 74.21875 31.78125 74.21875 
z
" id="DejaVuSans-48"/>
      </defs>
      <g transform="translate(48.8455 123.213282)scale(0.1 -0.1)">
       <use xlink:href="#DejaVuSans-48"/>
      </g>
     </g>
    </g>
    <g id="ytick_2">
     <g id="line2d_16">
      <path clip-path="url(#p41378d5abe)" d="M 62.208 87.222544 
L 497.34 87.222544 
" style="fill:none;stroke:#808080;stroke-dasharray:2.96,1.28;stroke-dashoffset:0;stroke-width:0.8;"/>
     </g>
     <g id="line2d_17">
      <g>
       <use style="stroke:#000000;stroke-width:0.8;" x="62.208" xlink:href="#m141c2a8e0c" y="87.222544"/>
      </g>
     </g>
     <g id="text_2">
      <!-- 20 -->
      <defs>
       <path d="M 19.1875 8.296875 
L 53.609375 8.296875 
L 53.609375 0 
L 7.328125 0 
L 7.328125 8.296875 
Q 12.9375 14.109375 22.625 23.890625 
Q 32.328125 33.6875 34.8125 36.53125 
Q 39.546875 41.84375 41.421875 45.53125 
Q 43.3125 49.21875 43.3125 52.78125 
Q 43.3125 58.59375 39.234375 62.25 
Q 35.15625 65.921875 28.609375 65.921875 
Q 23.96875 65.921875 18.8125 64.3125 
Q 13.671875 62.703125 7.8125 59.421875 
L 7.8125 69.390625 
Q 13.765625 71.78125 18.9375 73 
Q 24.125 74.21875 28.421875 74.21875 
Q 39.75 74.21875 46.484375 68.546875 
Q 53.21875 62.890625 53.21875 53.421875 
Q 53.21875 48.921875 51.53125 44.890625 
Q 49.859375 40.875 45.40625 35.40625 
Q 44.1875 33.984375 37.640625 27.21875 
Q 31.109375 20.453125 19.1875 8.296875 
z
" id="DejaVuSans-50"/>
      </defs>
      <g transform="translate(42.483 91.021763)scale(0.1 -0.1)">
       <use xlink:href="#DejaVuSans-50"/>
       <use x="63.623047" xlink:href="#DejaVuSans-48"/>
      </g>
     </g>
    </g>
    <g id="ytick_3">
     <g id="line2d_18">
      <path clip-path="url(#p41378d5abe)" d="M 62.208 55.031025 
L 497.34 55.031025 
" style="fill:none;stroke:#808080;stroke-dasharray:2.96,1.28;stroke-dashoffset:0;stroke-width:0.8;"/>
     </g>
     <g id="line2d_19">
      <g>
       <use style="stroke:#000000;stroke-width:0.8;" x="62.208" xlink:href="#m141c2a8e0c" y="55.031025"/>
      </g>
     </g>
     <g id="text_3">
      <!-- 40 -->
      <defs>
       <path d="M 37.796875 64.3125 
L 12.890625 25.390625 
L 37.796875 25.390625 
z
M 35.203125 72.90625 
L 47.609375 72.90625 
L 47.609375 25.390625 
L 58.015625 25.390625 
L 58.015625 17.1875 
L 47.609375 17.1875 
L 47.609375 0 
L 37.796875 0 
L 37.796875 17.1875 
L 4.890625 17.1875 
L 4.890625 26.703125 
z
" id="DejaVuSans-52"/>
      </defs>
      <g transform="translate(42.483 58.830244)scale(0.1 -0.1)">
       <use xlink:href="#DejaVuSans-52"/>
       <use x="63.623047" xlink:href="#DejaVuSans-48"/>
      </g>
     </g>
    </g>
    <g id="text_4">
     <!-- (a) -->
     <defs>
      <path d="M 31 75.875 
Q 24.46875 64.65625 21.28125 53.65625 
Q 18.109375 42.671875 18.109375 31.390625 
Q 18.109375 20.125 21.3125 9.0625 
Q 24.515625 -2 31 -13.1875 
L 23.1875 -13.1875 
Q 15.875 -1.703125 12.234375 9.375 
Q 8.59375 20.453125 8.59375 31.390625 
Q 8.59375 42.28125 12.203125 53.3125 
Q 15.828125 64.359375 23.1875 75.875 
z
" id="DejaVuSans-40"/>
      <path d="M 34.28125 27.484375 
Q 23.390625 27.484375 19.1875 25 
Q 14.984375 22.515625 14.984375 16.5 
Q 14.984375 11.71875 18.140625 8.90625 
Q 21.296875 6.109375 26.703125 6.109375 
Q 34.1875 6.109375 38.703125 11.40625 
Q 43.21875 16.703125 43.21875 25.484375 
L 43.21875 27.484375 
z
M 52.203125 31.203125 
L 52.203125 0 
L 43.21875 0 
L 43.21875 8.296875 
Q 40.140625 3.328125 35.546875 0.953125 
Q 30.953125 -1.421875 24.3125 -1.421875 
Q 15.921875 -1.421875 10.953125 3.296875 
Q 6 8.015625 6 15.921875 
Q 6 25.140625 12.171875 29.828125 
Q 18.359375 34.515625 30.609375 34.515625 
L 43.21875 34.515625 
L 43.21875 35.40625 
Q 43.21875 41.609375 39.140625 45 
Q 35.0625 48.390625 27.6875 48.390625 
Q 23 48.390625 18.546875 47.265625 
Q 14.109375 46.140625 10.015625 43.890625 
L 10.015625 52.203125 
Q 14.9375 54.109375 19.578125 55.046875 
Q 24.21875 56 28.609375 56 
Q 40.484375 56 46.34375 49.84375 
Q 52.203125 43.703125 52.203125 31.203125 
z
" id="DejaVuSans-97"/>
      <path d="M 8.015625 75.875 
L 15.828125 75.875 
Q 23.140625 64.359375 26.78125 53.3125 
Q 30.421875 42.28125 30.421875 31.390625 
Q 30.421875 20.453125 26.78125 9.375 
Q 23.140625 -1.703125 15.828125 -13.1875 
L 8.015625 -13.1875 
Q 14.5 -2 17.703125 9.0625 
Q 20.90625 20.125 20.90625 31.390625 
Q 20.90625 42.671875 17.703125 53.65625 
Q 14.5 64.65625 8.015625 75.875 
z
" id="DejaVuSans-41"/>
     </defs>
     <g transform="translate(14.007688 92.592656)rotate(-90)scale(0.1 -0.1)">
      <use xlink:href="#DejaVuSans-40"/>
      <use x="39.013672" xlink:href="#DejaVuSans-97"/>
      <use x="100.292969" xlink:href="#DejaVuSans-41"/>
     </g>
     <!-- Pipelined -->
     <defs>
      <path d="M 19.671875 64.796875 
L 19.671875 37.40625 
L 32.078125 37.40625 
Q 38.96875 37.40625 42.71875 40.96875 
Q 46.484375 44.53125 46.484375 51.125 
Q 46.484375 57.671875 42.71875 61.234375 
Q 38.96875 64.796875 32.078125 64.796875 
z
M 9.8125 72.90625 
L 32.078125 72.90625 
Q 44.34375 72.90625 50.609375 67.359375 
Q 56.890625 61.8125 56.890625 51.125 
Q 56.890625 40.328125 50.609375 34.8125 
Q 44.34375 29.296875 32.078125 29.296875 
L 19.671875 29.296875 
L 19.671875 0 
L 9.8125 0 
z
" id="DejaVuSans-80"/>
      <path d="M 9.421875 54.6875 
L 18.40625 54.6875 
L 18.40625 0 
L 9.421875 0 
z
M 9.421875 75.984375 
L 18.40625 75.984375 
L 18.40625 64.59375 
L 9.421875 64.59375 
z
" id="DejaVuSans-105"/>
      <path d="M 18.109375 8.203125 
L 18.109375 -20.796875 
L 9.078125 -20.796875 
L 9.078125 54.6875 
L 18.109375 54.6875 
L 18.109375 46.390625 
Q 20.953125 51.265625 25.265625 53.625 
Q 29.59375 56 35.59375 56 
Q 45.5625 56 51.78125 48.09375 
Q 58.015625 40.1875 58.015625 27.296875 
Q 58.015625 14.40625 51.78125 6.484375 
Q 45.5625 -1.421875 35.59375 -1.421875 
Q 29.59375 -1.421875 25.265625 0.953125 
Q 20.953125 3.328125 18.109375 8.203125 
z
M 48.6875 27.296875 
Q 48.6875 37.203125 44.609375 42.84375 
Q 40.53125 48.484375 33.40625 48.484375 
Q 26.265625 48.484375 22.1875 42.84375 
Q 18.109375 37.203125 18.109375 27.296875 
Q 18.109375 17.390625 22.1875 11.75 
Q 26.265625 6.109375 33.40625 6.109375 
Q 40.53125 6.109375 44.609375 11.75 
Q 48.6875 17.390625 48.6875 27.296875 
z
" id="DejaVuSans-112"/>
      <path d="M 56.203125 29.59375 
L 56.203125 25.203125 
L 14.890625 25.203125 
Q 15.484375 15.921875 20.484375 11.0625 
Q 25.484375 6.203125 34.421875 6.203125 
Q 39.59375 6.203125 44.453125 7.46875 
Q 49.3125 8.734375 54.109375 11.28125 
L 54.109375 2.78125 
Q 49.265625 0.734375 44.1875 -0.34375 
Q 39.109375 -1.421875 33.890625 -1.421875 
Q 20.796875 -1.421875 13.15625 6.1875 
Q 5.515625 13.8125 5.515625 26.8125 
Q 5.515625 40.234375 12.765625 48.109375 
Q 20.015625 56 32.328125 56 
Q 43.359375 56 49.78125 48.890625 
Q 56.203125 41.796875 56.203125 29.59375 
z
M 47.21875 32.234375 
Q 47.125 39.59375 43.09375 43.984375 
Q 39.0625 48.390625 32.421875 48.390625 
Q 24.90625 48.390625 20.390625 44.140625 
Q 15.875 39.890625 15.1875 32.171875 
z
" id="DejaVuSans-101"/>
      <path d="M 9.421875 75.984375 
L 18.40625 75.984375 
L 18.40625 0 
L 9.421875 0 
z
" id="DejaVuSans-108"/>
      <path d="M 54.890625 33.015625 
L 54.890625 0 
L 45.90625 0 
L 45.90625 32.71875 
Q 45.90625 40.484375 42.875 44.328125 
Q 39.84375 48.1875 33.796875 48.1875 
Q 26.515625 48.1875 22.3125 43.546875 
Q 18.109375 38.921875 18.109375 30.90625 
L 18.109375 0 
L 9.078125 0 
L 9.078125 54.6875 
L 18.109375 54.6875 
L 18.109375 46.1875 
Q 21.34375 51.125 25.703125 53.5625 
Q 30.078125 56 35.796875 56 
Q 45.21875 56 50.046875 50.171875 
Q 54.890625 44.34375 54.890625 33.015625 
z
" id="DejaVuSans-110"/>
      <path d="M 45.40625 46.390625 
L 45.40625 75.984375 
L 54.390625 75.984375 
L 54.390625 0 
L 45.40625 0 
L 45.40625 8.203125 
Q 42.578125 3.328125 38.25 0.953125 
Q 33.9375 -1.421875 27.875 -1.421875 
Q 17.96875 -1.421875 11.734375 6.484375 
Q 5.515625 14.40625 5.515625 27.296875 
Q 5.515625 40.1875 11.734375 48.09375 
Q 17.96875 56 27.875 56 
Q 33.9375 56 38.25 53.625 
Q 42.578125 51.265625 45.40625 46.390625 
z
M 14.796875 27.296875 
Q 14.796875 17.390625 18.875 11.75 
Q 22.953125 6.109375 30.078125 6.109375 
Q 37.203125 6.109375 41.296875 11.75 
Q 45.40625 17.390625 45.40625 27.296875 
Q 45.40625 37.203125 41.296875 42.84375 
Q 37.203125 48.484375 30.078125 48.484375 
Q 22.953125 48.484375 18.875 42.84375 
Q 14.796875 37.203125 14.796875 27.296875 
z
" id="DejaVuSans-100"/>
     </defs>
     <g transform="translate(25.2055 108.477813)rotate(-90)scale(0.1 -0.1)">
      <use xlink:href="#DejaVuSans-80"/>
      <use x="60.271484" xlink:href="#DejaVuSans-105"/>
      <use x="88.054688" xlink:href="#DejaVuSans-112"/>
      <use x="151.53125" xlink:href="#DejaVuSans-101"/>
      <use x="213.054688" xlink:href="#DejaVuSans-108"/>
      <use x="240.837891" xlink:href="#DejaVuSans-105"/>
      <use x="268.621094" xlink:href="#DejaVuSans-110"/>
      <use x="332" xlink:href="#DejaVuSans-101"/>
      <use x="393.523438" xlink:href="#DejaVuSans-100"/>
     </g>
     <!-- Norm Perf -->
     <defs>
      <path d="M 9.8125 72.90625 
L 23.09375 72.90625 
L 55.421875 11.921875 
L 55.421875 72.90625 
L 64.984375 72.90625 
L 64.984375 0 
L 51.703125 0 
L 19.390625 60.984375 
L 19.390625 0 
L 9.8125 0 
z
" id="DejaVuSans-78"/>
      <path d="M 30.609375 48.390625 
Q 23.390625 48.390625 19.1875 42.75 
Q 14.984375 37.109375 14.984375 27.296875 
Q 14.984375 17.484375 19.15625 11.84375 
Q 23.34375 6.203125 30.609375 6.203125 
Q 37.796875 6.203125 41.984375 11.859375 
Q 46.1875 17.53125 46.1875 27.296875 
Q 46.1875 37.015625 41.984375 42.703125 
Q 37.796875 48.390625 30.609375 48.390625 
z
M 30.609375 56 
Q 42.328125 56 49.015625 48.375 
Q 55.71875 40.765625 55.71875 27.296875 
Q 55.71875 13.875 49.015625 6.21875 
Q 42.328125 -1.421875 30.609375 -1.421875 
Q 18.84375 -1.421875 12.171875 6.21875 
Q 5.515625 13.875 5.515625 27.296875 
Q 5.515625 40.765625 12.171875 48.375 
Q 18.84375 56 30.609375 56 
z
" id="DejaVuSans-111"/>
      <path d="M 41.109375 46.296875 
Q 39.59375 47.171875 37.8125 47.578125 
Q 36.03125 48 33.890625 48 
Q 26.265625 48 22.1875 43.046875 
Q 18.109375 38.09375 18.109375 28.8125 
L 18.109375 0 
L 9.078125 0 
L 9.078125 54.6875 
L 18.109375 54.6875 
L 18.109375 46.1875 
Q 20.953125 51.171875 25.484375 53.578125 
Q 30.03125 56 36.53125 56 
Q 37.453125 56 38.578125 55.875 
Q 39.703125 55.765625 41.0625 55.515625 
z
" id="DejaVuSans-114"/>
      <path d="M 52 44.1875 
Q 55.375 50.25 60.0625 53.125 
Q 64.75 56 71.09375 56 
Q 79.640625 56 84.28125 50.015625 
Q 88.921875 44.046875 88.921875 33.015625 
L 88.921875 0 
L 79.890625 0 
L 79.890625 32.71875 
Q 79.890625 40.578125 77.09375 44.375 
Q 74.3125 48.1875 68.609375 48.1875 
Q 61.625 48.1875 57.5625 43.546875 
Q 53.515625 38.921875 53.515625 30.90625 
L 53.515625 0 
L 44.484375 0 
L 44.484375 32.71875 
Q 44.484375 40.625 41.703125 44.40625 
Q 38.921875 48.1875 33.109375 48.1875 
Q 26.21875 48.1875 22.15625 43.53125 
Q 18.109375 38.875 18.109375 30.90625 
L 18.109375 0 
L 9.078125 0 
L 9.078125 54.6875 
L 18.109375 54.6875 
L 18.109375 46.1875 
Q 21.1875 51.21875 25.484375 53.609375 
Q 29.78125 56 35.6875 56 
Q 41.65625 56 45.828125 52.96875 
Q 50 49.953125 52 44.1875 
z
" id="DejaVuSans-109"/>
      <path id="DejaVuSans-32"/>
      <path d="M 37.109375 75.984375 
L 37.109375 68.5 
L 28.515625 68.5 
Q 23.6875 68.5 21.796875 66.546875 
Q 19.921875 64.59375 19.921875 59.515625 
L 19.921875 54.6875 
L 34.71875 54.6875 
L 34.71875 47.703125 
L 19.921875 47.703125 
L 19.921875 0 
L 10.890625 0 
L 10.890625 47.703125 
L 2.296875 47.703125 
L 2.296875 54.6875 
L 10.890625 54.6875 
L 10.890625 58.5 
Q 10.890625 67.625 15.140625 71.796875 
Q 19.390625 75.984375 28.609375 75.984375 
z
" id="DejaVuSans-102"/>
     </defs>
     <g transform="translate(36.403312 110.845781)rotate(-90)scale(0.1 -0.1)">
      <use xlink:href="#DejaVuSans-78"/>
      <use x="74.804688" xlink:href="#DejaVuSans-111"/>
      <use x="135.986328" xlink:href="#DejaVuSans-114"/>
      <use x="177.083984" xlink:href="#DejaVuSans-109"/>
      <use x="274.496094" xlink:href="#DejaVuSans-32"/>
      <use x="306.283203" xlink:href="#DejaVuSans-80"/>
      <use x="366.539062" xlink:href="#DejaVuSans-101"/>
      <use x="428.0625" xlink:href="#DejaVuSans-114"/>
      <use x="469.175781" xlink:href="#DejaVuSans-102"/>
     </g>
    </g>
   </g>
   <g id="patch_3">
    <path clip-path="url(#p41378d5abe)" d="M 62.208 119.414063 
L 65.555169 119.414063 
L 65.555169 117.804487 
L 62.208 117.804487 
z
" style="fill:#2ca02c;"/>
   </g>
   <g id="patch_4">
    <path clip-path="url(#p41378d5abe)" d="M 95.679692 119.414063 
L 99.026862 119.414063 
L 99.026862 117.804487 
L 95.679692 117.804487 
z
" style="fill:#2ca02c;"/>
   </g>
   <g id="patch_5">
    <path clip-path="url(#p41378d5abe)" d="M 129.151385 119.414063 
L 132.498554 119.414063 
L 132.498554 116.923145 
L 129.151385 116.923145 
z
" style="fill:#2ca02c;"/>
   </g>
   <g id="patch_6">
    <path clip-path="url(#p41378d5abe)" d="M 162.623077 119.414063 
L 165.970246 119.414063 
L 165.970246 117.804487 
L 162.623077 117.804487 
z
" style="fill:#2ca02c;"/>
   </g>
   <g id="patch_7">
    <path clip-path="url(#p41378d5abe)" d="M 196.094769 119.414063 
L 199.441938 119.414063 
L 199.441938 115.208731 
L 196.094769 115.208731 
z
" style="fill:#2ca02c;"/>
   </g>
   <g id="patch_8">
    <path clip-path="url(#p41378d5abe)" d="M 229.566462 119.414063 
L 232.913631 119.414063 
L 232.913631 117.804487 
L 229.566462 117.804487 
z
" style="fill:#2ca02c;"/>
   </g>
   <g id="patch_9">
    <path clip-path="url(#p41378d5abe)" d="M 263.038154 119.414063 
L 266.385323 119.414063 
L 266.385323 117.804487 
L 263.038154 117.804487 
z
" style="fill:#2ca02c;"/>
   </g>
   <g id="patch_10">
    <path clip-path="url(#p41378d5abe)" d="M 296.509846 119.414063 
L 299.857015 119.414063 
L 299.857015 117.804487 
L 296.509846 117.804487 
z
" style="fill:#2ca02c;"/>
   </g>
   <g id="patch_11">
    <path clip-path="url(#p41378d5abe)" d="M 329.981538 119.414063 
L 333.328708 119.414063 
L 333.328708 117.804487 
L 329.981538 117.804487 
z
" style="fill:#2ca02c;"/>
   </g>
   <g id="patch_12">
    <path clip-path="url(#p41378d5abe)" d="M 363.453231 119.414063 
L 366.8004 119.414063 
L 366.8004 117.804487 
L 363.453231 117.804487 
z
" style="fill:#2ca02c;"/>
   </g>
   <g id="patch_13">
    <path clip-path="url(#p41378d5abe)" d="M 396.924923 119.414063 
L 400.272092 119.414063 
L 400.272092 117.804487 
L 396.924923 117.804487 
z
" style="fill:#2ca02c;"/>
   </g>
   <g id="patch_14">
    <path clip-path="url(#p41378d5abe)" d="M 430.396615 119.414063 
L 433.743785 119.414063 
L 433.743785 117.804487 
L 430.396615 117.804487 
z
" style="fill:#2ca02c;"/>
   </g>
   <g id="patch_15">
    <path clip-path="url(#p41378d5abe)" d="M 463.868308 119.414063 
L 467.215477 119.414063 
L 467.215477 117.804487 
L 463.868308 117.804487 
z
" style="fill:#2ca02c;"/>
   </g>
   <g id="patch_16">
    <path clip-path="url(#p41378d5abe)" d="M 65.555169 119.414063 
L 68.902338 119.414063 
L 68.902338 117.762201 
L 65.555169 117.762201 
z
" style="fill:#ff7f0e;"/>
   </g>
   <g id="patch_17">
    <path clip-path="url(#p41378d5abe)" d="M 99.026862 119.414063 
L 102.374031 119.414063 
L 102.374031 116.595383 
L 99.026862 116.595383 
z
" style="fill:#ff7f0e;"/>
   </g>
   <g id="patch_18">
    <path clip-path="url(#p41378d5abe)" d="M 132.498554 119.414063 
L 135.845723 119.414063 
L 135.845723 119.414063 
L 132.498554 119.414063 
z
" style="fill:#ff7f0e;"/>
   </g>
   <g id="patch_19">
    <path clip-path="url(#p41378d5abe)" d="M 165.970246 119.414063 
L 169.317415 119.414063 
L 169.317415 117.792604 
L 165.970246 117.792604 
z
" style="fill:#ff7f0e;"/>
   </g>
   <g id="patch_20">
    <path clip-path="url(#p41378d5abe)" d="M 199.441938 119.414063 
L 202.789108 119.414063 
L 202.789108 119.414063 
L 199.441938 119.414063 
z
" style="fill:#ff7f0e;"/>
   </g>
   <g id="patch_21">
    <path clip-path="url(#p41378d5abe)" d="M 232.913631 119.414063 
L 236.2608 119.414063 
L 236.2608 119.414063 
L 232.913631 119.414063 
z
" style="fill:#ff7f0e;"/>
   </g>
   <g id="patch_22">
    <path clip-path="url(#p41378d5abe)" d="M 266.385323 119.414063 
L 269.732492 119.414063 
L 269.732492 115.066473 
L 266.385323 115.066473 
z
" style="fill:#ff7f0e;"/>
   </g>
   <g id="patch_23">
    <path clip-path="url(#p41378d5abe)" d="M 299.857015 119.414063 
L 303.204185 119.414063 
L 303.204185 119.414063 
L 299.857015 119.414063 
z
" style="fill:#ff7f0e;"/>
   </g>
   <g id="patch_24">
    <path clip-path="url(#p41378d5abe)" d="M 333.328708 119.414063 
L 336.675877 119.414063 
L 336.675877 114.567379 
L 333.328708 114.567379 
z
" style="fill:#ff7f0e;"/>
   </g>
   <g id="patch_25">
    <path clip-path="url(#p41378d5abe)" d="M 366.8004 119.414063 
L 370.147569 119.414063 
L 370.147569 112.771857 
L 366.8004 112.771857 
z
" style="fill:#ff7f0e;"/>
   </g>
   <g id="patch_26">
    <path clip-path="url(#p41378d5abe)" d="M 400.272092 119.414063 
L 403.619262 119.414063 
L 403.619262 114.246875 
L 400.272092 114.246875 
z
" style="fill:#ff7f0e;"/>
   </g>
   <g id="patch_27">
    <path clip-path="url(#p41378d5abe)" d="M 433.743785 119.414063 
L 437.090954 119.414063 
L 437.090954 114.53517 
L 433.743785 114.53517 
z
" style="fill:#ff7f0e;"/>
   </g>
   <g id="patch_28">
    <path clip-path="url(#p41378d5abe)" d="M 467.215477 119.414063 
L 470.562646 119.414063 
L 470.562646 105.275729 
L 467.215477 105.275729 
z
" style="fill:#ff7f0e;"/>
   </g>
   <g id="patch_29">
    <path clip-path="url(#p41378d5abe)" d="M 68.902338 119.414063 
L 72.249508 119.414063 
L 72.249508 117.762182 
L 68.902338 117.762182 
z
" style="fill:#1f77b4;"/>
   </g>
   <g id="patch_30">
    <path clip-path="url(#p41378d5abe)" d="M 102.374031 119.414063 
L 105.7212 119.414063 
L 105.7212 116.595383 
L 102.374031 116.595383 
z
" style="fill:#1f77b4;"/>
   </g>
   <g id="patch_31">
    <path clip-path="url(#p41378d5abe)" d="M 135.845723 119.414063 
L 139.192892 119.414063 
L 139.192892 117.804487 
L 135.845723 117.804487 
z
" style="fill:#1f77b4;"/>
   </g>
   <g id="patch_32">
    <path clip-path="url(#p41378d5abe)" d="M 169.317415 119.414063 
L 172.664585 119.414063 
L 172.664585 117.792031 
L 169.317415 117.792031 
z
" style="fill:#1f77b4;"/>
   </g>
   <g id="patch_33">
    <path clip-path="url(#p41378d5abe)" d="M 202.789108 119.414063 
L 206.136277 119.414063 
L 206.136277 117.804487 
L 202.789108 117.804487 
z
" style="fill:#1f77b4;"/>
   </g>
   <g id="patch_34">
    <path clip-path="url(#p41378d5abe)" d="M 236.2608 119.414063 
L 239.607969 119.414063 
L 239.607969 109.102101 
L 236.2608 109.102101 
z
" style="fill:#1f77b4;"/>
   </g>
   <g id="patch_35">
    <path clip-path="url(#p41378d5abe)" d="M 269.732492 119.414063 
L 273.079662 119.414063 
L 273.079662 108.909101 
L 269.732492 108.909101 
z
" style="fill:#1f77b4;"/>
   </g>
   <g id="patch_36">
    <path clip-path="url(#p41378d5abe)" d="M 303.204185 119.414063 
L 306.551354 119.414063 
L 306.551354 105.553689 
L 303.204185 105.553689 
z
" style="fill:#1f77b4;"/>
   </g>
   <g id="patch_37">
    <path clip-path="url(#p41378d5abe)" d="M 336.675877 119.414063 
L 340.023046 119.414063 
L 340.023046 114.567085 
L 336.675877 114.567085 
z
" style="fill:#1f77b4;"/>
   </g>
   <g id="patch_38">
    <path clip-path="url(#p41378d5abe)" d="M 370.147569 119.414063 
L 373.494738 119.414063 
L 373.494738 112.771857 
L 370.147569 112.771857 
z
" style="fill:#1f77b4;"/>
   </g>
   <g id="patch_39">
    <path clip-path="url(#p41378d5abe)" d="M 403.619262 119.414063 
L 406.966431 119.414063 
L 406.966431 109.214553 
L 403.619262 109.214553 
z
" style="fill:#1f77b4;"/>
   </g>
   <g id="patch_40">
    <path clip-path="url(#p41378d5abe)" d="M 437.090954 119.414063 
L 440.438123 119.414063 
L 440.438123 114.535454 
L 437.090954 114.535454 
z
" style="fill:#1f77b4;"/>
   </g>
   <g id="patch_41">
    <path clip-path="url(#p41378d5abe)" d="M 470.562646 119.414063 
L 473.909815 119.414063 
L 473.909815 92.527363 
L 470.562646 92.527363 
z
" style="fill:#1f77b4;"/>
   </g>
   <g id="patch_42">
    <path clip-path="url(#p41378d5abe)" d="M 72.249508 119.414063 
L 75.596677 119.414063 
L 75.596677 117.762192 
L 72.249508 117.762192 
z
" style="fill:url(#h1a22d6f6fc);"/>
   </g>
   <g id="patch_43">
    <path clip-path="url(#p41378d5abe)" d="M 105.7212 119.414063 
L 109.068369 119.414063 
L 109.068369 116.595383 
L 105.7212 116.595383 
z
" style="fill:url(#h1a22d6f6fc);"/>
   </g>
   <g id="patch_44">
    <path clip-path="url(#p41378d5abe)" d="M 139.192892 119.414063 
L 142.540062 119.414063 
L 142.540062 116.106332 
L 139.192892 116.106332 
z
" style="fill:url(#h1a22d6f6fc);"/>
   </g>
   <g id="patch_45">
    <path clip-path="url(#p41378d5abe)" d="M 172.664585 119.414063 
L 176.011754 119.414063 
L 176.011754 117.712581 
L 172.664585 117.712581 
z
" style="fill:url(#h1a22d6f6fc);"/>
   </g>
   <g id="patch_46">
    <path clip-path="url(#p41378d5abe)" d="M 206.136277 119.414063 
L 209.483446 119.414063 
L 209.483446 92.001843 
L 206.136277 92.001843 
z
" style="fill:url(#h1a22d6f6fc);"/>
   </g>
   <g id="patch_47">
    <path clip-path="url(#p41378d5abe)" d="M 239.607969 119.414063 
L 242.955138 119.414063 
L 242.955138 109.083198 
L 239.607969 109.083198 
z
" style="fill:url(#h1a22d6f6fc);"/>
   </g>
   <g id="patch_48">
    <path clip-path="url(#p41378d5abe)" d="M 273.079662 119.414063 
L 276.426831 119.414063 
L 276.426831 104.379947 
L 273.079662 104.379947 
z
" style="fill:url(#h1a22d6f6fc);"/>
   </g>
   <g id="patch_49">
    <path clip-path="url(#p41378d5abe)" d="M 306.551354 119.414063 
L 309.898523 119.414063 
L 309.898523 105.603457 
L 306.551354 105.603457 
z
" style="fill:url(#h1a22d6f6fc);"/>
   </g>
   <g id="patch_50">
    <path clip-path="url(#p41378d5abe)" d="M 340.023046 119.414063 
L 343.370215 119.414063 
L 343.370215 109.827638 
L 340.023046 109.827638 
z
" style="fill:url(#h1a22d6f6fc);"/>
   </g>
   <g id="patch_51">
    <path clip-path="url(#p41378d5abe)" d="M 373.494738 119.414063 
L 376.841908 119.414063 
L 376.841908 106.173156 
L 373.494738 106.173156 
z
" style="fill:url(#h1a22d6f6fc);"/>
   </g>
   <g id="patch_52">
    <path clip-path="url(#p41378d5abe)" d="M 406.966431 119.414063 
L 410.3136 119.414063 
L 410.3136 101.04511 
L 406.966431 101.04511 
z
" style="fill:url(#h1a22d6f6fc);"/>
   </g>
   <g id="patch_53">
    <path clip-path="url(#p41378d5abe)" d="M 440.438123 119.414063 
L 443.785292 119.414063 
L 443.785292 107.011166 
L 440.438123 107.011166 
z
" style="fill:url(#h1a22d6f6fc);"/>
   </g>
   <g id="patch_54">
    <path clip-path="url(#p41378d5abe)" d="M 473.909815 119.414063 
L 477.256985 119.414063 
L 477.256985 78.85109 
L 473.909815 78.85109 
z
" style="fill:url(#h1a22d6f6fc);"/>
   </g>
   <g id="patch_55">
    <path clip-path="url(#p41378d5abe)" d="M 75.596677 119.414063 
L 78.943846 119.414063 
L 78.943846 117.762192 
L 75.596677 117.762192 
z
" style="fill:url(#ha8e0d00df6);"/>
   </g>
   <g id="patch_56">
    <path clip-path="url(#p41378d5abe)" d="M 109.068369 119.414063 
L 112.415538 119.414063 
L 112.415538 116.599586 
L 109.068369 116.599586 
z
" style="fill:url(#ha8e0d00df6);"/>
   </g>
   <g id="patch_57">
    <path clip-path="url(#p41378d5abe)" d="M 142.540062 119.414063 
L 145.887231 119.414063 
L 145.887231 116.111903 
L 142.540062 116.111903 
z
" style="fill:url(#ha8e0d00df6);"/>
   </g>
   <g id="patch_58">
    <path clip-path="url(#p41378d5abe)" d="M 176.011754 119.414063 
L 179.358923 119.414063 
L 179.358923 117.791946 
L 176.011754 117.791946 
z
" style="fill:url(#ha8e0d00df6);"/>
   </g>
   <g id="patch_59">
    <path clip-path="url(#p41378d5abe)" d="M 209.483446 119.414063 
L 212.830615 119.414063 
L 212.830615 91.994142 
L 209.483446 91.994142 
z
" style="fill:url(#ha8e0d00df6);"/>
   </g>
   <g id="patch_60">
    <path clip-path="url(#p41378d5abe)" d="M 242.955138 119.414063 
L 246.302308 119.414063 
L 246.302308 108.435644 
L 242.955138 108.435644 
z
" style="fill:url(#ha8e0d00df6);"/>
   </g>
   <g id="patch_61">
    <path clip-path="url(#p41378d5abe)" d="M 276.426831 119.414063 
L 279.774 119.414063 
L 279.774 107.550041 
L 276.426831 107.550041 
z
" style="fill:url(#ha8e0d00df6);"/>
   </g>
   <g id="patch_62">
    <path clip-path="url(#p41378d5abe)" d="M 309.898523 119.414063 
L 313.245692 119.414063 
L 313.245692 94.276417 
L 309.898523 94.276417 
z
" style="fill:url(#ha8e0d00df6);"/>
   </g>
   <g id="patch_63">
    <path clip-path="url(#p41378d5abe)" d="M 343.370215 119.414063 
L 346.717385 119.414063 
L 346.717385 101.116695 
L 343.370215 101.116695 
z
" style="fill:url(#ha8e0d00df6);"/>
   </g>
   <g id="patch_64">
    <path clip-path="url(#p41378d5abe)" d="M 376.841908 119.414063 
L 380.189077 119.414063 
L 380.189077 100.274121 
L 376.841908 100.274121 
z
" style="fill:url(#ha8e0d00df6);"/>
   </g>
   <g id="patch_65">
    <path clip-path="url(#p41378d5abe)" d="M 410.3136 119.414063 
L 413.660769 119.414063 
L 413.660769 101.04511 
L 410.3136 101.04511 
z
" style="fill:url(#ha8e0d00df6);"/>
   </g>
   <g id="patch_66">
    <path clip-path="url(#p41378d5abe)" d="M 443.785292 119.414063 
L 447.132462 119.414063 
L 447.132462 107.010904 
L 443.785292 107.010904 
z
" style="fill:url(#ha8e0d00df6);"/>
   </g>
   <g id="patch_67">
    <path clip-path="url(#p41378d5abe)" d="M 477.256985 119.414063 
L 480.604154 119.414063 
L 480.604154 78.830669 
L 477.256985 78.830669 
z
" style="fill:url(#ha8e0d00df6);"/>
   </g>
   <g id="patch_68">
    <path clip-path="url(#p41378d5abe)" d="M 78.943846 119.414063 
L 82.291015 119.414063 
L 82.291015 117.28658 
L 78.943846 117.28658 
z
" style="fill:url(#h28ad827479);"/>
   </g>
   <g id="patch_69">
    <path clip-path="url(#p41378d5abe)" d="M 112.415538 119.414063 
L 115.762708 119.414063 
L 115.762708 116.595351 
L 112.415538 116.595351 
z
" style="fill:url(#h28ad827479);"/>
   </g>
   <g id="patch_70">
    <path clip-path="url(#p41378d5abe)" d="M 145.887231 119.414063 
L 149.2344 119.414063 
L 149.2344 116.091396 
L 145.887231 116.091396 
z
" style="fill:url(#h28ad827479);"/>
   </g>
   <g id="patch_71">
    <path clip-path="url(#p41378d5abe)" d="M 179.358923 119.414063 
L 182.706092 119.414063 
L 182.706092 117.71586 
L 179.358923 117.71586 
z
" style="fill:url(#h28ad827479);"/>
   </g>
   <g id="patch_72">
    <path clip-path="url(#p41378d5abe)" d="M 212.830615 119.414063 
L 216.177785 119.414063 
L 216.177785 90.960541 
L 212.830615 90.960541 
z
" style="fill:url(#h28ad827479);"/>
   </g>
   <g id="patch_73">
    <path clip-path="url(#p41378d5abe)" d="M 246.302308 119.414063 
L 249.649477 119.414063 
L 249.649477 104.276463 
L 246.302308 104.276463 
z
" style="fill:url(#h28ad827479);"/>
   </g>
   <g id="patch_74">
    <path clip-path="url(#p41378d5abe)" d="M 279.774 119.414063 
L 283.121169 119.414063 
L 283.121169 102.444297 
L 279.774 102.444297 
z
" style="fill:url(#h28ad827479);"/>
   </g>
   <g id="patch_75">
    <path clip-path="url(#p41378d5abe)" d="M 313.245692 119.414063 
L 316.592862 119.414063 
L 316.592862 93.514742 
L 313.245692 93.514742 
z
" style="fill:url(#h28ad827479);"/>
   </g>
   <g id="patch_76">
    <path clip-path="url(#p41378d5abe)" d="M 346.717385 119.414063 
L 350.064554 119.414063 
L 350.064554 94.87717 
L 346.717385 94.87717 
z
" style="fill:url(#h28ad827479);"/>
   </g>
   <g id="patch_77">
    <path clip-path="url(#p41378d5abe)" d="M 380.189077 119.414063 
L 383.536246 119.414063 
L 383.536246 100.215213 
L 380.189077 100.215213 
z
" style="fill:url(#h28ad827479);"/>
   </g>
   <g id="patch_78">
    <path clip-path="url(#p41378d5abe)" d="M 413.660769 119.414063 
L 417.007938 119.414063 
L 417.007938 101.045146 
L 413.660769 101.045146 
z
" style="fill:url(#h28ad827479);"/>
   </g>
   <g id="patch_79">
    <path clip-path="url(#p41378d5abe)" d="M 447.132462 119.414063 
L 450.479631 119.414063 
L 450.479631 105.53141 
L 447.132462 105.53141 
z
" style="fill:url(#h28ad827479);"/>
   </g>
   <g id="patch_80">
    <path clip-path="url(#p41378d5abe)" d="M 480.604154 119.414063 
L 483.951323 119.414063 
L 483.951323 55.057813 
L 480.604154 55.057813 
z
" style="fill:url(#h28ad827479);"/>
   </g>
   <g id="patch_81">
    <path clip-path="url(#p41378d5abe)" d="M 82.291015 119.414063 
L 85.638185 119.414063 
L 85.638185 117.762182 
L 82.291015 117.762182 
z
" style="fill:url(#h6778673d94);"/>
   </g>
   <g id="patch_82">
    <path clip-path="url(#p41378d5abe)" d="M 115.762708 119.414063 
L 119.109877 119.414063 
L 119.109877 116.606043 
L 115.762708 116.606043 
z
" style="fill:url(#h6778673d94);"/>
   </g>
   <g id="patch_83">
    <path clip-path="url(#p41378d5abe)" d="M 149.2344 119.414063 
L 152.581569 119.414063 
L 152.581569 116.113388 
L 149.2344 116.113388 
z
" style="fill:url(#h6778673d94);"/>
   </g>
   <g id="patch_84">
    <path clip-path="url(#p41378d5abe)" d="M 182.706092 119.414063 
L 186.053262 119.414063 
L 186.053262 117.791946 
L 182.706092 117.791946 
z
" style="fill:url(#h6778673d94);"/>
   </g>
   <g id="patch_85">
    <path clip-path="url(#p41378d5abe)" d="M 216.177785 119.414063 
L 219.524954 119.414063 
L 219.524954 90.926365 
L 216.177785 90.926365 
z
" style="fill:url(#h6778673d94);"/>
   </g>
   <g id="patch_86">
    <path clip-path="url(#p41378d5abe)" d="M 249.649477 119.414063 
L 252.996646 119.414063 
L 252.996646 108.620474 
L 249.649477 108.620474 
z
" style="fill:url(#h6778673d94);"/>
   </g>
   <g id="patch_87">
    <path clip-path="url(#p41378d5abe)" d="M 283.121169 119.414063 
L 286.468338 119.414063 
L 286.468338 102.301307 
L 283.121169 102.301307 
z
" style="fill:url(#h6778673d94);"/>
   </g>
   <g id="patch_88">
    <path clip-path="url(#p41378d5abe)" d="M 316.592862 119.414063 
L 319.940031 119.414063 
L 319.940031 73.907577 
L 316.592862 73.907577 
z
" style="fill:url(#h6778673d94);"/>
   </g>
   <g id="patch_89">
    <path clip-path="url(#p41378d5abe)" d="M 350.064554 119.414063 
L 353.411723 119.414063 
L 353.411723 94.952252 
L 350.064554 94.952252 
z
" style="fill:url(#h6778673d94);"/>
   </g>
   <g id="patch_90">
    <path clip-path="url(#p41378d5abe)" d="M 383.536246 119.414063 
L 386.883415 119.414063 
L 386.883415 100.210992 
L 383.536246 100.210992 
z
" style="fill:url(#h6778673d94);"/>
   </g>
   <g id="patch_91">
    <path clip-path="url(#p41378d5abe)" d="M 417.007938 119.414063 
L 420.355108 119.414063 
L 420.355108 101.04511 
L 417.007938 101.04511 
z
" style="fill:url(#h6778673d94);"/>
   </g>
   <g id="patch_92">
    <path clip-path="url(#p41378d5abe)" d="M 450.479631 119.414063 
L 453.8268 119.414063 
L 453.8268 105.532067 
L 450.479631 105.532067 
z
" style="fill:url(#h6778673d94);"/>
   </g>
   <g id="patch_93">
    <path clip-path="url(#p41378d5abe)" d="M 483.951323 119.414063 
L 487.298492 119.414063 
L 487.298492 55.058356 
L 483.951323 55.058356 
z
" style="fill:url(#h6778673d94);"/>
   </g>
   <g id="patch_94">
    <path d="M 62.208 119.414063 
L 62.208 51.84 
" style="fill:none;stroke:#000000;stroke-linecap:square;stroke-linejoin:miter;stroke-width:0.8;"/>
   </g>
   <g id="patch_95">
    <path d="M 497.34 119.414063 
L 497.34 51.84 
" style="fill:none;stroke:#000000;stroke-linecap:square;stroke-linejoin:miter;stroke-width:0.8;"/>
   </g>
   <g id="patch_96">
    <path d="M 62.208 119.414063 
L 497.34 119.414063 
" style="fill:none;stroke:#000000;stroke-linecap:square;stroke-linejoin:miter;stroke-width:0.8;"/>
   </g>
   <g id="patch_97">
    <path d="M 62.208 51.84 
L 497.34 51.84 
" style="fill:none;stroke:#000000;stroke-linecap:square;stroke-linejoin:miter;stroke-width:0.8;"/>
   </g>
   <g id="legend_1">
    <g id="patch_98">
     <path d="M 60.662281 41.894406 
L 498.885719 41.894406 
Q 500.885719 41.894406 500.885719 39.894406 
L 500.885719 11.538156 
Q 500.885719 9.538156 498.885719 9.538156 
L 60.662281 9.538156 
Q 58.662281 9.538156 58.662281 11.538156 
L 58.662281 39.894406 
Q 58.662281 41.894406 60.662281 41.894406 
z
" style="fill:#ffffff;opacity:0.8;stroke:#cccccc;stroke-linejoin:miter;"/>
    </g>
    <g id="patch_99">
     <path d="M 62.662281 21.136594 
L 82.662281 21.136594 
L 82.662281 14.136594 
L 62.662281 14.136594 
z
" style="fill:#2ca02c;"/>
    </g>
    <g id="text_5">
     <!-- D-x0-v4-f512 -->
     <defs>
      <path d="M 19.671875 64.796875 
L 19.671875 8.109375 
L 31.59375 8.109375 
Q 46.6875 8.109375 53.6875 14.9375 
Q 60.6875 21.78125 60.6875 36.53125 
Q 60.6875 51.171875 53.6875 57.984375 
Q 46.6875 64.796875 31.59375 64.796875 
z
M 9.8125 72.90625 
L 30.078125 72.90625 
Q 51.265625 72.90625 61.171875 64.09375 
Q 71.09375 55.28125 71.09375 36.53125 
Q 71.09375 17.671875 61.125 8.828125 
Q 51.171875 0 30.078125 0 
L 9.8125 0 
z
" id="DejaVuSans-68"/>
      <path d="M 4.890625 31.390625 
L 31.203125 31.390625 
L 31.203125 23.390625 
L 4.890625 23.390625 
z
" id="DejaVuSans-45"/>
      <path d="M 54.890625 54.6875 
L 35.109375 28.078125 
L 55.90625 0 
L 45.3125 0 
L 29.390625 21.484375 
L 13.484375 0 
L 2.875 0 
L 24.125 28.609375 
L 4.6875 54.6875 
L 15.28125 54.6875 
L 29.78125 35.203125 
L 44.28125 54.6875 
z
" id="DejaVuSans-120"/>
      <path d="M 2.984375 54.6875 
L 12.5 54.6875 
L 29.59375 8.796875 
L 46.6875 54.6875 
L 56.203125 54.6875 
L 35.6875 0 
L 23.484375 0 
z
" id="DejaVuSans-118"/>
      <path d="M 10.796875 72.90625 
L 49.515625 72.90625 
L 49.515625 64.59375 
L 19.828125 64.59375 
L 19.828125 46.734375 
Q 21.96875 47.46875 24.109375 47.828125 
Q 26.265625 48.1875 28.421875 48.1875 
Q 40.625 48.1875 47.75 41.5 
Q 54.890625 34.8125 54.890625 23.390625 
Q 54.890625 11.625 47.5625 5.09375 
Q 40.234375 -1.421875 26.90625 -1.421875 
Q 22.3125 -1.421875 17.546875 -0.640625 
Q 12.796875 0.140625 7.71875 1.703125 
L 7.71875 11.625 
Q 12.109375 9.234375 16.796875 8.0625 
Q 21.484375 6.890625 26.703125 6.890625 
Q 35.15625 6.890625 40.078125 11.328125 
Q 45.015625 15.765625 45.015625 23.390625 
Q 45.015625 31 40.078125 35.4375 
Q 35.15625 39.890625 26.703125 39.890625 
Q 22.75 39.890625 18.8125 39.015625 
Q 14.890625 38.140625 10.796875 36.28125 
z
" id="DejaVuSans-53"/>
      <path d="M 12.40625 8.296875 
L 28.515625 8.296875 
L 28.515625 63.921875 
L 10.984375 60.40625 
L 10.984375 69.390625 
L 28.421875 72.90625 
L 38.28125 72.90625 
L 38.28125 8.296875 
L 54.390625 8.296875 
L 54.390625 0 
L 12.40625 0 
z
" id="DejaVuSans-49"/>
     </defs>
     <g transform="translate(90.662281 21.136594)scale(0.1 -0.1)">
      <use xlink:href="#DejaVuSans-68"/>
      <use x="77.001953" xlink:href="#DejaVuSans-45"/>
      <use x="113.085938" xlink:href="#DejaVuSans-120"/>
      <use x="172.265625" xlink:href="#DejaVuSans-48"/>
      <use x="235.888672" xlink:href="#DejaVuSans-45"/>
      <use x="271.941406" xlink:href="#DejaVuSans-118"/>
      <use x="331.121094" xlink:href="#DejaVuSans-52"/>
      <use x="394.744141" xlink:href="#DejaVuSans-45"/>
      <use x="430.828125" xlink:href="#DejaVuSans-102"/>
      <use x="466.033203" xlink:href="#DejaVuSans-53"/>
      <use x="529.65625" xlink:href="#DejaVuSans-49"/>
      <use x="593.279297" xlink:href="#DejaVuSans-50"/>
     </g>
    </g>
    <g id="patch_100">
     <path d="M 62.662281 35.814719 
L 82.662281 35.814719 
L 82.662281 28.814719 
L 62.662281 28.814719 
z
" style="fill:#ff7f0e;"/>
    </g>
    <g id="text_6">
     <!-- S-x1 -->
     <defs>
      <path d="M 53.515625 70.515625 
L 53.515625 60.890625 
Q 47.90625 63.578125 42.921875 64.890625 
Q 37.9375 66.21875 33.296875 66.21875 
Q 25.25 66.21875 20.875 63.09375 
Q 16.5 59.96875 16.5 54.203125 
Q 16.5 49.359375 19.40625 46.890625 
Q 22.3125 44.4375 30.421875 42.921875 
L 36.375 41.703125 
Q 47.40625 39.59375 52.65625 34.296875 
Q 57.90625 29 57.90625 20.125 
Q 57.90625 9.515625 50.796875 4.046875 
Q 43.703125 -1.421875 29.984375 -1.421875 
Q 24.8125 -1.421875 18.96875 -0.25 
Q 13.140625 0.921875 6.890625 3.21875 
L 6.890625 13.375 
Q 12.890625 10.015625 18.65625 8.296875 
Q 24.421875 6.59375 29.984375 6.59375 
Q 38.421875 6.59375 43.015625 9.90625 
Q 47.609375 13.234375 47.609375 19.390625 
Q 47.609375 24.75 44.3125 27.78125 
Q 41.015625 30.8125 33.5 32.328125 
L 27.484375 33.5 
Q 16.453125 35.6875 11.515625 40.375 
Q 6.59375 45.0625 6.59375 53.421875 
Q 6.59375 63.09375 13.40625 68.65625 
Q 20.21875 74.21875 32.171875 74.21875 
Q 37.3125 74.21875 42.625 73.28125 
Q 47.953125 72.359375 53.515625 70.515625 
z
" id="DejaVuSans-83"/>
     </defs>
     <g transform="translate(90.662281 35.814719)scale(0.1 -0.1)">
      <use xlink:href="#DejaVuSans-83"/>
      <use x="63.476562" xlink:href="#DejaVuSans-45"/>
      <use x="99.560547" xlink:href="#DejaVuSans-120"/>
      <use x="158.740234" xlink:href="#DejaVuSans-49"/>
     </g>
    </g>
    <g id="patch_101">
     <path d="M 176.352906 21.136594 
L 196.352906 21.136594 
L 196.352906 14.136594 
L 176.352906 14.136594 
z
" style="fill:#1f77b4;"/>
    </g>
    <g id="text_7">
     <!-- H-x1-v4-f128 -->
     <defs>
      <path d="M 9.8125 72.90625 
L 19.671875 72.90625 
L 19.671875 43.015625 
L 55.515625 43.015625 
L 55.515625 72.90625 
L 65.375 72.90625 
L 65.375 0 
L 55.515625 0 
L 55.515625 34.71875 
L 19.671875 34.71875 
L 19.671875 0 
L 9.8125 0 
z
" id="DejaVuSans-72"/>
      <path d="M 31.78125 34.625 
Q 24.75 34.625 20.71875 30.859375 
Q 16.703125 27.09375 16.703125 20.515625 
Q 16.703125 13.921875 20.71875 10.15625 
Q 24.75 6.390625 31.78125 6.390625 
Q 38.8125 6.390625 42.859375 10.171875 
Q 46.921875 13.96875 46.921875 20.515625 
Q 46.921875 27.09375 42.890625 30.859375 
Q 38.875 34.625 31.78125 34.625 
z
M 21.921875 38.8125 
Q 15.578125 40.375 12.03125 44.71875 
Q 8.5 49.078125 8.5 55.328125 
Q 8.5 64.0625 14.71875 69.140625 
Q 20.953125 74.21875 31.78125 74.21875 
Q 42.671875 74.21875 48.875 69.140625 
Q 55.078125 64.0625 55.078125 55.328125 
Q 55.078125 49.078125 51.53125 44.71875 
Q 48 40.375 41.703125 38.8125 
Q 48.828125 37.15625 52.796875 32.3125 
Q 56.78125 27.484375 56.78125 20.515625 
Q 56.78125 9.90625 50.3125 4.234375 
Q 43.84375 -1.421875 31.78125 -1.421875 
Q 19.734375 -1.421875 13.25 4.234375 
Q 6.78125 9.90625 6.78125 20.515625 
Q 6.78125 27.484375 10.78125 32.3125 
Q 14.796875 37.15625 21.921875 38.8125 
z
M 18.3125 54.390625 
Q 18.3125 48.734375 21.84375 45.5625 
Q 25.390625 42.390625 31.78125 42.390625 
Q 38.140625 42.390625 41.71875 45.5625 
Q 45.3125 48.734375 45.3125 54.390625 
Q 45.3125 60.0625 41.71875 63.234375 
Q 38.140625 66.40625 31.78125 66.40625 
Q 25.390625 66.40625 21.84375 63.234375 
Q 18.3125 60.0625 18.3125 54.390625 
z
" id="DejaVuSans-56"/>
     </defs>
     <g transform="translate(204.352906 21.136594)scale(0.1 -0.1)">
      <use xlink:href="#DejaVuSans-72"/>
      <use x="75.195312" xlink:href="#DejaVuSans-45"/>
      <use x="111.279297" xlink:href="#DejaVuSans-120"/>
      <use x="170.458984" xlink:href="#DejaVuSans-49"/>
      <use x="234.082031" xlink:href="#DejaVuSans-45"/>
      <use x="270.134766" xlink:href="#DejaVuSans-118"/>
      <use x="329.314453" xlink:href="#DejaVuSans-52"/>
      <use x="392.9375" xlink:href="#DejaVuSans-45"/>
      <use x="429.021484" xlink:href="#DejaVuSans-102"/>
      <use x="464.226562" xlink:href="#DejaVuSans-49"/>
      <use x="527.849609" xlink:href="#DejaVuSans-50"/>
      <use x="591.472656" xlink:href="#DejaVuSans-56"/>
     </g>
    </g>
    <g id="patch_102">
     <path d="M 176.352906 35.814719 
L 196.352906 35.814719 
L 196.352906 28.814719 
L 176.352906 28.814719 
z
" style="fill:url(#h1a22d6f6fc);"/>
    </g>
    <g id="text_8">
     <!-- S-x2 -->
     <g transform="translate(204.352906 35.814719)scale(0.1 -0.1)">
      <use xlink:href="#DejaVuSans-83"/>
      <use x="63.476562" xlink:href="#DejaVuSans-45"/>
      <use x="99.560547" xlink:href="#DejaVuSans-120"/>
      <use x="158.740234" xlink:href="#DejaVuSans-50"/>
     </g>
    </g>
    <g id="patch_103">
     <path d="M 289.863844 21.136594 
L 309.863844 21.136594 
L 309.863844 14.136594 
L 289.863844 14.136594 
z
" style="fill:url(#ha8e0d00df6);"/>
    </g>
    <g id="text_9">
     <!-- H-x2-v2-f512 -->
     <g transform="translate(317.863844 21.136594)scale(0.1 -0.1)">
      <use xlink:href="#DejaVuSans-72"/>
      <use x="75.195312" xlink:href="#DejaVuSans-45"/>
      <use x="111.279297" xlink:href="#DejaVuSans-120"/>
      <use x="170.458984" xlink:href="#DejaVuSans-50"/>
      <use x="234.082031" xlink:href="#DejaVuSans-45"/>
      <use x="270.134766" xlink:href="#DejaVuSans-118"/>
      <use x="329.314453" xlink:href="#DejaVuSans-50"/>
      <use x="392.9375" xlink:href="#DejaVuSans-45"/>
      <use x="429.021484" xlink:href="#DejaVuSans-102"/>
      <use x="464.226562" xlink:href="#DejaVuSans-53"/>
      <use x="527.849609" xlink:href="#DejaVuSans-49"/>
      <use x="591.472656" xlink:href="#DejaVuSans-50"/>
     </g>
    </g>
    <g id="patch_104">
     <path d="M 289.863844 35.814719 
L 309.863844 35.814719 
L 309.863844 28.814719 
L 289.863844 28.814719 
z
" style="fill:url(#h28ad827479);"/>
    </g>
    <g id="text_10">
     <!-- S-x3 -->
     <defs>
      <path d="M 40.578125 39.3125 
Q 47.65625 37.796875 51.625 33 
Q 55.609375 28.21875 55.609375 21.1875 
Q 55.609375 10.40625 48.1875 4.484375 
Q 40.765625 -1.421875 27.09375 -1.421875 
Q 22.515625 -1.421875 17.65625 -0.515625 
Q 12.796875 0.390625 7.625 2.203125 
L 7.625 11.71875 
Q 11.71875 9.328125 16.59375 8.109375 
Q 21.484375 6.890625 26.8125 6.890625 
Q 36.078125 6.890625 40.9375 10.546875 
Q 45.796875 14.203125 45.796875 21.1875 
Q 45.796875 27.640625 41.28125 31.265625 
Q 36.765625 34.90625 28.71875 34.90625 
L 20.21875 34.90625 
L 20.21875 43.015625 
L 29.109375 43.015625 
Q 36.375 43.015625 40.234375 45.921875 
Q 44.09375 48.828125 44.09375 54.296875 
Q 44.09375 59.90625 40.109375 62.90625 
Q 36.140625 65.921875 28.71875 65.921875 
Q 24.65625 65.921875 20.015625 65.03125 
Q 15.375 64.15625 9.8125 62.3125 
L 9.8125 71.09375 
Q 15.4375 72.65625 20.34375 73.4375 
Q 25.25 74.21875 29.59375 74.21875 
Q 40.828125 74.21875 47.359375 69.109375 
Q 53.90625 64.015625 53.90625 55.328125 
Q 53.90625 49.265625 50.4375 45.09375 
Q 46.96875 40.921875 40.578125 39.3125 
z
" id="DejaVuSans-51"/>
     </defs>
     <g transform="translate(317.863844 35.814719)scale(0.1 -0.1)">
      <use xlink:href="#DejaVuSans-83"/>
      <use x="63.476562" xlink:href="#DejaVuSans-45"/>
      <use x="99.560547" xlink:href="#DejaVuSans-120"/>
      <use x="158.740234" xlink:href="#DejaVuSans-51"/>
     </g>
    </g>
    <g id="patch_105">
     <path d="M 403.374781 21.136594 
L 423.374781 21.136594 
L 423.374781 14.136594 
L 403.374781 14.136594 
z
" style="fill:url(#h6778673d94);"/>
    </g>
    <g id="text_11">
     <!-- H-x3-v2-f128 -->
     <g transform="translate(431.374781 21.136594)scale(0.1 -0.1)">
      <use xlink:href="#DejaVuSans-72"/>
      <use x="75.195312" xlink:href="#DejaVuSans-45"/>
      <use x="111.279297" xlink:href="#DejaVuSans-120"/>
      <use x="170.458984" xlink:href="#DejaVuSans-51"/>
      <use x="234.082031" xlink:href="#DejaVuSans-45"/>
      <use x="270.134766" xlink:href="#DejaVuSans-118"/>
      <use x="329.314453" xlink:href="#DejaVuSans-50"/>
      <use x="392.9375" xlink:href="#DejaVuSans-45"/>
      <use x="429.021484" xlink:href="#DejaVuSans-102"/>
      <use x="464.226562" xlink:href="#DejaVuSans-49"/>
      <use x="527.849609" xlink:href="#DejaVuSans-50"/>
      <use x="591.472656" xlink:href="#DejaVuSans-56"/>
     </g>
    </g>
   </g>
  </g>
  <g id="axes_2">
   <g id="patch_106">
    <path d="M 62.208 196.992 
L 497.34 196.992 
L 497.34 129.417937 
L 62.208 129.417937 
z
" style="fill:#ffffff;"/>
   </g>
   <g id="matplotlib.axis_3">
    <g id="xtick_14">
     <g id="line2d_20">
      <g>
       <use style="stroke:#000000;stroke-width:0.8;" x="73.923092" xlink:href="#m208bc5ddee" y="196.992"/>
      </g>
     </g>
     <g id="text_12">
      <!-- DotProduct -->
      <defs>
       <path d="M 18.3125 70.21875 
L 18.3125 54.6875 
L 36.8125 54.6875 
L 36.8125 47.703125 
L 18.3125 47.703125 
L 18.3125 18.015625 
Q 18.3125 11.328125 20.140625 9.421875 
Q 21.96875 7.515625 27.59375 7.515625 
L 36.8125 7.515625 
L 36.8125 0 
L 27.59375 0 
Q 17.1875 0 13.234375 3.875 
Q 9.28125 7.765625 9.28125 18.015625 
L 9.28125 47.703125 
L 2.6875 47.703125 
L 2.6875 54.6875 
L 9.28125 54.6875 
L 9.28125 70.21875 
z
" id="DejaVuSans-116"/>
       <path d="M 8.5 21.578125 
L 8.5 54.6875 
L 17.484375 54.6875 
L 17.484375 21.921875 
Q 17.484375 14.15625 20.5 10.265625 
Q 23.53125 6.390625 29.59375 6.390625 
Q 36.859375 6.390625 41.078125 11.03125 
Q 45.3125 15.671875 45.3125 23.6875 
L 45.3125 54.6875 
L 54.296875 54.6875 
L 54.296875 0 
L 45.3125 0 
L 45.3125 8.40625 
Q 42.046875 3.421875 37.71875 1 
Q 33.40625 -1.421875 27.6875 -1.421875 
Q 18.265625 -1.421875 13.375 4.4375 
Q 8.5 10.296875 8.5 21.578125 
z
M 31.109375 56 
z
" id="DejaVuSans-117"/>
       <path d="M 48.78125 52.59375 
L 48.78125 44.1875 
Q 44.96875 46.296875 41.140625 47.34375 
Q 37.3125 48.390625 33.40625 48.390625 
Q 24.65625 48.390625 19.8125 42.84375 
Q 14.984375 37.3125 14.984375 27.296875 
Q 14.984375 17.28125 19.8125 11.734375 
Q 24.65625 6.203125 33.40625 6.203125 
Q 37.3125 6.203125 41.140625 7.25 
Q 44.96875 8.296875 48.78125 10.40625 
L 48.78125 2.09375 
Q 45.015625 0.34375 40.984375 -0.53125 
Q 36.96875 -1.421875 32.421875 -1.421875 
Q 20.0625 -1.421875 12.78125 6.34375 
Q 5.515625 14.109375 5.515625 27.296875 
Q 5.515625 40.671875 12.859375 48.328125 
Q 20.21875 56 33.015625 56 
Q 37.15625 56 41.109375 55.140625 
Q 45.0625 54.296875 48.78125 52.59375 
z
" id="DejaVuSans-99"/>
      </defs>
      <g transform="translate(54.209836 245.872121)rotate(-40)scale(0.1 -0.1)">
       <use xlink:href="#DejaVuSans-68"/>
       <use x="77.001953" xlink:href="#DejaVuSans-111"/>
       <use x="138.183594" xlink:href="#DejaVuSans-116"/>
       <use x="177.392578" xlink:href="#DejaVuSans-80"/>
       <use x="237.679688" xlink:href="#DejaVuSans-114"/>
       <use x="278.761719" xlink:href="#DejaVuSans-111"/>
       <use x="339.943359" xlink:href="#DejaVuSans-100"/>
       <use x="403.419922" xlink:href="#DejaVuSans-117"/>
       <use x="466.798828" xlink:href="#DejaVuSans-99"/>
       <use x="521.779297" xlink:href="#DejaVuSans-116"/>
      </g>
     </g>
    </g>
    <g id="xtick_15">
     <g id="line2d_21">
      <g>
       <use style="stroke:#000000;stroke-width:0.8;" x="107.394785" xlink:href="#m208bc5ddee" y="196.992"/>
      </g>
     </g>
     <g id="text_13">
      <!-- OuterProduct -->
      <defs>
       <path d="M 39.40625 66.21875 
Q 28.65625 66.21875 22.328125 58.203125 
Q 16.015625 50.203125 16.015625 36.375 
Q 16.015625 22.609375 22.328125 14.59375 
Q 28.65625 6.59375 39.40625 6.59375 
Q 50.140625 6.59375 56.421875 14.59375 
Q 62.703125 22.609375 62.703125 36.375 
Q 62.703125 50.203125 56.421875 58.203125 
Q 50.140625 66.21875 39.40625 66.21875 
z
M 39.40625 74.21875 
Q 54.734375 74.21875 63.90625 63.9375 
Q 73.09375 53.65625 73.09375 36.375 
Q 73.09375 19.140625 63.90625 8.859375 
Q 54.734375 -1.421875 39.40625 -1.421875 
Q 24.03125 -1.421875 14.8125 8.828125 
Q 5.609375 19.09375 5.609375 36.375 
Q 5.609375 53.65625 14.8125 63.9375 
Q 24.03125 74.21875 39.40625 74.21875 
z
" id="DejaVuSans-79"/>
      </defs>
      <g transform="translate(83.600546 252.720822)rotate(-40)scale(0.1 -0.1)">
       <use xlink:href="#DejaVuSans-79"/>
       <use x="78.710938" xlink:href="#DejaVuSans-117"/>
       <use x="142.089844" xlink:href="#DejaVuSans-116"/>
       <use x="181.298828" xlink:href="#DejaVuSans-101"/>
       <use x="242.822266" xlink:href="#DejaVuSans-114"/>
       <use x="283.935547" xlink:href="#DejaVuSans-80"/>
       <use x="344.222656" xlink:href="#DejaVuSans-114"/>
       <use x="385.304688" xlink:href="#DejaVuSans-111"/>
       <use x="446.486328" xlink:href="#DejaVuSans-100"/>
       <use x="509.962891" xlink:href="#DejaVuSans-117"/>
       <use x="573.341797" xlink:href="#DejaVuSans-99"/>
       <use x="628.322266" xlink:href="#DejaVuSans-116"/>
      </g>
     </g>
    </g>
    <g id="xtick_16">
     <g id="line2d_22">
      <g>
       <use style="stroke:#000000;stroke-width:0.8;" x="140.866477" xlink:href="#m208bc5ddee" y="196.992"/>
      </g>
     </g>
     <g id="text_14">
      <!-- BlackScholes -->
      <defs>
       <path d="M 19.671875 34.8125 
L 19.671875 8.109375 
L 35.5 8.109375 
Q 43.453125 8.109375 47.28125 11.40625 
Q 51.125 14.703125 51.125 21.484375 
Q 51.125 28.328125 47.28125 31.5625 
Q 43.453125 34.8125 35.5 34.8125 
z
M 19.671875 64.796875 
L 19.671875 42.828125 
L 34.28125 42.828125 
Q 41.5 42.828125 45.03125 45.53125 
Q 48.578125 48.25 48.578125 53.8125 
Q 48.578125 59.328125 45.03125 62.0625 
Q 41.5 64.796875 34.28125 64.796875 
z
M 9.8125 72.90625 
L 35.015625 72.90625 
Q 46.296875 72.90625 52.390625 68.21875 
Q 58.5 63.53125 58.5 54.890625 
Q 58.5 48.1875 55.375 44.234375 
Q 52.25 40.28125 46.1875 39.3125 
Q 53.46875 37.75 57.5 32.78125 
Q 61.53125 27.828125 61.53125 20.40625 
Q 61.53125 10.640625 54.890625 5.3125 
Q 48.25 0 35.984375 0 
L 9.8125 0 
z
" id="DejaVuSans-66"/>
       <path d="M 9.078125 75.984375 
L 18.109375 75.984375 
L 18.109375 31.109375 
L 44.921875 54.6875 
L 56.390625 54.6875 
L 27.390625 29.109375 
L 57.625 0 
L 45.90625 0 
L 18.109375 26.703125 
L 18.109375 0 
L 9.078125 0 
z
" id="DejaVuSans-107"/>
       <path d="M 54.890625 33.015625 
L 54.890625 0 
L 45.90625 0 
L 45.90625 32.71875 
Q 45.90625 40.484375 42.875 44.328125 
Q 39.84375 48.1875 33.796875 48.1875 
Q 26.515625 48.1875 22.3125 43.546875 
Q 18.109375 38.921875 18.109375 30.90625 
L 18.109375 0 
L 9.078125 0 
L 9.078125 75.984375 
L 18.109375 75.984375 
L 18.109375 46.1875 
Q 21.34375 51.125 25.703125 53.5625 
Q 30.078125 56 35.796875 56 
Q 45.21875 56 50.046875 50.171875 
Q 54.890625 44.34375 54.890625 33.015625 
z
" id="DejaVuSans-104"/>
       <path d="M 44.28125 53.078125 
L 44.28125 44.578125 
Q 40.484375 46.53125 36.375 47.5 
Q 32.28125 48.484375 27.875 48.484375 
Q 21.1875 48.484375 17.84375 46.4375 
Q 14.5 44.390625 14.5 40.28125 
Q 14.5 37.15625 16.890625 35.375 
Q 19.28125 33.59375 26.515625 31.984375 
L 29.59375 31.296875 
Q 39.15625 29.25 43.1875 25.515625 
Q 47.21875 21.78125 47.21875 15.09375 
Q 47.21875 7.46875 41.1875 3.015625 
Q 35.15625 -1.421875 24.609375 -1.421875 
Q 20.21875 -1.421875 15.453125 -0.5625 
Q 10.6875 0.296875 5.421875 2 
L 5.421875 11.28125 
Q 10.40625 8.6875 15.234375 7.390625 
Q 20.0625 6.109375 24.8125 6.109375 
Q 31.15625 6.109375 34.5625 8.28125 
Q 37.984375 10.453125 37.984375 14.40625 
Q 37.984375 18.0625 35.515625 20.015625 
Q 33.0625 21.96875 24.703125 23.78125 
L 21.578125 24.515625 
Q 13.234375 26.265625 9.515625 29.90625 
Q 5.8125 33.546875 5.8125 39.890625 
Q 5.8125 47.609375 11.28125 51.796875 
Q 16.75 56 26.8125 56 
Q 31.78125 56 36.171875 55.265625 
Q 40.578125 54.546875 44.28125 53.078125 
z
" id="DejaVuSans-115"/>
      </defs>
      <g transform="translate(117.552213 251.915329)rotate(-40)scale(0.1 -0.1)">
       <use xlink:href="#DejaVuSans-66"/>
       <use x="68.603516" xlink:href="#DejaVuSans-108"/>
       <use x="96.386719" xlink:href="#DejaVuSans-97"/>
       <use x="157.666016" xlink:href="#DejaVuSans-99"/>
       <use x="212.646484" xlink:href="#DejaVuSans-107"/>
       <use x="270.556641" xlink:href="#DejaVuSans-83"/>
       <use x="334.033203" xlink:href="#DejaVuSans-99"/>
       <use x="389.013672" xlink:href="#DejaVuSans-104"/>
       <use x="452.392578" xlink:href="#DejaVuSans-111"/>
       <use x="513.574219" xlink:href="#DejaVuSans-108"/>
       <use x="541.357422" xlink:href="#DejaVuSans-101"/>
       <use x="602.880859" xlink:href="#DejaVuSans-115"/>
      </g>
     </g>
    </g>
    <g id="xtick_17">
     <g id="line2d_23">
      <g>
       <use style="stroke:#000000;stroke-width:0.8;" x="174.338169" xlink:href="#m208bc5ddee" y="196.992"/>
      </g>
     </g>
     <g id="text_15">
      <!-- TPCHQ6 -->
      <defs>
       <path d="M -0.296875 72.90625 
L 61.375 72.90625 
L 61.375 64.59375 
L 35.5 64.59375 
L 35.5 0 
L 25.59375 0 
L 25.59375 64.59375 
L -0.296875 64.59375 
z
" id="DejaVuSans-84"/>
       <path d="M 64.40625 67.28125 
L 64.40625 56.890625 
Q 59.421875 61.53125 53.78125 63.8125 
Q 48.140625 66.109375 41.796875 66.109375 
Q 29.296875 66.109375 22.65625 58.46875 
Q 16.015625 50.828125 16.015625 36.375 
Q 16.015625 21.96875 22.65625 14.328125 
Q 29.296875 6.6875 41.796875 6.6875 
Q 48.140625 6.6875 53.78125 8.984375 
Q 59.421875 11.28125 64.40625 15.921875 
L 64.40625 5.609375 
Q 59.234375 2.09375 53.4375 0.328125 
Q 47.65625 -1.421875 41.21875 -1.421875 
Q 24.65625 -1.421875 15.125 8.703125 
Q 5.609375 18.84375 5.609375 36.375 
Q 5.609375 53.953125 15.125 64.078125 
Q 24.65625 74.21875 41.21875 74.21875 
Q 47.75 74.21875 53.53125 72.484375 
Q 59.328125 70.75 64.40625 67.28125 
z
" id="DejaVuSans-67"/>
       <path d="M 39.40625 66.21875 
Q 28.65625 66.21875 22.328125 58.203125 
Q 16.015625 50.203125 16.015625 36.375 
Q 16.015625 22.609375 22.328125 14.59375 
Q 28.65625 6.59375 39.40625 6.59375 
Q 50.140625 6.59375 56.421875 14.59375 
Q 62.703125 22.609375 62.703125 36.375 
Q 62.703125 50.203125 56.421875 58.203125 
Q 50.140625 66.21875 39.40625 66.21875 
z
M 53.21875 1.3125 
L 66.21875 -12.890625 
L 54.296875 -12.890625 
L 43.5 -1.21875 
Q 41.890625 -1.3125 41.03125 -1.359375 
Q 40.1875 -1.421875 39.40625 -1.421875 
Q 24.03125 -1.421875 14.8125 8.859375 
Q 5.609375 19.140625 5.609375 36.375 
Q 5.609375 53.65625 14.8125 63.9375 
Q 24.03125 74.21875 39.40625 74.21875 
Q 54.734375 74.21875 63.90625 63.9375 
Q 73.09375 53.65625 73.09375 36.375 
Q 73.09375 23.6875 67.984375 14.640625 
Q 62.890625 5.609375 53.21875 1.3125 
z
" id="DejaVuSans-81"/>
       <path d="M 33.015625 40.375 
Q 26.375 40.375 22.484375 35.828125 
Q 18.609375 31.296875 18.609375 23.390625 
Q 18.609375 15.53125 22.484375 10.953125 
Q 26.375 6.390625 33.015625 6.390625 
Q 39.65625 6.390625 43.53125 10.953125 
Q 47.40625 15.53125 47.40625 23.390625 
Q 47.40625 31.296875 43.53125 35.828125 
Q 39.65625 40.375 33.015625 40.375 
z
M 52.59375 71.296875 
L 52.59375 62.3125 
Q 48.875 64.0625 45.09375 64.984375 
Q 41.3125 65.921875 37.59375 65.921875 
Q 27.828125 65.921875 22.671875 59.328125 
Q 17.53125 52.734375 16.796875 39.40625 
Q 19.671875 43.65625 24.015625 45.921875 
Q 28.375 48.1875 33.59375 48.1875 
Q 44.578125 48.1875 50.953125 41.515625 
Q 57.328125 34.859375 57.328125 23.390625 
Q 57.328125 12.15625 50.6875 5.359375 
Q 44.046875 -1.421875 33.015625 -1.421875 
Q 20.359375 -1.421875 13.671875 8.265625 
Q 6.984375 17.96875 6.984375 36.375 
Q 6.984375 53.65625 15.1875 63.9375 
Q 23.390625 74.21875 37.203125 74.21875 
Q 40.921875 74.21875 44.703125 73.484375 
Q 48.484375 72.75 52.59375 71.296875 
z
" id="DejaVuSans-54"/>
      </defs>
      <g transform="translate(160.455828 236.086684)rotate(-40)scale(0.1 -0.1)">
       <use xlink:href="#DejaVuSans-84"/>
       <use x="61.083984" xlink:href="#DejaVuSans-80"/>
       <use x="121.386719" xlink:href="#DejaVuSans-67"/>
       <use x="191.210938" xlink:href="#DejaVuSans-72"/>
       <use x="266.40625" xlink:href="#DejaVuSans-81"/>
       <use x="345.117188" xlink:href="#DejaVuSans-54"/>
      </g>
     </g>
    </g>
    <g id="xtick_18">
     <g id="line2d_24">
      <g>
       <use style="stroke:#000000;stroke-width:0.8;" x="207.809862" xlink:href="#m208bc5ddee" y="196.992"/>
      </g>
     </g>
     <g id="text_16">
      <!-- Lattice -->
      <defs>
       <path d="M 9.8125 72.90625 
L 19.671875 72.90625 
L 19.671875 8.296875 
L 55.171875 8.296875 
L 55.171875 0 
L 9.8125 0 
z
" id="DejaVuSans-76"/>
      </defs>
      <g transform="translate(196.572169 231.648437)rotate(-40)scale(0.1 -0.1)">
       <use xlink:href="#DejaVuSans-76"/>
       <use x="55.712891" xlink:href="#DejaVuSans-97"/>
       <use x="116.992188" xlink:href="#DejaVuSans-116"/>
       <use x="156.201172" xlink:href="#DejaVuSans-116"/>
       <use x="195.410156" xlink:href="#DejaVuSans-105"/>
       <use x="223.193359" xlink:href="#DejaVuSans-99"/>
       <use x="278.173828" xlink:href="#DejaVuSans-101"/>
      </g>
     </g>
    </g>
    <g id="xtick_19">
     <g id="line2d_25">
      <g>
       <use style="stroke:#000000;stroke-width:0.8;" x="241.281554" xlink:href="#m208bc5ddee" y="196.992"/>
      </g>
     </g>
     <g id="text_17">
      <!-- LogReg -->
      <defs>
       <path d="M 45.40625 27.984375 
Q 45.40625 37.75 41.375 43.109375 
Q 37.359375 48.484375 30.078125 48.484375 
Q 22.859375 48.484375 18.828125 43.109375 
Q 14.796875 37.75 14.796875 27.984375 
Q 14.796875 18.265625 18.828125 12.890625 
Q 22.859375 7.515625 30.078125 7.515625 
Q 37.359375 7.515625 41.375 12.890625 
Q 45.40625 18.265625 45.40625 27.984375 
z
M 54.390625 6.78125 
Q 54.390625 -7.171875 48.1875 -13.984375 
Q 42 -20.796875 29.203125 -20.796875 
Q 24.46875 -20.796875 20.265625 -20.09375 
Q 16.0625 -19.390625 12.109375 -17.921875 
L 12.109375 -9.1875 
Q 16.0625 -11.328125 19.921875 -12.34375 
Q 23.78125 -13.375 27.78125 -13.375 
Q 36.625 -13.375 41.015625 -8.765625 
Q 45.40625 -4.15625 45.40625 5.171875 
L 45.40625 9.625 
Q 42.625 4.78125 38.28125 2.390625 
Q 33.9375 0 27.875 0 
Q 17.828125 0 11.671875 7.65625 
Q 5.515625 15.328125 5.515625 27.984375 
Q 5.515625 40.671875 11.671875 48.328125 
Q 17.828125 56 27.875 56 
Q 33.9375 56 38.28125 53.609375 
Q 42.625 51.21875 45.40625 46.390625 
L 45.40625 54.6875 
L 54.390625 54.6875 
z
" id="DejaVuSans-103"/>
       <path d="M 44.390625 34.1875 
Q 47.5625 33.109375 50.5625 29.59375 
Q 53.5625 26.078125 56.59375 19.921875 
L 66.609375 0 
L 56 0 
L 46.6875 18.703125 
Q 43.0625 26.03125 39.671875 28.421875 
Q 36.28125 30.8125 30.421875 30.8125 
L 19.671875 30.8125 
L 19.671875 0 
L 9.8125 0 
L 9.8125 72.90625 
L 32.078125 72.90625 
Q 44.578125 72.90625 50.734375 67.671875 
Q 56.890625 62.453125 56.890625 51.90625 
Q 56.890625 45.015625 53.6875 40.46875 
Q 50.484375 35.9375 44.390625 34.1875 
z
M 19.671875 64.796875 
L 19.671875 38.921875 
L 32.078125 38.921875 
Q 39.203125 38.921875 42.84375 42.21875 
Q 46.484375 45.515625 46.484375 51.90625 
Q 46.484375 58.296875 42.84375 61.546875 
Q 39.203125 64.796875 32.078125 64.796875 
z
" id="DejaVuSans-82"/>
      </defs>
      <g transform="translate(228.699094 233.905224)rotate(-40)scale(0.1 -0.1)">
       <use xlink:href="#DejaVuSans-76"/>
       <use x="55.697266" xlink:href="#DejaVuSans-111"/>
       <use x="116.878906" xlink:href="#DejaVuSans-103"/>
       <use x="180.355469" xlink:href="#DejaVuSans-82"/>
       <use x="249.775391" xlink:href="#DejaVuSans-101"/>
       <use x="311.298828" xlink:href="#DejaVuSans-103"/>
      </g>
     </g>
    </g>
    <g id="xtick_20">
     <g id="line2d_26">
      <g>
       <use style="stroke:#000000;stroke-width:0.8;" x="274.753246" xlink:href="#m208bc5ddee" y="196.992"/>
      </g>
     </g>
     <g id="text_18">
      <!-- SGD -->
      <defs>
       <path d="M 59.515625 10.40625 
L 59.515625 29.984375 
L 43.40625 29.984375 
L 43.40625 38.09375 
L 69.28125 38.09375 
L 69.28125 6.78125 
Q 63.578125 2.734375 56.6875 0.65625 
Q 49.8125 -1.421875 42 -1.421875 
Q 24.90625 -1.421875 15.25 8.5625 
Q 5.609375 18.5625 5.609375 36.375 
Q 5.609375 54.25 15.25 64.234375 
Q 24.90625 74.21875 42 74.21875 
Q 49.125 74.21875 55.546875 72.453125 
Q 61.96875 70.703125 67.390625 67.28125 
L 67.390625 56.78125 
Q 61.921875 61.421875 55.765625 63.765625 
Q 49.609375 66.109375 42.828125 66.109375 
Q 29.4375 66.109375 22.71875 58.640625 
Q 16.015625 51.171875 16.015625 36.375 
Q 16.015625 21.625 22.71875 14.15625 
Q 29.4375 6.6875 42.828125 6.6875 
Q 48.046875 6.6875 52.140625 7.59375 
Q 56.25 8.5 59.515625 10.40625 
z
" id="DejaVuSans-71"/>
      </defs>
      <g transform="translate(268.178251 223.823502)rotate(-40)scale(0.1 -0.1)">
       <use xlink:href="#DejaVuSans-83"/>
       <use x="63.476562" xlink:href="#DejaVuSans-71"/>
       <use x="140.966797" xlink:href="#DejaVuSans-68"/>
      </g>
     </g>
    </g>
    <g id="xtick_21">
     <g id="line2d_27">
      <g>
       <use style="stroke:#000000;stroke-width:0.8;" x="308.224938" xlink:href="#m208bc5ddee" y="196.992"/>
      </g>
     </g>
     <g id="text_19">
      <!-- Kmeans -->
      <defs>
       <path d="M 9.8125 72.90625 
L 19.671875 72.90625 
L 19.671875 42.09375 
L 52.390625 72.90625 
L 65.09375 72.90625 
L 28.90625 38.921875 
L 67.671875 0 
L 54.6875 0 
L 19.671875 35.109375 
L 19.671875 0 
L 9.8125 0 
z
" id="DejaVuSans-75"/>
      </defs>
      <g transform="translate(294.629265 235.605598)rotate(-40)scale(0.1 -0.1)">
       <use xlink:href="#DejaVuSans-75"/>
       <use x="65.576172" xlink:href="#DejaVuSans-109"/>
       <use x="162.988281" xlink:href="#DejaVuSans-101"/>
       <use x="224.511719" xlink:href="#DejaVuSans-97"/>
       <use x="285.791016" xlink:href="#DejaVuSans-110"/>
       <use x="349.169922" xlink:href="#DejaVuSans-115"/>
      </g>
     </g>
    </g>
    <g id="xtick_22">
     <g id="line2d_28">
      <g>
       <use style="stroke:#000000;stroke-width:0.8;" x="341.696631" xlink:href="#m208bc5ddee" y="196.992"/>
      </g>
     </g>
     <g id="text_20">
      <!-- GRU -->
      <defs>
       <path d="M 8.6875 72.90625 
L 18.609375 72.90625 
L 18.609375 28.609375 
Q 18.609375 16.890625 22.84375 11.734375 
Q 27.09375 6.59375 36.625 6.59375 
Q 46.09375 6.59375 50.34375 11.734375 
Q 54.59375 16.890625 54.59375 28.609375 
L 54.59375 72.90625 
L 64.5 72.90625 
L 64.5 27.390625 
Q 64.5 13.140625 57.4375 5.859375 
Q 50.390625 -1.421875 36.625 -1.421875 
Q 22.796875 -1.421875 15.734375 5.859375 
Q 8.6875 13.140625 8.6875 27.390625 
z
" id="DejaVuSans-85"/>
      </defs>
      <g transform="translate(335.037849 223.964112)rotate(-40)scale(0.1 -0.1)">
       <use xlink:href="#DejaVuSans-71"/>
       <use x="77.490234" xlink:href="#DejaVuSans-82"/>
       <use x="146.972656" xlink:href="#DejaVuSans-85"/>
      </g>
     </g>
    </g>
    <g id="xtick_23">
     <g id="line2d_29">
      <g>
       <use style="stroke:#000000;stroke-width:0.8;" x="375.168323" xlink:href="#m208bc5ddee" y="196.992"/>
      </g>
     </g>
     <g id="text_21">
      <!-- LSTM -->
      <defs>
       <path d="M 9.8125 72.90625 
L 24.515625 72.90625 
L 43.109375 23.296875 
L 61.8125 72.90625 
L 76.515625 72.90625 
L 76.515625 0 
L 66.890625 0 
L 66.890625 64.015625 
L 48.09375 14.015625 
L 38.1875 14.015625 
L 19.390625 64.015625 
L 19.390625 0 
L 9.8125 0 
z
" id="DejaVuSans-77"/>
      </defs>
      <g transform="translate(366.732079 226.947048)rotate(-40)scale(0.1 -0.1)">
       <use xlink:href="#DejaVuSans-76"/>
       <use x="55.712891" xlink:href="#DejaVuSans-83"/>
       <use x="119.189453" xlink:href="#DejaVuSans-84"/>
       <use x="180.273438" xlink:href="#DejaVuSans-77"/>
      </g>
     </g>
    </g>
    <g id="xtick_24">
     <g id="line2d_30">
      <g>
       <use style="stroke:#000000;stroke-width:0.8;" x="408.640015" xlink:href="#m208bc5ddee" y="196.992"/>
      </g>
     </g>
     <g id="text_22">
      <!-- LeNet -->
      <g transform="translate(399.199535 228.632357)rotate(-40)scale(0.1 -0.1)">
       <use xlink:href="#DejaVuSans-76"/>
       <use x="55.697266" xlink:href="#DejaVuSans-101"/>
       <use x="117.220703" xlink:href="#DejaVuSans-78"/>
       <use x="192.025391" xlink:href="#DejaVuSans-101"/>
       <use x="253.548828" xlink:href="#DejaVuSans-116"/>
      </g>
     </g>
    </g>
    <g id="xtick_25">
     <g id="line2d_31">
      <g>
       <use style="stroke:#000000;stroke-width:0.8;" x="442.111708" xlink:href="#m208bc5ddee" y="196.992"/>
      </g>
     </g>
     <g id="text_23">
      <!-- GEMM -->
      <defs>
       <path d="M 9.8125 72.90625 
L 55.90625 72.90625 
L 55.90625 64.59375 
L 19.671875 64.59375 
L 19.671875 43.015625 
L 54.390625 43.015625 
L 54.390625 34.71875 
L 19.671875 34.71875 
L 19.671875 8.296875 
L 56.78125 8.296875 
L 56.78125 0 
L 9.8125 0 
z
" id="DejaVuSans-69"/>
      </defs>
      <g transform="translate(431.887827 229.947058)rotate(-40)scale(0.1 -0.1)">
       <use xlink:href="#DejaVuSans-71"/>
       <use x="77.490234" xlink:href="#DejaVuSans-69"/>
       <use x="140.673828" xlink:href="#DejaVuSans-77"/>
       <use x="226.953125" xlink:href="#DejaVuSans-77"/>
      </g>
     </g>
    </g>
    <g id="xtick_26">
     <g id="line2d_32">
      <g>
       <use style="stroke:#000000;stroke-width:0.8;" x="475.5834" xlink:href="#m208bc5ddee" y="196.992"/>
      </g>
     </g>
     <g id="text_24">
      <!-- GDA -->
      <defs>
       <path d="M 34.1875 63.1875 
L 20.796875 26.90625 
L 47.609375 26.90625 
z
M 28.609375 72.90625 
L 39.796875 72.90625 
L 67.578125 0 
L 57.328125 0 
L 50.6875 18.703125 
L 17.828125 18.703125 
L 11.1875 0 
L 0.78125 0 
z
" id="DejaVuSans-65"/>
      </defs>
      <g transform="translate(468.820484 224.13887)rotate(-40)scale(0.1 -0.1)">
       <use xlink:href="#DejaVuSans-71"/>
       <use x="77.490234" xlink:href="#DejaVuSans-68"/>
       <use x="154.476562" xlink:href="#DejaVuSans-65"/>
      </g>
     </g>
    </g>
   </g>
   <g id="matplotlib.axis_4">
    <g id="ytick_4">
     <g id="line2d_33">
      <path clip-path="url(#p7f91968911)" d="M 62.208 196.992 
L 497.34 196.992 
" style="fill:none;stroke:#808080;stroke-dasharray:2.96,1.28;stroke-dashoffset:0;stroke-width:0.8;"/>
     </g>
     <g id="line2d_34">
      <g>
       <use style="stroke:#000000;stroke-width:0.8;" x="62.208" xlink:href="#m141c2a8e0c" y="196.992"/>
      </g>
     </g>
     <g id="text_25">
      <!-- 0 -->
      <g transform="translate(48.8455 200.791219)scale(0.1 -0.1)">
       <use xlink:href="#DejaVuSans-48"/>
      </g>
     </g>
    </g>
    <g id="ytick_5">
     <g id="line2d_35">
      <path clip-path="url(#p7f91968911)" d="M 62.208 152.432334 
L 497.34 152.432334 
" style="fill:none;stroke:#808080;stroke-dasharray:2.96,1.28;stroke-dashoffset:0;stroke-width:0.8;"/>
     </g>
     <g id="line2d_36">
      <g>
       <use style="stroke:#000000;stroke-width:0.8;" x="62.208" xlink:href="#m141c2a8e0c" y="152.432334"/>
      </g>
     </g>
     <g id="text_26">
      <!-- 5 -->
      <g transform="translate(48.8455 156.231553)scale(0.1 -0.1)">
       <use xlink:href="#DejaVuSans-53"/>
      </g>
     </g>
    </g>
    <g id="text_27">
     <!-- (b) -->
     <defs>
      <path d="M 48.6875 27.296875 
Q 48.6875 37.203125 44.609375 42.84375 
Q 40.53125 48.484375 33.40625 48.484375 
Q 26.265625 48.484375 22.1875 42.84375 
Q 18.109375 37.203125 18.109375 27.296875 
Q 18.109375 17.390625 22.1875 11.75 
Q 26.265625 6.109375 33.40625 6.109375 
Q 40.53125 6.109375 44.609375 11.75 
Q 48.6875 17.390625 48.6875 27.296875 
z
M 18.109375 46.390625 
Q 20.953125 51.265625 25.265625 53.625 
Q 29.59375 56 35.59375 56 
Q 45.5625 56 51.78125 48.09375 
Q 58.015625 40.1875 58.015625 27.296875 
Q 58.015625 14.40625 51.78125 6.484375 
Q 45.5625 -1.421875 35.59375 -1.421875 
Q 29.59375 -1.421875 25.265625 0.953125 
Q 20.953125 3.328125 18.109375 8.203125 
L 18.109375 0 
L 9.078125 0 
L 9.078125 75.984375 
L 18.109375 75.984375 
z
" id="DejaVuSans-98"/>
     </defs>
     <g transform="translate(20.370188 170.28075)rotate(-90)scale(0.1 -0.1)">
      <use xlink:href="#DejaVuSans-40"/>
      <use x="39.013672" xlink:href="#DejaVuSans-98"/>
      <use x="102.490234" xlink:href="#DejaVuSans-41"/>
     </g>
     <!-- Scheduled -->
     <g transform="translate(31.568 189.356531)rotate(-90)scale(0.1 -0.1)">
      <use xlink:href="#DejaVuSans-83"/>
      <use x="63.476562" xlink:href="#DejaVuSans-99"/>
      <use x="118.457031" xlink:href="#DejaVuSans-104"/>
      <use x="181.835938" xlink:href="#DejaVuSans-101"/>
      <use x="243.359375" xlink:href="#DejaVuSans-100"/>
      <use x="306.835938" xlink:href="#DejaVuSans-117"/>
      <use x="370.214844" xlink:href="#DejaVuSans-108"/>
      <use x="397.998047" xlink:href="#DejaVuSans-101"/>
      <use x="459.521484" xlink:href="#DejaVuSans-100"/>
     </g>
     <!-- Norm Perf -->
     <g transform="translate(42.765813 188.423719)rotate(-90)scale(0.1 -0.1)">
      <use xlink:href="#DejaVuSans-78"/>
      <use x="74.804688" xlink:href="#DejaVuSans-111"/>
      <use x="135.986328" xlink:href="#DejaVuSans-114"/>
      <use x="177.083984" xlink:href="#DejaVuSans-109"/>
      <use x="274.496094" xlink:href="#DejaVuSans-32"/>
      <use x="306.283203" xlink:href="#DejaVuSans-80"/>
      <use x="366.539062" xlink:href="#DejaVuSans-101"/>
      <use x="428.0625" xlink:href="#DejaVuSans-114"/>
      <use x="469.175781" xlink:href="#DejaVuSans-102"/>
     </g>
    </g>
   </g>
   <g id="patch_107">
    <path clip-path="url(#p7f91968911)" d="M 62.208 196.992 
L 65.555169 196.992 
L 65.555169 188.080067 
L 62.208 188.080067 
z
" style="fill:#2ca02c;"/>
   </g>
   <g id="patch_108">
    <path clip-path="url(#p7f91968911)" d="M 95.679692 196.992 
L 99.026862 196.992 
L 99.026862 188.080067 
L 95.679692 188.080067 
z
" style="fill:#2ca02c;"/>
   </g>
   <g id="patch_109">
    <path clip-path="url(#p7f91968911)" d="M 129.151385 196.992 
L 132.498554 196.992 
L 132.498554 184.828996 
L 129.151385 184.828996 
z
" style="fill:#2ca02c;"/>
   </g>
   <g id="patch_110">
    <path clip-path="url(#p7f91968911)" d="M 162.623077 196.992 
L 165.970246 196.992 
L 165.970246 188.080067 
L 162.623077 188.080067 
z
" style="fill:#2ca02c;"/>
   </g>
   <g id="patch_111">
    <path clip-path="url(#p7f91968911)" d="M 196.094769 196.992 
L 199.441938 196.992 
L 199.441938 171.2881 
L 196.094769 171.2881 
z
" style="fill:#2ca02c;"/>
   </g>
   <g id="patch_112">
    <path clip-path="url(#p7f91968911)" d="M 229.566462 196.992 
L 232.913631 196.992 
L 232.913631 188.080067 
L 229.566462 188.080067 
z
" style="fill:#2ca02c;"/>
   </g>
   <g id="patch_113">
    <path clip-path="url(#p7f91968911)" d="M 263.038154 196.992 
L 266.385323 196.992 
L 266.385323 188.080067 
L 263.038154 188.080067 
z
" style="fill:#2ca02c;"/>
   </g>
   <g id="patch_114">
    <path clip-path="url(#p7f91968911)" d="M 296.509846 196.992 
L 299.857015 196.992 
L 299.857015 188.080067 
L 296.509846 188.080067 
z
" style="fill:#2ca02c;"/>
   </g>
   <g id="patch_115">
    <path clip-path="url(#p7f91968911)" d="M 329.981538 196.992 
L 333.328708 196.992 
L 333.328708 184.02823 
L 329.981538 184.02823 
z
" style="fill:#2ca02c;"/>
   </g>
   <g id="patch_116">
    <path clip-path="url(#p7f91968911)" d="M 363.453231 196.992 
L 366.8004 196.992 
L 366.8004 188.080067 
L 363.453231 188.080067 
z
" style="fill:#2ca02c;"/>
   </g>
   <g id="patch_117">
    <path clip-path="url(#p7f91968911)" d="M 396.924923 196.992 
L 400.272092 196.992 
L 400.272092 188.080067 
L 396.924923 188.080067 
z
" style="fill:#2ca02c;"/>
   </g>
   <g id="patch_118">
    <path clip-path="url(#p7f91968911)" d="M 430.396615 196.992 
L 433.743785 196.992 
L 433.743785 188.080067 
L 430.396615 188.080067 
z
" style="fill:#2ca02c;"/>
   </g>
   <g id="patch_119">
    <path clip-path="url(#p7f91968911)" d="M 463.868308 196.992 
L 467.215477 196.992 
L 467.215477 188.080067 
L 463.868308 188.080067 
z
" style="fill:#2ca02c;"/>
   </g>
   <g id="patch_120">
    <path clip-path="url(#p7f91968911)" d="M 65.555169 196.992 
L 68.902338 196.992 
L 68.902338 188.033448 
L 65.555169 188.033448 
z
" style="fill:#ff7f0e;"/>
   </g>
   <g id="patch_121">
    <path clip-path="url(#p7f91968911)" d="M 99.026862 196.992 
L 102.374031 196.992 
L 102.374031 182.163427 
L 99.026862 182.163427 
z
" style="fill:#ff7f0e;"/>
   </g>
   <g id="patch_122">
    <path clip-path="url(#p7f91968911)" d="M 132.498554 196.992 
L 135.845723 196.992 
L 135.845723 196.992 
L 132.498554 196.992 
z
" style="fill:#ff7f0e;"/>
   </g>
   <g id="patch_123">
    <path clip-path="url(#p7f91968911)" d="M 165.970246 196.992 
L 169.317415 196.992 
L 169.317415 187.648496 
L 165.970246 187.648496 
z
" style="fill:#ff7f0e;"/>
   </g>
   <g id="patch_124">
    <path clip-path="url(#p7f91968911)" d="M 199.441938 196.992 
L 202.789108 196.992 
L 202.789108 196.992 
L 199.441938 196.992 
z
" style="fill:#ff7f0e;"/>
   </g>
   <g id="patch_125">
    <path clip-path="url(#p7f91968911)" d="M 232.913631 196.992 
L 236.2608 196.992 
L 236.2608 196.992 
L 232.913631 196.992 
z
" style="fill:#ff7f0e;"/>
   </g>
   <g id="patch_126">
    <path clip-path="url(#p7f91968911)" d="M 266.385323 196.992 
L 269.732492 196.992 
L 269.732492 187.15805 
L 266.385323 187.15805 
z
" style="fill:#ff7f0e;"/>
   </g>
   <g id="patch_127">
    <path clip-path="url(#p7f91968911)" d="M 299.857015 196.992 
L 303.204185 196.992 
L 303.204185 196.992 
L 299.857015 196.992 
z
" style="fill:#ff7f0e;"/>
   </g>
   <g id="patch_128">
    <path clip-path="url(#p7f91968911)" d="M 333.328708 196.992 
L 336.675877 196.992 
L 336.675877 188.080067 
L 333.328708 188.080067 
z
" style="fill:#ff7f0e;"/>
   </g>
   <g id="patch_129">
    <path clip-path="url(#p7f91968911)" d="M 366.8004 196.992 
L 370.147569 196.992 
L 370.147569 188.049775 
L 366.8004 188.049775 
z
" style="fill:#ff7f0e;"/>
   </g>
   <g id="patch_130">
    <path clip-path="url(#p7f91968911)" d="M 400.272092 196.992 
L 403.619262 196.992 
L 403.619262 188.078567 
L 400.272092 188.078567 
z
" style="fill:#ff7f0e;"/>
   </g>
   <g id="patch_131">
    <path clip-path="url(#p7f91968911)" d="M 433.743785 196.992 
L 437.090954 196.992 
L 437.090954 187.974548 
L 433.743785 187.974548 
z
" style="fill:#ff7f0e;"/>
   </g>
   <g id="patch_132">
    <path clip-path="url(#p7f91968911)" d="M 467.215477 196.992 
L 470.562646 196.992 
L 470.562646 183.646656 
L 467.215477 183.646656 
z
" style="fill:#ff7f0e;"/>
   </g>
   <g id="patch_133">
    <path clip-path="url(#p7f91968911)" d="M 68.902338 196.992 
L 72.249508 196.992 
L 72.249508 188.033448 
L 68.902338 188.033448 
z
" style="fill:#1f77b4;"/>
   </g>
   <g id="patch_134">
    <path clip-path="url(#p7f91968911)" d="M 102.374031 196.992 
L 105.7212 196.992 
L 105.7212 182.163427 
L 102.374031 182.163427 
z
" style="fill:#1f77b4;"/>
   </g>
   <g id="patch_135">
    <path clip-path="url(#p7f91968911)" d="M 135.845723 196.992 
L 139.192892 196.992 
L 139.192892 188.080067 
L 135.845723 188.080067 
z
" style="fill:#1f77b4;"/>
   </g>
   <g id="patch_136">
    <path clip-path="url(#p7f91968911)" d="M 169.317415 196.992 
L 172.664585 196.992 
L 172.664585 187.75725 
L 169.317415 187.75725 
z
" style="fill:#1f77b4;"/>
   </g>
   <g id="patch_137">
    <path clip-path="url(#p7f91968911)" d="M 202.789108 196.992 
L 206.136277 196.992 
L 206.136277 178.933843 
L 202.789108 178.933843 
z
" style="fill:#1f77b4;"/>
   </g>
   <g id="patch_138">
    <path clip-path="url(#p7f91968911)" d="M 236.2608 196.992 
L 239.607969 196.992 
L 239.607969 163.071967 
L 236.2608 163.071967 
z
" style="fill:#1f77b4;"/>
   </g>
   <g id="patch_139">
    <path clip-path="url(#p7f91968911)" d="M 269.732492 196.992 
L 273.079662 196.992 
L 273.079662 179.054007 
L 269.732492 179.054007 
z
" style="fill:#1f77b4;"/>
   </g>
   <g id="patch_140">
    <path clip-path="url(#p7f91968911)" d="M 303.204185 196.992 
L 306.551354 196.992 
L 306.551354 174.534979 
L 303.204185 174.534979 
z
" style="fill:#1f77b4;"/>
   </g>
   <g id="patch_141">
    <path clip-path="url(#p7f91968911)" d="M 336.675877 196.992 
L 340.023046 196.992 
L 340.023046 188.079886 
L 336.675877 188.079886 
z
" style="fill:#1f77b4;"/>
   </g>
   <g id="patch_142">
    <path clip-path="url(#p7f91968911)" d="M 370.147569 196.992 
L 373.494738 196.992 
L 373.494738 188.049843 
L 370.147569 188.049843 
z
" style="fill:#1f77b4;"/>
   </g>
   <g id="patch_143">
    <path clip-path="url(#p7f91968911)" d="M 403.619262 196.992 
L 406.966431 196.992 
L 406.966431 172.88383 
L 403.619262 172.88383 
z
" style="fill:#1f77b4;"/>
   </g>
   <g id="patch_144">
    <path clip-path="url(#p7f91968911)" d="M 437.090954 196.992 
L 440.438123 196.992 
L 440.438123 185.470055 
L 437.090954 185.470055 
z
" style="fill:#1f77b4;"/>
   </g>
   <g id="patch_145">
    <path clip-path="url(#p7f91968911)" d="M 470.562646 196.992 
L 473.909815 196.992 
L 473.909815 170.5902 
L 470.562646 170.5902 
z
" style="fill:#1f77b4;"/>
   </g>
   <g id="patch_146">
    <path clip-path="url(#p7f91968911)" d="M 72.249508 196.992 
L 75.596677 196.992 
L 75.596677 185.458289 
L 72.249508 185.458289 
z
" style="fill:url(#h1a22d6f6fc);"/>
   </g>
   <g id="patch_147">
    <path clip-path="url(#p7f91968911)" d="M 105.7212 196.992 
L 109.068369 196.992 
L 109.068369 182.163427 
L 105.7212 182.163427 
z
" style="fill:url(#h1a22d6f6fc);"/>
   </g>
   <g id="patch_148">
    <path clip-path="url(#p7f91968911)" d="M 139.192892 196.992 
L 142.540062 196.992 
L 142.540062 173.248605 
L 139.192892 173.248605 
z
" style="fill:url(#h1a22d6f6fc);"/>
   </g>
   <g id="patch_149">
    <path clip-path="url(#p7f91968911)" d="M 172.664585 196.992 
L 176.011754 196.992 
L 176.011754 187.186659 
L 172.664585 187.186659 
z
" style="fill:url(#h1a22d6f6fc);"/>
   </g>
   <g id="patch_150">
    <path clip-path="url(#p7f91968911)" d="M 206.136277 196.992 
L 209.483446 196.992 
L 209.483446 188.080067 
L 206.136277 188.080067 
z
" style="fill:url(#h1a22d6f6fc);"/>
   </g>
   <g id="patch_151">
    <path clip-path="url(#p7f91968911)" d="M 239.607969 196.992 
L 242.955138 196.992 
L 242.955138 163.036314 
L 239.607969 163.036314 
z
" style="fill:url(#h1a22d6f6fc);"/>
   </g>
   <g id="patch_152">
    <path clip-path="url(#p7f91968911)" d="M 273.079662 196.992 
L 276.426831 196.992 
L 276.426831 178.846827 
L 273.079662 178.846827 
z
" style="fill:url(#h1a22d6f6fc);"/>
   </g>
   <g id="patch_153">
    <path clip-path="url(#p7f91968911)" d="M 306.551354 196.992 
L 309.898523 196.992 
L 309.898523 174.534982 
L 306.551354 174.534982 
z
" style="fill:url(#h1a22d6f6fc);"/>
   </g>
   <g id="patch_154">
    <path clip-path="url(#p7f91968911)" d="M 340.023046 196.992 
L 343.370215 196.992 
L 343.370215 183.65742 
L 340.023046 183.65742 
z
" style="fill:url(#h1a22d6f6fc);"/>
   </g>
   <g id="patch_155">
    <path clip-path="url(#p7f91968911)" d="M 373.494738 196.992 
L 376.841908 196.992 
L 376.841908 171.004873 
L 373.494738 171.004873 
z
" style="fill:url(#h1a22d6f6fc);"/>
   </g>
   <g id="patch_156">
    <path clip-path="url(#p7f91968911)" d="M 406.966431 196.992 
L 410.3136 196.992 
L 410.3136 172.881963 
L 406.966431 172.881963 
z
" style="fill:url(#h1a22d6f6fc);"/>
   </g>
   <g id="patch_157">
    <path clip-path="url(#p7f91968911)" d="M 440.438123 196.992 
L 443.785292 196.992 
L 443.785292 173.295025 
L 440.438123 173.295025 
z
" style="fill:url(#h1a22d6f6fc);"/>
   </g>
   <g id="patch_158">
    <path clip-path="url(#p7f91968911)" d="M 473.909815 196.992 
L 477.256985 196.992 
L 477.256985 149.97389 
L 473.909815 149.97389 
z
" style="fill:url(#h1a22d6f6fc);"/>
   </g>
   <g id="patch_159">
    <path clip-path="url(#p7f91968911)" d="M 75.596677 196.992 
L 78.943846 196.992 
L 78.943846 188.033448 
L 75.596677 188.033448 
z
" style="fill:url(#ha8e0d00df6);"/>
   </g>
   <g id="patch_160">
    <path clip-path="url(#p7f91968911)" d="M 109.068369 196.992 
L 112.415538 196.992 
L 112.415538 182.163427 
L 109.068369 182.163427 
z
" style="fill:url(#ha8e0d00df6);"/>
   </g>
   <g id="patch_161">
    <path clip-path="url(#p7f91968911)" d="M 142.540062 196.992 
L 145.887231 196.992 
L 145.887231 173.272299 
L 142.540062 173.272299 
z
" style="fill:url(#ha8e0d00df6);"/>
   </g>
   <g id="patch_162">
    <path clip-path="url(#p7f91968911)" d="M 176.011754 196.992 
L 179.358923 196.992 
L 179.358923 187.318899 
L 176.011754 187.318899 
z
" style="fill:url(#ha8e0d00df6);"/>
   </g>
   <g id="patch_163">
    <path clip-path="url(#p7f91968911)" d="M 209.483446 196.992 
L 212.830615 196.992 
L 212.830615 179.372216 
L 209.483446 179.372216 
z
" style="fill:url(#ha8e0d00df6);"/>
   </g>
   <g id="patch_164">
    <path clip-path="url(#p7f91968911)" d="M 242.955138 196.992 
L 246.302308 196.992 
L 246.302308 163.036953 
L 242.955138 163.036953 
z
" style="fill:url(#ha8e0d00df6);"/>
   </g>
   <g id="patch_165">
    <path clip-path="url(#p7f91968911)" d="M 276.426831 196.992 
L 279.774 196.992 
L 279.774 176.696834 
L 276.426831 176.696834 
z
" style="fill:url(#ha8e0d00df6);"/>
   </g>
   <g id="patch_166">
    <path clip-path="url(#p7f91968911)" d="M 309.898523 196.992 
L 313.245692 196.992 
L 313.245692 152.11194 
L 309.898523 152.11194 
z
" style="fill:url(#ha8e0d00df6);"/>
   </g>
   <g id="patch_167">
    <path clip-path="url(#p7f91968911)" d="M 343.370215 196.992 
L 346.717385 196.992 
L 346.717385 179.311092 
L 343.370215 179.311092 
z
" style="fill:url(#ha8e0d00df6);"/>
   </g>
   <g id="patch_168">
    <path clip-path="url(#p7f91968911)" d="M 376.841908 196.992 
L 380.189077 196.992 
L 380.189077 185.06826 
L 376.841908 185.06826 
z
" style="fill:url(#ha8e0d00df6);"/>
   </g>
   <g id="patch_169">
    <path clip-path="url(#p7f91968911)" d="M 410.3136 196.992 
L 413.660769 196.992 
L 413.660769 172.882226 
L 410.3136 172.882226 
z
" style="fill:url(#ha8e0d00df6);"/>
   </g>
   <g id="patch_170">
    <path clip-path="url(#p7f91968911)" d="M 443.785292 196.992 
L 447.132462 196.992 
L 447.132462 173.295113 
L 443.785292 173.295113 
z
" style="fill:url(#ha8e0d00df6);"/>
   </g>
   <g id="patch_171">
    <path clip-path="url(#p7f91968911)" d="M 477.256985 196.992 
L 480.604154 196.992 
L 480.604154 144.209307 
L 477.256985 144.209307 
z
" style="fill:url(#ha8e0d00df6);"/>
   </g>
   <g id="patch_172">
    <path clip-path="url(#p7f91968911)" d="M 78.943846 196.992 
L 82.291015 196.992 
L 82.291015 185.458968 
L 78.943846 185.458968 
z
" style="fill:url(#h28ad827479);"/>
   </g>
   <g id="patch_173">
    <path clip-path="url(#p7f91968911)" d="M 112.415538 196.992 
L 115.762708 196.992 
L 115.762708 182.163266 
L 112.415538 182.163266 
z
" style="fill:url(#h28ad827479);"/>
   </g>
   <g id="patch_174">
    <path clip-path="url(#p7f91968911)" d="M 145.887231 196.992 
L 149.2344 196.992 
L 149.2344 173.091322 
L 145.887231 173.091322 
z
" style="fill:url(#h28ad827479);"/>
   </g>
   <g id="patch_175">
    <path clip-path="url(#p7f91968911)" d="M 179.358923 196.992 
L 182.706092 196.992 
L 182.706092 187.648496 
L 179.358923 187.648496 
z
" style="fill:url(#h28ad827479);"/>
   </g>
   <g id="patch_176">
    <path clip-path="url(#p7f91968911)" d="M 212.830615 196.992 
L 216.177785 196.992 
L 216.177785 179.197982 
L 212.830615 179.197982 
z
" style="fill:url(#h28ad827479);"/>
   </g>
   <g id="patch_177">
    <path clip-path="url(#p7f91968911)" d="M 246.302308 196.992 
L 249.649477 196.992 
L 249.649477 163.67792 
L 246.302308 163.67792 
z
" style="fill:url(#h28ad827479);"/>
   </g>
   <g id="patch_178">
    <path clip-path="url(#p7f91968911)" d="M 279.774 196.992 
L 283.121169 196.992 
L 283.121169 175.552265 
L 279.774 175.552265 
z
" style="fill:url(#h28ad827479);"/>
   </g>
   <g id="patch_179">
    <path clip-path="url(#p7f91968911)" d="M 313.245692 196.992 
L 316.592862 196.992 
L 316.592862 151.783012 
L 313.245692 151.783012 
z
" style="fill:url(#h28ad827479);"/>
   </g>
   <g id="patch_180">
    <path clip-path="url(#p7f91968911)" d="M 346.717385 196.992 
L 350.064554 196.992 
L 350.064554 170.431029 
L 346.717385 170.431029 
z
" style="fill:url(#h28ad827479);"/>
   </g>
   <g id="patch_181">
    <path clip-path="url(#p7f91968911)" d="M 380.189077 196.992 
L 383.536246 196.992 
L 383.536246 171.00401 
L 380.189077 171.00401 
z
" style="fill:url(#h28ad827479);"/>
   </g>
   <g id="patch_182">
    <path clip-path="url(#p7f91968911)" d="M 413.660769 196.992 
L 417.007938 196.992 
L 417.007938 172.882299 
L 413.660769 172.882299 
z
" style="fill:url(#h28ad827479);"/>
   </g>
   <g id="patch_183">
    <path clip-path="url(#p7f91968911)" d="M 447.132462 196.992 
L 450.479631 196.992 
L 450.479631 170.601027 
L 447.132462 170.601027 
z
" style="fill:url(#h28ad827479);"/>
   </g>
   <g id="patch_184">
    <path clip-path="url(#p7f91968911)" d="M 480.604154 196.992 
L 483.951323 196.992 
L 483.951323 144.13727 
L 480.604154 144.13727 
z
" style="fill:url(#h28ad827479);"/>
   </g>
   <g id="patch_185">
    <path clip-path="url(#p7f91968911)" d="M 82.291015 196.992 
L 85.638185 196.992 
L 85.638185 188.033448 
L 82.291015 188.033448 
z
" style="fill:url(#h6778673d94);"/>
   </g>
   <g id="patch_186">
    <path clip-path="url(#p7f91968911)" d="M 115.762708 196.992 
L 119.109877 196.992 
L 119.109877 182.076179 
L 115.762708 182.076179 
z
" style="fill:url(#h6778673d94);"/>
   </g>
   <g id="patch_187">
    <path clip-path="url(#p7f91968911)" d="M 149.2344 196.992 
L 152.581569 196.992 
L 152.581569 173.119147 
L 149.2344 173.119147 
z
" style="fill:url(#h6778673d94);"/>
   </g>
   <g id="patch_188">
    <path clip-path="url(#p7f91968911)" d="M 182.706092 196.992 
L 186.053262 196.992 
L 186.053262 187.757593 
L 182.706092 187.757593 
z
" style="fill:url(#h6778673d94);"/>
   </g>
   <g id="patch_189">
    <path clip-path="url(#p7f91968911)" d="M 216.177785 196.992 
L 219.524954 196.992 
L 219.524954 171.195483 
L 216.177785 171.195483 
z
" style="fill:url(#h6778673d94);"/>
   </g>
   <g id="patch_190">
    <path clip-path="url(#p7f91968911)" d="M 249.649477 196.992 
L 252.996646 196.992 
L 252.996646 163.036753 
L 249.649477 163.036753 
z
" style="fill:url(#h6778673d94);"/>
   </g>
   <g id="patch_191">
    <path clip-path="url(#p7f91968911)" d="M 283.121169 196.992 
L 286.468338 196.992 
L 286.468338 173.490166 
L 283.121169 173.490166 
z
" style="fill:url(#h6778673d94);"/>
   </g>
   <g id="patch_192">
    <path clip-path="url(#p7f91968911)" d="M 316.592862 196.992 
L 319.940031 196.992 
L 319.940031 151.7866 
L 316.592862 151.7866 
z
" style="fill:url(#h6778673d94);"/>
   </g>
   <g id="patch_193">
    <path clip-path="url(#p7f91968911)" d="M 350.064554 196.992 
L 353.411723 196.992 
L 353.411723 173.348527 
L 350.064554 173.348527 
z
" style="fill:url(#h6778673d94);"/>
   </g>
   <g id="patch_194">
    <path clip-path="url(#p7f91968911)" d="M 383.536246 196.992 
L 386.883415 196.992 
L 386.883415 173.19096 
L 383.536246 173.19096 
z
" style="fill:url(#h6778673d94);"/>
   </g>
   <g id="patch_195">
    <path clip-path="url(#p7f91968911)" d="M 417.007938 196.992 
L 420.355108 196.992 
L 420.355108 159.870589 
L 417.007938 159.870589 
z
" style="fill:url(#h6778673d94);"/>
   </g>
   <g id="patch_196">
    <path clip-path="url(#p7f91968911)" d="M 450.479631 196.992 
L 453.8268 196.992 
L 453.8268 165.639121 
L 450.479631 165.639121 
z
" style="fill:url(#h6778673d94);"/>
   </g>
   <g id="patch_197">
    <path clip-path="url(#p7f91968911)" d="M 483.951323 196.992 
L 487.298492 196.992 
L 487.298492 132.63575 
L 483.951323 132.63575 
z
" style="fill:url(#h6778673d94);"/>
   </g>
   <g id="patch_198">
    <path d="M 62.208 196.992 
L 62.208 129.417937 
" style="fill:none;stroke:#000000;stroke-linecap:square;stroke-linejoin:miter;stroke-width:0.8;"/>
   </g>
   <g id="patch_199">
    <path d="M 497.34 196.992 
L 497.34 129.417937 
" style="fill:none;stroke:#000000;stroke-linecap:square;stroke-linejoin:miter;stroke-width:0.8;"/>
   </g>
   <g id="patch_200">
    <path d="M 62.208 196.992 
L 497.34 196.992 
" style="fill:none;stroke:#000000;stroke-linecap:square;stroke-linejoin:miter;stroke-width:0.8;"/>
   </g>
   <g id="patch_201">
    <path d="M 62.208 129.417937 
L 497.34 129.417937 
" style="fill:none;stroke:#000000;stroke-linecap:square;stroke-linejoin:miter;stroke-width:0.8;"/>
   </g>
  </g>
 </g>
 <defs>
  <clipPath id="p41378d5abe">
   <rect height="67.574063" width="435.132" x="62.208" y="51.84"/>
  </clipPath>
  <clipPath id="p7f91968911">
   <rect height="67.574063" width="435.132" x="62.208" y="129.417937"/>
  </clipPath>
 </defs>
 <defs>
  <pattern height="72" id="h1a22d6f6fc" patternUnits="userSpaceOnUse" width="72" x="0" y="0">
   <rect fill="#ff7f0e" height="73" width="73" x="0" y="0"/>
   <path d="M -36 36 
L 36 -36 
M -33 39 
L 39 -33 
M -30 42 
L 42 -30 
M -27 45 
L 45 -27 
M -24 48 
L 48 -24 
M -21 51 
L 51 -21 
M -18 54 
L 54 -18 
M -15 57 
L 57 -15 
M -12 60 
L 60 -12 
M -9 63 
L 63 -9 
M -6 66 
L 66 -6 
M -3 69 
L 69 -3 
M 0 72 
L 72 0 
M 3 75 
L 75 3 
M 6 78 
L 78 6 
M 9 81 
L 81 9 
M 12 84 
L 84 12 
M 15 87 
L 87 15 
M 18 90 
L 90 18 
M 21 93 
L 93 21 
M 24 96 
L 96 24 
M 27 99 
L 99 27 
M 30 102 
L 102 30 
M 33 105 
L 105 33 
M 36 108 
L 108 36 
" style="fill:#000000;stroke:#000000;stroke-linecap:butt;stroke-linejoin:miter;stroke-width:1.0;"/>
  </pattern>
  <pattern height="72" id="ha8e0d00df6" patternUnits="userSpaceOnUse" width="72" x="0" y="0">
   <rect fill="#1f77b4" height="73" width="73" x="0" y="0"/>
   <path d="M -36 36 
L 36 -36 
M -33 39 
L 39 -33 
M -30 42 
L 42 -30 
M -27 45 
L 45 -27 
M -24 48 
L 48 -24 
M -21 51 
L 51 -21 
M -18 54 
L 54 -18 
M -15 57 
L 57 -15 
M -12 60 
L 60 -12 
M -9 63 
L 63 -9 
M -6 66 
L 66 -6 
M -3 69 
L 69 -3 
M 0 72 
L 72 0 
M 3 75 
L 75 3 
M 6 78 
L 78 6 
M 9 81 
L 81 9 
M 12 84 
L 84 12 
M 15 87 
L 87 15 
M 18 90 
L 90 18 
M 21 93 
L 93 21 
M 24 96 
L 96 24 
M 27 99 
L 99 27 
M 30 102 
L 102 30 
M 33 105 
L 105 33 
M 36 108 
L 108 36 
" style="fill:#000000;stroke:#000000;stroke-linecap:butt;stroke-linejoin:miter;stroke-width:1.0;"/>
  </pattern>
  <pattern height="72" id="h28ad827479" patternUnits="userSpaceOnUse" width="72" x="0" y="0">
   <rect fill="#ff7f0e" height="73" width="73" x="0" y="0"/>
   <path d="M -36 36 
L 36 108 
M -33 33 
L 39 105 
M -30 30 
L 42 102 
M -27 27 
L 45 99 
M -24 24 
L 48 96 
M -21 21 
L 51 93 
M -18 18 
L 54 90 
M -15 15 
L 57 87 
M -12 12 
L 60 84 
M -9 9 
L 63 81 
M -6 6 
L 66 78 
M -3 3 
L 69 75 
M 0 0 
L 72 72 
M 3 -3 
L 75 69 
M 6 -6 
L 78 66 
M 9 -9 
L 81 63 
M 12 -12 
L 84 60 
M 15 -15 
L 87 57 
M 18 -18 
L 90 54 
M 21 -21 
L 93 51 
M 24 -24 
L 96 48 
M 27 -27 
L 99 45 
M 30 -30 
L 102 42 
M 33 -33 
L 105 39 
M 36 -36 
L 108 36 
" style="fill:#000000;stroke:#000000;stroke-linecap:butt;stroke-linejoin:miter;stroke-width:1.0;"/>
  </pattern>
  <pattern height="72" id="h6778673d94" patternUnits="userSpaceOnUse" width="72" x="0" y="0">
   <rect fill="#1f77b4" height="73" width="73" x="0" y="0"/>
   <path d="M -36 36 
L 36 108 
M -33 33 
L 39 105 
M -30 30 
L 42 102 
M -27 27 
L 45 99 
M -24 24 
L 48 96 
M -21 21 
L 51 93 
M -18 18 
L 54 90 
M -15 15 
L 57 87 
M -12 12 
L 60 84 
M -9 9 
L 63 81 
M -6 6 
L 66 78 
M -3 3 
L 69 75 
M 0 0 
L 72 72 
M 3 -3 
L 75 69 
M 6 -6 
L 78 66 
M 9 -9 
L 81 63 
M 12 -12 
L 84 60 
M 15 -15 
L 87 57 
M 18 -18 
L 90 54 
M 21 -21 
L 93 51 
M 24 -24 
L 96 48 
M 27 -27 
L 99 45 
M 30 -30 
L 102 42 
M 33 -33 
L 105 39 
M 36 -36 
L 108 36 
" style="fill:#000000;stroke:#000000;stroke-linecap:butt;stroke-linejoin:miter;stroke-width:1.0;"/>
  </pattern>
 </defs>
</svg>
