<?xml version="1.0" encoding="utf-8" standalone="no"?>
<!DOCTYPE svg PUBLIC "-//W3C//DTD SVG 1.1//EN"
  "http://www.w3.org/Graphics/SVG/1.1/DTD/svg11.dtd">
<!-- Created with matplotlib (https://matplotlib.org/) -->
<svg height="252pt" version="1.1" viewBox="0 0 792 252" width="792pt" xmlns="http://www.w3.org/2000/svg" xmlns:xlink="http://www.w3.org/1999/xlink">
 <defs>
  <style type="text/css">
*{stroke-linecap:butt;stroke-linejoin:round;}
  </style>
 </defs>
 <g id="figure_1">
  <g id="patch_1">
   <path d="M 0 252 
L 792 252 
L 792 0 
L 0 0 
z
" style="fill:#ffffff;"/>
  </g>
  <g id="axes_1">
   <g id="patch_2">
    <path d="M 79.2 93.739187 
L 759.825 93.739187 
L 759.825 10.7625 
L 79.2 10.7625 
z
" style="fill:#ffffff;"/>
   </g>
   <g id="matplotlib.axis_1">
    <g id="xtick_1">
     <g id="line2d_1">
      <defs>
       <path d="M 0 0 
L 0 3.5 
" id="m5c3765c710" style="stroke:#000000;stroke-width:0.8;"/>
      </defs>
      <g>
       <use style="stroke:#000000;stroke-width:0.8;" x="97.524519" xlink:href="#m5c3765c710" y="93.739187"/>
      </g>
     </g>
    </g>
    <g id="xtick_2">
     <g id="line2d_2">
      <g>
       <use style="stroke:#000000;stroke-width:0.8;" x="149.880288" xlink:href="#m5c3765c710" y="93.739187"/>
      </g>
     </g>
    </g>
    <g id="xtick_3">
     <g id="line2d_3">
      <g>
       <use style="stroke:#000000;stroke-width:0.8;" x="202.236058" xlink:href="#m5c3765c710" y="93.739187"/>
      </g>
     </g>
    </g>
    <g id="xtick_4">
     <g id="line2d_4">
      <g>
       <use style="stroke:#000000;stroke-width:0.8;" x="254.591827" xlink:href="#m5c3765c710" y="93.739187"/>
      </g>
     </g>
    </g>
    <g id="xtick_5">
     <g id="line2d_5">
      <g>
       <use style="stroke:#000000;stroke-width:0.8;" x="306.947596" xlink:href="#m5c3765c710" y="93.739187"/>
      </g>
     </g>
    </g>
    <g id="xtick_6">
     <g id="line2d_6">
      <g>
       <use style="stroke:#000000;stroke-width:0.8;" x="359.303365" xlink:href="#m5c3765c710" y="93.739187"/>
      </g>
     </g>
    </g>
    <g id="xtick_7">
     <g id="line2d_7">
      <g>
       <use style="stroke:#000000;stroke-width:0.8;" x="411.659135" xlink:href="#m5c3765c710" y="93.739187"/>
      </g>
     </g>
    </g>
    <g id="xtick_8">
     <g id="line2d_8">
      <g>
       <use style="stroke:#000000;stroke-width:0.8;" x="464.014904" xlink:href="#m5c3765c710" y="93.739187"/>
      </g>
     </g>
    </g>
    <g id="xtick_9">
     <g id="line2d_9">
      <g>
       <use style="stroke:#000000;stroke-width:0.8;" x="516.370673" xlink:href="#m5c3765c710" y="93.739187"/>
      </g>
     </g>
    </g>
    <g id="xtick_10">
     <g id="line2d_10">
      <g>
       <use style="stroke:#000000;stroke-width:0.8;" x="568.726442" xlink:href="#m5c3765c710" y="93.739187"/>
      </g>
     </g>
    </g>
    <g id="xtick_11">
     <g id="line2d_11">
      <g>
       <use style="stroke:#000000;stroke-width:0.8;" x="621.082212" xlink:href="#m5c3765c710" y="93.739187"/>
      </g>
     </g>
    </g>
    <g id="xtick_12">
     <g id="line2d_12">
      <g>
       <use style="stroke:#000000;stroke-width:0.8;" x="673.437981" xlink:href="#m5c3765c710" y="93.739187"/>
      </g>
     </g>
    </g>
    <g id="xtick_13">
     <g id="line2d_13">
      <g>
       <use style="stroke:#000000;stroke-width:0.8;" x="725.79375" xlink:href="#m5c3765c710" y="93.739187"/>
      </g>
     </g>
    </g>
   </g>
   <g id="matplotlib.axis_2">
    <g id="ytick_1">
     <g id="line2d_14">
      <path clip-path="url(#pab405ee87c)" d="M 79.2 93.739187 
L 759.825 93.739187 
" style="fill:none;stroke:#808080;stroke-dasharray:2.96,1.28;stroke-dashoffset:0;stroke-width:0.8;"/>
     </g>
     <g id="line2d_15">
      <defs>
       <path d="M 0 0 
L -3.5 0 
" id="mf4fe3487f5" style="stroke:#000000;stroke-width:0.8;"/>
      </defs>
      <g>
       <use style="stroke:#000000;stroke-width:0.8;" x="79.2" xlink:href="#mf4fe3487f5" y="93.739187"/>
      </g>
     </g>
     <g id="text_1">
      <!-- 0 -->
      <defs>
       <path d="M 31.78125 66.40625 
Q 24.171875 66.40625 20.328125 58.90625 
Q 16.5 51.421875 16.5 36.375 
Q 16.5 21.390625 20.328125 13.890625 
Q 24.171875 6.390625 31.78125 6.390625 
Q 39.453125 6.390625 43.28125 13.890625 
Q 47.125 21.390625 47.125 36.375 
Q 47.125 51.421875 43.28125 58.90625 
Q 39.453125 66.40625 31.78125 66.40625 
z
M 31.78125 74.21875 
Q 44.046875 74.21875 50.515625 64.515625 
Q 56.984375 54.828125 56.984375 36.375 
Q 56.984375 17.96875 50.515625 8.265625 
Q 44.046875 -1.421875 31.78125 -1.421875 
Q 19.53125 -1.421875 13.0625 8.265625 
Q 6.59375 17.96875 6.59375 36.375 
Q 6.59375 54.828125 13.0625 64.515625 
Q 19.53125 74.21875 31.78125 74.21875 
z
" id="DejaVuSans-48"/>
      </defs>
      <g transform="translate(65.8375 97.538405)scale(0.1 -0.1)">
       <use xlink:href="#DejaVuSans-48"/>
      </g>
     </g>
    </g>
    <g id="ytick_2">
     <g id="line2d_16">
      <path clip-path="url(#pab405ee87c)" d="M 79.2 54.210032 
L 759.825 54.210032 
" style="fill:none;stroke:#808080;stroke-dasharray:2.96,1.28;stroke-dashoffset:0;stroke-width:0.8;"/>
     </g>
     <g id="line2d_17">
      <g>
       <use style="stroke:#000000;stroke-width:0.8;" x="79.2" xlink:href="#mf4fe3487f5" y="54.210032"/>
      </g>
     </g>
     <g id="text_2">
      <!-- 20 -->
      <defs>
       <path d="M 19.1875 8.296875 
L 53.609375 8.296875 
L 53.609375 0 
L 7.328125 0 
L 7.328125 8.296875 
Q 12.9375 14.109375 22.625 23.890625 
Q 32.328125 33.6875 34.8125 36.53125 
Q 39.546875 41.84375 41.421875 45.53125 
Q 43.3125 49.21875 43.3125 52.78125 
Q 43.3125 58.59375 39.234375 62.25 
Q 35.15625 65.921875 28.609375 65.921875 
Q 23.96875 65.921875 18.8125 64.3125 
Q 13.671875 62.703125 7.8125 59.421875 
L 7.8125 69.390625 
Q 13.765625 71.78125 18.9375 73 
Q 24.125 74.21875 28.421875 74.21875 
Q 39.75 74.21875 46.484375 68.546875 
Q 53.21875 62.890625 53.21875 53.421875 
Q 53.21875 48.921875 51.53125 44.890625 
Q 49.859375 40.875 45.40625 35.40625 
Q 44.1875 33.984375 37.640625 27.21875 
Q 31.109375 20.453125 19.1875 8.296875 
z
" id="DejaVuSans-50"/>
      </defs>
      <g transform="translate(59.475 58.009251)scale(0.1 -0.1)">
       <use xlink:href="#DejaVuSans-50"/>
       <use x="63.623047" xlink:href="#DejaVuSans-48"/>
      </g>
     </g>
    </g>
    <g id="ytick_3">
     <g id="line2d_18">
      <path clip-path="url(#pab405ee87c)" d="M 79.2 14.680878 
L 759.825 14.680878 
" style="fill:none;stroke:#808080;stroke-dasharray:2.96,1.28;stroke-dashoffset:0;stroke-width:0.8;"/>
     </g>
     <g id="line2d_19">
      <g>
       <use style="stroke:#000000;stroke-width:0.8;" x="79.2" xlink:href="#mf4fe3487f5" y="14.680878"/>
      </g>
     </g>
     <g id="text_3">
      <!-- 40 -->
      <defs>
       <path d="M 37.796875 64.3125 
L 12.890625 25.390625 
L 37.796875 25.390625 
z
M 35.203125 72.90625 
L 47.609375 72.90625 
L 47.609375 25.390625 
L 58.015625 25.390625 
L 58.015625 17.1875 
L 47.609375 17.1875 
L 47.609375 0 
L 37.796875 0 
L 37.796875 17.1875 
L 4.890625 17.1875 
L 4.890625 26.703125 
z
" id="DejaVuSans-52"/>
      </defs>
      <g transform="translate(59.475 18.480097)scale(0.1 -0.1)">
       <use xlink:href="#DejaVuSans-52"/>
       <use x="63.623047" xlink:href="#DejaVuSans-48"/>
      </g>
     </g>
    </g>
    <g id="text_4">
     <!-- (a) -->
     <defs>
      <path d="M 31 75.875 
Q 24.46875 64.65625 21.28125 53.65625 
Q 18.109375 42.671875 18.109375 31.390625 
Q 18.109375 20.125 21.3125 9.0625 
Q 24.515625 -2 31 -13.1875 
L 23.1875 -13.1875 
Q 15.875 -1.703125 12.234375 9.375 
Q 8.59375 20.453125 8.59375 31.390625 
Q 8.59375 42.28125 12.203125 53.3125 
Q 15.828125 64.359375 23.1875 75.875 
z
" id="DejaVuSans-40"/>
      <path d="M 34.28125 27.484375 
Q 23.390625 27.484375 19.1875 25 
Q 14.984375 22.515625 14.984375 16.5 
Q 14.984375 11.71875 18.140625 8.90625 
Q 21.296875 6.109375 26.703125 6.109375 
Q 34.1875 6.109375 38.703125 11.40625 
Q 43.21875 16.703125 43.21875 25.484375 
L 43.21875 27.484375 
z
M 52.203125 31.203125 
L 52.203125 0 
L 43.21875 0 
L 43.21875 8.296875 
Q 40.140625 3.328125 35.546875 0.953125 
Q 30.953125 -1.421875 24.3125 -1.421875 
Q 15.921875 -1.421875 10.953125 3.296875 
Q 6 8.015625 6 15.921875 
Q 6 25.140625 12.171875 29.828125 
Q 18.359375 34.515625 30.609375 34.515625 
L 43.21875 34.515625 
L 43.21875 35.40625 
Q 43.21875 41.609375 39.140625 45 
Q 35.0625 48.390625 27.6875 48.390625 
Q 23 48.390625 18.546875 47.265625 
Q 14.109375 46.140625 10.015625 43.890625 
L 10.015625 52.203125 
Q 14.9375 54.109375 19.578125 55.046875 
Q 24.21875 56 28.609375 56 
Q 40.484375 56 46.34375 49.84375 
Q 52.203125 43.703125 52.203125 31.203125 
z
" id="DejaVuSans-97"/>
      <path d="M 8.015625 75.875 
L 15.828125 75.875 
Q 23.140625 64.359375 26.78125 53.3125 
Q 30.421875 42.28125 30.421875 31.390625 
Q 30.421875 20.453125 26.78125 9.375 
Q 23.140625 -1.703125 15.828125 -13.1875 
L 8.015625 -13.1875 
Q 14.5 -2 17.703125 9.0625 
Q 20.90625 20.125 20.90625 31.390625 
Q 20.90625 42.671875 17.703125 53.65625 
Q 14.5 64.65625 8.015625 75.875 
z
" id="DejaVuSans-41"/>
     </defs>
     <g transform="translate(30.999688 59.216468)rotate(-90)scale(0.1 -0.1)">
      <use xlink:href="#DejaVuSans-40"/>
      <use x="39.013672" xlink:href="#DejaVuSans-97"/>
      <use x="100.292969" xlink:href="#DejaVuSans-41"/>
     </g>
     <!-- Pipelined -->
     <defs>
      <path d="M 19.671875 64.796875 
L 19.671875 37.40625 
L 32.078125 37.40625 
Q 38.96875 37.40625 42.71875 40.96875 
Q 46.484375 44.53125 46.484375 51.125 
Q 46.484375 57.671875 42.71875 61.234375 
Q 38.96875 64.796875 32.078125 64.796875 
z
M 9.8125 72.90625 
L 32.078125 72.90625 
Q 44.34375 72.90625 50.609375 67.359375 
Q 56.890625 61.8125 56.890625 51.125 
Q 56.890625 40.328125 50.609375 34.8125 
Q 44.34375 29.296875 32.078125 29.296875 
L 19.671875 29.296875 
L 19.671875 0 
L 9.8125 0 
z
" id="DejaVuSans-80"/>
      <path d="M 9.421875 54.6875 
L 18.40625 54.6875 
L 18.40625 0 
L 9.421875 0 
z
M 9.421875 75.984375 
L 18.40625 75.984375 
L 18.40625 64.59375 
L 9.421875 64.59375 
z
" id="DejaVuSans-105"/>
      <path d="M 18.109375 8.203125 
L 18.109375 -20.796875 
L 9.078125 -20.796875 
L 9.078125 54.6875 
L 18.109375 54.6875 
L 18.109375 46.390625 
Q 20.953125 51.265625 25.265625 53.625 
Q 29.59375 56 35.59375 56 
Q 45.5625 56 51.78125 48.09375 
Q 58.015625 40.1875 58.015625 27.296875 
Q 58.015625 14.40625 51.78125 6.484375 
Q 45.5625 -1.421875 35.59375 -1.421875 
Q 29.59375 -1.421875 25.265625 0.953125 
Q 20.953125 3.328125 18.109375 8.203125 
z
M 48.6875 27.296875 
Q 48.6875 37.203125 44.609375 42.84375 
Q 40.53125 48.484375 33.40625 48.484375 
Q 26.265625 48.484375 22.1875 42.84375 
Q 18.109375 37.203125 18.109375 27.296875 
Q 18.109375 17.390625 22.1875 11.75 
Q 26.265625 6.109375 33.40625 6.109375 
Q 40.53125 6.109375 44.609375 11.75 
Q 48.6875 17.390625 48.6875 27.296875 
z
" id="DejaVuSans-112"/>
      <path d="M 56.203125 29.59375 
L 56.203125 25.203125 
L 14.890625 25.203125 
Q 15.484375 15.921875 20.484375 11.0625 
Q 25.484375 6.203125 34.421875 6.203125 
Q 39.59375 6.203125 44.453125 7.46875 
Q 49.3125 8.734375 54.109375 11.28125 
L 54.109375 2.78125 
Q 49.265625 0.734375 44.1875 -0.34375 
Q 39.109375 -1.421875 33.890625 -1.421875 
Q 20.796875 -1.421875 13.15625 6.1875 
Q 5.515625 13.8125 5.515625 26.8125 
Q 5.515625 40.234375 12.765625 48.109375 
Q 20.015625 56 32.328125 56 
Q 43.359375 56 49.78125 48.890625 
Q 56.203125 41.796875 56.203125 29.59375 
z
M 47.21875 32.234375 
Q 47.125 39.59375 43.09375 43.984375 
Q 39.0625 48.390625 32.421875 48.390625 
Q 24.90625 48.390625 20.390625 44.140625 
Q 15.875 39.890625 15.1875 32.171875 
z
" id="DejaVuSans-101"/>
      <path d="M 9.421875 75.984375 
L 18.40625 75.984375 
L 18.40625 0 
L 9.421875 0 
z
" id="DejaVuSans-108"/>
      <path d="M 54.890625 33.015625 
L 54.890625 0 
L 45.90625 0 
L 45.90625 32.71875 
Q 45.90625 40.484375 42.875 44.328125 
Q 39.84375 48.1875 33.796875 48.1875 
Q 26.515625 48.1875 22.3125 43.546875 
Q 18.109375 38.921875 18.109375 30.90625 
L 18.109375 0 
L 9.078125 0 
L 9.078125 54.6875 
L 18.109375 54.6875 
L 18.109375 46.1875 
Q 21.34375 51.125 25.703125 53.5625 
Q 30.078125 56 35.796875 56 
Q 45.21875 56 50.046875 50.171875 
Q 54.890625 44.34375 54.890625 33.015625 
z
" id="DejaVuSans-110"/>
      <path d="M 45.40625 46.390625 
L 45.40625 75.984375 
L 54.390625 75.984375 
L 54.390625 0 
L 45.40625 0 
L 45.40625 8.203125 
Q 42.578125 3.328125 38.25 0.953125 
Q 33.9375 -1.421875 27.875 -1.421875 
Q 17.96875 -1.421875 11.734375 6.484375 
Q 5.515625 14.40625 5.515625 27.296875 
Q 5.515625 40.1875 11.734375 48.09375 
Q 17.96875 56 27.875 56 
Q 33.9375 56 38.25 53.625 
Q 42.578125 51.265625 45.40625 46.390625 
z
M 14.796875 27.296875 
Q 14.796875 17.390625 18.875 11.75 
Q 22.953125 6.109375 30.078125 6.109375 
Q 37.203125 6.109375 41.296875 11.75 
Q 45.40625 17.390625 45.40625 27.296875 
Q 45.40625 37.203125 41.296875 42.84375 
Q 37.203125 48.484375 30.078125 48.484375 
Q 22.953125 48.484375 18.875 42.84375 
Q 14.796875 37.203125 14.796875 27.296875 
z
" id="DejaVuSans-100"/>
     </defs>
     <g transform="translate(42.1975 75.101625)rotate(-90)scale(0.1 -0.1)">
      <use xlink:href="#DejaVuSans-80"/>
      <use x="60.271484" xlink:href="#DejaVuSans-105"/>
      <use x="88.054688" xlink:href="#DejaVuSans-112"/>
      <use x="151.53125" xlink:href="#DejaVuSans-101"/>
      <use x="213.054688" xlink:href="#DejaVuSans-108"/>
      <use x="240.837891" xlink:href="#DejaVuSans-105"/>
      <use x="268.621094" xlink:href="#DejaVuSans-110"/>
      <use x="332" xlink:href="#DejaVuSans-101"/>
      <use x="393.523438" xlink:href="#DejaVuSans-100"/>
     </g>
     <!-- Norm Perf -->
     <defs>
      <path d="M 9.8125 72.90625 
L 23.09375 72.90625 
L 55.421875 11.921875 
L 55.421875 72.90625 
L 64.984375 72.90625 
L 64.984375 0 
L 51.703125 0 
L 19.390625 60.984375 
L 19.390625 0 
L 9.8125 0 
z
" id="DejaVuSans-78"/>
      <path d="M 30.609375 48.390625 
Q 23.390625 48.390625 19.1875 42.75 
Q 14.984375 37.109375 14.984375 27.296875 
Q 14.984375 17.484375 19.15625 11.84375 
Q 23.34375 6.203125 30.609375 6.203125 
Q 37.796875 6.203125 41.984375 11.859375 
Q 46.1875 17.53125 46.1875 27.296875 
Q 46.1875 37.015625 41.984375 42.703125 
Q 37.796875 48.390625 30.609375 48.390625 
z
M 30.609375 56 
Q 42.328125 56 49.015625 48.375 
Q 55.71875 40.765625 55.71875 27.296875 
Q 55.71875 13.875 49.015625 6.21875 
Q 42.328125 -1.421875 30.609375 -1.421875 
Q 18.84375 -1.421875 12.171875 6.21875 
Q 5.515625 13.875 5.515625 27.296875 
Q 5.515625 40.765625 12.171875 48.375 
Q 18.84375 56 30.609375 56 
z
" id="DejaVuSans-111"/>
      <path d="M 41.109375 46.296875 
Q 39.59375 47.171875 37.8125 47.578125 
Q 36.03125 48 33.890625 48 
Q 26.265625 48 22.1875 43.046875 
Q 18.109375 38.09375 18.109375 28.8125 
L 18.109375 0 
L 9.078125 0 
L 9.078125 54.6875 
L 18.109375 54.6875 
L 18.109375 46.1875 
Q 20.953125 51.171875 25.484375 53.578125 
Q 30.03125 56 36.53125 56 
Q 37.453125 56 38.578125 55.875 
Q 39.703125 55.765625 41.0625 55.515625 
z
" id="DejaVuSans-114"/>
      <path d="M 52 44.1875 
Q 55.375 50.25 60.0625 53.125 
Q 64.75 56 71.09375 56 
Q 79.640625 56 84.28125 50.015625 
Q 88.921875 44.046875 88.921875 33.015625 
L 88.921875 0 
L 79.890625 0 
L 79.890625 32.71875 
Q 79.890625 40.578125 77.09375 44.375 
Q 74.3125 48.1875 68.609375 48.1875 
Q 61.625 48.1875 57.5625 43.546875 
Q 53.515625 38.921875 53.515625 30.90625 
L 53.515625 0 
L 44.484375 0 
L 44.484375 32.71875 
Q 44.484375 40.625 41.703125 44.40625 
Q 38.921875 48.1875 33.109375 48.1875 
Q 26.21875 48.1875 22.15625 43.53125 
Q 18.109375 38.875 18.109375 30.90625 
L 18.109375 0 
L 9.078125 0 
L 9.078125 54.6875 
L 18.109375 54.6875 
L 18.109375 46.1875 
Q 21.1875 51.21875 25.484375 53.609375 
Q 29.78125 56 35.6875 56 
Q 41.65625 56 45.828125 52.96875 
Q 50 49.953125 52 44.1875 
z
" id="DejaVuSans-109"/>
      <path id="DejaVuSans-32"/>
      <path d="M 37.109375 75.984375 
L 37.109375 68.5 
L 28.515625 68.5 
Q 23.6875 68.5 21.796875 66.546875 
Q 19.921875 64.59375 19.921875 59.515625 
L 19.921875 54.6875 
L 34.71875 54.6875 
L 34.71875 47.703125 
L 19.921875 47.703125 
L 19.921875 0 
L 10.890625 0 
L 10.890625 47.703125 
L 2.296875 47.703125 
L 2.296875 54.6875 
L 10.890625 54.6875 
L 10.890625 58.5 
Q 10.890625 67.625 15.140625 71.796875 
Q 19.390625 75.984375 28.609375 75.984375 
z
" id="DejaVuSans-102"/>
     </defs>
     <g transform="translate(53.395313 77.469593)rotate(-90)scale(0.1 -0.1)">
      <use xlink:href="#DejaVuSans-78"/>
      <use x="74.804688" xlink:href="#DejaVuSans-111"/>
      <use x="135.986328" xlink:href="#DejaVuSans-114"/>
      <use x="177.083984" xlink:href="#DejaVuSans-109"/>
      <use x="274.496094" xlink:href="#DejaVuSans-32"/>
      <use x="306.283203" xlink:href="#DejaVuSans-80"/>
      <use x="366.539062" xlink:href="#DejaVuSans-101"/>
      <use x="428.0625" xlink:href="#DejaVuSans-114"/>
      <use x="469.175781" xlink:href="#DejaVuSans-102"/>
     </g>
    </g>
   </g>
   <g id="patch_3">
    <path clip-path="url(#pab405ee87c)" d="M 79.2 93.739187 
L 84.435577 93.739187 
L 84.435577 91.762729 
L 79.2 91.762729 
z
" style="fill:#2ca02c;"/>
   </g>
   <g id="patch_4">
    <path clip-path="url(#pab405ee87c)" d="M 131.555769 93.739187 
L 136.791346 93.739187 
L 136.791346 91.762729 
L 131.555769 91.762729 
z
" style="fill:#2ca02c;"/>
   </g>
   <g id="patch_5">
    <path clip-path="url(#pab405ee87c)" d="M 183.911538 93.739187 
L 189.147115 93.739187 
L 189.147115 90.680496 
L 183.911538 90.680496 
z
" style="fill:#2ca02c;"/>
   </g>
   <g id="patch_6">
    <path clip-path="url(#pab405ee87c)" d="M 236.267308 93.739187 
L 241.502885 93.739187 
L 241.502885 91.762729 
L 236.267308 91.762729 
z
" style="fill:#2ca02c;"/>
   </g>
   <g id="patch_7">
    <path clip-path="url(#pab405ee87c)" d="M 288.623077 93.739187 
L 293.858654 93.739187 
L 293.858654 88.575305 
L 288.623077 88.575305 
z
" style="fill:#2ca02c;"/>
   </g>
   <g id="patch_8">
    <path clip-path="url(#pab405ee87c)" d="M 340.978846 93.739187 
L 346.214423 93.739187 
L 346.214423 91.762729 
L 340.978846 91.762729 
z
" style="fill:#2ca02c;"/>
   </g>
   <g id="patch_9">
    <path clip-path="url(#pab405ee87c)" d="M 393.334615 93.739187 
L 398.570192 93.739187 
L 398.570192 91.762729 
L 393.334615 91.762729 
z
" style="fill:#2ca02c;"/>
   </g>
   <g id="patch_10">
    <path clip-path="url(#pab405ee87c)" d="M 445.690385 93.739187 
L 450.925962 93.739187 
L 450.925962 91.762729 
L 445.690385 91.762729 
z
" style="fill:#2ca02c;"/>
   </g>
   <g id="patch_11">
    <path clip-path="url(#pab405ee87c)" d="M 498.046154 93.739187 
L 503.281731 93.739187 
L 503.281731 91.762729 
L 498.046154 91.762729 
z
" style="fill:#2ca02c;"/>
   </g>
   <g id="patch_12">
    <path clip-path="url(#pab405ee87c)" d="M 550.401923 93.739187 
L 555.6375 93.739187 
L 555.6375 91.762729 
L 550.401923 91.762729 
z
" style="fill:#2ca02c;"/>
   </g>
   <g id="patch_13">
    <path clip-path="url(#pab405ee87c)" d="M 602.757692 93.739187 
L 607.993269 93.739187 
L 607.993269 91.762729 
L 602.757692 91.762729 
z
" style="fill:#2ca02c;"/>
   </g>
   <g id="patch_14">
    <path clip-path="url(#pab405ee87c)" d="M 655.113462 93.739187 
L 660.349038 93.739187 
L 660.349038 91.762729 
L 655.113462 91.762729 
z
" style="fill:#2ca02c;"/>
   </g>
   <g id="patch_15">
    <path clip-path="url(#pab405ee87c)" d="M 707.469231 93.739187 
L 712.704808 93.739187 
L 712.704808 91.762729 
L 707.469231 91.762729 
z
" style="fill:#2ca02c;"/>
   </g>
   <g id="patch_16">
    <path clip-path="url(#pab405ee87c)" d="M 84.435577 93.739187 
L 89.671154 93.739187 
L 89.671154 91.710805 
L 84.435577 91.710805 
z
" style="fill:#ff7f0e;"/>
   </g>
   <g id="patch_17">
    <path clip-path="url(#pab405ee87c)" d="M 136.791346 93.739187 
L 142.026923 93.739187 
L 142.026923 90.278025 
L 136.791346 90.278025 
z
" style="fill:#ff7f0e;"/>
   </g>
   <g id="patch_18">
    <path clip-path="url(#pab405ee87c)" d="M 189.147115 93.739187 
L 194.382692 93.739187 
L 194.382692 93.739187 
L 189.147115 93.739187 
z
" style="fill:#ff7f0e;"/>
   </g>
   <g id="patch_19">
    <path clip-path="url(#pab405ee87c)" d="M 241.502885 93.739187 
L 246.738462 93.739187 
L 246.738462 91.748137 
L 241.502885 91.748137 
z
" style="fill:#ff7f0e;"/>
   </g>
   <g id="patch_20">
    <path clip-path="url(#pab405ee87c)" d="M 293.858654 93.739187 
L 299.094231 93.739187 
L 299.094231 93.739187 
L 293.858654 93.739187 
z
" style="fill:#ff7f0e;"/>
   </g>
   <g id="patch_21">
    <path clip-path="url(#pab405ee87c)" d="M 346.214423 93.739187 
L 351.45 93.739187 
L 351.45 93.739187 
L 346.214423 93.739187 
z
" style="fill:#ff7f0e;"/>
   </g>
   <g id="patch_22">
    <path clip-path="url(#pab405ee87c)" d="M 398.570192 93.739187 
L 403.805769 93.739187 
L 403.805769 88.40062 
L 398.570192 88.40062 
z
" style="fill:#ff7f0e;"/>
   </g>
   <g id="patch_23">
    <path clip-path="url(#pab405ee87c)" d="M 450.925962 93.739187 
L 456.161538 93.739187 
L 456.161538 93.739187 
L 450.925962 93.739187 
z
" style="fill:#ff7f0e;"/>
   </g>
   <g id="patch_24">
    <path clip-path="url(#pab405ee87c)" d="M 503.281731 93.739187 
L 508.517308 93.739187 
L 508.517308 87.787765 
L 503.281731 87.787765 
z
" style="fill:#ff7f0e;"/>
   </g>
   <g id="patch_25">
    <path clip-path="url(#pab405ee87c)" d="M 555.6375 93.739187 
L 560.873077 93.739187 
L 560.873077 85.582976 
L 555.6375 85.582976 
z
" style="fill:#ff7f0e;"/>
   </g>
   <g id="patch_26">
    <path clip-path="url(#pab405ee87c)" d="M 607.993269 93.739187 
L 613.228846 93.739187 
L 613.228846 87.394205 
L 607.993269 87.394205 
z
" style="fill:#ff7f0e;"/>
   </g>
   <g id="patch_27">
    <path clip-path="url(#pab405ee87c)" d="M 660.349038 93.739187 
L 665.584615 93.739187 
L 665.584615 87.748214 
L 660.349038 87.748214 
z
" style="fill:#ff7f0e;"/>
   </g>
   <g id="patch_28">
    <path clip-path="url(#pab405ee87c)" d="M 712.704808 93.739187 
L 717.940385 93.739187 
L 717.940385 76.378204 
L 712.704808 76.378204 
z
" style="fill:#ff7f0e;"/>
   </g>
   <g id="patch_29">
    <path clip-path="url(#pab405ee87c)" d="M 89.671154 93.739187 
L 94.906731 93.739187 
L 94.906731 91.710781 
L 89.671154 91.710781 
z
" style="fill:#1f77b4;"/>
   </g>
   <g id="patch_30">
    <path clip-path="url(#pab405ee87c)" d="M 142.026923 93.739187 
L 147.2625 93.739187 
L 147.2625 90.278025 
L 142.026923 90.278025 
z
" style="fill:#1f77b4;"/>
   </g>
   <g id="patch_31">
    <path clip-path="url(#pab405ee87c)" d="M 194.382692 93.739187 
L 199.618269 93.739187 
L 199.618269 91.762729 
L 194.382692 91.762729 
z
" style="fill:#1f77b4;"/>
   </g>
   <g id="patch_32">
    <path clip-path="url(#pab405ee87c)" d="M 246.738462 93.739187 
L 251.974038 93.739187 
L 251.974038 91.747434 
L 246.738462 91.747434 
z
" style="fill:#1f77b4;"/>
   </g>
   <g id="patch_33">
    <path clip-path="url(#pab405ee87c)" d="M 299.094231 93.739187 
L 304.329808 93.739187 
L 304.329808 91.762729 
L 299.094231 91.762729 
z
" style="fill:#1f77b4;"/>
   </g>
   <g id="patch_34">
    <path clip-path="url(#pab405ee87c)" d="M 351.45 93.739187 
L 356.685577 93.739187 
L 356.685577 81.076747 
L 351.45 81.076747 
z
" style="fill:#1f77b4;"/>
   </g>
   <g id="patch_35">
    <path clip-path="url(#pab405ee87c)" d="M 403.805769 93.739187 
L 409.041346 93.739187 
L 409.041346 80.839756 
L 403.805769 80.839756 
z
" style="fill:#1f77b4;"/>
   </g>
   <g id="patch_36">
    <path clip-path="url(#pab405ee87c)" d="M 456.161538 93.739187 
L 461.397115 93.739187 
L 461.397115 76.719522 
L 456.161538 76.719522 
z
" style="fill:#1f77b4;"/>
   </g>
   <g id="patch_37">
    <path clip-path="url(#pab405ee87c)" d="M 508.517308 93.739187 
L 513.752885 93.739187 
L 513.752885 87.787404 
L 508.517308 87.787404 
z
" style="fill:#1f77b4;"/>
   </g>
   <g id="patch_38">
    <path clip-path="url(#pab405ee87c)" d="M 560.873077 93.739187 
L 566.108654 93.739187 
L 566.108654 85.582976 
L 560.873077 85.582976 
z
" style="fill:#1f77b4;"/>
   </g>
   <g id="patch_39">
    <path clip-path="url(#pab405ee87c)" d="M 613.228846 93.739187 
L 618.464423 93.739187 
L 618.464423 81.214832 
L 613.228846 81.214832 
z
" style="fill:#1f77b4;"/>
   </g>
   <g id="patch_40">
    <path clip-path="url(#pab405ee87c)" d="M 665.584615 93.739187 
L 670.820192 93.739187 
L 670.820192 87.748563 
L 665.584615 87.748563 
z
" style="fill:#1f77b4;"/>
   </g>
   <g id="patch_41">
    <path clip-path="url(#pab405ee87c)" d="M 717.940385 93.739187 
L 723.175962 93.739187 
L 723.175962 60.724016 
L 717.940385 60.724016 
z
" style="fill:#1f77b4;"/>
   </g>
   <g id="patch_42">
    <path clip-path="url(#pab405ee87c)" d="M 94.906731 93.739187 
L 100.142308 93.739187 
L 100.142308 91.710793 
L 94.906731 91.710793 
z
" style="fill:url(#ha1e89c7500);"/>
   </g>
   <g id="patch_43">
    <path clip-path="url(#pab405ee87c)" d="M 147.2625 93.739187 
L 152.498077 93.739187 
L 152.498077 90.278025 
L 147.2625 90.278025 
z
" style="fill:url(#ha1e89c7500);"/>
   </g>
   <g id="patch_44">
    <path clip-path="url(#pab405ee87c)" d="M 199.618269 93.739187 
L 204.853846 93.739187 
L 204.853846 89.677501 
L 199.618269 89.677501 
z
" style="fill:url(#ha1e89c7500);"/>
   </g>
   <g id="patch_45">
    <path clip-path="url(#pab405ee87c)" d="M 251.974038 93.739187 
L 257.209615 93.739187 
L 257.209615 91.649875 
L 251.974038 91.649875 
z
" style="fill:url(#ha1e89c7500);"/>
   </g>
   <g id="patch_46">
    <path clip-path="url(#pab405ee87c)" d="M 304.329808 93.739187 
L 309.565385 93.739187 
L 309.565385 60.078709 
L 304.329808 60.078709 
z
" style="fill:url(#ha1e89c7500);"/>
   </g>
   <g id="patch_47">
    <path clip-path="url(#pab405ee87c)" d="M 356.685577 93.739187 
L 361.921154 93.739187 
L 361.921154 81.053536 
L 356.685577 81.053536 
z
" style="fill:url(#ha1e89c7500);"/>
   </g>
   <g id="patch_48">
    <path clip-path="url(#pab405ee87c)" d="M 409.041346 93.739187 
L 414.276923 93.739187 
L 414.276923 75.278241 
L 409.041346 75.278241 
z
" style="fill:url(#ha1e89c7500);"/>
   </g>
   <g id="patch_49">
    <path clip-path="url(#pab405ee87c)" d="M 461.397115 93.739187 
L 466.632692 93.739187 
L 466.632692 76.780634 
L 461.397115 76.780634 
z
" style="fill:url(#ha1e89c7500);"/>
   </g>
   <g id="patch_50">
    <path clip-path="url(#pab405ee87c)" d="M 513.752885 93.739187 
L 518.988462 93.739187 
L 518.988462 81.967661 
L 513.752885 81.967661 
z
" style="fill:url(#ha1e89c7500);"/>
   </g>
   <g id="patch_51">
    <path clip-path="url(#pab405ee87c)" d="M 566.108654 93.739187 
L 571.344231 93.739187 
L 571.344231 77.480188 
L 566.108654 77.480188 
z
" style="fill:url(#ha1e89c7500);"/>
   </g>
   <g id="patch_52">
    <path clip-path="url(#pab405ee87c)" d="M 618.464423 93.739187 
L 623.7 93.739187 
L 623.7 71.183271 
L 618.464423 71.183271 
z
" style="fill:url(#ha1e89c7500);"/>
   </g>
   <g id="patch_53">
    <path clip-path="url(#pab405ee87c)" d="M 670.820192 93.739187 
L 676.055769 93.739187 
L 676.055769 78.509212 
L 670.820192 78.509212 
z
" style="fill:url(#ha1e89c7500);"/>
   </g>
   <g id="patch_54">
    <path clip-path="url(#pab405ee87c)" d="M 723.175962 93.739187 
L 728.411538 93.739187 
L 728.411538 43.930415 
L 723.175962 43.930415 
z
" style="fill:url(#ha1e89c7500);"/>
   </g>
   <g id="patch_55">
    <path clip-path="url(#pab405ee87c)" d="M 100.142308 93.739187 
L 105.377885 93.739187 
L 105.377885 91.710793 
L 100.142308 91.710793 
z
" style="fill:url(#h2b763ecab0);"/>
   </g>
   <g id="patch_56">
    <path clip-path="url(#pab405ee87c)" d="M 152.498077 93.739187 
L 157.733654 93.739187 
L 157.733654 90.283187 
L 152.498077 90.283187 
z
" style="fill:url(#h2b763ecab0);"/>
   </g>
   <g id="patch_57">
    <path clip-path="url(#pab405ee87c)" d="M 204.853846 93.739187 
L 210.089423 93.739187 
L 210.089423 89.684343 
L 204.853846 89.684343 
z
" style="fill:url(#h2b763ecab0);"/>
   </g>
   <g id="patch_58">
    <path clip-path="url(#pab405ee87c)" d="M 257.209615 93.739187 
L 262.445192 93.739187 
L 262.445192 91.747329 
L 257.209615 91.747329 
z
" style="fill:url(#h2b763ecab0);"/>
   </g>
   <g id="patch_59">
    <path clip-path="url(#pab405ee87c)" d="M 309.565385 93.739187 
L 314.800962 93.739187 
L 314.800962 60.069253 
L 309.565385 60.069253 
z
" style="fill:url(#h2b763ecab0);"/>
   </g>
   <g id="patch_60">
    <path clip-path="url(#pab405ee87c)" d="M 361.921154 93.739187 
L 367.156731 93.739187 
L 367.156731 80.258381 
L 361.921154 80.258381 
z
" style="fill:url(#h2b763ecab0);"/>
   </g>
   <g id="patch_61">
    <path clip-path="url(#pab405ee87c)" d="M 414.276923 93.739187 
L 419.5125 93.739187 
L 419.5125 79.170916 
L 414.276923 79.170916 
z
" style="fill:url(#h2b763ecab0);"/>
   </g>
   <g id="patch_62">
    <path clip-path="url(#pab405ee87c)" d="M 466.632692 93.739187 
L 471.868269 93.739187 
L 471.868269 62.871743 
L 466.632692 62.871743 
z
" style="fill:url(#h2b763ecab0);"/>
   </g>
   <g id="patch_63">
    <path clip-path="url(#pab405ee87c)" d="M 518.988462 93.739187 
L 524.224038 93.739187 
L 524.224038 71.271174 
L 518.988462 71.271174 
z
" style="fill:url(#h2b763ecab0);"/>
   </g>
   <g id="patch_64">
    <path clip-path="url(#pab405ee87c)" d="M 571.344231 93.739187 
L 576.579808 93.739187 
L 576.579808 70.236545 
L 571.344231 70.236545 
z
" style="fill:url(#h2b763ecab0);"/>
   </g>
   <g id="patch_65">
    <path clip-path="url(#pab405ee87c)" d="M 623.7 93.739187 
L 628.935577 93.739187 
L 628.935577 71.183271 
L 623.7 71.183271 
z
" style="fill:url(#h2b763ecab0);"/>
   </g>
   <g id="patch_66">
    <path clip-path="url(#pab405ee87c)" d="M 676.055769 93.739187 
L 681.291346 93.739187 
L 681.291346 78.50889 
L 676.055769 78.50889 
z
" style="fill:url(#h2b763ecab0);"/>
   </g>
   <g id="patch_67">
    <path clip-path="url(#pab405ee87c)" d="M 728.411538 93.739187 
L 733.647115 93.739187 
L 733.647115 43.905339 
L 728.411538 43.905339 
z
" style="fill:url(#h2b763ecab0);"/>
   </g>
   <g id="patch_68">
    <path clip-path="url(#pab405ee87c)" d="M 105.377885 93.739187 
L 110.613462 93.739187 
L 110.613462 91.126772 
L 105.377885 91.126772 
z
" style="fill:url(#hf63e5de4fb);"/>
   </g>
   <g id="patch_69">
    <path clip-path="url(#pab405ee87c)" d="M 157.733654 93.739187 
L 162.969231 93.739187 
L 162.969231 90.277986 
L 157.733654 90.277986 
z
" style="fill:url(#hf63e5de4fb);"/>
   </g>
   <g id="patch_70">
    <path clip-path="url(#pab405ee87c)" d="M 210.089423 93.739187 
L 215.325 93.739187 
L 215.325 89.659161 
L 210.089423 89.659161 
z
" style="fill:url(#hf63e5de4fb);"/>
   </g>
   <g id="patch_71">
    <path clip-path="url(#pab405ee87c)" d="M 262.445192 93.739187 
L 267.680769 93.739187 
L 267.680769 91.653901 
L 262.445192 91.653901 
z
" style="fill:url(#hf63e5de4fb);"/>
   </g>
   <g id="patch_72">
    <path clip-path="url(#pab405ee87c)" d="M 314.800962 93.739187 
L 320.036538 93.739187 
L 320.036538 58.800057 
L 314.800962 58.800057 
z
" style="fill:url(#hf63e5de4fb);"/>
   </g>
   <g id="patch_73">
    <path clip-path="url(#pab405ee87c)" d="M 367.156731 93.739187 
L 372.392308 93.739187 
L 372.392308 75.151169 
L 367.156731 75.151169 
z
" style="fill:url(#hf63e5de4fb);"/>
   </g>
   <g id="patch_74">
    <path clip-path="url(#pab405ee87c)" d="M 419.5125 93.739187 
L 424.748077 93.739187 
L 424.748077 72.901385 
L 419.5125 72.901385 
z
" style="fill:url(#hf63e5de4fb);"/>
   </g>
   <g id="patch_75">
    <path clip-path="url(#pab405ee87c)" d="M 471.868269 93.739187 
L 477.103846 93.739187 
L 477.103846 61.936454 
L 471.868269 61.936454 
z
" style="fill:url(#hf63e5de4fb);"/>
   </g>
   <g id="patch_76">
    <path clip-path="url(#pab405ee87c)" d="M 524.224038 93.739187 
L 529.459615 93.739187 
L 529.459615 63.609429 
L 524.224038 63.609429 
z
" style="fill:url(#hf63e5de4fb);"/>
   </g>
   <g id="patch_77">
    <path clip-path="url(#pab405ee87c)" d="M 576.579808 93.739187 
L 581.815385 93.739187 
L 581.815385 70.16421 
L 576.579808 70.16421 
z
" style="fill:url(#hf63e5de4fb);"/>
   </g>
   <g id="patch_78">
    <path clip-path="url(#pab405ee87c)" d="M 628.935577 93.739187 
L 634.171154 93.739187 
L 634.171154 71.183315 
L 628.935577 71.183315 
z
" style="fill:url(#hf63e5de4fb);"/>
   </g>
   <g id="patch_79">
    <path clip-path="url(#pab405ee87c)" d="M 681.291346 93.739187 
L 686.526923 93.739187 
L 686.526923 76.692165 
L 681.291346 76.692165 
z
" style="fill:url(#hf63e5de4fb);"/>
   </g>
   <g id="patch_80">
    <path clip-path="url(#pab405ee87c)" d="M 733.647115 93.739187 
L 738.882692 93.739187 
L 738.882692 14.713771 
L 733.647115 14.713771 
z
" style="fill:url(#hf63e5de4fb);"/>
   </g>
   <g id="patch_81">
    <path clip-path="url(#pab405ee87c)" d="M 110.613462 93.739187 
L 115.849038 93.739187 
L 115.849038 91.710781 
L 110.613462 91.710781 
z
" style="fill:url(#h7891ff0492);"/>
   </g>
   <g id="patch_82">
    <path clip-path="url(#pab405ee87c)" d="M 162.969231 93.739187 
L 168.204808 93.739187 
L 168.204808 90.291115 
L 162.969231 90.291115 
z
" style="fill:url(#h7891ff0492);"/>
   </g>
   <g id="patch_83">
    <path clip-path="url(#pab405ee87c)" d="M 215.325 93.739187 
L 220.560577 93.739187 
L 220.560577 89.686166 
L 215.325 89.686166 
z
" style="fill:url(#h7891ff0492);"/>
   </g>
   <g id="patch_84">
    <path clip-path="url(#pab405ee87c)" d="M 267.680769 93.739187 
L 272.916346 93.739187 
L 272.916346 91.747329 
L 267.680769 91.747329 
z
" style="fill:url(#h7891ff0492);"/>
   </g>
   <g id="patch_85">
    <path clip-path="url(#pab405ee87c)" d="M 320.036538 93.739187 
L 325.272115 93.739187 
L 325.272115 58.75809 
L 320.036538 58.75809 
z
" style="fill:url(#h7891ff0492);"/>
   </g>
   <g id="patch_86">
    <path clip-path="url(#pab405ee87c)" d="M 372.392308 93.739187 
L 377.627885 93.739187 
L 377.627885 80.48534 
L 372.392308 80.48534 
z
" style="fill:url(#h7891ff0492);"/>
   </g>
   <g id="patch_87">
    <path clip-path="url(#pab405ee87c)" d="M 424.748077 93.739187 
L 429.983654 93.739187 
L 429.983654 72.725802 
L 424.748077 72.725802 
z
" style="fill:url(#h7891ff0492);"/>
   </g>
   <g id="patch_88">
    <path clip-path="url(#pab405ee87c)" d="M 477.103846 93.739187 
L 482.339423 93.739187 
L 482.339423 37.860093 
L 477.103846 37.860093 
z
" style="fill:url(#h7891ff0492);"/>
   </g>
   <g id="patch_89">
    <path clip-path="url(#pab405ee87c)" d="M 529.459615 93.739187 
L 534.695192 93.739187 
L 534.695192 63.701626 
L 529.459615 63.701626 
z
" style="fill:url(#h7891ff0492);"/>
   </g>
   <g id="patch_90">
    <path clip-path="url(#pab405ee87c)" d="M 581.815385 93.739187 
L 587.050962 93.739187 
L 587.050962 70.159027 
L 581.815385 70.159027 
z
" style="fill:url(#h7891ff0492);"/>
   </g>
   <g id="patch_91">
    <path clip-path="url(#pab405ee87c)" d="M 634.171154 93.739187 
L 639.406731 93.739187 
L 639.406731 71.183271 
L 634.171154 71.183271 
z
" style="fill:url(#h7891ff0492);"/>
   </g>
   <g id="patch_92">
    <path clip-path="url(#pab405ee87c)" d="M 686.526923 93.739187 
L 691.7625 93.739187 
L 691.7625 76.692972 
L 686.526923 76.692972 
z
" style="fill:url(#h7891ff0492);"/>
   </g>
   <g id="patch_93">
    <path clip-path="url(#pab405ee87c)" d="M 738.882692 93.739187 
L 744.118269 93.739187 
L 744.118269 14.714438 
L 738.882692 14.714438 
z
" style="fill:url(#h7891ff0492);"/>
   </g>
   <g id="patch_94">
    <path d="M 79.2 93.739187 
L 79.2 10.7625 
" style="fill:none;stroke:#000000;stroke-linecap:square;stroke-linejoin:miter;stroke-width:0.8;"/>
   </g>
   <g id="patch_95">
    <path d="M 759.825 93.739187 
L 759.825 10.7625 
" style="fill:none;stroke:#000000;stroke-linecap:square;stroke-linejoin:miter;stroke-width:0.8;"/>
   </g>
   <g id="patch_96">
    <path d="M 79.2 93.739187 
L 759.825 93.739187 
" style="fill:none;stroke:#000000;stroke-linecap:square;stroke-linejoin:miter;stroke-width:0.8;"/>
   </g>
   <g id="patch_97">
    <path d="M 79.2 10.7625 
L 759.825 10.7625 
" style="fill:none;stroke:#000000;stroke-linecap:square;stroke-linejoin:miter;stroke-width:0.8;"/>
   </g>
   <g id="legend_1">
    <g id="patch_98">
     <path d="M 85.031 41.880256 
L 508.578961 41.880256 
Q 510.244961 41.880256 510.244961 40.214256 
L 510.244961 16.5935 
Q 510.244961 14.9275 508.578961 14.9275 
L 85.031 14.9275 
Q 83.365 14.9275 83.365 16.5935 
L 83.365 40.214256 
Q 83.365 41.880256 85.031 41.880256 
z
" style="fill:#ffffff;opacity:0.8;stroke:#cccccc;stroke-linejoin:miter;"/>
    </g>
    <g id="patch_99">
     <path d="M 86.697 24.588998 
L 103.357 24.588998 
L 103.357 18.757998 
L 86.697 18.757998 
z
" style="fill:#2ca02c;"/>
    </g>
    <g id="text_5">
     <!-- D-x0-v4-f512 -->
     <defs>
      <path d="M 19.671875 64.796875 
L 19.671875 8.109375 
L 31.59375 8.109375 
Q 46.6875 8.109375 53.6875 14.9375 
Q 60.6875 21.78125 60.6875 36.53125 
Q 60.6875 51.171875 53.6875 57.984375 
Q 46.6875 64.796875 31.59375 64.796875 
z
M 9.8125 72.90625 
L 30.078125 72.90625 
Q 51.265625 72.90625 61.171875 64.09375 
Q 71.09375 55.28125 71.09375 36.53125 
Q 71.09375 17.671875 61.125 8.828125 
Q 51.171875 0 30.078125 0 
L 9.8125 0 
z
" id="DejaVuSans-68"/>
      <path d="M 4.890625 31.390625 
L 31.203125 31.390625 
L 31.203125 23.390625 
L 4.890625 23.390625 
z
" id="DejaVuSans-45"/>
      <path d="M 54.890625 54.6875 
L 35.109375 28.078125 
L 55.90625 0 
L 45.3125 0 
L 29.390625 21.484375 
L 13.484375 0 
L 2.875 0 
L 24.125 28.609375 
L 4.6875 54.6875 
L 15.28125 54.6875 
L 29.78125 35.203125 
L 44.28125 54.6875 
z
" id="DejaVuSans-120"/>
      <path d="M 2.984375 54.6875 
L 12.5 54.6875 
L 29.59375 8.796875 
L 46.6875 54.6875 
L 56.203125 54.6875 
L 35.6875 0 
L 23.484375 0 
z
" id="DejaVuSans-118"/>
      <path d="M 10.796875 72.90625 
L 49.515625 72.90625 
L 49.515625 64.59375 
L 19.828125 64.59375 
L 19.828125 46.734375 
Q 21.96875 47.46875 24.109375 47.828125 
Q 26.265625 48.1875 28.421875 48.1875 
Q 40.625 48.1875 47.75 41.5 
Q 54.890625 34.8125 54.890625 23.390625 
Q 54.890625 11.625 47.5625 5.09375 
Q 40.234375 -1.421875 26.90625 -1.421875 
Q 22.3125 -1.421875 17.546875 -0.640625 
Q 12.796875 0.140625 7.71875 1.703125 
L 7.71875 11.625 
Q 12.109375 9.234375 16.796875 8.0625 
Q 21.484375 6.890625 26.703125 6.890625 
Q 35.15625 6.890625 40.078125 11.328125 
Q 45.015625 15.765625 45.015625 23.390625 
Q 45.015625 31 40.078125 35.4375 
Q 35.15625 39.890625 26.703125 39.890625 
Q 22.75 39.890625 18.8125 39.015625 
Q 14.890625 38.140625 10.796875 36.28125 
z
" id="DejaVuSans-53"/>
      <path d="M 12.40625 8.296875 
L 28.515625 8.296875 
L 28.515625 63.921875 
L 10.984375 60.40625 
L 10.984375 69.390625 
L 28.421875 72.90625 
L 38.28125 72.90625 
L 38.28125 8.296875 
L 54.390625 8.296875 
L 54.390625 0 
L 12.40625 0 
z
" id="DejaVuSans-49"/>
     </defs>
     <g transform="translate(110.021 24.588998)scale(0.0833 -0.0833)">
      <use xlink:href="#DejaVuSans-68"/>
      <use x="77.001953" xlink:href="#DejaVuSans-45"/>
      <use x="113.085938" xlink:href="#DejaVuSans-120"/>
      <use x="172.265625" xlink:href="#DejaVuSans-48"/>
      <use x="235.888672" xlink:href="#DejaVuSans-45"/>
      <use x="271.941406" xlink:href="#DejaVuSans-118"/>
      <use x="331.121094" xlink:href="#DejaVuSans-52"/>
      <use x="394.744141" xlink:href="#DejaVuSans-45"/>
      <use x="430.828125" xlink:href="#DejaVuSans-102"/>
      <use x="466.033203" xlink:href="#DejaVuSans-53"/>
      <use x="529.65625" xlink:href="#DejaVuSans-49"/>
      <use x="593.279297" xlink:href="#DejaVuSans-50"/>
     </g>
    </g>
    <g id="patch_100">
     <path d="M 86.697 36.815877 
L 103.357 36.815877 
L 103.357 30.984877 
L 86.697 30.984877 
z
" style="fill:#ff7f0e;"/>
    </g>
    <g id="text_6">
     <!-- S-x1 -->
     <defs>
      <path d="M 53.515625 70.515625 
L 53.515625 60.890625 
Q 47.90625 63.578125 42.921875 64.890625 
Q 37.9375 66.21875 33.296875 66.21875 
Q 25.25 66.21875 20.875 63.09375 
Q 16.5 59.96875 16.5 54.203125 
Q 16.5 49.359375 19.40625 46.890625 
Q 22.3125 44.4375 30.421875 42.921875 
L 36.375 41.703125 
Q 47.40625 39.59375 52.65625 34.296875 
Q 57.90625 29 57.90625 20.125 
Q 57.90625 9.515625 50.796875 4.046875 
Q 43.703125 -1.421875 29.984375 -1.421875 
Q 24.8125 -1.421875 18.96875 -0.25 
Q 13.140625 0.921875 6.890625 3.21875 
L 6.890625 13.375 
Q 12.890625 10.015625 18.65625 8.296875 
Q 24.421875 6.59375 29.984375 6.59375 
Q 38.421875 6.59375 43.015625 9.90625 
Q 47.609375 13.234375 47.609375 19.390625 
Q 47.609375 24.75 44.3125 27.78125 
Q 41.015625 30.8125 33.5 32.328125 
L 27.484375 33.5 
Q 16.453125 35.6875 11.515625 40.375 
Q 6.59375 45.0625 6.59375 53.421875 
Q 6.59375 63.09375 13.40625 68.65625 
Q 20.21875 74.21875 32.171875 74.21875 
Q 37.3125 74.21875 42.625 73.28125 
Q 47.953125 72.359375 53.515625 70.515625 
z
" id="DejaVuSans-83"/>
     </defs>
     <g transform="translate(110.021 36.815877)scale(0.0833 -0.0833)">
      <use xlink:href="#DejaVuSans-83"/>
      <use x="63.476562" xlink:href="#DejaVuSans-45"/>
      <use x="99.560547" xlink:href="#DejaVuSans-120"/>
      <use x="158.740234" xlink:href="#DejaVuSans-49"/>
     </g>
    </g>
    <g id="patch_101">
     <path d="M 181.401291 24.588998 
L 198.061291 24.588998 
L 198.061291 18.757998 
L 181.401291 18.757998 
z
" style="fill:#1f77b4;"/>
    </g>
    <g id="text_7">
     <!-- H-x1-v4-f128 -->
     <defs>
      <path d="M 9.8125 72.90625 
L 19.671875 72.90625 
L 19.671875 43.015625 
L 55.515625 43.015625 
L 55.515625 72.90625 
L 65.375 72.90625 
L 65.375 0 
L 55.515625 0 
L 55.515625 34.71875 
L 19.671875 34.71875 
L 19.671875 0 
L 9.8125 0 
z
" id="DejaVuSans-72"/>
      <path d="M 31.78125 34.625 
Q 24.75 34.625 20.71875 30.859375 
Q 16.703125 27.09375 16.703125 20.515625 
Q 16.703125 13.921875 20.71875 10.15625 
Q 24.75 6.390625 31.78125 6.390625 
Q 38.8125 6.390625 42.859375 10.171875 
Q 46.921875 13.96875 46.921875 20.515625 
Q 46.921875 27.09375 42.890625 30.859375 
Q 38.875 34.625 31.78125 34.625 
z
M 21.921875 38.8125 
Q 15.578125 40.375 12.03125 44.71875 
Q 8.5 49.078125 8.5 55.328125 
Q 8.5 64.0625 14.71875 69.140625 
Q 20.953125 74.21875 31.78125 74.21875 
Q 42.671875 74.21875 48.875 69.140625 
Q 55.078125 64.0625 55.078125 55.328125 
Q 55.078125 49.078125 51.53125 44.71875 
Q 48 40.375 41.703125 38.8125 
Q 48.828125 37.15625 52.796875 32.3125 
Q 56.78125 27.484375 56.78125 20.515625 
Q 56.78125 9.90625 50.3125 4.234375 
Q 43.84375 -1.421875 31.78125 -1.421875 
Q 19.734375 -1.421875 13.25 4.234375 
Q 6.78125 9.90625 6.78125 20.515625 
Q 6.78125 27.484375 10.78125 32.3125 
Q 14.796875 37.15625 21.921875 38.8125 
z
M 18.3125 54.390625 
Q 18.3125 48.734375 21.84375 45.5625 
Q 25.390625 42.390625 31.78125 42.390625 
Q 38.140625 42.390625 41.71875 45.5625 
Q 45.3125 48.734375 45.3125 54.390625 
Q 45.3125 60.0625 41.71875 63.234375 
Q 38.140625 66.40625 31.78125 66.40625 
Q 25.390625 66.40625 21.84375 63.234375 
Q 18.3125 60.0625 18.3125 54.390625 
z
" id="DejaVuSans-56"/>
     </defs>
     <g transform="translate(204.725291 24.588998)scale(0.0833 -0.0833)">
      <use xlink:href="#DejaVuSans-72"/>
      <use x="75.195312" xlink:href="#DejaVuSans-45"/>
      <use x="111.279297" xlink:href="#DejaVuSans-120"/>
      <use x="170.458984" xlink:href="#DejaVuSans-49"/>
      <use x="234.082031" xlink:href="#DejaVuSans-45"/>
      <use x="270.134766" xlink:href="#DejaVuSans-118"/>
      <use x="329.314453" xlink:href="#DejaVuSans-52"/>
      <use x="392.9375" xlink:href="#DejaVuSans-45"/>
      <use x="429.021484" xlink:href="#DejaVuSans-102"/>
      <use x="464.226562" xlink:href="#DejaVuSans-49"/>
      <use x="527.849609" xlink:href="#DejaVuSans-50"/>
      <use x="591.472656" xlink:href="#DejaVuSans-56"/>
     </g>
    </g>
    <g id="patch_102">
     <path d="M 181.401291 36.815877 
L 198.061291 36.815877 
L 198.061291 30.984877 
L 181.401291 30.984877 
z
" style="fill:url(#ha1e89c7500);"/>
    </g>
    <g id="text_8">
     <!-- S-x2 -->
     <g transform="translate(204.725291 36.815877)scale(0.0833 -0.0833)">
      <use xlink:href="#DejaVuSans-83"/>
      <use x="63.476562" xlink:href="#DejaVuSans-45"/>
      <use x="99.560547" xlink:href="#DejaVuSans-120"/>
      <use x="158.740234" xlink:href="#DejaVuSans-50"/>
     </g>
    </g>
    <g id="patch_103">
     <path d="M 275.955902 24.588998 
L 292.615902 24.588998 
L 292.615902 18.757998 
L 275.955902 18.757998 
z
" style="fill:url(#h2b763ecab0);"/>
    </g>
    <g id="text_9">
     <!-- H-x2-v2-f512 -->
     <g transform="translate(299.279902 24.588998)scale(0.0833 -0.0833)">
      <use xlink:href="#DejaVuSans-72"/>
      <use x="75.195312" xlink:href="#DejaVuSans-45"/>
      <use x="111.279297" xlink:href="#DejaVuSans-120"/>
      <use x="170.458984" xlink:href="#DejaVuSans-50"/>
      <use x="234.082031" xlink:href="#DejaVuSans-45"/>
      <use x="270.134766" xlink:href="#DejaVuSans-118"/>
      <use x="329.314453" xlink:href="#DejaVuSans-50"/>
      <use x="392.9375" xlink:href="#DejaVuSans-45"/>
      <use x="429.021484" xlink:href="#DejaVuSans-102"/>
      <use x="464.226562" xlink:href="#DejaVuSans-53"/>
      <use x="527.849609" xlink:href="#DejaVuSans-49"/>
      <use x="591.472656" xlink:href="#DejaVuSans-50"/>
     </g>
    </g>
    <g id="patch_104">
     <path d="M 370.510513 24.588998 
L 387.170513 24.588998 
L 387.170513 18.757998 
L 370.510513 18.757998 
z
" style="fill:url(#hf63e5de4fb);"/>
    </g>
    <g id="text_10">
     <!-- S-x3 -->
     <defs>
      <path d="M 40.578125 39.3125 
Q 47.65625 37.796875 51.625 33 
Q 55.609375 28.21875 55.609375 21.1875 
Q 55.609375 10.40625 48.1875 4.484375 
Q 40.765625 -1.421875 27.09375 -1.421875 
Q 22.515625 -1.421875 17.65625 -0.515625 
Q 12.796875 0.390625 7.625 2.203125 
L 7.625 11.71875 
Q 11.71875 9.328125 16.59375 8.109375 
Q 21.484375 6.890625 26.8125 6.890625 
Q 36.078125 6.890625 40.9375 10.546875 
Q 45.796875 14.203125 45.796875 21.1875 
Q 45.796875 27.640625 41.28125 31.265625 
Q 36.765625 34.90625 28.71875 34.90625 
L 20.21875 34.90625 
L 20.21875 43.015625 
L 29.109375 43.015625 
Q 36.375 43.015625 40.234375 45.921875 
Q 44.09375 48.828125 44.09375 54.296875 
Q 44.09375 59.90625 40.109375 62.90625 
Q 36.140625 65.921875 28.71875 65.921875 
Q 24.65625 65.921875 20.015625 65.03125 
Q 15.375 64.15625 9.8125 62.3125 
L 9.8125 71.09375 
Q 15.4375 72.65625 20.34375 73.4375 
Q 25.25 74.21875 29.59375 74.21875 
Q 40.828125 74.21875 47.359375 69.109375 
Q 53.90625 64.015625 53.90625 55.328125 
Q 53.90625 49.265625 50.4375 45.09375 
Q 46.96875 40.921875 40.578125 39.3125 
z
" id="DejaVuSans-51"/>
     </defs>
     <g transform="translate(393.834513 24.588998)scale(0.0833 -0.0833)">
      <use xlink:href="#DejaVuSans-83"/>
      <use x="63.476562" xlink:href="#DejaVuSans-45"/>
      <use x="99.560547" xlink:href="#DejaVuSans-120"/>
      <use x="158.740234" xlink:href="#DejaVuSans-51"/>
     </g>
    </g>
    <g id="patch_105">
     <path d="M 429.01835 24.588998 
L 445.67835 24.588998 
L 445.67835 18.757998 
L 429.01835 18.757998 
z
" style="fill:url(#h7891ff0492);"/>
    </g>
    <g id="text_11">
     <!-- H-x3-v2-f128 -->
     <g transform="translate(452.34235 24.588998)scale(0.0833 -0.0833)">
      <use xlink:href="#DejaVuSans-72"/>
      <use x="75.195312" xlink:href="#DejaVuSans-45"/>
      <use x="111.279297" xlink:href="#DejaVuSans-120"/>
      <use x="170.458984" xlink:href="#DejaVuSans-51"/>
      <use x="234.082031" xlink:href="#DejaVuSans-45"/>
      <use x="270.134766" xlink:href="#DejaVuSans-118"/>
      <use x="329.314453" xlink:href="#DejaVuSans-50"/>
      <use x="392.9375" xlink:href="#DejaVuSans-45"/>
      <use x="429.021484" xlink:href="#DejaVuSans-102"/>
      <use x="464.226562" xlink:href="#DejaVuSans-49"/>
      <use x="527.849609" xlink:href="#DejaVuSans-50"/>
      <use x="591.472656" xlink:href="#DejaVuSans-56"/>
     </g>
    </g>
   </g>
  </g>
  <g id="axes_2">
   <g id="patch_106">
    <path d="M 79.2 189 
L 759.825 189 
L 759.825 106.023313 
L 79.2 106.023313 
z
" style="fill:#ffffff;"/>
   </g>
   <g id="matplotlib.axis_3">
    <g id="xtick_14">
     <g id="line2d_20">
      <g>
       <use style="stroke:#000000;stroke-width:0.8;" x="97.524519" xlink:href="#m5c3765c710" y="189"/>
      </g>
     </g>
     <g id="text_12">
      <!-- DotProduct -->
      <defs>
       <path d="M 18.3125 70.21875 
L 18.3125 54.6875 
L 36.8125 54.6875 
L 36.8125 47.703125 
L 18.3125 47.703125 
L 18.3125 18.015625 
Q 18.3125 11.328125 20.140625 9.421875 
Q 21.96875 7.515625 27.59375 7.515625 
L 36.8125 7.515625 
L 36.8125 0 
L 27.59375 0 
Q 17.1875 0 13.234375 3.875 
Q 9.28125 7.765625 9.28125 18.015625 
L 9.28125 47.703125 
L 2.6875 47.703125 
L 2.6875 54.6875 
L 9.28125 54.6875 
L 9.28125 70.21875 
z
" id="DejaVuSans-116"/>
       <path d="M 8.5 21.578125 
L 8.5 54.6875 
L 17.484375 54.6875 
L 17.484375 21.921875 
Q 17.484375 14.15625 20.5 10.265625 
Q 23.53125 6.390625 29.59375 6.390625 
Q 36.859375 6.390625 41.078125 11.03125 
Q 45.3125 15.671875 45.3125 23.6875 
L 45.3125 54.6875 
L 54.296875 54.6875 
L 54.296875 0 
L 45.3125 0 
L 45.3125 8.40625 
Q 42.046875 3.421875 37.71875 1 
Q 33.40625 -1.421875 27.6875 -1.421875 
Q 18.265625 -1.421875 13.375 4.4375 
Q 8.5 10.296875 8.5 21.578125 
z
M 31.109375 56 
z
" id="DejaVuSans-117"/>
       <path d="M 48.78125 52.59375 
L 48.78125 44.1875 
Q 44.96875 46.296875 41.140625 47.34375 
Q 37.3125 48.390625 33.40625 48.390625 
Q 24.65625 48.390625 19.8125 42.84375 
Q 14.984375 37.3125 14.984375 27.296875 
Q 14.984375 17.28125 19.8125 11.734375 
Q 24.65625 6.203125 33.40625 6.203125 
Q 37.3125 6.203125 41.140625 7.25 
Q 44.96875 8.296875 48.78125 10.40625 
L 48.78125 2.09375 
Q 45.015625 0.34375 40.984375 -0.53125 
Q 36.96875 -1.421875 32.421875 -1.421875 
Q 20.0625 -1.421875 12.78125 6.34375 
Q 5.515625 14.109375 5.515625 27.296875 
Q 5.515625 40.671875 12.859375 48.328125 
Q 20.21875 56 33.015625 56 
Q 37.15625 56 41.109375 55.140625 
Q 45.0625 54.296875 48.78125 52.59375 
z
" id="DejaVuSans-99"/>
      </defs>
      <g transform="translate(77.811263 237.880121)rotate(-40)scale(0.1 -0.1)">
       <use xlink:href="#DejaVuSans-68"/>
       <use x="77.001953" xlink:href="#DejaVuSans-111"/>
       <use x="138.183594" xlink:href="#DejaVuSans-116"/>
       <use x="177.392578" xlink:href="#DejaVuSans-80"/>
       <use x="237.679688" xlink:href="#DejaVuSans-114"/>
       <use x="278.761719" xlink:href="#DejaVuSans-111"/>
       <use x="339.943359" xlink:href="#DejaVuSans-100"/>
       <use x="403.419922" xlink:href="#DejaVuSans-117"/>
       <use x="466.798828" xlink:href="#DejaVuSans-99"/>
       <use x="521.779297" xlink:href="#DejaVuSans-116"/>
      </g>
     </g>
    </g>
    <g id="xtick_15">
     <g id="line2d_21">
      <g>
       <use style="stroke:#000000;stroke-width:0.8;" x="149.880288" xlink:href="#m5c3765c710" y="189"/>
      </g>
     </g>
     <g id="text_13">
      <!-- OuterProduct -->
      <defs>
       <path d="M 39.40625 66.21875 
Q 28.65625 66.21875 22.328125 58.203125 
Q 16.015625 50.203125 16.015625 36.375 
Q 16.015625 22.609375 22.328125 14.59375 
Q 28.65625 6.59375 39.40625 6.59375 
Q 50.140625 6.59375 56.421875 14.59375 
Q 62.703125 22.609375 62.703125 36.375 
Q 62.703125 50.203125 56.421875 58.203125 
Q 50.140625 66.21875 39.40625 66.21875 
z
M 39.40625 74.21875 
Q 54.734375 74.21875 63.90625 63.9375 
Q 73.09375 53.65625 73.09375 36.375 
Q 73.09375 19.140625 63.90625 8.859375 
Q 54.734375 -1.421875 39.40625 -1.421875 
Q 24.03125 -1.421875 14.8125 8.828125 
Q 5.609375 19.09375 5.609375 36.375 
Q 5.609375 53.65625 14.8125 63.9375 
Q 24.03125 74.21875 39.40625 74.21875 
z
" id="DejaVuSans-79"/>
      </defs>
      <g transform="translate(126.08605 244.728822)rotate(-40)scale(0.1 -0.1)">
       <use xlink:href="#DejaVuSans-79"/>
       <use x="78.710938" xlink:href="#DejaVuSans-117"/>
       <use x="142.089844" xlink:href="#DejaVuSans-116"/>
       <use x="181.298828" xlink:href="#DejaVuSans-101"/>
       <use x="242.822266" xlink:href="#DejaVuSans-114"/>
       <use x="283.935547" xlink:href="#DejaVuSans-80"/>
       <use x="344.222656" xlink:href="#DejaVuSans-114"/>
       <use x="385.304688" xlink:href="#DejaVuSans-111"/>
       <use x="446.486328" xlink:href="#DejaVuSans-100"/>
       <use x="509.962891" xlink:href="#DejaVuSans-117"/>
       <use x="573.341797" xlink:href="#DejaVuSans-99"/>
       <use x="628.322266" xlink:href="#DejaVuSans-116"/>
      </g>
     </g>
    </g>
    <g id="xtick_16">
     <g id="line2d_22">
      <g>
       <use style="stroke:#000000;stroke-width:0.8;" x="202.236058" xlink:href="#m5c3765c710" y="189"/>
      </g>
     </g>
     <g id="text_14">
      <!-- BlackScholes -->
      <defs>
       <path d="M 19.671875 34.8125 
L 19.671875 8.109375 
L 35.5 8.109375 
Q 43.453125 8.109375 47.28125 11.40625 
Q 51.125 14.703125 51.125 21.484375 
Q 51.125 28.328125 47.28125 31.5625 
Q 43.453125 34.8125 35.5 34.8125 
z
M 19.671875 64.796875 
L 19.671875 42.828125 
L 34.28125 42.828125 
Q 41.5 42.828125 45.03125 45.53125 
Q 48.578125 48.25 48.578125 53.8125 
Q 48.578125 59.328125 45.03125 62.0625 
Q 41.5 64.796875 34.28125 64.796875 
z
M 9.8125 72.90625 
L 35.015625 72.90625 
Q 46.296875 72.90625 52.390625 68.21875 
Q 58.5 63.53125 58.5 54.890625 
Q 58.5 48.1875 55.375 44.234375 
Q 52.25 40.28125 46.1875 39.3125 
Q 53.46875 37.75 57.5 32.78125 
Q 61.53125 27.828125 61.53125 20.40625 
Q 61.53125 10.640625 54.890625 5.3125 
Q 48.25 0 35.984375 0 
L 9.8125 0 
z
" id="DejaVuSans-66"/>
       <path d="M 9.078125 75.984375 
L 18.109375 75.984375 
L 18.109375 31.109375 
L 44.921875 54.6875 
L 56.390625 54.6875 
L 27.390625 29.109375 
L 57.625 0 
L 45.90625 0 
L 18.109375 26.703125 
L 18.109375 0 
L 9.078125 0 
z
" id="DejaVuSans-107"/>
       <path d="M 54.890625 33.015625 
L 54.890625 0 
L 45.90625 0 
L 45.90625 32.71875 
Q 45.90625 40.484375 42.875 44.328125 
Q 39.84375 48.1875 33.796875 48.1875 
Q 26.515625 48.1875 22.3125 43.546875 
Q 18.109375 38.921875 18.109375 30.90625 
L 18.109375 0 
L 9.078125 0 
L 9.078125 75.984375 
L 18.109375 75.984375 
L 18.109375 46.1875 
Q 21.34375 51.125 25.703125 53.5625 
Q 30.078125 56 35.796875 56 
Q 45.21875 56 50.046875 50.171875 
Q 54.890625 44.34375 54.890625 33.015625 
z
" id="DejaVuSans-104"/>
       <path d="M 44.28125 53.078125 
L 44.28125 44.578125 
Q 40.484375 46.53125 36.375 47.5 
Q 32.28125 48.484375 27.875 48.484375 
Q 21.1875 48.484375 17.84375 46.4375 
Q 14.5 44.390625 14.5 40.28125 
Q 14.5 37.15625 16.890625 35.375 
Q 19.28125 33.59375 26.515625 31.984375 
L 29.59375 31.296875 
Q 39.15625 29.25 43.1875 25.515625 
Q 47.21875 21.78125 47.21875 15.09375 
Q 47.21875 7.46875 41.1875 3.015625 
Q 35.15625 -1.421875 24.609375 -1.421875 
Q 20.21875 -1.421875 15.453125 -0.5625 
Q 10.6875 0.296875 5.421875 2 
L 5.421875 11.28125 
Q 10.40625 8.6875 15.234375 7.390625 
Q 20.0625 6.109375 24.8125 6.109375 
Q 31.15625 6.109375 34.5625 8.28125 
Q 37.984375 10.453125 37.984375 14.40625 
Q 37.984375 18.0625 35.515625 20.015625 
Q 33.0625 21.96875 24.703125 23.78125 
L 21.578125 24.515625 
Q 13.234375 26.265625 9.515625 29.90625 
Q 5.8125 33.546875 5.8125 39.890625 
Q 5.8125 47.609375 11.28125 51.796875 
Q 16.75 56 26.8125 56 
Q 31.78125 56 36.171875 55.265625 
Q 40.578125 54.546875 44.28125 53.078125 
z
" id="DejaVuSans-115"/>
      </defs>
      <g transform="translate(178.921794 243.923329)rotate(-40)scale(0.1 -0.1)">
       <use xlink:href="#DejaVuSans-66"/>
       <use x="68.603516" xlink:href="#DejaVuSans-108"/>
       <use x="96.386719" xlink:href="#DejaVuSans-97"/>
       <use x="157.666016" xlink:href="#DejaVuSans-99"/>
       <use x="212.646484" xlink:href="#DejaVuSans-107"/>
       <use x="270.556641" xlink:href="#DejaVuSans-83"/>
       <use x="334.033203" xlink:href="#DejaVuSans-99"/>
       <use x="389.013672" xlink:href="#DejaVuSans-104"/>
       <use x="452.392578" xlink:href="#DejaVuSans-111"/>
       <use x="513.574219" xlink:href="#DejaVuSans-108"/>
       <use x="541.357422" xlink:href="#DejaVuSans-101"/>
       <use x="602.880859" xlink:href="#DejaVuSans-115"/>
      </g>
     </g>
    </g>
    <g id="xtick_17">
     <g id="line2d_23">
      <g>
       <use style="stroke:#000000;stroke-width:0.8;" x="254.591827" xlink:href="#m5c3765c710" y="189"/>
      </g>
     </g>
     <g id="text_15">
      <!-- TPCHQ6 -->
      <defs>
       <path d="M -0.296875 72.90625 
L 61.375 72.90625 
L 61.375 64.59375 
L 35.5 64.59375 
L 35.5 0 
L 25.59375 0 
L 25.59375 64.59375 
L -0.296875 64.59375 
z
" id="DejaVuSans-84"/>
       <path d="M 64.40625 67.28125 
L 64.40625 56.890625 
Q 59.421875 61.53125 53.78125 63.8125 
Q 48.140625 66.109375 41.796875 66.109375 
Q 29.296875 66.109375 22.65625 58.46875 
Q 16.015625 50.828125 16.015625 36.375 
Q 16.015625 21.96875 22.65625 14.328125 
Q 29.296875 6.6875 41.796875 6.6875 
Q 48.140625 6.6875 53.78125 8.984375 
Q 59.421875 11.28125 64.40625 15.921875 
L 64.40625 5.609375 
Q 59.234375 2.09375 53.4375 0.328125 
Q 47.65625 -1.421875 41.21875 -1.421875 
Q 24.65625 -1.421875 15.125 8.703125 
Q 5.609375 18.84375 5.609375 36.375 
Q 5.609375 53.953125 15.125 64.078125 
Q 24.65625 74.21875 41.21875 74.21875 
Q 47.75 74.21875 53.53125 72.484375 
Q 59.328125 70.75 64.40625 67.28125 
z
" id="DejaVuSans-67"/>
       <path d="M 39.40625 66.21875 
Q 28.65625 66.21875 22.328125 58.203125 
Q 16.015625 50.203125 16.015625 36.375 
Q 16.015625 22.609375 22.328125 14.59375 
Q 28.65625 6.59375 39.40625 6.59375 
Q 50.140625 6.59375 56.421875 14.59375 
Q 62.703125 22.609375 62.703125 36.375 
Q 62.703125 50.203125 56.421875 58.203125 
Q 50.140625 66.21875 39.40625 66.21875 
z
M 53.21875 1.3125 
L 66.21875 -12.890625 
L 54.296875 -12.890625 
L 43.5 -1.21875 
Q 41.890625 -1.3125 41.03125 -1.359375 
Q 40.1875 -1.421875 39.40625 -1.421875 
Q 24.03125 -1.421875 14.8125 8.859375 
Q 5.609375 19.140625 5.609375 36.375 
Q 5.609375 53.65625 14.8125 63.9375 
Q 24.03125 74.21875 39.40625 74.21875 
Q 54.734375 74.21875 63.90625 63.9375 
Q 73.09375 53.65625 73.09375 36.375 
Q 73.09375 23.6875 67.984375 14.640625 
Q 62.890625 5.609375 53.21875 1.3125 
z
" id="DejaVuSans-81"/>
       <path d="M 33.015625 40.375 
Q 26.375 40.375 22.484375 35.828125 
Q 18.609375 31.296875 18.609375 23.390625 
Q 18.609375 15.53125 22.484375 10.953125 
Q 26.375 6.390625 33.015625 6.390625 
Q 39.65625 6.390625 43.53125 10.953125 
Q 47.40625 15.53125 47.40625 23.390625 
Q 47.40625 31.296875 43.53125 35.828125 
Q 39.65625 40.375 33.015625 40.375 
z
M 52.59375 71.296875 
L 52.59375 62.3125 
Q 48.875 64.0625 45.09375 64.984375 
Q 41.3125 65.921875 37.59375 65.921875 
Q 27.828125 65.921875 22.671875 59.328125 
Q 17.53125 52.734375 16.796875 39.40625 
Q 19.671875 43.65625 24.015625 45.921875 
Q 28.375 48.1875 33.59375 48.1875 
Q 44.578125 48.1875 50.953125 41.515625 
Q 57.328125 34.859375 57.328125 23.390625 
Q 57.328125 12.15625 50.6875 5.359375 
Q 44.046875 -1.421875 33.015625 -1.421875 
Q 20.359375 -1.421875 13.671875 8.265625 
Q 6.984375 17.96875 6.984375 36.375 
Q 6.984375 53.65625 15.1875 63.9375 
Q 23.390625 74.21875 37.203125 74.21875 
Q 40.921875 74.21875 44.703125 73.484375 
Q 48.484375 72.75 52.59375 71.296875 
z
" id="DejaVuSans-54"/>
      </defs>
      <g transform="translate(240.709486 228.094684)rotate(-40)scale(0.1 -0.1)">
       <use xlink:href="#DejaVuSans-84"/>
       <use x="61.083984" xlink:href="#DejaVuSans-80"/>
       <use x="121.386719" xlink:href="#DejaVuSans-67"/>
       <use x="191.210938" xlink:href="#DejaVuSans-72"/>
       <use x="266.40625" xlink:href="#DejaVuSans-81"/>
       <use x="345.117188" xlink:href="#DejaVuSans-54"/>
      </g>
     </g>
    </g>
    <g id="xtick_18">
     <g id="line2d_24">
      <g>
       <use style="stroke:#000000;stroke-width:0.8;" x="306.947596" xlink:href="#m5c3765c710" y="189"/>
      </g>
     </g>
     <g id="text_16">
      <!-- Lattice -->
      <defs>
       <path d="M 9.8125 72.90625 
L 19.671875 72.90625 
L 19.671875 8.296875 
L 55.171875 8.296875 
L 55.171875 0 
L 9.8125 0 
z
" id="DejaVuSans-76"/>
      </defs>
      <g transform="translate(295.709904 223.656437)rotate(-40)scale(0.1 -0.1)">
       <use xlink:href="#DejaVuSans-76"/>
       <use x="55.712891" xlink:href="#DejaVuSans-97"/>
       <use x="116.992188" xlink:href="#DejaVuSans-116"/>
       <use x="156.201172" xlink:href="#DejaVuSans-116"/>
       <use x="195.410156" xlink:href="#DejaVuSans-105"/>
       <use x="223.193359" xlink:href="#DejaVuSans-99"/>
       <use x="278.173828" xlink:href="#DejaVuSans-101"/>
      </g>
     </g>
    </g>
    <g id="xtick_19">
     <g id="line2d_25">
      <g>
       <use style="stroke:#000000;stroke-width:0.8;" x="359.303365" xlink:href="#m5c3765c710" y="189"/>
      </g>
     </g>
     <g id="text_17">
      <!-- LogReg -->
      <defs>
       <path d="M 45.40625 27.984375 
Q 45.40625 37.75 41.375 43.109375 
Q 37.359375 48.484375 30.078125 48.484375 
Q 22.859375 48.484375 18.828125 43.109375 
Q 14.796875 37.75 14.796875 27.984375 
Q 14.796875 18.265625 18.828125 12.890625 
Q 22.859375 7.515625 30.078125 7.515625 
Q 37.359375 7.515625 41.375 12.890625 
Q 45.40625 18.265625 45.40625 27.984375 
z
M 54.390625 6.78125 
Q 54.390625 -7.171875 48.1875 -13.984375 
Q 42 -20.796875 29.203125 -20.796875 
Q 24.46875 -20.796875 20.265625 -20.09375 
Q 16.0625 -19.390625 12.109375 -17.921875 
L 12.109375 -9.1875 
Q 16.0625 -11.328125 19.921875 -12.34375 
Q 23.78125 -13.375 27.78125 -13.375 
Q 36.625 -13.375 41.015625 -8.765625 
Q 45.40625 -4.15625 45.40625 5.171875 
L 45.40625 9.625 
Q 42.625 4.78125 38.28125 2.390625 
Q 33.9375 0 27.875 0 
Q 17.828125 0 11.671875 7.65625 
Q 5.515625 15.328125 5.515625 27.984375 
Q 5.515625 40.671875 11.671875 48.328125 
Q 17.828125 56 27.875 56 
Q 33.9375 56 38.28125 53.609375 
Q 42.625 51.21875 45.40625 46.390625 
L 45.40625 54.6875 
L 54.390625 54.6875 
z
" id="DejaVuSans-103"/>
       <path d="M 44.390625 34.1875 
Q 47.5625 33.109375 50.5625 29.59375 
Q 53.5625 26.078125 56.59375 19.921875 
L 66.609375 0 
L 56 0 
L 46.6875 18.703125 
Q 43.0625 26.03125 39.671875 28.421875 
Q 36.28125 30.8125 30.421875 30.8125 
L 19.671875 30.8125 
L 19.671875 0 
L 9.8125 0 
L 9.8125 72.90625 
L 32.078125 72.90625 
Q 44.578125 72.90625 50.734375 67.671875 
Q 56.890625 62.453125 56.890625 51.90625 
Q 56.890625 45.015625 53.6875 40.46875 
Q 50.484375 35.9375 44.390625 34.1875 
z
M 19.671875 64.796875 
L 19.671875 38.921875 
L 32.078125 38.921875 
Q 39.203125 38.921875 42.84375 42.21875 
Q 46.484375 45.515625 46.484375 51.90625 
Q 46.484375 58.296875 42.84375 61.546875 
Q 39.203125 64.796875 32.078125 64.796875 
z
" id="DejaVuSans-82"/>
      </defs>
      <g transform="translate(346.720906 225.913224)rotate(-40)scale(0.1 -0.1)">
       <use xlink:href="#DejaVuSans-76"/>
       <use x="55.697266" xlink:href="#DejaVuSans-111"/>
       <use x="116.878906" xlink:href="#DejaVuSans-103"/>
       <use x="180.355469" xlink:href="#DejaVuSans-82"/>
       <use x="249.775391" xlink:href="#DejaVuSans-101"/>
       <use x="311.298828" xlink:href="#DejaVuSans-103"/>
      </g>
     </g>
    </g>
    <g id="xtick_20">
     <g id="line2d_26">
      <g>
       <use style="stroke:#000000;stroke-width:0.8;" x="411.659135" xlink:href="#m5c3765c710" y="189"/>
      </g>
     </g>
     <g id="text_18">
      <!-- SGD -->
      <defs>
       <path d="M 59.515625 10.40625 
L 59.515625 29.984375 
L 43.40625 29.984375 
L 43.40625 38.09375 
L 69.28125 38.09375 
L 69.28125 6.78125 
Q 63.578125 2.734375 56.6875 0.65625 
Q 49.8125 -1.421875 42 -1.421875 
Q 24.90625 -1.421875 15.25 8.5625 
Q 5.609375 18.5625 5.609375 36.375 
Q 5.609375 54.25 15.25 64.234375 
Q 24.90625 74.21875 42 74.21875 
Q 49.125 74.21875 55.546875 72.453125 
Q 61.96875 70.703125 67.390625 67.28125 
L 67.390625 56.78125 
Q 61.921875 61.421875 55.765625 63.765625 
Q 49.609375 66.109375 42.828125 66.109375 
Q 29.4375 66.109375 22.71875 58.640625 
Q 16.015625 51.171875 16.015625 36.375 
Q 16.015625 21.625 22.71875 14.15625 
Q 29.4375 6.6875 42.828125 6.6875 
Q 48.046875 6.6875 52.140625 7.59375 
Q 56.25 8.5 59.515625 10.40625 
z
" id="DejaVuSans-71"/>
      </defs>
      <g transform="translate(405.084139 215.831502)rotate(-40)scale(0.1 -0.1)">
       <use xlink:href="#DejaVuSans-83"/>
       <use x="63.476562" xlink:href="#DejaVuSans-71"/>
       <use x="140.966797" xlink:href="#DejaVuSans-68"/>
      </g>
     </g>
    </g>
    <g id="xtick_21">
     <g id="line2d_27">
      <g>
       <use style="stroke:#000000;stroke-width:0.8;" x="464.014904" xlink:href="#m5c3765c710" y="189"/>
      </g>
     </g>
     <g id="text_19">
      <!-- Kmeans -->
      <defs>
       <path d="M 9.8125 72.90625 
L 19.671875 72.90625 
L 19.671875 42.09375 
L 52.390625 72.90625 
L 65.09375 72.90625 
L 28.90625 38.921875 
L 67.671875 0 
L 54.6875 0 
L 19.671875 35.109375 
L 19.671875 0 
L 9.8125 0 
z
" id="DejaVuSans-75"/>
      </defs>
      <g transform="translate(450.419231 227.613598)rotate(-40)scale(0.1 -0.1)">
       <use xlink:href="#DejaVuSans-75"/>
       <use x="65.576172" xlink:href="#DejaVuSans-109"/>
       <use x="162.988281" xlink:href="#DejaVuSans-101"/>
       <use x="224.511719" xlink:href="#DejaVuSans-97"/>
       <use x="285.791016" xlink:href="#DejaVuSans-110"/>
       <use x="349.169922" xlink:href="#DejaVuSans-115"/>
      </g>
     </g>
    </g>
    <g id="xtick_22">
     <g id="line2d_28">
      <g>
       <use style="stroke:#000000;stroke-width:0.8;" x="516.370673" xlink:href="#m5c3765c710" y="189"/>
      </g>
     </g>
     <g id="text_20">
      <!-- GRU -->
      <defs>
       <path d="M 8.6875 72.90625 
L 18.609375 72.90625 
L 18.609375 28.609375 
Q 18.609375 16.890625 22.84375 11.734375 
Q 27.09375 6.59375 36.625 6.59375 
Q 46.09375 6.59375 50.34375 11.734375 
Q 54.59375 16.890625 54.59375 28.609375 
L 54.59375 72.90625 
L 64.5 72.90625 
L 64.5 27.390625 
Q 64.5 13.140625 57.4375 5.859375 
Q 50.390625 -1.421875 36.625 -1.421875 
Q 22.796875 -1.421875 15.734375 5.859375 
Q 8.6875 13.140625 8.6875 27.390625 
z
" id="DejaVuSans-85"/>
      </defs>
      <g transform="translate(509.711892 215.972112)rotate(-40)scale(0.1 -0.1)">
       <use xlink:href="#DejaVuSans-71"/>
       <use x="77.490234" xlink:href="#DejaVuSans-82"/>
       <use x="146.972656" xlink:href="#DejaVuSans-85"/>
      </g>
     </g>
    </g>
    <g id="xtick_23">
     <g id="line2d_29">
      <g>
       <use style="stroke:#000000;stroke-width:0.8;" x="568.726442" xlink:href="#m5c3765c710" y="189"/>
      </g>
     </g>
     <g id="text_21">
      <!-- LSTM -->
      <defs>
       <path d="M 9.8125 72.90625 
L 24.515625 72.90625 
L 43.109375 23.296875 
L 61.8125 72.90625 
L 76.515625 72.90625 
L 76.515625 0 
L 66.890625 0 
L 66.890625 64.015625 
L 48.09375 14.015625 
L 38.1875 14.015625 
L 19.390625 64.015625 
L 19.390625 0 
L 9.8125 0 
z
" id="DejaVuSans-77"/>
      </defs>
      <g transform="translate(560.290198 218.955048)rotate(-40)scale(0.1 -0.1)">
       <use xlink:href="#DejaVuSans-76"/>
       <use x="55.712891" xlink:href="#DejaVuSans-83"/>
       <use x="119.189453" xlink:href="#DejaVuSans-84"/>
       <use x="180.273438" xlink:href="#DejaVuSans-77"/>
      </g>
     </g>
    </g>
    <g id="xtick_24">
     <g id="line2d_30">
      <g>
       <use style="stroke:#000000;stroke-width:0.8;" x="621.082212" xlink:href="#m5c3765c710" y="189"/>
      </g>
     </g>
     <g id="text_22">
      <!-- LeNet -->
      <g transform="translate(611.641731 220.640357)rotate(-40)scale(0.1 -0.1)">
       <use xlink:href="#DejaVuSans-76"/>
       <use x="55.697266" xlink:href="#DejaVuSans-101"/>
       <use x="117.220703" xlink:href="#DejaVuSans-78"/>
       <use x="192.025391" xlink:href="#DejaVuSans-101"/>
       <use x="253.548828" xlink:href="#DejaVuSans-116"/>
      </g>
     </g>
    </g>
    <g id="xtick_25">
     <g id="line2d_31">
      <g>
       <use style="stroke:#000000;stroke-width:0.8;" x="673.437981" xlink:href="#m5c3765c710" y="189"/>
      </g>
     </g>
     <g id="text_23">
      <!-- GEMM -->
      <defs>
       <path d="M 9.8125 72.90625 
L 55.90625 72.90625 
L 55.90625 64.59375 
L 19.671875 64.59375 
L 19.671875 43.015625 
L 54.390625 43.015625 
L 54.390625 34.71875 
L 19.671875 34.71875 
L 19.671875 8.296875 
L 56.78125 8.296875 
L 56.78125 0 
L 9.8125 0 
z
" id="DejaVuSans-69"/>
      </defs>
      <g transform="translate(663.2141 221.955058)rotate(-40)scale(0.1 -0.1)">
       <use xlink:href="#DejaVuSans-71"/>
       <use x="77.490234" xlink:href="#DejaVuSans-69"/>
       <use x="140.673828" xlink:href="#DejaVuSans-77"/>
       <use x="226.953125" xlink:href="#DejaVuSans-77"/>
      </g>
     </g>
    </g>
    <g id="xtick_26">
     <g id="line2d_32">
      <g>
       <use style="stroke:#000000;stroke-width:0.8;" x="725.79375" xlink:href="#m5c3765c710" y="189"/>
      </g>
     </g>
     <g id="text_24">
      <!-- GDA -->
      <defs>
       <path d="M 34.1875 63.1875 
L 20.796875 26.90625 
L 47.609375 26.90625 
z
M 28.609375 72.90625 
L 39.796875 72.90625 
L 67.578125 0 
L 57.328125 0 
L 50.6875 18.703125 
L 17.828125 18.703125 
L 11.1875 0 
L 0.78125 0 
z
" id="DejaVuSans-65"/>
      </defs>
      <g transform="translate(719.030834 216.14687)rotate(-40)scale(0.1 -0.1)">
       <use xlink:href="#DejaVuSans-71"/>
       <use x="77.490234" xlink:href="#DejaVuSans-68"/>
       <use x="154.476562" xlink:href="#DejaVuSans-65"/>
      </g>
     </g>
    </g>
   </g>
   <g id="matplotlib.axis_4">
    <g id="ytick_4">
     <g id="line2d_33">
      <path clip-path="url(#pe16e51e484)" d="M 79.2 189 
L 759.825 189 
" style="fill:none;stroke:#808080;stroke-dasharray:2.96,1.28;stroke-dashoffset:0;stroke-width:0.8;"/>
     </g>
     <g id="line2d_34">
      <g>
       <use style="stroke:#000000;stroke-width:0.8;" x="79.2" xlink:href="#mf4fe3487f5" y="189"/>
      </g>
     </g>
     <g id="text_25">
      <!-- 0 -->
      <g transform="translate(65.8375 192.799219)scale(0.1 -0.1)">
       <use xlink:href="#DejaVuSans-48"/>
      </g>
     </g>
    </g>
    <g id="ytick_5">
     <g id="line2d_35">
      <path clip-path="url(#pe16e51e484)" d="M 79.2 167.113416 
L 759.825 167.113416 
" style="fill:none;stroke:#808080;stroke-dasharray:2.96,1.28;stroke-dashoffset:0;stroke-width:0.8;"/>
     </g>
     <g id="line2d_36">
      <g>
       <use style="stroke:#000000;stroke-width:0.8;" x="79.2" xlink:href="#mf4fe3487f5" y="167.113416"/>
      </g>
     </g>
     <g id="text_26">
      <!-- 2 -->
      <g transform="translate(65.8375 170.912635)scale(0.1 -0.1)">
       <use xlink:href="#DejaVuSans-50"/>
      </g>
     </g>
    </g>
    <g id="ytick_6">
     <g id="line2d_37">
      <path clip-path="url(#pe16e51e484)" d="M 79.2 145.226833 
L 759.825 145.226833 
" style="fill:none;stroke:#808080;stroke-dasharray:2.96,1.28;stroke-dashoffset:0;stroke-width:0.8;"/>
     </g>
     <g id="line2d_38">
      <g>
       <use style="stroke:#000000;stroke-width:0.8;" x="79.2" xlink:href="#mf4fe3487f5" y="145.226833"/>
      </g>
     </g>
     <g id="text_27">
      <!-- 4 -->
      <g transform="translate(65.8375 149.026051)scale(0.1 -0.1)">
       <use xlink:href="#DejaVuSans-52"/>
      </g>
     </g>
    </g>
    <g id="ytick_7">
     <g id="line2d_39">
      <path clip-path="url(#pe16e51e484)" d="M 79.2 123.340249 
L 759.825 123.340249 
" style="fill:none;stroke:#808080;stroke-dasharray:2.96,1.28;stroke-dashoffset:0;stroke-width:0.8;"/>
     </g>
     <g id="line2d_40">
      <g>
       <use style="stroke:#000000;stroke-width:0.8;" x="79.2" xlink:href="#mf4fe3487f5" y="123.340249"/>
      </g>
     </g>
     <g id="text_28">
      <!-- 6 -->
      <g transform="translate(65.8375 127.139468)scale(0.1 -0.1)">
       <use xlink:href="#DejaVuSans-54"/>
      </g>
     </g>
    </g>
    <g id="text_29">
     <!-- (b) -->
     <defs>
      <path d="M 48.6875 27.296875 
Q 48.6875 37.203125 44.609375 42.84375 
Q 40.53125 48.484375 33.40625 48.484375 
Q 26.265625 48.484375 22.1875 42.84375 
Q 18.109375 37.203125 18.109375 27.296875 
Q 18.109375 17.390625 22.1875 11.75 
Q 26.265625 6.109375 33.40625 6.109375 
Q 40.53125 6.109375 44.609375 11.75 
Q 48.6875 17.390625 48.6875 27.296875 
z
M 18.109375 46.390625 
Q 20.953125 51.265625 25.265625 53.625 
Q 29.59375 56 35.59375 56 
Q 45.5625 56 51.78125 48.09375 
Q 58.015625 40.1875 58.015625 27.296875 
Q 58.015625 14.40625 51.78125 6.484375 
Q 45.5625 -1.421875 35.59375 -1.421875 
Q 29.59375 -1.421875 25.265625 0.953125 
Q 20.953125 3.328125 18.109375 8.203125 
L 18.109375 0 
L 9.078125 0 
L 9.078125 75.984375 
L 18.109375 75.984375 
z
" id="DejaVuSans-98"/>
     </defs>
     <g transform="translate(37.362188 154.587438)rotate(-90)scale(0.1 -0.1)">
      <use xlink:href="#DejaVuSans-40"/>
      <use x="39.013672" xlink:href="#DejaVuSans-98"/>
      <use x="102.490234" xlink:href="#DejaVuSans-41"/>
     </g>
     <!-- Scheduled -->
     <g transform="translate(48.56 173.663219)rotate(-90)scale(0.1 -0.1)">
      <use xlink:href="#DejaVuSans-83"/>
      <use x="63.476562" xlink:href="#DejaVuSans-99"/>
      <use x="118.457031" xlink:href="#DejaVuSans-104"/>
      <use x="181.835938" xlink:href="#DejaVuSans-101"/>
      <use x="243.359375" xlink:href="#DejaVuSans-100"/>
      <use x="306.835938" xlink:href="#DejaVuSans-117"/>
      <use x="370.214844" xlink:href="#DejaVuSans-108"/>
      <use x="397.998047" xlink:href="#DejaVuSans-101"/>
      <use x="459.521484" xlink:href="#DejaVuSans-100"/>
     </g>
     <!-- Norm Perf -->
     <g transform="translate(59.757813 172.730407)rotate(-90)scale(0.1 -0.1)">
      <use xlink:href="#DejaVuSans-78"/>
      <use x="74.804688" xlink:href="#DejaVuSans-111"/>
      <use x="135.986328" xlink:href="#DejaVuSans-114"/>
      <use x="177.083984" xlink:href="#DejaVuSans-109"/>
      <use x="274.496094" xlink:href="#DejaVuSans-32"/>
      <use x="306.283203" xlink:href="#DejaVuSans-80"/>
      <use x="366.539062" xlink:href="#DejaVuSans-101"/>
      <use x="428.0625" xlink:href="#DejaVuSans-114"/>
      <use x="469.175781" xlink:href="#DejaVuSans-102"/>
     </g>
    </g>
   </g>
   <g id="patch_107">
    <path clip-path="url(#pe16e51e484)" d="M 79.2 189 
L 84.435577 189 
L 84.435577 178.056708 
L 79.2 178.056708 
z
" style="fill:#2ca02c;"/>
   </g>
   <g id="patch_108">
    <path clip-path="url(#pe16e51e484)" d="M 131.555769 189 
L 136.791346 189 
L 136.791346 178.056708 
L 131.555769 178.056708 
z
" style="fill:#2ca02c;"/>
   </g>
   <g id="patch_109">
    <path clip-path="url(#pe16e51e484)" d="M 183.911538 189 
L 189.147115 189 
L 189.147115 174.064598 
L 183.911538 174.064598 
z
" style="fill:#2ca02c;"/>
   </g>
   <g id="patch_110">
    <path clip-path="url(#pe16e51e484)" d="M 236.267308 189 
L 241.502885 189 
L 241.502885 178.056708 
L 236.267308 178.056708 
z
" style="fill:#2ca02c;"/>
   </g>
   <g id="patch_111">
    <path clip-path="url(#pe16e51e484)" d="M 288.623077 189 
L 293.858654 189 
L 293.858654 157.437232 
L 288.623077 157.437232 
z
" style="fill:#2ca02c;"/>
   </g>
   <g id="patch_112">
    <path clip-path="url(#pe16e51e484)" d="M 340.978846 189 
L 346.214423 189 
L 346.214423 178.056708 
L 340.978846 178.056708 
z
" style="fill:#2ca02c;"/>
   </g>
   <g id="patch_113">
    <path clip-path="url(#pe16e51e484)" d="M 393.334615 189 
L 398.570192 189 
L 398.570192 178.056708 
L 393.334615 178.056708 
z
" style="fill:#2ca02c;"/>
   </g>
   <g id="patch_114">
    <path clip-path="url(#pe16e51e484)" d="M 445.690385 189 
L 450.925962 189 
L 450.925962 178.056708 
L 445.690385 178.056708 
z
" style="fill:#2ca02c;"/>
   </g>
   <g id="patch_115">
    <path clip-path="url(#pe16e51e484)" d="M 498.046154 189 
L 503.281731 189 
L 503.281731 173.081309 
L 498.046154 173.081309 
z
" style="fill:#2ca02c;"/>
   </g>
   <g id="patch_116">
    <path clip-path="url(#pe16e51e484)" d="M 550.401923 189 
L 555.6375 189 
L 555.6375 178.056708 
L 550.401923 178.056708 
z
" style="fill:#2ca02c;"/>
   </g>
   <g id="patch_117">
    <path clip-path="url(#pe16e51e484)" d="M 602.757692 189 
L 607.993269 189 
L 607.993269 178.056708 
L 602.757692 178.056708 
z
" style="fill:#2ca02c;"/>
   </g>
   <g id="patch_118">
    <path clip-path="url(#pe16e51e484)" d="M 655.113462 189 
L 660.349038 189 
L 660.349038 178.056708 
L 655.113462 178.056708 
z
" style="fill:#2ca02c;"/>
   </g>
   <g id="patch_119">
    <path clip-path="url(#pe16e51e484)" d="M 707.469231 189 
L 712.704808 189 
L 712.704808 178.056708 
L 707.469231 178.056708 
z
" style="fill:#2ca02c;"/>
   </g>
   <g id="patch_120">
    <path clip-path="url(#pe16e51e484)" d="M 84.435577 189 
L 89.671154 189 
L 89.671154 177.999464 
L 84.435577 177.999464 
z
" style="fill:#ff7f0e;"/>
   </g>
   <g id="patch_121">
    <path clip-path="url(#pe16e51e484)" d="M 136.791346 189 
L 142.026923 189 
L 142.026923 170.791447 
L 136.791346 170.791447 
z
" style="fill:#ff7f0e;"/>
   </g>
   <g id="patch_122">
    <path clip-path="url(#pe16e51e484)" d="M 189.147115 189 
L 194.382692 189 
L 194.382692 189 
L 189.147115 189 
z
" style="fill:#ff7f0e;"/>
   </g>
   <g id="patch_123">
    <path clip-path="url(#pe16e51e484)" d="M 241.502885 189 
L 246.738462 189 
L 246.738462 177.526767 
L 241.502885 177.526767 
z
" style="fill:#ff7f0e;"/>
   </g>
   <g id="patch_124">
    <path clip-path="url(#pe16e51e484)" d="M 293.858654 189 
L 299.094231 189 
L 299.094231 189 
L 293.858654 189 
z
" style="fill:#ff7f0e;"/>
   </g>
   <g id="patch_125">
    <path clip-path="url(#pe16e51e484)" d="M 346.214423 189 
L 351.45 189 
L 351.45 189 
L 346.214423 189 
z
" style="fill:#ff7f0e;"/>
   </g>
   <g id="patch_126">
    <path clip-path="url(#pe16e51e484)" d="M 398.570192 189 
L 403.805769 189 
L 403.805769 176.92453 
L 398.570192 176.92453 
z
" style="fill:#ff7f0e;"/>
   </g>
   <g id="patch_127">
    <path clip-path="url(#pe16e51e484)" d="M 450.925962 189 
L 456.161538 189 
L 456.161538 189 
L 450.925962 189 
z
" style="fill:#ff7f0e;"/>
   </g>
   <g id="patch_128">
    <path clip-path="url(#pe16e51e484)" d="M 503.281731 189 
L 508.517308 189 
L 508.517308 178.056708 
L 503.281731 178.056708 
z
" style="fill:#ff7f0e;"/>
   </g>
   <g id="patch_129">
    <path clip-path="url(#pe16e51e484)" d="M 555.6375 189 
L 560.873077 189 
L 560.873077 178.019511 
L 555.6375 178.019511 
z
" style="fill:#ff7f0e;"/>
   </g>
   <g id="patch_130">
    <path clip-path="url(#pe16e51e484)" d="M 607.993269 189 
L 613.228846 189 
L 613.228846 178.054866 
L 607.993269 178.054866 
z
" style="fill:#ff7f0e;"/>
   </g>
   <g id="patch_131">
    <path clip-path="url(#pe16e51e484)" d="M 660.349038 189 
L 665.584615 189 
L 665.584615 177.927138 
L 660.349038 177.927138 
z
" style="fill:#ff7f0e;"/>
   </g>
   <g id="patch_132">
    <path clip-path="url(#pe16e51e484)" d="M 712.704808 189 
L 717.940385 189 
L 717.940385 172.612759 
L 712.704808 172.612759 
z
" style="fill:#ff7f0e;"/>
   </g>
   <g id="patch_133">
    <path clip-path="url(#pe16e51e484)" d="M 89.671154 189 
L 94.906731 189 
L 94.906731 177.999464 
L 89.671154 177.999464 
z
" style="fill:#1f77b4;"/>
   </g>
   <g id="patch_134">
    <path clip-path="url(#pe16e51e484)" d="M 142.026923 189 
L 147.2625 189 
L 147.2625 170.791447 
L 142.026923 170.791447 
z
" style="fill:#1f77b4;"/>
   </g>
   <g id="patch_135">
    <path clip-path="url(#pe16e51e484)" d="M 194.382692 189 
L 199.618269 189 
L 199.618269 178.056708 
L 194.382692 178.056708 
z
" style="fill:#1f77b4;"/>
   </g>
   <g id="patch_136">
    <path clip-path="url(#pe16e51e484)" d="M 246.738462 189 
L 251.974038 189 
L 251.974038 177.66031 
L 246.738462 177.66031 
z
" style="fill:#1f77b4;"/>
   </g>
   <g id="patch_137">
    <path clip-path="url(#pe16e51e484)" d="M 299.094231 189 
L 304.329808 189 
L 304.329808 166.825722 
L 299.094231 166.825722 
z
" style="fill:#1f77b4;"/>
   </g>
   <g id="patch_138">
    <path clip-path="url(#pe16e51e484)" d="M 351.45 189 
L 356.685577 189 
L 356.685577 147.348339 
L 351.45 147.348339 
z
" style="fill:#1f77b4;"/>
   </g>
   <g id="patch_139">
    <path clip-path="url(#pe16e51e484)" d="M 403.805769 189 
L 409.041346 189 
L 409.041346 166.973276 
L 403.805769 166.973276 
z
" style="fill:#1f77b4;"/>
   </g>
   <g id="patch_140">
    <path clip-path="url(#pe16e51e484)" d="M 456.161538 189 
L 461.397115 189 
L 461.397115 161.424194 
L 456.161538 161.424194 
z
" style="fill:#1f77b4;"/>
   </g>
   <g id="patch_141">
    <path clip-path="url(#pe16e51e484)" d="M 508.517308 189 
L 513.752885 189 
L 513.752885 178.056486 
L 508.517308 178.056486 
z
" style="fill:#1f77b4;"/>
   </g>
   <g id="patch_142">
    <path clip-path="url(#pe16e51e484)" d="M 560.873077 189 
L 566.108654 189 
L 566.108654 178.019595 
L 560.873077 178.019595 
z
" style="fill:#1f77b4;"/>
   </g>
   <g id="patch_143">
    <path clip-path="url(#pe16e51e484)" d="M 613.228846 189 
L 618.464423 189 
L 618.464423 159.396688 
L 613.228846 159.396688 
z
" style="fill:#1f77b4;"/>
   </g>
   <g id="patch_144">
    <path clip-path="url(#pe16e51e484)" d="M 665.584615 189 
L 670.820192 189 
L 670.820192 174.851779 
L 665.584615 174.851779 
z
" style="fill:#1f77b4;"/>
   </g>
   <g id="patch_145">
    <path clip-path="url(#pe16e51e484)" d="M 717.940385 189 
L 723.175962 189 
L 723.175962 156.580255 
L 717.940385 156.580255 
z
" style="fill:#1f77b4;"/>
   </g>
   <g id="patch_146">
    <path clip-path="url(#pe16e51e484)" d="M 94.906731 189 
L 100.142308 189 
L 100.142308 174.837331 
L 94.906731 174.837331 
z
" style="fill:url(#ha1e89c7500);"/>
   </g>
   <g id="patch_147">
    <path clip-path="url(#pe16e51e484)" d="M 147.2625 189 
L 152.498077 189 
L 152.498077 170.791447 
L 147.2625 170.791447 
z
" style="fill:url(#ha1e89c7500);"/>
   </g>
   <g id="patch_148">
    <path clip-path="url(#pe16e51e484)" d="M 199.618269 189 
L 204.853846 189 
L 204.853846 159.844608 
L 199.618269 159.844608 
z
" style="fill:url(#ha1e89c7500);"/>
   </g>
   <g id="patch_149">
    <path clip-path="url(#pe16e51e484)" d="M 251.974038 189 
L 257.209615 189 
L 257.209615 176.959659 
L 251.974038 176.959659 
z
" style="fill:url(#ha1e89c7500);"/>
   </g>
   <g id="patch_150">
    <path clip-path="url(#pe16e51e484)" d="M 304.329808 189 
L 309.565385 189 
L 309.565385 178.056708 
L 304.329808 178.056708 
z
" style="fill:url(#ha1e89c7500);"/>
   </g>
   <g id="patch_151">
    <path clip-path="url(#pe16e51e484)" d="M 356.685577 189 
L 361.921154 189 
L 361.921154 147.304559 
L 356.685577 147.304559 
z
" style="fill:url(#ha1e89c7500);"/>
   </g>
   <g id="patch_152">
    <path clip-path="url(#pe16e51e484)" d="M 409.041346 189 
L 414.276923 189 
L 414.276923 166.718872 
L 409.041346 166.718872 
z
" style="fill:url(#ha1e89c7500);"/>
   </g>
   <g id="patch_153">
    <path clip-path="url(#pe16e51e484)" d="M 461.397115 189 
L 466.632692 189 
L 466.632692 161.424199 
L 461.397115 161.424199 
z
" style="fill:url(#ha1e89c7500);"/>
   </g>
   <g id="patch_154">
    <path clip-path="url(#pe16e51e484)" d="M 513.752885 189 
L 518.988462 189 
L 518.988462 172.625977 
L 513.752885 172.625977 
z
" style="fill:url(#ha1e89c7500);"/>
   </g>
   <g id="patch_155">
    <path clip-path="url(#pe16e51e484)" d="M 566.108654 189 
L 571.344231 189 
L 571.344231 157.089448 
L 566.108654 157.089448 
z
" style="fill:url(#ha1e89c7500);"/>
   </g>
   <g id="patch_156">
    <path clip-path="url(#pe16e51e484)" d="M 618.464423 189 
L 623.7 189 
L 623.7 159.394396 
L 618.464423 159.394396 
z
" style="fill:url(#ha1e89c7500);"/>
   </g>
   <g id="patch_157">
    <path clip-path="url(#pe16e51e484)" d="M 670.820192 189 
L 676.055769 189 
L 676.055769 159.90161 
L 670.820192 159.90161 
z
" style="fill:url(#ha1e89c7500);"/>
   </g>
   <g id="patch_158">
    <path clip-path="url(#pe16e51e484)" d="M 723.175962 189 
L 728.411538 189 
L 728.411538 131.264727 
L 723.175962 131.264727 
z
" style="fill:url(#ha1e89c7500);"/>
   </g>
   <g id="patch_159">
    <path clip-path="url(#pe16e51e484)" d="M 100.142308 189 
L 105.377885 189 
L 105.377885 177.999464 
L 100.142308 177.999464 
z
" style="fill:url(#h2b763ecab0);"/>
   </g>
   <g id="patch_160">
    <path clip-path="url(#pe16e51e484)" d="M 152.498077 189 
L 157.733654 189 
L 157.733654 170.791447 
L 152.498077 170.791447 
z
" style="fill:url(#h2b763ecab0);"/>
   </g>
   <g id="patch_161">
    <path clip-path="url(#pe16e51e484)" d="M 204.853846 189 
L 210.089423 189 
L 210.089423 159.873704 
L 204.853846 159.873704 
z
" style="fill:url(#h2b763ecab0);"/>
   </g>
   <g id="patch_162">
    <path clip-path="url(#pe16e51e484)" d="M 257.209615 189 
L 262.445192 189 
L 262.445192 177.122042 
L 257.209615 177.122042 
z
" style="fill:url(#h2b763ecab0);"/>
   </g>
   <g id="patch_163">
    <path clip-path="url(#pe16e51e484)" d="M 309.565385 189 
L 314.800962 189 
L 314.800962 167.364017 
L 309.565385 167.364017 
z
" style="fill:url(#h2b763ecab0);"/>
   </g>
   <g id="patch_164">
    <path clip-path="url(#pe16e51e484)" d="M 361.921154 189 
L 367.156731 189 
L 367.156731 147.305344 
L 361.921154 147.305344 
z
" style="fill:url(#h2b763ecab0);"/>
   </g>
   <g id="patch_165">
    <path clip-path="url(#pe16e51e484)" d="M 414.276923 189 
L 419.5125 189 
L 419.5125 164.078817 
L 414.276923 164.078817 
z
" style="fill:url(#h2b763ecab0);"/>
   </g>
   <g id="patch_166">
    <path clip-path="url(#pe16e51e484)" d="M 466.632692 189 
L 471.868269 189 
L 471.868269 133.890117 
L 466.632692 133.890117 
z
" style="fill:url(#h2b763ecab0);"/>
   </g>
   <g id="patch_167">
    <path clip-path="url(#pe16e51e484)" d="M 518.988462 189 
L 524.224038 189 
L 524.224038 167.288961 
L 518.988462 167.288961 
z
" style="fill:url(#h2b763ecab0);"/>
   </g>
   <g id="patch_168">
    <path clip-path="url(#pe16e51e484)" d="M 571.344231 189 
L 576.579808 189 
L 576.579808 174.3584 
L 571.344231 174.3584 
z
" style="fill:url(#h2b763ecab0);"/>
   </g>
   <g id="patch_169">
    <path clip-path="url(#pe16e51e484)" d="M 623.7 189 
L 628.935577 189 
L 628.935577 159.394719 
L 623.7 159.394719 
z
" style="fill:url(#h2b763ecab0);"/>
   </g>
   <g id="patch_170">
    <path clip-path="url(#pe16e51e484)" d="M 676.055769 189 
L 681.291346 189 
L 681.291346 159.901717 
L 676.055769 159.901717 
z
" style="fill:url(#h2b763ecab0);"/>
   </g>
   <g id="patch_171">
    <path clip-path="url(#pe16e51e484)" d="M 728.411538 189 
L 733.647115 189 
L 733.647115 124.186183 
L 728.411538 124.186183 
z
" style="fill:url(#h2b763ecab0);"/>
   </g>
   <g id="patch_172">
    <path clip-path="url(#pe16e51e484)" d="M 105.377885 189 
L 110.613462 189 
L 110.613462 174.838164 
L 105.377885 174.838164 
z
" style="fill:url(#hf63e5de4fb);"/>
   </g>
   <g id="patch_173">
    <path clip-path="url(#pe16e51e484)" d="M 157.733654 189 
L 162.969231 189 
L 162.969231 170.79125 
L 157.733654 170.79125 
z
" style="fill:url(#hf63e5de4fb);"/>
   </g>
   <g id="patch_174">
    <path clip-path="url(#pe16e51e484)" d="M 210.089423 189 
L 215.325 189 
L 215.325 159.651475 
L 210.089423 159.651475 
z
" style="fill:url(#hf63e5de4fb);"/>
   </g>
   <g id="patch_175">
    <path clip-path="url(#pe16e51e484)" d="M 262.445192 189 
L 267.680769 189 
L 267.680769 177.526767 
L 262.445192 177.526767 
z
" style="fill:url(#hf63e5de4fb);"/>
   </g>
   <g id="patch_176">
    <path clip-path="url(#pe16e51e484)" d="M 314.800962 189 
L 320.036538 189 
L 320.036538 167.150068 
L 314.800962 167.150068 
z
" style="fill:url(#hf63e5de4fb);"/>
   </g>
   <g id="patch_177">
    <path clip-path="url(#pe16e51e484)" d="M 367.156731 189 
L 372.392308 189 
L 372.392308 148.092411 
L 367.156731 148.092411 
z
" style="fill:url(#hf63e5de4fb);"/>
   </g>
   <g id="patch_178">
    <path clip-path="url(#pe16e51e484)" d="M 419.5125 189 
L 424.748077 189 
L 424.748077 162.673358 
L 419.5125 162.673358 
z
" style="fill:url(#hf63e5de4fb);"/>
   </g>
   <g id="patch_179">
    <path clip-path="url(#pe16e51e484)" d="M 471.868269 189 
L 477.103846 189 
L 477.103846 133.486215 
L 471.868269 133.486215 
z
" style="fill:url(#hf63e5de4fb);"/>
   </g>
   <g id="patch_180">
    <path clip-path="url(#pe16e51e484)" d="M 524.224038 189 
L 529.459615 189 
L 529.459615 156.384803 
L 524.224038 156.384803 
z
" style="fill:url(#hf63e5de4fb);"/>
   </g>
   <g id="patch_181">
    <path clip-path="url(#pe16e51e484)" d="M 576.579808 189 
L 581.815385 189 
L 581.815385 157.088388 
L 576.579808 157.088388 
z
" style="fill:url(#hf63e5de4fb);"/>
   </g>
   <g id="patch_182">
    <path clip-path="url(#pe16e51e484)" d="M 628.935577 189 
L 634.171154 189 
L 634.171154 159.394807 
L 628.935577 159.394807 
z
" style="fill:url(#hf63e5de4fb);"/>
   </g>
   <g id="patch_183">
    <path clip-path="url(#pe16e51e484)" d="M 681.291346 189 
L 686.526923 189 
L 686.526923 156.59355 
L 681.291346 156.59355 
z
" style="fill:url(#hf63e5de4fb);"/>
   </g>
   <g id="patch_184">
    <path clip-path="url(#pe16e51e484)" d="M 733.647115 189 
L 738.882692 189 
L 738.882692 124.097726 
L 733.647115 124.097726 
z
" style="fill:url(#hf63e5de4fb);"/>
   </g>
   <g id="patch_185">
    <path clip-path="url(#pe16e51e484)" d="M 110.613462 189 
L 115.849038 189 
L 115.849038 177.999464 
L 110.613462 177.999464 
z
" style="fill:url(#h7891ff0492);"/>
   </g>
   <g id="patch_186">
    <path clip-path="url(#pe16e51e484)" d="M 162.969231 189 
L 168.204808 189 
L 168.204808 170.684312 
L 162.969231 170.684312 
z
" style="fill:url(#h7891ff0492);"/>
   </g>
   <g id="patch_187">
    <path clip-path="url(#pe16e51e484)" d="M 215.325 189 
L 220.560577 189 
L 220.560577 159.685642 
L 215.325 159.685642 
z
" style="fill:url(#h7891ff0492);"/>
   </g>
   <g id="patch_188">
    <path clip-path="url(#pe16e51e484)" d="M 267.680769 189 
L 272.916346 189 
L 272.916346 177.660731 
L 267.680769 177.660731 
z
" style="fill:url(#h7891ff0492);"/>
   </g>
   <g id="patch_189">
    <path clip-path="url(#pe16e51e484)" d="M 320.036538 189 
L 325.272115 189 
L 325.272115 157.323504 
L 320.036538 157.323504 
z
" style="fill:url(#h7891ff0492);"/>
   </g>
   <g id="patch_190">
    <path clip-path="url(#pe16e51e484)" d="M 372.392308 189 
L 377.627885 189 
L 377.627885 147.305098 
L 372.392308 147.305098 
z
" style="fill:url(#h7891ff0492);"/>
   </g>
   <g id="patch_191">
    <path clip-path="url(#pe16e51e484)" d="M 424.748077 189 
L 429.983654 189 
L 429.983654 160.14123 
L 424.748077 160.14123 
z
" style="fill:url(#h7891ff0492);"/>
   </g>
   <g id="patch_192">
    <path clip-path="url(#pe16e51e484)" d="M 477.103846 189 
L 482.339423 189 
L 482.339423 133.490621 
L 477.103846 133.490621 
z
" style="fill:url(#h7891ff0492);"/>
   </g>
   <g id="patch_193">
    <path clip-path="url(#pe16e51e484)" d="M 529.459615 189 
L 534.695192 189 
L 534.695192 159.967306 
L 529.459615 159.967306 
z
" style="fill:url(#h7891ff0492);"/>
   </g>
   <g id="patch_194">
    <path clip-path="url(#pe16e51e484)" d="M 581.815385 189 
L 587.050962 189 
L 587.050962 159.773824 
L 581.815385 159.773824 
z
" style="fill:url(#h7891ff0492);"/>
   </g>
   <g id="patch_195">
    <path clip-path="url(#pe16e51e484)" d="M 634.171154 189 
L 639.406731 189 
L 639.406731 143.417249 
L 634.171154 143.417249 
z
" style="fill:url(#h7891ff0492);"/>
   </g>
   <g id="patch_196">
    <path clip-path="url(#pe16e51e484)" d="M 686.526923 189 
L 691.7625 189 
L 691.7625 150.500642 
L 686.526923 150.500642 
z
" style="fill:url(#h7891ff0492);"/>
   </g>
   <g id="patch_197">
    <path clip-path="url(#pe16e51e484)" d="M 738.882692 189 
L 744.118269 189 
L 744.118269 109.974584 
L 738.882692 109.974584 
z
" style="fill:url(#h7891ff0492);"/>
   </g>
   <g id="patch_198">
    <path d="M 79.2 189 
L 79.2 106.023313 
" style="fill:none;stroke:#000000;stroke-linecap:square;stroke-linejoin:miter;stroke-width:0.8;"/>
   </g>
   <g id="patch_199">
    <path d="M 759.825 189 
L 759.825 106.023313 
" style="fill:none;stroke:#000000;stroke-linecap:square;stroke-linejoin:miter;stroke-width:0.8;"/>
   </g>
   <g id="patch_200">
    <path d="M 79.2 189 
L 759.825 189 
" style="fill:none;stroke:#000000;stroke-linecap:square;stroke-linejoin:miter;stroke-width:0.8;"/>
   </g>
   <g id="patch_201">
    <path d="M 79.2 106.023313 
L 759.825 106.023313 
" style="fill:none;stroke:#000000;stroke-linecap:square;stroke-linejoin:miter;stroke-width:0.8;"/>
   </g>
  </g>
 </g>
 <defs>
  <clipPath id="pab405ee87c">
   <rect height="82.976687" width="680.625" x="79.2" y="10.7625"/>
  </clipPath>
  <clipPath id="pe16e51e484">
   <rect height="82.976687" width="680.625" x="79.2" y="106.023313"/>
  </clipPath>
 </defs>
 <defs>
  <pattern height="72" id="ha1e89c7500" patternUnits="userSpaceOnUse" width="72" x="0" y="0">
   <rect fill="#ff7f0e" height="73" width="73" x="0" y="0"/>
   <path d="M -36 36 
L 36 -36 
M -33 39 
L 39 -33 
M -30 42 
L 42 -30 
M -27 45 
L 45 -27 
M -24 48 
L 48 -24 
M -21 51 
L 51 -21 
M -18 54 
L 54 -18 
M -15 57 
L 57 -15 
M -12 60 
L 60 -12 
M -9 63 
L 63 -9 
M -6 66 
L 66 -6 
M -3 69 
L 69 -3 
M 0 72 
L 72 0 
M 3 75 
L 75 3 
M 6 78 
L 78 6 
M 9 81 
L 81 9 
M 12 84 
L 84 12 
M 15 87 
L 87 15 
M 18 90 
L 90 18 
M 21 93 
L 93 21 
M 24 96 
L 96 24 
M 27 99 
L 99 27 
M 30 102 
L 102 30 
M 33 105 
L 105 33 
M 36 108 
L 108 36 
" style="fill:#000000;stroke:#000000;stroke-linecap:butt;stroke-linejoin:miter;stroke-width:1.0;"/>
  </pattern>
  <pattern height="72" id="h2b763ecab0" patternUnits="userSpaceOnUse" width="72" x="0" y="0">
   <rect fill="#1f77b4" height="73" width="73" x="0" y="0"/>
   <path d="M -36 36 
L 36 -36 
M -33 39 
L 39 -33 
M -30 42 
L 42 -30 
M -27 45 
L 45 -27 
M -24 48 
L 48 -24 
M -21 51 
L 51 -21 
M -18 54 
L 54 -18 
M -15 57 
L 57 -15 
M -12 60 
L 60 -12 
M -9 63 
L 63 -9 
M -6 66 
L 66 -6 
M -3 69 
L 69 -3 
M 0 72 
L 72 0 
M 3 75 
L 75 3 
M 6 78 
L 78 6 
M 9 81 
L 81 9 
M 12 84 
L 84 12 
M 15 87 
L 87 15 
M 18 90 
L 90 18 
M 21 93 
L 93 21 
M 24 96 
L 96 24 
M 27 99 
L 99 27 
M 30 102 
L 102 30 
M 33 105 
L 105 33 
M 36 108 
L 108 36 
" style="fill:#000000;stroke:#000000;stroke-linecap:butt;stroke-linejoin:miter;stroke-width:1.0;"/>
  </pattern>
  <pattern height="72" id="hf63e5de4fb" patternUnits="userSpaceOnUse" width="72" x="0" y="0">
   <rect fill="#ff7f0e" height="73" width="73" x="0" y="0"/>
   <path d="M -36 36 
L 36 108 
M -33 33 
L 39 105 
M -30 30 
L 42 102 
M -27 27 
L 45 99 
M -24 24 
L 48 96 
M -21 21 
L 51 93 
M -18 18 
L 54 90 
M -15 15 
L 57 87 
M -12 12 
L 60 84 
M -9 9 
L 63 81 
M -6 6 
L 66 78 
M -3 3 
L 69 75 
M 0 0 
L 72 72 
M 3 -3 
L 75 69 
M 6 -6 
L 78 66 
M 9 -9 
L 81 63 
M 12 -12 
L 84 60 
M 15 -15 
L 87 57 
M 18 -18 
L 90 54 
M 21 -21 
L 93 51 
M 24 -24 
L 96 48 
M 27 -27 
L 99 45 
M 30 -30 
L 102 42 
M 33 -33 
L 105 39 
M 36 -36 
L 108 36 
" style="fill:#000000;stroke:#000000;stroke-linecap:butt;stroke-linejoin:miter;stroke-width:1.0;"/>
  </pattern>
  <pattern height="72" id="h7891ff0492" patternUnits="userSpaceOnUse" width="72" x="0" y="0">
   <rect fill="#1f77b4" height="73" width="73" x="0" y="0"/>
   <path d="M -36 36 
L 36 108 
M -33 33 
L 39 105 
M -30 30 
L 42 102 
M -27 27 
L 45 99 
M -24 24 
L 48 96 
M -21 21 
L 51 93 
M -18 18 
L 54 90 
M -15 15 
L 57 87 
M -12 12 
L 60 84 
M -9 9 
L 63 81 
M -6 6 
L 66 78 
M -3 3 
L 69 75 
M 0 0 
L 72 72 
M 3 -3 
L 75 69 
M 6 -6 
L 78 66 
M 9 -9 
L 81 63 
M 12 -12 
L 84 60 
M 15 -15 
L 87 57 
M 18 -18 
L 90 54 
M 21 -21 
L 93 51 
M 24 -24 
L 96 48 
M 27 -27 
L 99 45 
M 30 -30 
L 102 42 
M 33 -33 
L 105 39 
M 36 -36 
L 108 36 
" style="fill:#000000;stroke:#000000;stroke-linecap:butt;stroke-linejoin:miter;stroke-width:1.0;"/>
  </pattern>
 </defs>
</svg>
