<?xml version="1.0" encoding="utf-8" standalone="no"?>
<!DOCTYPE svg PUBLIC "-//W3C//DTD SVG 1.1//EN"
  "http://www.w3.org/Graphics/SVG/1.1/DTD/svg11.dtd">
<!-- Created with matplotlib (https://matplotlib.org/) -->
<svg height="252pt" version="1.1" viewBox="0 0 504 252" width="504pt" xmlns="http://www.w3.org/2000/svg" xmlns:xlink="http://www.w3.org/1999/xlink">
 <defs>
  <style type="text/css">
*{stroke-linecap:butt;stroke-linejoin:round;white-space:pre;}
  </style>
 </defs>
 <g id="figure_1">
  <g id="patch_1">
   <path d="M 0 252 
L 504 252 
L 504 0 
L 0 0 
z
" style="fill:#ffffff;"/>
  </g>
  <g id="axes_1">
   <g id="patch_2">
    <path d="M 50.4 176.4 
L 485.225738 176.4 
L 485.225738 50.4 
L 50.4 50.4 
z
" style="fill:#ffffff;"/>
   </g>
   <g id="patch_3">
    <path clip-path="url(#p29f04845b8)" d="M 50.4 176.4 
L 57.089627 176.4 
L 57.089627 119.826 
L 50.4 119.826 
z
" style="fill:#ff0000;"/>
   </g>
   <g id="patch_4">
    <path clip-path="url(#p29f04845b8)" d="M 83.848134 176.4 
L 90.53776 176.4 
L 90.53776 159.642 
L 83.848134 159.642 
z
" style="fill:#ff0000;"/>
   </g>
   <g id="patch_5">
    <path clip-path="url(#p29f04845b8)" d="M 117.296267 176.4 
L 123.985894 176.4 
L 123.985894 58.086 
L 117.296267 58.086 
z
" style="fill:#ff0000;"/>
   </g>
   <g id="patch_6">
    <path clip-path="url(#p29f04845b8)" d="M 150.744401 176.4 
L 157.434028 176.4 
L 157.434028 145.53 
L 150.744401 145.53 
z
" style="fill:#ff0000;"/>
   </g>
   <g id="patch_7">
    <path clip-path="url(#p29f04845b8)" d="M 184.192535 176.4 
L 190.882162 176.4 
L 190.882162 50.4 
L 184.192535 50.4 
z
" style="fill:#ff0000;"/>
   </g>
   <g id="patch_8">
    <path clip-path="url(#p29f04845b8)" d="M 217.640668 176.4 
L 224.330295 176.4 
L 224.330295 50.4 
L 217.640668 50.4 
z
" style="fill:#ff0000;"/>
   </g>
   <g id="patch_9">
    <path clip-path="url(#p29f04845b8)" d="M 251.088802 176.4 
L 257.778429 176.4 
L 257.778429 58.086 
L 251.088802 58.086 
z
" style="fill:#ff0000;"/>
   </g>
   <g id="patch_10">
    <path clip-path="url(#p29f04845b8)" d="M 284.536936 176.4 
L 291.226563 176.4 
L 291.226563 50.4 
L 284.536936 50.4 
z
" style="fill:#ff0000;"/>
   </g>
   <g id="patch_11">
    <path clip-path="url(#p29f04845b8)" d="M 317.98507 176.4 
L 324.674696 176.4 
L 324.674696 58.086 
L 317.98507 58.086 
z
" style="fill:#ff0000;"/>
   </g>
   <g id="patch_12">
    <path clip-path="url(#p29f04845b8)" d="M 351.433203 176.4 
L 358.12283 176.4 
L 358.12283 50.4 
L 351.433203 50.4 
z
" style="fill:#ff0000;"/>
   </g>
   <g id="patch_13">
    <path clip-path="url(#p29f04845b8)" d="M 384.881337 176.4 
L 391.570964 176.4 
L 391.570964 123.732 
L 384.881337 123.732 
z
" style="fill:#ff0000;"/>
   </g>
   <g id="patch_14">
    <path clip-path="url(#p29f04845b8)" d="M 418.329471 176.4 
L 425.019097 176.4 
L 425.019097 88.956 
L 418.329471 88.956 
z
" style="fill:#ff0000;"/>
   </g>
   <g id="patch_15">
    <path clip-path="url(#p29f04845b8)" d="M 451.777604 176.4 
L 458.467231 176.4 
L 458.467231 133.938 
L 451.777604 133.938 
z
" style="fill:#ff0000;"/>
   </g>
   <g id="patch_16">
    <path clip-path="url(#p29f04845b8)" d="M 57.089627 176.4 
L 63.779253 176.4 
L 63.779253 145.53 
L 57.089627 145.53 
z
" style="fill:#ffd700;"/>
   </g>
   <g id="patch_17">
    <path clip-path="url(#p29f04845b8)" d="M 90.53776 176.4 
L 97.227387 176.4 
L 97.227387 161.028 
L 90.53776 161.028 
z
" style="fill:#ffd700;"/>
   </g>
   <g id="patch_18">
    <path clip-path="url(#p29f04845b8)" d="M 123.985894 176.4 
L 130.675521 176.4 
L 130.675521 140.364 
L 123.985894 140.364 
z
" style="fill:#ffd700;"/>
   </g>
   <g id="patch_19">
    <path clip-path="url(#p29f04845b8)" d="M 157.434028 176.4 
L 164.123655 176.4 
L 164.123655 161.028 
L 157.434028 161.028 
z
" style="fill:#ffd700;"/>
   </g>
   <g id="patch_20">
    <path clip-path="url(#p29f04845b8)" d="M 190.882162 176.4 
L 197.571788 176.4 
L 197.571788 166.068 
L 190.882162 166.068 
z
" style="fill:#ffd700;"/>
   </g>
   <g id="patch_21">
    <path clip-path="url(#p29f04845b8)" d="M 224.330295 176.4 
L 231.019922 176.4 
L 231.019922 86.436 
L 224.330295 86.436 
z
" style="fill:#ffd700;"/>
   </g>
   <g id="patch_22">
    <path clip-path="url(#p29f04845b8)" d="M 257.778429 176.4 
L 264.468056 176.4 
L 264.468056 149.436 
L 257.778429 149.436 
z
" style="fill:#ffd700;"/>
   </g>
   <g id="patch_23">
    <path clip-path="url(#p29f04845b8)" d="M 291.226563 176.4 
L 297.916189 176.4 
L 297.916189 86.436 
L 291.226563 86.436 
z
" style="fill:#ffd700;"/>
   </g>
   <g id="patch_24">
    <path clip-path="url(#p29f04845b8)" d="M 324.674696 176.4 
L 331.364323 176.4 
L 331.364323 50.4 
L 324.674696 50.4 
z
" style="fill:#ffd700;"/>
   </g>
   <g id="patch_25">
    <path clip-path="url(#p29f04845b8)" d="M 358.12283 176.4 
L 364.812457 176.4 
L 364.812457 151.956 
L 358.12283 151.956 
z
" style="fill:#ffd700;"/>
   </g>
   <g id="patch_26">
    <path clip-path="url(#p29f04845b8)" d="M 391.570964 176.4 
L 398.26059 176.4 
L 398.26059 50.4 
L 391.570964 50.4 
z
" style="fill:#ffd700;"/>
   </g>
   <g id="patch_27">
    <path clip-path="url(#p29f04845b8)" d="M 425.019097 176.4 
L 431.708724 176.4 
L 431.708724 50.4 
L 425.019097 50.4 
z
" style="fill:#ffd700;"/>
   </g>
   <g id="patch_28">
    <path clip-path="url(#p29f04845b8)" d="M 458.467231 176.4 
L 465.156858 176.4 
L 465.156858 50.4 
L 458.467231 50.4 
z
" style="fill:#ffd700;"/>
   </g>
   <g id="patch_29">
    <path clip-path="url(#p29f04845b8)" d="M 63.779253 176.4 
L 70.46888 176.4 
L 70.46888 48.677143 
L 63.779253 48.677143 
z
" style="fill:url(#he9d2315e26);"/>
   </g>
   <g id="patch_30">
    <path clip-path="url(#p29f04845b8)" d="M 97.227387 176.4 
L 103.917014 176.4 
L 103.917014 176.168571 
L 97.227387 176.168571 
z
" style="fill:url(#he9d2315e26);"/>
   </g>
   <g id="patch_31">
    <path clip-path="url(#p29f04845b8)" d="M 130.675521 176.4 
L 137.365148 176.4 
L 137.365148 69.814286 
L 130.675521 69.814286 
z
" style="fill:url(#he9d2315e26);"/>
   </g>
   <g id="patch_32">
    <path clip-path="url(#p29f04845b8)" d="M 164.123655 176.4 
L 170.813281 176.4 
L 170.813281 48.702857 
L 164.123655 48.702857 
z
" style="fill:url(#he9d2315e26);"/>
   </g>
   <g id="patch_33">
    <path clip-path="url(#p29f04845b8)" d="M 197.571788 176.4 
L 204.261415 176.4 
L 204.261415 176.4 
L 197.571788 176.4 
z
" style="fill:url(#he9d2315e26);"/>
   </g>
   <g id="patch_34">
    <path clip-path="url(#p29f04845b8)" d="M 231.019922 176.4 
L 237.709549 176.4 
L 237.709549 169.534286 
L 231.019922 169.534286 
z
" style="fill:url(#he9d2315e26);"/>
   </g>
   <g id="patch_35">
    <path clip-path="url(#p29f04845b8)" d="M 264.468056 176.4 
L 271.157682 176.4 
L 271.157682 155.031429 
L 264.468056 155.031429 
z
" style="fill:url(#he9d2315e26);"/>
   </g>
   <g id="patch_36">
    <path clip-path="url(#p29f04845b8)" d="M 297.916189 176.4 
L 304.605816 176.4 
L 304.605816 168.66 
L 297.916189 168.66 
z
" style="fill:url(#he9d2315e26);"/>
   </g>
   <g id="patch_37">
    <path clip-path="url(#p29f04845b8)" d="M 331.364323 176.4 
L 338.05395 176.4 
L 338.05395 58.885714 
L 331.364323 58.885714 
z
" style="fill:url(#he9d2315e26);"/>
   </g>
   <g id="patch_38">
    <path clip-path="url(#p29f04845b8)" d="M 364.812457 176.4 
L 371.502083 176.4 
L 371.502083 146.828571 
L 364.812457 146.828571 
z
" style="fill:url(#he9d2315e26);"/>
   </g>
   <g id="patch_39">
    <path clip-path="url(#p29f04845b8)" d="M 398.26059 176.4 
L 404.950217 176.4 
L 404.950217 176.4 
L 398.26059 176.4 
z
" style="fill:url(#he9d2315e26);"/>
   </g>
   <g id="patch_40">
    <path clip-path="url(#p29f04845b8)" d="M 431.708724 176.4 
L 438.398351 176.4 
L 438.398351 176.4 
L 431.708724 176.4 
z
" style="fill:url(#he9d2315e26);"/>
   </g>
   <g id="patch_41">
    <path clip-path="url(#p29f04845b8)" d="M 465.156858 176.4 
L 471.846485 176.4 
L 471.846485 123.66 
L 465.156858 123.66 
z
" style="fill:url(#he9d2315e26);"/>
   </g>
   <g id="patch_42">
    <path clip-path="url(#p29f04845b8)" d="M 63.779253 48.677143 
L 70.46888 48.677143 
L 70.46888 48.677143 
L 63.779253 48.677143 
z
" style="fill:url(#h7e28cd493f);"/>
   </g>
   <g id="patch_43">
    <path clip-path="url(#p29f04845b8)" d="M 97.227387 176.168571 
L 103.917014 176.168571 
L 103.917014 53.665714 
L 97.227387 53.665714 
z
" style="fill:url(#h7e28cd493f);"/>
   </g>
   <g id="patch_44">
    <path clip-path="url(#p29f04845b8)" d="M 130.675521 69.814286 
L 137.365148 69.814286 
L 137.365148 52.045714 
L 130.675521 52.045714 
z
" style="fill:url(#h7e28cd493f);"/>
   </g>
   <g id="patch_45">
    <path clip-path="url(#p29f04845b8)" d="M 164.123655 48.702857 
L 170.813281 48.702857 
L 170.813281 48.702857 
L 164.123655 48.702857 
z
" style="fill:url(#h7e28cd493f);"/>
   </g>
   <g id="patch_46">
    <path clip-path="url(#p29f04845b8)" d="M 197.571788 176.4 
L 204.261415 176.4 
L 204.261415 55.362857 
L 197.571788 55.362857 
z
" style="fill:url(#h7e28cd493f);"/>
   </g>
   <g id="patch_47">
    <path clip-path="url(#p29f04845b8)" d="M 231.019922 169.534286 
L 237.709549 169.534286 
L 237.709549 168.685714 
L 231.019922 168.685714 
z
" style="fill:url(#h7e28cd493f);"/>
   </g>
   <g id="patch_48">
    <path clip-path="url(#p29f04845b8)" d="M 264.468056 155.031429 
L 271.157682 155.031429 
L 271.157682 149.708571 
L 264.468056 149.708571 
z
" style="fill:url(#h7e28cd493f);"/>
   </g>
   <g id="patch_49">
    <path clip-path="url(#p29f04845b8)" d="M 297.916189 168.66 
L 304.605816 168.66 
L 304.605816 168.634286 
L 297.916189 168.634286 
z
" style="fill:url(#h7e28cd493f);"/>
   </g>
   <g id="patch_50">
    <path clip-path="url(#p29f04845b8)" d="M 331.364323 58.885714 
L 338.05395 58.885714 
L 338.05395 58.885714 
L 331.364323 58.885714 
z
" style="fill:url(#h7e28cd493f);"/>
   </g>
   <g id="patch_51">
    <path clip-path="url(#p29f04845b8)" d="M 364.812457 146.828571 
L 371.502083 146.828571 
L 371.502083 146.828571 
L 364.812457 146.828571 
z
" style="fill:url(#h7e28cd493f);"/>
   </g>
   <g id="patch_52">
    <path clip-path="url(#p29f04845b8)" d="M 398.26059 176.4 
L 404.950217 176.4 
L 404.950217 176.4 
L 398.26059 176.4 
z
" style="fill:url(#h7e28cd493f);"/>
   </g>
   <g id="patch_53">
    <path clip-path="url(#p29f04845b8)" d="M 431.708724 176.4 
L 438.398351 176.4 
L 438.398351 176.4 
L 431.708724 176.4 
z
" style="fill:url(#h7e28cd493f);"/>
   </g>
   <g id="patch_54">
    <path clip-path="url(#p29f04845b8)" d="M 465.156858 123.66 
L 471.846485 123.66 
L 471.846485 123.66 
L 465.156858 123.66 
z
" style="fill:url(#h7e28cd493f);"/>
   </g>
   <g id="matplotlib.axis_1">
    <g id="xtick_1">
     <g id="line2d_1">
      <defs>
       <path d="M 0 0 
L 0 3.5 
" id="m5dc72ab88c" style="stroke:#000000;stroke-width:0.8;"/>
      </defs>
      <g>
       <use style="stroke:#000000;stroke-width:0.8;" x="50.4" xlink:href="#m5dc72ab88c" y="176.4"/>
      </g>
     </g>
     <g id="text_1">
      <!-- \textbf{DotProduct} -->
      <defs>
       <path d="M 3.796875 68.28125 
L 3.796875 64 
L 14.40625 64 
L 14.40625 4.265625 
L 3.796875 4.265625 
L 3.796875 0 
L 45.90625 0 
C 65.09375 0 79.90625 12.234375 79.90625 33.546875 
C 79.90625 56.046875 64.703125 68.28125 45.90625 68.28125 
z
M 27.09375 4.265625 
L 27.09375 64 
L 42.09375 64 
C 50.796875 64 57.796875 60.625 61.5 55.4375 
C 64.40625 51.359375 66.296875 46.484375 66.296875 33.640625 
C 66.296875 21.984375 64.796875 16.828125 61.296875 12.140625 
C 57.796875 7.546875 51.09375 4.265625 42.09375 4.265625 
z
" id="CMBX12-68"/>
       <path d="M 53 21.796875 
C 53 35.1875 43.796875 45 28.09375 45 
C 11.796875 45 3.09375 34.6875 3.09375 21.796875 
C 3.09375 8.828125 12.296875 -0.5 28 -0.5 
C 44.296875 -0.5 53 9.3125 53 21.796875 
z
M 28.09375 3.078125 
C 15.09375 3.078125 15.09375 14.671875 15.09375 22.796875 
C 15.09375 27.453125 15.09375 32.40625 17 35.984375 
C 19.203125 39.9375 23.703125 41.71875 28 41.71875 
C 33.703125 41.71875 37.296875 39.046875 39 36.28125 
C 41 32.703125 41 27.546875 41 22.796875 
C 41 14.5625 41 3.078125 28.09375 3.078125 
z
" id="CMBX12-111"/>
       <path d="M 21.09375 40 
L 35.5 40 
L 35.5 44.265625 
L 21.09375 44.265625 
L 21.09375 63 
L 16.90625 63 
C 16.796875 53.203125 12 43.375 2.09375 43.375 
L 2.09375 40 
L 10.203125 40 
L 10.203125 12.328125 
C 10.203125 1.78125 18.40625 -0.5 25.59375 -0.5 
C 33 -0.5 37.40625 5.078125 37.40625 12.421875 
L 37.40625 17.703125 
L 33.203125 17.703125 
L 33.203125 12.53125 
C 33.203125 5.953125 30.203125 3.078125 27.09375 3.078125 
C 21.09375 3.078125 21.09375 9.75 21.09375 12.03125 
z
" id="CMBX12-116"/>
       <path d="M 27.59375 30.21875 
L 44.59375 30.21875 
C 61.296875 30.21875 70.59375 38.65625 70.59375 48.875 
C 70.59375 59.5625 61.09375 68 44.59375 68 
L 3.796875 68 
L 3.796875 63.71875 
L 14.40625 63.71875 
L 14.40625 4.171875 
L 3.796875 4.171875 
L 3.796875 0 
C 6.703125 0 17.40625 0 21 0 
C 24.59375 0 35.296875 0 38.203125 0 
L 38.203125 4.171875 
L 27.59375 4.171875 
z
M 41 63.71875 
C 56.5 63.71875 56.5 55.59375 56.5 48.859375 
C 56.5 42.328125 56.5 34 41 34 
L 27.09375 34 
L 27.09375 63.71875 
z
" id="CMBX12-80"/>
       <path d="M 20.796875 22.046875 
C 20.796875 25.296875 21.5 41 33.203125 41 
C 31.796875 39.921875 31.09375 38.25 31.09375 36.5 
C 31.09375 32.484375 34.40625 30.8125 36.90625 30.8125 
C 39.40625 30.8125 42.703125 32.484375 42.703125 36.515625 
C 42.703125 41.53125 37.5 44.28125 32.703125 44.28125 
C 24.796875 44.28125 21.40625 37.515625 20 33.390625 
L 19.90625 33.390625 
L 19.90625 44 
L 3.5 44 
L 3.5 39.328125 
C 9.703125 39.328125 10.40625 39.328125 10.40625 35.46875 
L 10.40625 4.0625 
L 3.5 4.0625 
L 3.5 -0.203125 
C 5.796875 0 13.296875 0 16.09375 0 
C 19 0 27.09375 0 29.5 -0.203125 
L 29.5 4.0625 
L 20.796875 4.0625 
z
" id="CMBX12-114"/>
       <path d="M 34.703125 69 
L 34.703125 64.328125 
C 40.90625 64.328125 41.59375 64.328125 41.59375 60.421875 
L 41.59375 40.234375 
C 39.40625 42.125 35 45 28.09375 45 
C 13.90625 45 3.796875 36.21875 3.796875 22.25 
C 3.796875 7.96875 13.703125 -0.5 27 -0.5 
C 32.5 -0.5 37.203125 1.46875 41.09375 4.859375 
L 41.09375 0 
L 58.90625 0 
L 58.90625 4.5625 
C 52.703125 4.5625 52 4.5625 52 8.4375 
L 52 69 
z
M 41.09375 10.328125 
C 36.90625 4.09375 31.796875 2.78125 28.203125 2.78125 
C 15.796875 2.78125 15.796875 15.453125 15.796875 22.046875 
C 15.796875 26.75 15.796875 31.75 18 35.53125 
C 21.09375 41.125 27 41.71875 29.296875 41.71875 
C 33.40625 41.71875 37.796875 39.9375 41.09375 35.5625 
z
" id="CMBX12-100"/>
       <path d="M 35.296875 44.671875 
L 35.296875 40 
C 41.5 40 42.203125 40 42.203125 36.125 
L 42.203125 16.5 
C 42.203125 8.890625 37.703125 2.78125 29.90625 2.78125 
C 22.40625 2.78125 22 5.265625 22 10.6875 
L 22 44.671875 
L 4.203125 44.671875 
L 4.203125 40 
C 10.40625 40 11.09375 40 11.09375 36.125 
L 11.09375 12.40625 
C 11.09375 2.390625 17.796875 -0.5 28.5 -0.5 
C 30.90625 -0.5 38.296875 -0.5 42.59375 7.75 
L 42.703125 7.75 
L 42.703125 0 
L 60 0 
L 60 4.5625 
C 53.796875 4.5625 53.09375 4.5625 53.09375 8.4375 
L 53.09375 44.671875 
z
" id="CMBX12-117"/>
       <path d="M 46.796875 11.765625 
C 46.796875 12.953125 45.703125 12.953125 44.703125 12.953125 
C 43.09375 12.953125 43 12.859375 42.5 11.671875 
C 41.796875 9.765625 39.09375 3.078125 29.90625 3.078125 
C 15.796875 3.078125 15.796875 18.21875 15.796875 22.703125 
C 15.796875 28.578125 15.90625 41.625 29 41.625 
C 29.703125 41.625 35.59375 41.625 35.59375 41.125 
C 35.59375 41 35.5 40.90625 35.296875 40.8125 
C 35 40.515625 33.703125 39 33.703125 36.46875 
C 33.703125 32.25 37.09375 30.53125 39.59375 30.53125 
C 41.703125 30.53125 45.5 31.859375 45.5 36.65625 
C 45.5 45 34 45 28.59375 45 
C 10.796875 45 3.796875 33.515625 3.796875 22.09375 
C 3.796875 8.625 13.296875 -0.5 28 -0.5 
C 43.703125 -0.5 46.796875 11.0625 46.796875 11.765625 
z
" id="CMBX12-99"/>
      </defs>
      <g transform="translate(25.434865 234.880397)rotate(-40)scale(0.12 -0.12)">
       <use transform="scale(0.996264)" xlink:href="#CMBX12-68"/>
       <use transform="translate(85.904786 0)scale(0.996264)" xlink:href="#CMBX12-111"/>
       <use transform="translate(141.944636 0)scale(0.996264)" xlink:href="#CMBX12-116"/>
       <use transform="translate(185.531187 0)scale(0.996264)" xlink:href="#CMBX12-80"/>
       <use transform="translate(262.095997 0)scale(0.996264)" xlink:href="#CMBX12-114"/>
       <use transform="translate(307.873505 0)scale(0.996264)" xlink:href="#CMBX12-111"/>
       <use transform="translate(367.02668 0)scale(0.996264)" xlink:href="#CMBX12-100"/>
       <use transform="translate(429.293181 0)scale(0.996264)" xlink:href="#CMBX12-117"/>
       <use transform="translate(491.559682 0)scale(0.996264)" xlink:href="#CMBX12-99"/>
       <use transform="translate(541.372882 0)scale(0.996264)" xlink:href="#CMBX12-116"/>
      </g>
     </g>
    </g>
    <g id="xtick_2">
     <g id="line2d_2">
      <g>
       <use style="stroke:#000000;stroke-width:0.8;" x="83.848134" xlink:href="#m5dc72ab88c" y="176.4"/>
      </g>
     </g>
     <g id="text_2">
      <!-- \textbf{OuterProduct} -->
      <defs>
       <path d="M 78.203125 33.3125 
C 78.203125 54.453125 64.40625 69 42.203125 69 
C 19.90625 69 6.203125 54.34375 6.203125 33.3125 
C 6.203125 12.28125 20.203125 -1.765625 42.203125 -1.765625 
C 64.203125 -1.765625 78.203125 12.28125 78.203125 33.3125 
z
M 42.203125 2 
C 35.703125 2 29.40625 5.09375 25.59375 10.78125 
C 20.796875 18.0625 20.296875 27.4375 20.296875 34.71875 
C 20.296875 40.796875 20.59375 49.171875 24.703125 55.953125 
C 29.09375 62.921875 36.296875 65.421875 42.203125 65.421875 
C 50.296875 65.421875 56.296875 61.140625 59.203125 56.65625 
C 62.90625 50.875 64.09375 44.6875 64.09375 34.71875 
C 64.09375 24.828125 63 16.5625 58 9.6875 
C 55.5 6.296875 50 2 42.203125 2 
z
" id="CMBX12-79"/>
       <path d="M 45.203125 22 
C 47.5 22 48.09375 22 48.09375 24.484375 
C 48.09375 27.46875 47.40625 34.890625 42.796875 39.5625 
C 38.59375 43.71875 33 45 27.203125 45 
C 11.59375 45 3.09375 34.890625 3.09375 22.40625 
C 3.09375 8.515625 13.40625 -0.5 28.5 -0.5 
C 43.59375 -0.5 48.09375 10 48.09375 11.6875 
C 48.09375 13.171875 46.59375 13.171875 46 13.171875 
C 44.40625 13.171875 44.296875 12.875 43.703125 11.59375 
C 41.09375 5.15625 34.5 3.078125 29.703125 3.078125 
C 15.203125 3.078125 15.09375 16.453125 15.09375 22 
z
M 15.09375 24.890625 
C 15.296875 28.9375 15.40625 32.8125 17.5 36.375 
C 19.40625 39.546875 22.90625 41.71875 27.203125 41.71875 
C 37.90625 41.71875 38.796875 29.828125 38.90625 24.890625 
z
" id="CMBX12-101"/>
      </defs>
      <g transform="translate(54.221764 242.702877)rotate(-40)scale(0.12 -0.12)">
       <use transform="scale(0.996264)" xlink:href="#CMBX12-79"/>
       <use transform="translate(84.175021 0)scale(0.996264)" xlink:href="#CMBX12-117"/>
       <use transform="translate(146.441521 0)scale(0.996264)" xlink:href="#CMBX12-116"/>
       <use transform="translate(190.028072 0)scale(0.996264)" xlink:href="#CMBX12-101"/>
       <use transform="translate(241.167339 0)scale(0.996264)" xlink:href="#CMBX12-114"/>
       <use transform="translate(286.944846 0)scale(0.996264)" xlink:href="#CMBX12-80"/>
       <use transform="translate(363.509657 0)scale(0.996264)" xlink:href="#CMBX12-114"/>
       <use transform="translate(409.287164 0)scale(0.996264)" xlink:href="#CMBX12-111"/>
       <use transform="translate(468.44034 0)scale(0.996264)" xlink:href="#CMBX12-100"/>
       <use transform="translate(530.70684 0)scale(0.996264)" xlink:href="#CMBX12-117"/>
       <use transform="translate(592.973341 0)scale(0.996264)" xlink:href="#CMBX12-99"/>
       <use transform="translate(642.786541 0)scale(0.996264)" xlink:href="#CMBX12-116"/>
      </g>
     </g>
    </g>
    <g id="xtick_3">
     <g id="line2d_3">
      <g>
       <use style="stroke:#000000;stroke-width:0.8;" x="117.296267" xlink:href="#m5dc72ab88c" y="176.4"/>
      </g>
     </g>
     <g id="text_3">
      <!-- \textbf{BlackScholes} -->
      <defs>
       <path d="M 3.90625 68.28125 
L 3.90625 64 
L 14.5 64 
L 14.5 4.265625 
L 3.90625 4.265625 
L 3.90625 0 
L 49.09375 0 
C 65.59375 0 73.703125 8.828125 73.703125 18.34375 
C 73.703125 27.78125 65.40625 34.625 53.296875 35.515625 
C 67.703125 38.21875 70.5 46.40625 70.5 51.09375 
C 70.5 60.28125 62.09375 68.28125 46.09375 68.28125 
z
M 26.796875 37 
L 26.796875 64 
L 44.90625 64 
C 55.203125 64 57.296875 56.203125 57.296875 51.1875 
C 57.296875 44.1875 53.40625 37 41.703125 37 
z
M 26.796875 4.265625 
L 26.796875 33.71875 
L 46.703125 33.71875 
C 58.40625 33.71875 60.09375 23 60.09375 18.546875 
C 60.09375 12.296875 56.703125 4.265625 45.203125 4.265625 
z
" id="CMBX12-66"/>
       <path d="M 21.703125 69 
L 4.40625 69 
L 4.40625 64.328125 
C 10.59375 64.328125 11.296875 64.328125 11.296875 60.40625 
L 11.296875 4.0625 
L 4.40625 4.0625 
L 4.40625 -0.203125 
C 6.703125 0 13.796875 0 16.5 0 
C 19.203125 0 26.296875 0 28.59375 -0.203125 
L 28.59375 4.0625 
L 21.703125 4.0625 
z
" id="CMBX12-108"/>
       <path d="M 46 29.65625 
C 46 38.8125 38.703125 44.984375 24.59375 44.984375 
C 19 44.984375 7.203125 44.984375 7.203125 36.46875 
C 7.203125 32.203125 10.40625 30.390625 13.09375 30.390625 
C 16.09375 30.390625 19 32.484375 19 36.296875 
C 19 38.203125 18.296875 39.984375 16.59375 41.09375 
C 19.90625 42 22.296875 42 24.203125 42 
C 31 42 35.09375 38.203125 35.09375 29.984375 
L 35.09375 25.984375 
C 19.296875 25.984375 3.40625 21.59375 3.40625 10.5625 
C 3.40625 1.484375 15 -0.5 21.90625 -0.5 
C 29.59375 -0.5 34.5 3.640625 36.5 7.96875 
C 36.5 4.28125 36.5 0 46.59375 0 
L 51.703125 0 
C 53.796875 0 54.59375 0 54.59375 2.265625 
C 54.59375 4.265625 53.703125 4.265625 52.296875 4.265625 
C 46 4.265625 46 5.84375 46 8.15625 
z
M 35.09375 13.78125 
C 35.09375 4.546875 26.703125 2.78125 23.5 2.78125 
C 18.59375 2.78125 14.5 6.09375 14.5 10.71875 
C 14.5 19.890625 25.296875 23 35.09375 23 
z
" id="CMBX12-97"/>
       <path d="M 33.203125 27.8125 
L 45.796875 38.03125 
C 47 39.03125 48.09375 39.9375 55 39.9375 
L 55 44.203125 
C 52.40625 44 50.40625 44 46.703125 44 
C 44.09375 44 38.5 44 36.203125 44.203125 
L 36.203125 39.9375 
C 37.40625 39.9375 39.796875 39.640625 39.796875 38.828125 
C 39.796875 38.421875 39.203125 38.03125 39 37.828125 
L 20.796875 23.203125 
L 20.796875 69 
L 3.5 69 
L 3.5 64.328125 
C 9.703125 64.328125 10.40625 64.328125 10.40625 60.390625 
L 10.40625 4.0625 
L 3.5 4.0625 
L 3.5 -0.203125 
C 5.796875 0 12.703125 0 15.40625 0 
C 18.09375 0 25 0 27.296875 -0.203125 
L 27.296875 4.0625 
L 20.40625 4.0625 
L 20.40625 17.484375 
C 22 18.703125 23.5 19.984375 25.703125 21.796875 
L 37.796875 6.171875 
C 38.5 5.375 38.5 5.171875 38.5 5.078125 
C 38.5 4.0625 36.5 4.0625 35.09375 4.0625 
L 35.09375 -0.203125 
C 37.5 0 44.09375 0 46.796875 0 
C 51.90625 0 53.296875 0 57.5 0 
L 57.5 4.0625 
C 55.90625 4.0625 53.90625 4.0625 52.796875 4.171875 
C 51.40625 4.46875 51 4.765625 49.90625 6.171875 
z
" id="CMBX12-107"/>
       <path d="M 25.40625 43.46875 
C 15.5 45.625 15.203125 52.75 15.203125 54.140625 
C 15.203125 59.171875 18.5 65.03125 28.203125 65.03125 
C 37.90625 65.03125 46.59375 60.359375 48.703125 47.34375 
C 49 45.25 49 45.25 50.90625 45.25 
C 53 45.25 53 45.546875 53 47.8125 
L 53 66.4375 
C 53 68.3125 53 69.015625 51.5 69.015625 
C 50.796875 69.015625 50.5 68.921875 49.59375 67.921875 
L 45.296875 63.046875 
C 42.796875 65.140625 37.796875 69 28.09375 69 
C 13.796875 69 6.203125 60.09375 6.203125 49.3125 
C 6.203125 42.6875 9.796875 38.03125 11.203125 36.640625 
C 16.40625 31.5 19.203125 30.90625 29.59375 28.625 
C 39.59375 26.453125 40.796875 26.25 43 24.1875 
C 44.296875 22.890625 47.203125 20.125 47.203125 15.078125 
C 47.203125 10.8125 45.09375 3 33.90625 3 
C 25.09375 3 11.203125 5.96875 10.40625 20.421875 
C 10.296875 22.203125 10.296875 22.5 8.296875 22.5 
C 6.203125 22.5 6.203125 22.203125 6.203125 19.921875 
L 6.203125 1.296875 
C 6.203125 -0.59375 6.203125 -1.28125 7.703125 -1.28125 
C 8.40625 -1.28125 8.5 -1.1875 9.5 -0.296875 
C 10.59375 0.796875 11.5 2.09375 14 4.578125 
C 19.796875 0.015625 28 -1.265625 34 -1.265625 
C 49.59375 -1.265625 56.203125 9.21875 56.203125 19.71875 
C 56.203125 29 50 37.90625 39.09375 40.375 
z
" id="CMBX12-83"/>
       <path d="M 53.09375 30.0625 
C 53.09375 39.453125 49 44.28125 38 44.28125 
C 27.90625 44.28125 23 37.25 21.59375 34.28125 
L 21.5 34.28125 
L 21.5 69 
L 4.203125 69 
L 4.203125 64.328125 
C 10.40625 64.328125 11.09375 64.328125 11.09375 60.28125 
L 11.09375 4.0625 
L 4.203125 4.0625 
L 4.203125 -0.203125 
C 6.5 0 13.703125 0 16.5 0 
C 19.296875 0 26.59375 0 28.90625 -0.203125 
L 28.90625 4.0625 
L 22 4.0625 
L 22 25.109375 
C 22 35.765625 30 41 36.40625 41 
C 40.09375 41 42.203125 38.640625 42.203125 31.140625 
L 42.203125 4.0625 
L 35.296875 4.0625 
L 35.296875 -0.203125 
C 37.59375 0 44.796875 0 47.59375 0 
C 50.40625 0 57.703125 0 60 -0.203125 
L 60 4.0625 
L 53.09375 4.0625 
z
" id="CMBX12-104"/>
       <path d="M 37.703125 42.421875 
C 37.703125 44.3125 37.703125 45 36.203125 45 
C 35.59375 45 35.40625 45 33.90625 44.109375 
C 33.5 43.8125 32.40625 43.109375 31.90625 42.8125 
C 29.09375 44.40625 25.40625 45 21.796875 45 
C 18.796875 45 3.796875 45 3.796875 32.125 
C 3.796875 21.703125 16.203125 19.53125 19.296875 19.03125 
C 22 18.546875 25.296875 17.9375 25.703125 17.9375 
C 29.703125 17.046875 33.703125 14.5625 33.703125 10.40625 
C 33.703125 2.78125 24.59375 2.78125 22.5 2.78125 
C 17.40625 2.78125 11.09375 4.359375 8.296875 14 
C 7.703125 15.984375 7.59375 15.984375 5.90625 15.984375 
C 3.796875 15.984375 3.796875 15.6875 3.796875 13.40625 
L 3.796875 2.0625 
C 3.796875 0.1875 3.796875 -0.5 5.296875 -0.5 
C 6 -0.5 6.203125 -0.5 8.203125 1.09375 
L 10.796875 2.984375 
C 15.296875 -0.5 20.703125 -0.5 22.5 -0.5 
C 28 -0.5 40.5 0.6875 40.5 13.875 
C 40.5 18.625 37.90625 21.90625 35.90625 23.6875 
C 31.796875 27.046875 28.40625 27.65625 23 28.640625 
C 16.59375 29.734375 10.59375 30.828125 10.59375 35.578125 
C 10.59375 42.015625 19.5 42.015625 21.59375 42.015625 
C 32.703125 42.015625 33.296875 35.078125 33.5 32.609375 
C 33.59375 31.328125 34.40625 31.328125 35.59375 31.328125 
C 37.703125 31.328125 37.703125 31.625 37.703125 33.90625 
z
" id="CMBX12-115"/>
      </defs>
      <g transform="translate(90.49526 237.961356)rotate(-40)scale(0.12 -0.12)">
       <use transform="scale(0.996264)" xlink:href="#CMBX12-66"/>
       <use transform="translate(79.678136 0)scale(0.996264)" xlink:href="#CMBX12-108"/>
       <use transform="translate(110.811386 0)scale(0.996264)" xlink:href="#CMBX12-97"/>
       <use transform="translate(165.294574 0)scale(0.996264)" xlink:href="#CMBX12-99"/>
       <use transform="translate(211.99445 0)scale(0.996264)" xlink:href="#CMBX12-107"/>
       <use transform="translate(271.147625 0)scale(0.996264)" xlink:href="#CMBX12-83"/>
       <use transform="translate(333.414126 0)scale(0.996264)" xlink:href="#CMBX12-99"/>
       <use transform="translate(380.114001 0)scale(0.996264)" xlink:href="#CMBX12-104"/>
       <use transform="translate(442.380502 0)scale(0.996264)" xlink:href="#CMBX12-111"/>
       <use transform="translate(498.420352 0)scale(0.996264)" xlink:href="#CMBX12-108"/>
       <use transform="translate(529.553603 0)scale(0.996264)" xlink:href="#CMBX12-101"/>
       <use transform="translate(580.69287 0)scale(0.996264)" xlink:href="#CMBX12-115"/>
      </g>
     </g>
    </g>
    <g id="xtick_4">
     <g id="line2d_4">
      <g>
       <use style="stroke:#000000;stroke-width:0.8;" x="150.744401" xlink:href="#m5dc72ab88c" y="176.4"/>
      </g>
     </g>
     <g id="text_4">
      <!-- \textbf{TPCHQ6} -->
      <defs>
       <path d="M 72 67.265625 
L 6.09375 67.265625 
L 4.09375 43.703125 
L 8.296875 43.703125 
C 9.203125 54.546875 10 63 24.40625 63 
L 32.5 63 
L 32.5 4.171875 
L 17.40625 4.171875 
L 17.40625 0 
C 25.40625 0 35.703125 0 39.09375 0 
C 45.203125 0 52.796875 0 60.796875 0 
L 60.796875 4.171875 
L 45.703125 4.171875 
L 45.703125 63 
L 53.703125 63 
C 68.09375 63 68.90625 54.640625 69.796875 43.703125 
L 74 43.703125 
z
" id="CMBX12-84"/>
       <path d="M 74.90625 66.4375 
C 74.90625 68.71875 74.90625 69.015625 72.703125 69.015625 
L 65.203125 61.859375 
C 59.59375 66.609375 52.90625 69 45.5 69 
C 21.59375 69 6.203125 54.640625 6.203125 33.859375 
C 6.203125 13.46875 21.09375 -1.265625 45.59375 -1.265625 
C 63.40625 -1.265625 74.90625 10.796875 74.90625 22.484375 
C 74.90625 24.171875 74.296875 24.171875 72.796875 24.171875 
C 71.796875 24.171875 70.796875 24.171875 70.703125 23.1875 
C 69.796875 8.15625 56.90625 3 47.90625 3 
C 41.40625 3 32.59375 4.796875 27 11.015625 
C 23.5 14.78125 20.296875 20.203125 20.296875 33.859375 
C 20.296875 43.5625 21.796875 50.78125 26.5 56.3125 
C 32.90625 63.734375 42.90625 64.734375 47.703125 64.734375 
C 55.203125 64.734375 67.296875 60.5625 70.296875 43.15625 
C 70.5 42.265625 71.40625 42.265625 72.59375 42.265625 
C 74.90625 42.265625 74.90625 42.46875 74.90625 44.84375 
z
" id="CMBX12-67"/>
       <path d="M 73.5 63.828125 
L 84.09375 63.828125 
L 84.09375 68 
C 81.203125 68 70.5 68 66.90625 68 
C 63.296875 68 52.59375 68 49.703125 68 
L 49.703125 63.828125 
L 60.296875 63.828125 
L 60.296875 37.265625 
L 27.59375 37.265625 
L 27.59375 63.828125 
L 38.203125 63.828125 
L 38.203125 68 
C 35.296875 68 24.59375 68 21 68 
C 17.40625 68 6.703125 68 3.796875 68 
L 3.796875 63.828125 
L 14.40625 63.828125 
L 14.40625 4.171875 
L 3.796875 4.171875 
L 3.796875 0 
C 6.703125 0 17.40625 0 21 0 
C 24.59375 0 35.296875 0 38.203125 0 
L 38.203125 4.171875 
L 27.59375 4.171875 
L 27.59375 33 
L 60.296875 33 
L 60.296875 4.171875 
L 49.703125 4.171875 
L 49.703125 0 
C 52.59375 0 63.296875 0 66.90625 0 
C 70.5 0 81.203125 0 84.09375 0 
L 84.09375 4.171875 
L 73.5 4.171875 
z
" id="CMBX12-72"/>
       <path d="M 57.40625 1.6875 
C 73.5 7.8125 78.203125 22.09375 78.203125 33.734375 
C 78.203125 54.625 64.40625 69 42.203125 69 
C 19.90625 69 6.203125 54.5 6.203125 33.703125 
C 6.203125 12.890625 20.203125 -1 42.203125 -1 
C 43.09375 -1 47.203125 -1 51.90625 -0.015625 
C 54.5 -11.1875 56.40625 -19 65.5 -19 
C 75.796875 -19 78.796875 -6.828125 78.796875 -0.6875 
C 78.796875 0.1875 78.796875 1.671875 77.296875 1.671875 
C 76 1.671875 75.90625 0.59375 75.796875 -0.1875 
C 75.203125 -4.21875 69.703125 -5 66.90625 -5 
C 64.703125 -5 61.5 -5 57.40625 1.6875 
z
M 33.203125 4.359375 
C 19.796875 9.921875 19.796875 27.828125 19.796875 33.640625 
C 19.796875 42.4375 20.703125 49.921875 24.90625 56.4375 
C 28.5 61.859375 35 65.421875 42.203125 65.421875 
C 48 65.421875 55.40625 63.15625 60.09375 55.375 
C 64.296875 48.453125 64.59375 39.578125 64.59375 33.671875 
C 64.59375 27.859375 64.59375 13.15625 54.5 6.359375 
C 50.40625 13.03125 46.59375 15.28125 42.203125 15.28125 
C 37.09375 15.28125 32.703125 11.8125 32.703125 7.140625 
C 32.703125 5.453125 33 4.859375 33.203125 4.359375 
z
M 50.796875 4.234375 
C 50.703125 4.234375 46.796875 2.578125 42.203125 2.578125 
C 37.09375 2.578125 36 5.78125 36 7.25 
C 36 10.0625 38.90625 12 42.296875 12 
C 47.09375 12 49.203125 8.796875 50.796875 4.234375 
z
" id="CMBX12-81"/>
       <path d="M 17.40625 36.25 
C 17.40625 42.328125 17.703125 48.53125 20.5 53.90625 
C 22.703125 58.109375 27.796875 62 34.296875 62 
C 36.203125 62 39.796875 61.703125 42.203125 59.203125 
C 38.40625 58.8125 36.796875 56.015625 36.796875 53.3125 
C 36.796875 49.703125 39.5 47.40625 42.703125 47.40625 
C 45.296875 47.40625 48.59375 49.109375 48.59375 53.5 
C 48.59375 59.484375 44.59375 65.578125 34.09375 65.578125 
C 21.59375 65.578125 4.703125 57.796875 4.703125 31.796875 
C 4.703125 25.109375 4.703125 -1 28.40625 -1 
C 41.59375 -1 51.40625 6.765625 51.40625 20.703125 
C 51.40625 34.640625 41.703125 42 29.796875 42 
C 27.796875 42 21.40625 42 17.40625 33.546875 
z
M 28.296875 2.96875 
C 21.90625 2.96875 19.40625 8.34375 19 9.140625 
C 17.59375 12.4375 17.59375 20.40625 17.59375 21.296875 
C 17.59375 33.546875 22.90625 38.734375 28.796875 38.734375 
C 38.703125 38.734375 38.703125 30.765625 38.703125 20.796875 
C 38.703125 10.9375 38.703125 2.96875 28.296875 2.96875 
z
" id="CMBX12-54"/>
      </defs>
      <g transform="translate(131.370653 225.496936)rotate(-40)scale(0.12 -0.12)">
       <use transform="scale(0.996264)" xlink:href="#CMBX12-84"/>
       <use transform="translate(77.94837 0)scale(0.996264)" xlink:href="#CMBX12-80"/>
       <use transform="translate(154.513181 0)scale(0.996264)" xlink:href="#CMBX12-67"/>
       <use transform="translate(235.459632 0)scale(0.996264)" xlink:href="#CMBX12-72"/>
       <use transform="translate(323.094107 0)scale(0.996264)" xlink:href="#CMBX12-81"/>
       <use transform="translate(407.269127 0)scale(0.996264)" xlink:href="#CMBX12-54"/>
      </g>
     </g>
    </g>
    <g id="xtick_5">
     <g id="line2d_5">
      <g>
       <use style="stroke:#000000;stroke-width:0.8;" x="184.192535" xlink:href="#m5dc72ab88c" y="176.4"/>
      </g>
     </g>
     <g id="text_5">
      <!-- \textbf{Lattice} -->
      <defs>
       <path d="M 62.796875 26.8125 
L 58.59375 26.8125 
C 57.90625 19.953125 56.296875 4.265625 38.296875 4.265625 
L 27.59375 4.265625 
L 27.59375 63.828125 
L 40.90625 63.828125 
L 40.90625 68 
C 36 68 27.09375 68 21.796875 68 
C 18.09375 68 6.703125 68 3.796875 68 
L 3.796875 63.828125 
L 14.40625 63.828125 
L 14.40625 4.265625 
L 3.796875 4.265625 
L 3.796875 0 
L 59.90625 0 
z
" id="CMBX12-76"/>
       <path d="M 22.296875 61.84375 
C 22.296875 65.921875 19 69 15.09375 69 
C 11 69 7.90625 65.625 7.90625 61.84375 
C 7.90625 58.0625 11 54.6875 15.09375 54.6875 
C 19 54.6875 22.296875 57.765625 22.296875 61.84375 
z
M 4.703125 44 
L 4.703125 39.328125 
C 10.59375 39.328125 11.296875 39.328125 11.296875 35.46875 
L 11.296875 4.0625 
L 4.40625 4.0625 
L 4.40625 -0.203125 
C 6.703125 0 13.59375 0 16.296875 0 
C 19.09375 0 25.5 0 27.90625 -0.203125 
L 27.90625 4.0625 
L 21.703125 4.0625 
L 21.703125 44 
z
" id="CMBX12-105"/>
      </defs>
      <g transform="translate(170.436655 216.069034)rotate(-40)scale(0.12 -0.12)">
       <use transform="scale(0.996264)" xlink:href="#CMBX12-76"/>
       <use transform="translate(67.340095 0)scale(0.996264)" xlink:href="#CMBX12-97"/>
       <use transform="translate(121.823284 0)scale(0.996264)" xlink:href="#CMBX12-116"/>
       <use transform="translate(165.409834 0)scale(0.996264)" xlink:href="#CMBX12-116"/>
       <use transform="translate(208.996384 0)scale(0.996264)" xlink:href="#CMBX12-105"/>
       <use transform="translate(240.129635 0)scale(0.996264)" xlink:href="#CMBX12-99"/>
       <use transform="translate(289.942835 0)scale(0.996264)" xlink:href="#CMBX12-101"/>
      </g>
     </g>
    </g>
    <g id="xtick_6">
     <g id="line2d_6">
      <g>
       <use style="stroke:#000000;stroke-width:0.8;" x="217.640668" xlink:href="#m5dc72ab88c" y="176.4"/>
      </g>
     </g>
     <g id="text_6">
      <!-- \textbf{GDA} -->
      <defs>
       <path d="M 74.90625 22.828125 
L 82.703125 22.828125 
L 82.703125 27.09375 
C 80.296875 27 69.59375 27 66.40625 27 
C 60.296875 27 53.703125 27 47.59375 27 
L 47.59375 22.828125 
L 61.703125 22.828125 
L 61.703125 12.671875 
C 61.703125 10.578125 61.703125 7.78125 57.703125 5.28125 
C 55.703125 4 52.59375 3 48.40625 3 
C 42.703125 3 32.796875 4.390625 26.59375 11.609375 
C 22.703125 16.046875 20.296875 22.09375 20.296875 33.953125 
C 20.296875 44.15625 22 51.078125 26.5 56.3125 
C 32.90625 63.734375 42.90625 64.734375 47.703125 64.734375 
C 55.203125 64.734375 67.296875 60.578125 70.296875 43.25 
C 70.5 42.359375 71.40625 42.359375 72.59375 42.359375 
C 74.90625 42.359375 74.90625 42.5625 74.90625 44.9375 
L 74.90625 66.453125 
C 74.90625 68.734375 74.90625 69.03125 72.703125 69.03125 
L 65.203125 61.875 
C 59.59375 66.625 52.90625 69 45.5 69 
C 21.59375 69 6.203125 54.640625 6.203125 33.859375 
C 6.203125 13.46875 21.09375 -1.265625 45.59375 -1.265625 
C 52.296875 -1.265625 60.203125 0.21875 64.296875 5.484375 
C 67.703125 2.359375 73.40625 0 73.703125 0 
C 74.90625 0 74.90625 1 74.90625 2.578125 
z
" id="CMBX12-71"/>
       <path d="M 45.796875 67.203125 
C 45.09375 69 44.90625 69.5 42.5 69.5 
C 40 69.5 39.796875 69 39.09375 67.203125 
L 14.296875 6.453125 
C 13.59375 4.859375 13.59375 4.671875 10.796875 4.359375 
C 8.296875 4.0625 7.90625 4.0625 5.703125 4.0625 
L 3.90625 4.0625 
L 3.90625 -0.203125 
C 6.5 0 12.5 0 15.40625 0 
C 18.09375 0 25.40625 0 27.703125 -0.203125 
L 27.703125 4.0625 
C 25.5 4.0625 21.703125 4.0625 18.90625 5.171875 
C 19.203125 6.09375 19.203125 6.28125 19.40625 6.6875 
L 24.703125 19.71875 
L 51.5 19.71875 
L 57.796875 4.0625 
L 48.40625 4.0625 
L 48.40625 0 
C 51.59375 0 61.296875 0 65.09375 0 
C 68.296875 0 78.5 0 81 -0.203125 
L 81 4.0625 
L 71.5 4.0625 
z
M 38.09375 52.609375 
L 49.703125 24 
L 26.40625 24 
z
" id="CMBX12-65"/>
      </defs>
      <g transform="translate(207.817299 209.469497)rotate(-40)scale(0.12 -0.12)">
       <use transform="scale(0.996264)" xlink:href="#CMBX12-71"/>
       <use transform="translate(88.09556 0)scale(0.996264)" xlink:href="#CMBX12-68"/>
       <use transform="translate(170.887021 0)scale(0.996264)" xlink:href="#CMBX12-65"/>
      </g>
     </g>
    </g>
    <g id="xtick_7">
     <g id="line2d_7">
      <g>
       <use style="stroke:#000000;stroke-width:0.8;" x="251.088802" xlink:href="#m5dc72ab88c" y="176.4"/>
      </g>
     </g>
     <g id="text_7">
      <!-- \textbf{GEMM} -->
      <defs>
       <path d="M 70.59375 26.90625 
L 66.40625 26.90625 
C 64.296875 12.046875 60.59375 4.265625 43.203125 4.265625 
L 27.59375 4.265625 
L 27.59375 33 
L 33.5 33 
C 43.09375 33 44.09375 28.953125 44.09375 21.484375 
L 48.296875 21.484375 
L 48.296875 49 
L 44.09375 49 
C 44.09375 41.484375 43.09375 37.265625 33.5 37.265625 
L 27.59375 37.265625 
L 27.59375 63.71875 
L 43.203125 63.71875 
C 58.5 63.71875 61.796875 57.171875 63.296875 44.1875 
L 67.5 44.1875 
L 64.59375 68 
L 3.796875 68 
L 3.796875 63.71875 
L 14.40625 63.71875 
L 14.40625 4.265625 
L 3.796875 4.265625 
L 3.796875 0 
L 66.296875 0 
z
" id="CMBX12-69"/>
       <path d="M 53.296875 12.453125 
L 29.296875 65.90625 
C 28.40625 68 27.5 68 25.40625 68 
L 4.09375 68 
L 4.09375 63.71875 
L 14.703125 63.71875 
L 14.703125 6.9375 
C 14.703125 4.75 14.59375 4.65625 12 4.25 
C 10.203125 4.0625 8.203125 4.0625 6.40625 4.0625 
L 4.09375 4.0625 
L 4.09375 -0.203125 
C 6.40625 0 14.203125 0 17 0 
C 19.796875 0 27.703125 0 30 -0.203125 
L 30 4.0625 
L 27.703125 4.0625 
C 25 4.0625 24.796875 4.0625 22.40625 4.359375 
C 19.5 4.765625 19.40625 4.859375 19.40625 7.046875 
L 19.40625 62.53125 
L 19.5 62.53125 
L 46.703125 2.09375 
C 47.203125 1 47.796875 0 49.5 0 
C 51.203125 0 51.796875 1 52.296875 2.09375 
L 80 63.71875 
L 80.09375 63.71875 
L 80.09375 4.0625 
L 69.5 4.0625 
L 69.5 -0.203125 
C 72.203125 0 82.59375 0 86 0 
C 89.40625 0 99.796875 0 102.5 -0.203125 
L 102.5 4.0625 
L 91.90625 4.0625 
L 91.90625 63.71875 
L 102.5 63.71875 
L 102.5 68 
L 81.203125 68 
C 79.09375 68 78.203125 68 77.296875 65.90625 
z
" id="CMBX12-77"/>
      </defs>
      <g transform="translate(235.806545 218.630598)rotate(-40)scale(0.12 -0.12)">
       <use transform="scale(0.996264)" xlink:href="#CMBX12-71"/>
       <use transform="translate(88.09556 0)scale(0.996264)" xlink:href="#CMBX12-69"/>
       <use transform="translate(161.662306 0)scale(0.996264)" xlink:href="#CMBX12-77"/>
       <use transform="translate(267.976731 0)scale(0.996264)" xlink:href="#CMBX12-77"/>
      </g>
     </g>
    </g>
    <g id="xtick_8">
     <g id="line2d_8">
      <g>
       <use style="stroke:#000000;stroke-width:0.8;" x="284.536936" xlink:href="#m5dc72ab88c" y="176.4"/>
      </g>
     </g>
     <g id="text_8">
      <!-- \textbf{Kmeans} -->
      <defs>
       <path d="M 46.90625 41.859375 
L 70.703125 61.9375 
C 72 63.03125 72.90625 63.828125 81.796875 63.828125 
L 81.796875 68 
C 75.796875 68 75.59375 68 71.09375 68 
C 68.09375 68 60.296875 68 57.796875 68.109375 
L 57.796875 63.828125 
C 60 63.828125 62.40625 63.828125 65 62.734375 
L 65 62.640625 
L 27.59375 30.921875 
L 27.59375 63.828125 
L 38.203125 63.828125 
L 38.203125 68 
C 35.296875 68 24.59375 68 21 68 
C 17.40625 68 6.703125 68 3.796875 68 
L 3.796875 63.828125 
L 14.40625 63.828125 
L 14.40625 4.171875 
L 3.796875 4.171875 
L 3.796875 0 
C 6.703125 0 17.40625 0 21 0 
C 24.59375 0 35.296875 0 38.203125 0 
L 38.203125 4.171875 
L 27.59375 4.171875 
L 27.59375 25.453125 
L 37.90625 34.203125 
L 58.796875 6.46875 
C 59 6.171875 59.40625 5.671875 59.40625 5.265625 
C 59.40625 4.171875 54.5 4.171875 52.296875 4.171875 
L 52.296875 0 
C 55.5 0 64.796875 0 68.59375 0 
C 71.59375 0 81 0 83.296875 -0.09375 
L 83.296875 4.171875 
L 80.59375 4.171875 
C 75.203125 4.171875 74.796875 4.671875 73.796875 6.0625 
z
" id="CMBX12-75"/>
       <path d="M 84.40625 30.0625 
C 84.40625 39.15625 80.5 44.28125 69.296875 44.28125 
C 59.203125 44.28125 54.5 37.609375 52.90625 34.46875 
C 51.296875 42.8125 44.5 44.28125 38.09375 44.28125 
C 28.5 44.28125 23.296875 38.203125 21.203125 33.484375 
L 21.09375 33.484375 
L 21.09375 44 
L 4.203125 44 
L 4.203125 39.328125 
C 10.40625 39.328125 11.09375 39.328125 11.09375 35.46875 
L 11.09375 4.0625 
L 4.203125 4.0625 
L 4.203125 -0.203125 
C 6.5 0 13.703125 0 16.5 0 
C 19.296875 0 26.59375 0 28.90625 -0.203125 
L 28.90625 4.0625 
L 22 4.0625 
L 22 25.109375 
C 22 35.875 30.09375 41 36.40625 41 
C 40.09375 41 42.296875 38.828125 42.296875 31.140625 
L 42.296875 4.0625 
L 35.40625 4.0625 
L 35.40625 -0.203125 
C 37.703125 0 44.90625 0 47.703125 0 
C 50.5 0 57.796875 0 60.09375 -0.203125 
L 60.09375 4.0625 
L 53.203125 4.0625 
L 53.203125 25.109375 
C 53.203125 35.875 61.296875 41 67.59375 41 
C 71.296875 41 73.5 38.828125 73.5 31.140625 
L 73.5 4.0625 
L 66.59375 4.0625 
L 66.59375 -0.203125 
C 68.90625 0 76.09375 0 78.90625 0 
C 81.703125 0 89 0 91.296875 -0.203125 
L 91.296875 4.0625 
L 84.40625 4.0625 
z
" id="CMBX12-109"/>
       <path d="M 53.09375 30.0625 
C 53.09375 39.453125 49 44.28125 38 44.28125 
C 30.796875 44.28125 24.59375 40.859375 21.203125 33.484375 
L 21.09375 33.484375 
L 21.09375 44 
L 4.203125 44 
L 4.203125 39.328125 
C 10.40625 39.328125 11.09375 39.328125 11.09375 35.46875 
L 11.09375 4.0625 
L 4.203125 4.0625 
L 4.203125 -0.203125 
C 6.5 0 13.703125 0 16.5 0 
C 19.296875 0 26.59375 0 28.90625 -0.203125 
L 28.90625 4.0625 
L 22 4.0625 
L 22 25.109375 
C 22 35.765625 30 41 36.40625 41 
C 40.09375 41 42.203125 38.640625 42.203125 31.140625 
L 42.203125 4.0625 
L 35.296875 4.0625 
L 35.296875 -0.203125 
C 37.59375 0 44.796875 0 47.59375 0 
C 50.40625 0 57.703125 0 60 -0.203125 
L 60 4.0625 
L 53.09375 4.0625 
z
" id="CMBX12-110"/>
      </defs>
      <g transform="translate(268.383388 220.092798)rotate(-40)scale(0.12 -0.12)">
       <use transform="scale(0.996264)" xlink:href="#CMBX12-75"/>
       <use transform="translate(87.74972 0)scale(0.996264)" xlink:href="#CMBX12-109"/>
       <use transform="translate(181.149471 0)scale(0.996264)" xlink:href="#CMBX12-101"/>
       <use transform="translate(232.288738 0)scale(0.996264)" xlink:href="#CMBX12-97"/>
       <use transform="translate(286.771926 0)scale(0.996264)" xlink:href="#CMBX12-110"/>
       <use transform="translate(349.038426 0)scale(0.996264)" xlink:href="#CMBX12-115"/>
      </g>
     </g>
    </g>
    <g id="xtick_9">
     <g id="line2d_9">
      <g>
       <use style="stroke:#000000;stroke-width:0.8;" x="317.98507" xlink:href="#m5dc72ab88c" y="176.4"/>
      </g>
     </g>
     <g id="text_9">
      <!-- \textbf{LogReg} -->
      <defs>
       <path d="M 13 18.578125 
C 17.796875 16 23.40625 16 24.90625 16 
C 38.703125 16 44.203125 23.65625 44.203125 30.625 
C 44.203125 35.703125 41.296875 39.296875 40.09375 40.28125 
C 43 41.8125 45.40625 42.1875 47.09375 42.390625 
C 46.796875 41.90625 46.5 41.53125 46.5 40.28125 
C 46.5 38.28125 47.90625 36.46875 50.5 36.46875 
C 53.09375 36.46875 54.5 38.359375 54.5 40.4375 
C 54.5 42.828125 52.703125 46 48.5 46 
C 44.203125 46 40.09375 43.796875 38 41.90625 
C 33.90625 44.28125 30 45.171875 24.90625 45.171875 
C 11.09375 45.171875 5.59375 37.546875 5.59375 30.578125 
C 5.59375 27.5 6.59375 23.453125 10.796875 20.078125 
C 9.09375 18.140625 7.296875 14.578125 7.296875 10.921875 
C 7.296875 6.5625 9.59375 2.8125 11.703125 1.1875 
C 9.296875 0.609375 3.09375 -1.640625 3.09375 -7.203125 
C 3.09375 -12.96875 9.59375 -19.5 28 -19.5 
C 44.59375 -19.5 53 -14.21875 53 -6.859375 
C 53 1.78125 47.203125 4.609375 44.703125 5.78125 
C 39.90625 8.140625 33.5 8.140625 24.703125 8.140625 
C 22.203125 8.140625 17.796875 8.140625 17.296875 8.234375 
C 13 8.984375 11.796875 12.953125 11.796875 14.953125 
C 11.796875 15.78125 11.90625 17.296875 13 18.578125 
z
M 24.90625 19.171875 
C 16.203125 19.171875 16.203125 26.015625 16.203125 30.578125 
C 16.203125 35.15625 16.203125 42 24.90625 42 
C 33.59375 42 33.59375 35.15625 33.59375 30.578125 
C 33.59375 26.015625 33.59375 19.171875 24.90625 19.171875 
z
M 30.5 -1 
C 37.796875 -1 44.796875 -2.265625 44.796875 -7.296875 
C 44.796875 -10.703125 41.296875 -16.328125 28.09375 -16.328125 
C 14.90625 -16.328125 11.296875 -10.890625 11.296875 -7.203125 
C 11.296875 -1 17.59375 -1 19.09375 -1 
z
" id="CMBX12-103"/>
       <path d="M 52.90625 33.65625 
C 66.40625 37.234375 69.703125 44.359375 69.703125 49.734375 
C 69.703125 59.671875 59.203125 68 40.703125 68 
L 3.796875 68 
L 3.796875 63.71875 
L 14.40625 63.71875 
L 14.40625 4.171875 
L 3.796875 4.171875 
L 3.796875 0 
C 6.703125 0 17.09375 0 20.703125 0 
C 24.296875 0 34.796875 0 37.703125 0 
L 37.703125 4.171875 
L 27.09375 4.171875 
L 27.09375 32.71875 
L 39 32.71875 
C 43 32.71875 46.203125 31.515625 48.40625 28.890625 
C 51.40625 25.46875 51.40625 23.25 51.40625 16.515625 
C 51.40625 9.78125 51.40625 5.671875 56.5 2.25 
C 61.703125 -1.28125 69.90625 -1.28125 72.09375 -1.28125 
C 82.296875 -1.28125 83.5 7.71875 83.5 9.109375 
C 83.5 10.8125 82.703125 11.109375 81.40625 11.109375 
C 79.5 11.109375 79.40625 10.421875 79.296875 9.109375 
C 78.796875 4.09375 75.703125 2 72.90625 2 
C 66.5 2 65.796875 8.65625 65 17.765625 
C 64.40625 23.03125 63.703125 30.375 52.90625 33.65625 
z
M 38.796875 36 
L 27.09375 36 
L 27.09375 63.71875 
L 39 63.71875 
C 55.296875 63.71875 55.59375 55.6875 55.59375 49.90625 
C 55.59375 44.515625 55.5 36 38.796875 36 
z
" id="CMBX12-82"/>
      </defs>
      <g transform="translate(302.890965 218.314841)rotate(-40)scale(0.12 -0.12)">
       <use transform="scale(0.996264)" xlink:href="#CMBX12-76"/>
       <use transform="translate(67.340095 0)scale(0.996264)" xlink:href="#CMBX12-111"/>
       <use transform="translate(123.379946 0)scale(0.996264)" xlink:href="#CMBX12-103"/>
       <use transform="translate(179.419797 0)scale(0.996264)" xlink:href="#CMBX12-82"/>
       <use transform="translate(263.018472 0)scale(0.996264)" xlink:href="#CMBX12-101"/>
       <use transform="translate(314.157739 0)scale(0.996264)" xlink:href="#CMBX12-103"/>
      </g>
     </g>
    </g>
    <g id="xtick_10">
     <g id="line2d_10">
      <g>
       <use style="stroke:#000000;stroke-width:0.8;" x="351.433203" xlink:href="#m5dc72ab88c" y="176.4"/>
      </g>
     </g>
     <g id="text_10">
      <!-- \textbf{SGD} -->
      <g transform="translate(342.494913 207.984158)rotate(-40)scale(0.12 -0.12)">
       <use transform="scale(0.996264)" xlink:href="#CMBX12-83"/>
       <use transform="translate(62.266501 0)scale(0.996264)" xlink:href="#CMBX12-71"/>
       <use transform="translate(150.362061 0)scale(0.996264)" xlink:href="#CMBX12-68"/>
      </g>
     </g>
    </g>
    <g id="xtick_11">
     <g id="line2d_11">
      <g>
       <use style="stroke:#000000;stroke-width:0.8;" x="384.881337" xlink:href="#m5dc72ab88c" y="176.4"/>
      </g>
     </g>
     <g id="text_11">
      <!-- \textbf{LSTM} -->
      <g transform="translate(372.376225 213.969994)rotate(-40)scale(0.12 -0.12)">
       <use transform="scale(0.996264)" xlink:href="#CMBX12-76"/>
       <use transform="translate(67.340095 0)scale(0.996264)" xlink:href="#CMBX12-83"/>
       <use transform="translate(129.606596 0)scale(0.996264)" xlink:href="#CMBX12-84"/>
       <use transform="translate(207.554967 0)scale(0.996264)" xlink:href="#CMBX12-77"/>
      </g>
     </g>
    </g>
    <g id="xtick_12">
     <g id="line2d_12">
      <g>
       <use style="stroke:#000000;stroke-width:0.8;" x="418.329471" xlink:href="#m5dc72ab88c" y="176.4"/>
      </g>
     </g>
     <g id="text_12">
      <!-- \textbf{GRU} -->
      <defs>
       <path d="M 72 61.109375 
C 72 63.296875 72.09375 63.40625 74.703125 63.796875 
C 76.5 64 78.5 64 80.296875 64 
L 82.59375 64 
L 82.59375 68.375 
C 80.296875 68.171875 72.5 68.171875 69.703125 68.171875 
C 66.90625 68.171875 59.09375 68.171875 56.796875 68.375 
L 56.796875 64 
L 59.09375 64 
C 61.796875 64 62 64 64.40625 63.703125 
C 67.296875 63.3125 67.40625 63.203125 67.40625 61.015625 
L 67.40625 23.21875 
C 67.40625 9.03125 57.296875 3.265625 45.5 3.265625 
C 28 3.265625 27.59375 16.5625 27.59375 22.328125 
L 27.59375 64 
L 38.203125 64 
L 38.203125 68.171875 
C 35.296875 68.171875 24.59375 68.171875 21 68.171875 
C 17.40625 68.171875 6.703125 68.171875 3.796875 68.171875 
L 3.796875 64 
L 14.40625 64 
L 14.40625 23.015625 
C 14.40625 9.90625 25 -1 45.09375 -1 
C 63.59375 -1 72 10.421875 72 22.953125 
z
" id="CMBX12-85"/>
      </defs>
      <g transform="translate(408.543191 209.407253)rotate(-40)scale(0.12 -0.12)">
       <use transform="scale(0.996264)" xlink:href="#CMBX12-71"/>
       <use transform="translate(88.09556 0)scale(0.996264)" xlink:href="#CMBX12-82"/>
       <use transform="translate(168.580911 0)scale(0.996264)" xlink:href="#CMBX12-85"/>
      </g>
     </g>
    </g>
    <g id="xtick_13">
     <g id="line2d_13">
      <g>
       <use style="stroke:#000000;stroke-width:0.8;" x="451.777604" xlink:href="#m5dc72ab88c" y="176.4"/>
      </g>
     </g>
     <g id="text_13">
      <!-- \textbf{LeNet} -->
      <defs>
       <path d="M 29 66.90625 
C 28 68 27.90625 68 25.90625 68 
L 3.796875 68 
L 3.796875 63.828125 
L 14.40625 63.828125 
L 14.40625 6.953125 
C 14.40625 4.75 14.296875 4.65625 11.703125 4.25 
C 9.90625 4.0625 7.90625 4.0625 6.09375 4.0625 
L 3.796875 4.0625 
L 3.796875 -0.203125 
C 6.09375 0 13.90625 0 16.703125 0 
C 19.5 0 27.40625 0 29.703125 -0.203125 
L 29.703125 4.0625 
L 27.40625 4.0625 
C 24.703125 4.0625 24.5 4.0625 22.09375 4.359375 
C 19.203125 4.765625 19.09375 4.859375 19.09375 7.046875 
L 19.09375 60.4375 
L 68.59375 1.296875 
C 69.703125 0.09375 69.796875 0 71.09375 0 
C 73.5 0 73.5 0.59375 73.5 2.875 
L 73.5 60.9375 
C 73.5 63.125 73.59375 63.234375 76.203125 63.625 
C 78 63.828125 80 63.828125 81.796875 63.828125 
L 84.09375 63.828125 
L 84.09375 68.109375 
C 81.796875 68 74 68 71.203125 68 
C 68.40625 68 60.5 68 58.203125 68.109375 
L 58.203125 63.828125 
L 60.5 63.828125 
C 63.203125 63.828125 63.40625 63.828125 65.796875 63.53125 
C 68.703125 63.140625 68.796875 63.03125 68.796875 60.828125 
L 68.796875 19.203125 
z
" id="CMBX12-78"/>
      </defs>
      <g transform="translate(439.871378 212.964945)rotate(-40)scale(0.12 -0.12)">
       <use transform="scale(0.996264)" xlink:href="#CMBX12-76"/>
       <use transform="translate(67.340095 0)scale(0.996264)" xlink:href="#CMBX12-101"/>
       <use transform="translate(118.479363 0)scale(0.996264)" xlink:href="#CMBX12-78"/>
       <use transform="translate(206.113838 0)scale(0.996264)" xlink:href="#CMBX12-101"/>
       <use transform="translate(257.253105 0)scale(0.996264)" xlink:href="#CMBX12-116"/>
      </g>
     </g>
    </g>
    <g id="xtick_14">
     <g id="line2d_14">
      <g>
       <use style="stroke:#000000;stroke-width:0.8;" x="485.225738" xlink:href="#m5dc72ab88c" y="176.4"/>
      </g>
     </g>
    </g>
   </g>
   <g id="matplotlib.axis_2">
    <g id="ytick_1">
     <g id="line2d_15">
      <path clip-path="url(#p29f04845b8)" d="M 50.4 176.4 
L 485.225738 176.4 
" style="fill:none;stroke:#808080;stroke-dasharray:2.96,1.28;stroke-dashoffset:0;stroke-width:0.8;"/>
     </g>
     <g id="line2d_16">
      <defs>
       <path d="M 0 0 
L -3.5 0 
" id="md9fa3eabbc" style="stroke:#000000;stroke-width:0.8;"/>
      </defs>
      <g>
       <use style="stroke:#000000;stroke-width:0.8;" x="50.4" xlink:href="#md9fa3eabbc" y="176.4"/>
      </g>
     </g>
     <g id="text_14">
      <!-- $0$ -->
      <defs>
       <path d="M 42 31.640625 
C 42 37.75 41.90625 48.125 37.703125 56.109375 
C 34 63.109375 28.09375 65.59375 22.90625 65.59375 
C 18.09375 65.59375 12 63.40625 8.203125 56.203125 
C 4.203125 48.71875 3.796875 39.4375 3.796875 31.640625 
C 3.796875 25.953125 3.90625 17.28125 7 9.671875 
C 11.296875 -0.609375 19 -2 22.90625 -2 
C 27.5 -2 34.5 -0.109375 38.59375 9.375 
C 41.59375 16.28125 42 24.359375 42 31.640625 
z
M 22.90625 -0.40625 
C 16.5 -0.40625 12.703125 5.078125 11.296875 12.6875 
C 10.203125 18.5625 10.203125 27.15625 10.203125 32.75 
C 10.203125 40.4375 10.203125 46.828125 11.5 52.921875 
C 13.40625 61.390625 19 64 22.90625 64 
C 27 64 32.296875 61.296875 34.203125 53.125 
C 35.5 47.4375 35.59375 40.734375 35.59375 32.75 
C 35.59375 26.25 35.59375 18.265625 34.40625 12.375 
C 32.296875 1.484375 26.40625 -0.40625 22.90625 -0.40625 
z
" id="CMR17-48"/>
      </defs>
      <g transform="translate(38.418665 179.859249)scale(0.1 -0.1)">
       <use transform="scale(0.996264)" xlink:href="#CMR17-48"/>
      </g>
     </g>
    </g>
    <g id="ytick_2">
     <g id="line2d_17">
      <path clip-path="url(#p29f04845b8)" d="M 50.4 151.2 
L 485.225738 151.2 
" style="fill:none;stroke:#808080;stroke-dasharray:2.96,1.28;stroke-dashoffset:0;stroke-width:0.8;"/>
     </g>
     <g id="line2d_18">
      <g>
       <use style="stroke:#000000;stroke-width:0.8;" x="50.4" xlink:href="#md9fa3eabbc" y="151.2"/>
      </g>
     </g>
     <g id="text_15">
      <!-- $20$ -->
      <defs>
       <path d="M 41.703125 15.453125 
L 39.90625 15.453125 
C 38.90625 8.375 38.09375 7.171875 37.703125 6.5625 
C 37.203125 5.765625 30 5.765625 28.59375 5.765625 
L 9.40625 5.765625 
C 13 9.671875 20 16.75 28.5 24.953125 
C 34.59375 30.734375 41.703125 37.53125 41.703125 47.421875 
C 41.703125 59.21875 32.296875 66 21.796875 66 
C 10.796875 66 4.09375 56.3125 4.09375 47.34375 
C 4.09375 43.4375 7 42.9375 8.203125 42.9375 
C 9.203125 42.9375 12.203125 43.546875 12.203125 47.03125 
C 12.203125 50.109375 9.59375 51 8.203125 51 
C 7.59375 51 7 50.90625 6.59375 50.703125 
C 8.5 59.21875 14.296875 63.40625 20.40625 63.40625 
C 29.09375 63.40625 34.796875 56.515625 34.796875 47.421875 
C 34.796875 38.734375 29.703125 31.25 24 24.75 
L 4.09375 2.28125 
L 4.09375 0 
L 39.296875 0 
z
" id="CMR17-50"/>
      </defs>
      <g transform="translate(33.437329 154.659249)scale(0.1 -0.1)">
       <use transform="scale(0.996264)" xlink:href="#CMR17-50"/>
       <use transform="translate(45.690477 0)scale(0.996264)" xlink:href="#CMR17-48"/>
      </g>
     </g>
    </g>
    <g id="ytick_3">
     <g id="line2d_19">
      <path clip-path="url(#p29f04845b8)" d="M 50.4 126 
L 485.225738 126 
" style="fill:none;stroke:#808080;stroke-dasharray:2.96,1.28;stroke-dashoffset:0;stroke-width:0.8;"/>
     </g>
     <g id="line2d_20">
      <g>
       <use style="stroke:#000000;stroke-width:0.8;" x="50.4" xlink:href="#md9fa3eabbc" y="126"/>
      </g>
     </g>
     <g id="text_16">
      <!-- $40$ -->
      <defs>
       <path d="M 33.59375 64.40625 
C 33.59375 66.5 33.5 66.5 31.703125 66.5 
L 2 19.59375 
L 2 17 
L 27.796875 17 
L 27.796875 7.140625 
C 27.796875 3.5 27.59375 2.5 20.59375 2.5 
L 18.703125 2.5 
L 18.703125 0 
C 21.90625 0 27.296875 0 30.703125 0 
C 34.09375 0 39.5 0 42.703125 0 
L 42.703125 2.5 
L 40.796875 2.5 
C 33.796875 2.5 33.59375 3.5 33.59375 7.140625 
L 33.59375 17 
L 43.796875 17 
L 43.796875 19.59375 
L 33.59375 19.59375 
z
M 28.09375 57.859375 
L 28.09375 19.59375 
L 4 19.59375 
z
" id="CMR17-52"/>
      </defs>
      <g transform="translate(33.437329 129.459249)scale(0.1 -0.1)">
       <use transform="scale(0.996264)" xlink:href="#CMR17-52"/>
       <use transform="translate(45.690477 0)scale(0.996264)" xlink:href="#CMR17-48"/>
      </g>
     </g>
    </g>
    <g id="ytick_4">
     <g id="line2d_21">
      <path clip-path="url(#p29f04845b8)" d="M 50.4 100.8 
L 485.225738 100.8 
" style="fill:none;stroke:#808080;stroke-dasharray:2.96,1.28;stroke-dashoffset:0;stroke-width:0.8;"/>
     </g>
     <g id="line2d_22">
      <g>
       <use style="stroke:#000000;stroke-width:0.8;" x="50.4" xlink:href="#md9fa3eabbc" y="100.8"/>
      </g>
     </g>
     <g id="text_17">
      <!-- $60$ -->
      <defs>
       <path d="M 10.59375 34 
C 10.59375 57.65625 21.796875 63 28.296875 63 
C 30.40625 63 35.5 62.640625 37.5 59 
C 35.90625 59 32.90625 59 32.90625 55.515625 
C 32.90625 52.828125 35.09375 51.921875 36.5 51.921875 
C 37.40625 51.921875 40.09375 52.3125 40.09375 55.625 
C 40.09375 61.78125 35.09375 65.296875 28.203125 65.296875 
C 16.296875 65.296875 3.796875 52.96875 3.796875 31 
C 3.796875 3.953125 15.09375 -2 23.09375 -2 
C 32.796875 -2 42 6.671875 42 20.046875 
C 42 32.515625 33.90625 41.59375 23.703125 41.59375 
C 17.59375 41.59375 13.09375 37.609375 10.59375 30.625 
z
M 23.09375 0.390625 
C 10.796875 0.390625 10.796875 18.75 10.796875 22.4375 
C 10.796875 29.625 14.203125 40 23.5 40 
C 25.203125 40 30.09375 40 33.40625 33.125 
C 35.203125 29.21875 35.203125 25.140625 35.203125 20.140625 
C 35.203125 14.75 35.203125 10.78125 33.09375 6.78125 
C 30.90625 2.671875 27.703125 0.390625 23.09375 0.390625 
z
" id="CMR17-54"/>
      </defs>
      <g transform="translate(33.437329 104.259249)scale(0.1 -0.1)">
       <use transform="scale(0.996264)" xlink:href="#CMR17-54"/>
       <use transform="translate(45.690477 0)scale(0.996264)" xlink:href="#CMR17-48"/>
      </g>
     </g>
    </g>
    <g id="ytick_5">
     <g id="line2d_23">
      <path clip-path="url(#p29f04845b8)" d="M 50.4 75.6 
L 485.225738 75.6 
" style="fill:none;stroke:#808080;stroke-dasharray:2.96,1.28;stroke-dashoffset:0;stroke-width:0.8;"/>
     </g>
     <g id="line2d_24">
      <g>
       <use style="stroke:#000000;stroke-width:0.8;" x="50.4" xlink:href="#md9fa3eabbc" y="75.6"/>
      </g>
     </g>
     <g id="text_18">
      <!-- $80$ -->
      <defs>
       <path d="M 27.203125 35.375 
C 33.5 38.546875 39.90625 43.328125 39.90625 50.984375 
C 39.90625 60.015625 31.09375 65.296875 23 65.296875 
C 13.90625 65.296875 5.90625 58.734375 5.90625 49.6875 
C 5.90625 47.203125 6.5 42.921875 10.40625 39.140625 
C 11.40625 38.15625 15.59375 35.171875 18.296875 33.28125 
C 13.796875 30.984375 3.296875 25.53125 3.296875 14.59375 
C 3.296875 4.359375 13.09375 -2 22.796875 -2 
C 33.5 -2 42.5 5.65625 42.5 15.78125 
C 42.5 24.84375 36.40625 29.015625 32.40625 31.703125 
z
M 14.09375 44.09375 
C 13.296875 44.59375 9.296875 47.671875 9.296875 52.359375 
C 9.296875 58.421875 15.59375 63 22.796875 63 
C 30.703125 63 36.5 57.4375 36.5 50.96875 
C 36.5 41.703125 26.09375 36.421875 25.59375 36.421875 
C 25.5 36.421875 25.40625 36.421875 24.59375 37.03125 
z
M 32.5 23.734375 
C 34 22.640625 38.796875 19.375 38.796875 13.296875 
C 38.796875 5.953125 31.40625 0.390625 23 0.390625 
C 13.90625 0.390625 7 6.84375 7 14.6875 
C 7 22.546875 13.09375 29.09375 20 32.1875 
z
" id="CMR17-56"/>
      </defs>
      <g transform="translate(33.437329 79.059249)scale(0.1 -0.1)">
       <use transform="scale(0.996264)" xlink:href="#CMR17-56"/>
       <use transform="translate(45.690477 0)scale(0.996264)" xlink:href="#CMR17-48"/>
      </g>
     </g>
    </g>
    <g id="ytick_6">
     <g id="line2d_25">
      <path clip-path="url(#p29f04845b8)" d="M 50.4 50.4 
L 485.225738 50.4 
" style="fill:none;stroke:#808080;stroke-dasharray:2.96,1.28;stroke-dashoffset:0;stroke-width:0.8;"/>
     </g>
     <g id="line2d_26">
      <g>
       <use style="stroke:#000000;stroke-width:0.8;" x="50.4" xlink:href="#md9fa3eabbc" y="50.4"/>
      </g>
     </g>
     <g id="text_19">
      <!-- $100$ -->
      <defs>
       <path d="M 26.59375 63.40625 
C 26.59375 65.5 26.5 65.5 25.09375 65.5 
C 21.203125 61.1875 15.296875 59.796875 9.703125 59.796875 
C 9.40625 59.796875 8.90625 59.796875 8.796875 59.5 
C 8.703125 59.296875 8.703125 59.09375 8.703125 57 
C 11.796875 57 17 57.59375 21 59.984375 
L 21 7.203125 
C 21 3.6875 20.796875 2.5 12.203125 2.5 
L 9.203125 2.5 
L 9.203125 0 
C 14 0 19 0 23.796875 0 
C 28.59375 0 33.59375 0 38.40625 0 
L 38.40625 2.5 
L 35.40625 2.5 
C 26.796875 2.5 26.59375 3.59375 26.59375 7.15625 
z
" id="CMR17-49"/>
      </defs>
      <g transform="translate(28.455994 53.859249)scale(0.1 -0.1)">
       <use transform="scale(0.996264)" xlink:href="#CMR17-49"/>
       <use transform="translate(45.690477 0)scale(0.996264)" xlink:href="#CMR17-48"/>
       <use transform="translate(91.380954 0)scale(0.996264)" xlink:href="#CMR17-48"/>
      </g>
     </g>
    </g>
    <g id="text_20">
     <!-- \textbf{Percentage of the Maximum} -->
     <defs>
      <path d="M 21.703125 39.734375 
L 33.09375 39.734375 
L 33.09375 44 
L 21.203125 44 
L 21.203125 54.15625 
C 21.203125 64.421875 27.796875 66 31.09375 66 
C 32.203125 66 32.40625 65.890625 33 65.703125 
C 31.5 64.703125 30.59375 63.03125 30.59375 60.96875 
C 30.59375 57.015625 33.796875 55.25 36.40625 55.25 
C 38.59375 55.25 42.203125 56.71875 42.203125 61.078125 
C 42.203125 65.125 38.59375 69.28125 31.5 69.28125 
C 22.40625 69.28125 11.296875 65.515625 11.296875 54.0625 
L 11.296875 44 
L 3.90625 44 
L 3.90625 39.734375 
L 11.296875 39.734375 
L 11.296875 4.0625 
L 4.40625 4.0625 
L 4.40625 -0.203125 
C 6.703125 0 14.203125 0 17 0 
C 19.90625 0 28 0 30.40625 -0.203125 
L 30.40625 4.0625 
L 21.703125 4.0625 
z
" id="CMBX12-102"/>
      <path d="M 33.703125 24.484375 
L 45.296875 37.734375 
C 46.40625 39.03125 47.296875 39.828125 55.59375 39.828125 
L 55.59375 44 
C 50 44 49.796875 44 46.40625 44 
C 43.5 44 39.203125 44 36.40625 44.09375 
L 36.40625 39.828125 
C 38.296875 39.828125 40.40625 39.328125 40.40625 38.625 
C 40.40625 38.4375 39.90625 37.734375 39.703125 37.53125 
L 31 27.78125 
L 21.09375 39.828125 
L 25.296875 39.828125 
L 25.296875 44.09375 
C 23 44 16.203125 44 13.5 44 
C 10.5 44 5.09375 44 2.296875 44.09375 
L 2.296875 39.828125 
L 9.40625 39.828125 
L 25 20.90625 
L 12 6.265625 
C 10.796875 4.875 10.09375 4.171875 1.796875 4.171875 
L 1.796875 0 
C 7.796875 0 8 0 11.09375 0 
C 14 0 18.203125 0 21 -0.09375 
L 21 4.171875 
C 19.09375 4.171875 17 4.671875 17 5.375 
C 17 5.46875 17 5.5625 17.703125 6.359375 
L 27.703125 17.625 
L 38.796875 4.171875 
L 34.59375 4.171875 
L 34.59375 -0.09375 
C 37 0 43.703125 0 46.5 0 
C 49.5 0 54.796875 0 57.59375 -0.09375 
L 57.59375 4.171875 
L 50.59375 4.171875 
z
" id="CMBX12-120"/>
     </defs>
     <g transform="translate(22.131398 196.927052)rotate(-90)scale(0.12 -0.12)">
      <use transform="scale(0.996264)" xlink:href="#CMBX12-80"/>
      <use transform="translate(73.451486 0)scale(0.996264)" xlink:href="#CMBX12-101"/>
      <use transform="translate(124.590753 0)scale(0.996264)" xlink:href="#CMBX12-114"/>
      <use transform="translate(170.36826 0)scale(0.996264)" xlink:href="#CMBX12-99"/>
      <use transform="translate(220.181461 0)scale(0.996264)" xlink:href="#CMBX12-101"/>
      <use transform="translate(271.320728 0)scale(0.996264)" xlink:href="#CMBX12-110"/>
      <use transform="translate(330.473903 0)scale(0.996264)" xlink:href="#CMBX12-116"/>
      <use transform="translate(374.060454 0)scale(0.996264)" xlink:href="#CMBX12-97"/>
      <use transform="translate(428.543642 0)scale(0.996264)" xlink:href="#CMBX12-103"/>
      <use transform="translate(484.583492 0)scale(0.996264)" xlink:href="#CMBX12-101"/>
      <use transform="translate(573.08266 0)scale(0.996264)" xlink:href="#CMBX12-111"/>
      <use transform="translate(629.122511 0)scale(0.996264)" xlink:href="#CMBX12-102"/>
      <use transform="translate(700.728986 0)scale(0.996264)" xlink:href="#CMBX12-116"/>
      <use transform="translate(744.315537 0)scale(0.996264)" xlink:href="#CMBX12-104"/>
      <use transform="translate(806.582037 0)scale(0.996264)" xlink:href="#CMBX12-101"/>
      <use transform="translate(895.081205 0)scale(0.996264)" xlink:href="#CMBX12-77"/>
      <use transform="translate(1001.39563 0)scale(0.996264)" xlink:href="#CMBX12-97"/>
      <use transform="translate(1055.878818 0)scale(0.996264)" xlink:href="#CMBX12-120"/>
      <use transform="translate(1115.031994 0)scale(0.996264)" xlink:href="#CMBX12-105"/>
      <use transform="translate(1146.165244 0)scale(0.996264)" xlink:href="#CMBX12-109"/>
      <use transform="translate(1236.45167 0)scale(0.996264)" xlink:href="#CMBX12-117"/>
      <use transform="translate(1298.718171 0)scale(0.996264)" xlink:href="#CMBX12-109"/>
     </g>
    </g>
   </g>
   <g id="patch_55">
    <path d="M 50.4 176.4 
L 50.4 50.4 
" style="fill:none;stroke:#000000;stroke-linecap:square;stroke-linejoin:miter;stroke-width:0.8;"/>
   </g>
   <g id="patch_56">
    <path d="M 485.225738 176.4 
L 485.225738 50.4 
" style="fill:none;stroke:#000000;stroke-linecap:square;stroke-linejoin:miter;stroke-width:0.8;"/>
   </g>
   <g id="patch_57">
    <path d="M 50.4 176.4 
L 485.225738 176.4 
" style="fill:none;stroke:#000000;stroke-linecap:square;stroke-linejoin:miter;stroke-width:0.8;"/>
   </g>
   <g id="patch_58">
    <path d="M 50.4 50.4 
L 485.225738 50.4 
" style="fill:none;stroke:#000000;stroke-linecap:square;stroke-linejoin:miter;stroke-width:0.8;"/>
   </g>
   <g id="legend_1">
    <g id="patch_59">
     <path d="M 67.496515 43.049192 
L 394.505262 43.049192 
Q 396.905262 43.049192 396.905262 40.649192 
L 396.905262 8.4 
Q 396.905262 6 394.505262 6 
L 67.496515 6 
Q 65.096515 6 65.096515 8.4 
L 65.096515 40.649192 
Q 65.096515 43.049192 67.496515 43.049192 
z
" style="fill:#ffffff;opacity:0.8;stroke:#cccccc;stroke-linejoin:miter;"/>
    </g>
    <g id="patch_60">
     <path d="M 69.896515 19.2 
L 93.896515 19.2 
L 93.896515 10.8 
L 69.896515 10.8 
z
" style="fill:#ff0000;"/>
    </g>
    <g id="text_21">
     <!-- \textbf{Compute} -->
     <defs>
      <path d="M 28.203125 -14.921875 
L 21.296875 -14.921875 
L 21.296875 4.1875 
C 23.796875 2 28.203125 -0.5 34.203125 -0.5 
C 47.90625 -0.5 58.59375 7.703125 58.59375 22.140625 
C 58.59375 35.78125 49.296875 44.578125 35.796875 44.578125 
C 29.90625 44.578125 24.796875 42.78125 20.796875 39.90625 
L 20.796875 44.671875 
L 3.5 44.671875 
L 3.5 40 
C 9.703125 40 10.40625 40 10.40625 36.09375 
L 10.40625 -14.921875 
L 3.5 -14.921875 
L 3.5 -19.1875 
C 5.796875 -19 13 -19 15.796875 -19 
C 18.59375 -19 25.90625 -19 28.203125 -19.1875 
z
M 21.296875 35.09375 
C 25 39.53125 30.296875 41 34.203125 41 
C 40.703125 41 46.59375 35.171875 46.59375 22.140625 
C 46.59375 7.8125 39.40625 2.78125 33 2.78125 
C 28.703125 2.78125 24.40625 4.984375 21.296875 9.6875 
z
" id="CMBX12-112"/>
     </defs>
     <g transform="translate(103.496515 19.2)scale(0.12 -0.12)">
      <use transform="scale(0.996264)" xlink:href="#CMBX12-67"/>
      <use transform="translate(80.946451 0)scale(0.996264)" xlink:href="#CMBX12-111"/>
      <use transform="translate(136.986301 0)scale(0.996264)" xlink:href="#CMBX12-109"/>
      <use transform="translate(230.386052 0)scale(0.996264)" xlink:href="#CMBX12-112"/>
      <use transform="translate(292.652553 0)scale(0.996264)" xlink:href="#CMBX12-117"/>
      <use transform="translate(354.919054 0)scale(0.996264)" xlink:href="#CMBX12-116"/>
      <use transform="translate(398.505604 0)scale(0.996264)" xlink:href="#CMBX12-101"/>
     </g>
    </g>
    <g id="patch_61">
     <path d="M 69.896515 35.924596 
L 93.896515 35.924596 
L 93.896515 27.524596 
L 69.896515 27.524596 
z
" style="fill:#ffd700;"/>
    </g>
    <g id="text_22">
     <!-- \textbf{On-chip Memory} -->
     <defs>
      <path d="M 31.203125 17 
L 31.203125 26.140625 
L 1.203125 26.140625 
L 1.203125 17 
z
" id="CMBX12-45"/>
      <path d="M 49.5 37.828125 
C 50.09375 39.203125 50.5 40 56.90625 40 
L 56.90625 44.171875 
C 53.5 44.171875 53.09375 44.171875 49 44.171875 
C 46.296875 44.171875 46.09375 44.171875 40.40625 44.171875 
L 40.40625 40 
C 40.5 40 45.203125 40 45.203125 38.71875 
C 45.203125 38.421875 44.90625 37.828125 44.796875 37.53125 
L 33.09375 12.578125 
L 20.296875 40 
L 25.796875 40 
L 25.796875 44.265625 
C 23.40625 44.171875 16.59375 44.171875 13.796875 44.171875 
C 10.90625 44.171875 5 44.171875 2.40625 44.265625 
L 2.40625 40 
L 8.796875 40 
L 27.296875 0.3125 
C 26.796875 -0.875 25.40625 -3.75 24.90625 -4.9375 
C 22.796875 -9.390625 19.59375 -16.21875 12.59375 -16.21875 
C 12.203125 -16.21875 11 -16.21875 9.90625 -15.625 
C 10.09375 -15.515625 13.09375 -14.328125 13.09375 -10.5625 
C 13.09375 -7.3125 10.703125 -5.234375 7.703125 -5.234375 
C 4.59375 -5.234375 2.203125 -7.328125 2.203125 -10.6875 
C 2.203125 -15.34375 6.59375 -19.5 12.59375 -19.5 
C 20.796875 -19.5 26.203125 -12.171875 28.203125 -7.8125 
z
" id="CMBX12-121"/>
     </defs>
     <g transform="translate(103.496515 35.924596)scale(0.12 -0.12)">
      <use transform="scale(0.996264)" xlink:href="#CMBX12-79"/>
      <use transform="translate(84.175021 0)scale(0.996264)" xlink:href="#CMBX12-110"/>
      <use transform="translate(146.441521 0)scale(0.996264)" xlink:href="#CMBX12-45"/>
      <use transform="translate(183.801422 0)scale(0.996264)" xlink:href="#CMBX12-99"/>
      <use transform="translate(230.501297 0)scale(0.996264)" xlink:href="#CMBX12-104"/>
      <use transform="translate(292.767798 0)scale(0.996264)" xlink:href="#CMBX12-105"/>
      <use transform="translate(323.901048 0)scale(0.996264)" xlink:href="#CMBX12-112"/>
      <use transform="translate(423.527449 0)scale(0.996264)" xlink:href="#CMBX12-77"/>
      <use transform="translate(529.841874 0)scale(0.996264)" xlink:href="#CMBX12-101"/>
      <use transform="translate(580.981141 0)scale(0.996264)" xlink:href="#CMBX12-109"/>
      <use transform="translate(674.380892 0)scale(0.996264)" xlink:href="#CMBX12-111"/>
      <use transform="translate(730.420743 0)scale(0.996264)" xlink:href="#CMBX12-114"/>
      <use transform="translate(776.19825 0)scale(0.996264)" xlink:href="#CMBX12-121"/>
     </g>
    </g>
    <g id="patch_62">
     <path d="M 227.738664 19.2 
L 251.738664 19.2 
L 251.738664 10.8 
L 227.738664 10.8 
z
" style="fill:url(#he9d2315e26);"/>
    </g>
    <g id="text_23">
     <!-- \textbf{Dram Store Bandwith} -->
     <defs>
      <path d="M 72 37.4375 
C 72.703125 39.125 73 39.828125 78.796875 39.828125 
L 78.796875 44 
C 75.90625 44 74.59375 44 71 44 
C 66.90625 44 65.59375 44 62 44 
L 62 39.828125 
C 62.90625 39.828125 67.796875 39.828125 67.796875 38.53125 
C 67.796875 38.4375 67.796875 38.328125 67.40625 37.34375 
L 56.90625 11.515625 
L 45.40625 39.828125 
L 51.09375 39.828125 
L 51.09375 44.09375 
C 48.703125 44 42.796875 44 40.09375 44 
C 35 44 34.796875 44 29.796875 44 
L 29.796875 39.828125 
L 35.703125 39.828125 
C 36 39.03125 36.5 37.734375 36.90625 36.84375 
C 37.203125 36.25 38.203125 33.859375 38.203125 33.359375 
C 38.203125 33.171875 37.90625 32.46875 37.796875 32.171875 
L 30.203125 13.40625 
L 19.40625 39.828125 
L 25.09375 39.828125 
L 25.09375 44.09375 
C 22.796875 44 16 44 13.296875 44 
C 10.09375 44 5.296875 44 2.296875 44 
L 2.296875 39.828125 
L 8.203125 39.828125 
L 23.5 1.984375 
C 24.203125 0.203125 24.59375 -0.5 26.796875 -0.5 
C 27.90625 -0.5 29.09375 -0.5 29.90625 1.484375 
L 40.5 27.8125 
L 51.09375 1.6875 
C 52 -0.5 53.09375 -0.5 54.296875 -0.5 
C 56.5 -0.5 56.796875 0.09375 57.5 1.890625 
z
" id="CMBX12-119"/>
     </defs>
     <g transform="translate(261.338664 19.2)scale(0.12 -0.12)">
      <use transform="scale(0.996264)" xlink:href="#CMBX12-68"/>
      <use transform="translate(85.904786 0)scale(0.996264)" xlink:href="#CMBX12-114"/>
      <use transform="translate(131.682293 0)scale(0.996264)" xlink:href="#CMBX12-97"/>
      <use transform="translate(186.165481 0)scale(0.996264)" xlink:href="#CMBX12-109"/>
      <use transform="translate(316.925132 0)scale(0.996264)" xlink:href="#CMBX12-83"/>
      <use transform="translate(379.191633 0)scale(0.996264)" xlink:href="#CMBX12-116"/>
      <use transform="translate(422.778183 0)scale(0.996264)" xlink:href="#CMBX12-111"/>
      <use transform="translate(478.818034 0)scale(0.996264)" xlink:href="#CMBX12-114"/>
      <use transform="translate(524.595541 0)scale(0.996264)" xlink:href="#CMBX12-101"/>
      <use transform="translate(613.094709 0)scale(0.996264)" xlink:href="#CMBX12-66"/>
      <use transform="translate(692.772845 0)scale(0.996264)" xlink:href="#CMBX12-97"/>
      <use transform="translate(747.256033 0)scale(0.996264)" xlink:href="#CMBX12-110"/>
      <use transform="translate(809.522533 0)scale(0.996264)" xlink:href="#CMBX12-100"/>
      <use transform="translate(871.789034 0)scale(0.996264)" xlink:href="#CMBX12-119"/>
      <use transform="translate(952.735485 0)scale(0.996264)" xlink:href="#CMBX12-105"/>
      <use transform="translate(983.868735 0)scale(0.996264)" xlink:href="#CMBX12-116"/>
      <use transform="translate(1027.455285 0)scale(0.996264)" xlink:href="#CMBX12-104"/>
     </g>
    </g>
    <g id="patch_63">
     <path d="M 227.738664 35.924596 
L 251.738664 35.924596 
L 251.738664 27.524596 
L 227.738664 27.524596 
z
" style="fill:url(#h7e28cd493f);"/>
    </g>
    <g id="text_24">
     <!-- \textbf{Dram Load Bandwith} -->
     <g transform="translate(261.338664 35.924596)scale(0.12 -0.12)">
      <use transform="scale(0.996264)" xlink:href="#CMBX12-68"/>
      <use transform="translate(85.904786 0)scale(0.996264)" xlink:href="#CMBX12-114"/>
      <use transform="translate(131.682293 0)scale(0.996264)" xlink:href="#CMBX12-97"/>
      <use transform="translate(186.165481 0)scale(0.996264)" xlink:href="#CMBX12-109"/>
      <use transform="translate(316.925132 0)scale(0.996264)" xlink:href="#CMBX12-76"/>
      <use transform="translate(384.265228 0)scale(0.996264)" xlink:href="#CMBX12-111"/>
      <use transform="translate(440.305078 0)scale(0.996264)" xlink:href="#CMBX12-97"/>
      <use transform="translate(494.788267 0)scale(0.996264)" xlink:href="#CMBX12-100"/>
      <use transform="translate(594.414668 0)scale(0.996264)" xlink:href="#CMBX12-66"/>
      <use transform="translate(674.092803 0)scale(0.996264)" xlink:href="#CMBX12-97"/>
      <use transform="translate(728.575991 0)scale(0.996264)" xlink:href="#CMBX12-110"/>
      <use transform="translate(790.842492 0)scale(0.996264)" xlink:href="#CMBX12-100"/>
      <use transform="translate(853.108993 0)scale(0.996264)" xlink:href="#CMBX12-119"/>
      <use transform="translate(934.055443 0)scale(0.996264)" xlink:href="#CMBX12-105"/>
      <use transform="translate(965.188694 0)scale(0.996264)" xlink:href="#CMBX12-116"/>
      <use transform="translate(1008.775244 0)scale(0.996264)" xlink:href="#CMBX12-104"/>
     </g>
    </g>
   </g>
  </g>
 </g>
 <defs>
  <clipPath id="p29f04845b8">
   <rect height="126" width="434.825738" x="50.4" y="50.4"/>
  </clipPath>
 </defs>
 <defs>
  <pattern height="72" id="he9d2315e26" patternUnits="userSpaceOnUse" width="72" x="0" y="0">
   <rect fill="#1e90ff" height="73" width="73" x="0" y="0"/>
   <path d="M -36 36 
L 36 -36 
M -33 39 
L 39 -33 
M -30 42 
L 42 -30 
M -27 45 
L 45 -27 
M -24 48 
L 48 -24 
M -21 51 
L 51 -21 
M -18 54 
L 54 -18 
M -15 57 
L 57 -15 
M -12 60 
L 60 -12 
M -9 63 
L 63 -9 
M -6 66 
L 66 -6 
M -3 69 
L 69 -3 
M 0 72 
L 72 0 
M 3 75 
L 75 3 
M 6 78 
L 78 6 
M 9 81 
L 81 9 
M 12 84 
L 84 12 
M 15 87 
L 87 15 
M 18 90 
L 90 18 
M 21 93 
L 93 21 
M 24 96 
L 96 24 
M 27 99 
L 99 27 
M 30 102 
L 102 30 
M 33 105 
L 105 33 
M 36 108 
L 108 36 
" style="fill:#000000;stroke:#000000;stroke-linecap:butt;stroke-linejoin:miter;stroke-width:1.0;"/>
  </pattern>
  <pattern height="72" id="h7e28cd493f" patternUnits="userSpaceOnUse" width="72" x="0" y="0">
   <rect fill="#228b22" height="73" width="73" x="0" y="0"/>
   <path d="M -36 36 
L 36 108 
M -33 33 
L 39 105 
M -30 30 
L 42 102 
M -27 27 
L 45 99 
M -24 24 
L 48 96 
M -21 21 
L 51 93 
M -18 18 
L 54 90 
M -15 15 
L 57 87 
M -12 12 
L 60 84 
M -9 9 
L 63 81 
M -6 6 
L 66 78 
M -3 3 
L 69 75 
M 0 0 
L 72 72 
M 3 -3 
L 75 69 
M 6 -6 
L 78 66 
M 9 -9 
L 81 63 
M 12 -12 
L 84 60 
M 15 -15 
L 87 57 
M 18 -18 
L 90 54 
M 21 -21 
L 93 51 
M 24 -24 
L 96 48 
M 27 -27 
L 99 45 
M 30 -30 
L 102 42 
M 33 -33 
L 105 39 
M 36 -36 
L 108 36 
" style="fill:#000000;stroke:#000000;stroke-linecap:butt;stroke-linejoin:miter;stroke-width:1.0;"/>
  </pattern>
 </defs>
</svg>
