<?xml version="1.0" encoding="utf-8" standalone="no"?>
<!DOCTYPE svg PUBLIC "-//W3C//DTD SVG 1.1//EN"
  "http://www.w3.org/Graphics/SVG/1.1/DTD/svg11.dtd">
<!-- Created with matplotlib (https://matplotlib.org/) -->
<svg height="180pt" version="1.1" viewBox="0 0 432 180" width="432pt" xmlns="http://www.w3.org/2000/svg" xmlns:xlink="http://www.w3.org/1999/xlink">
 <defs>
  <style type="text/css">
*{stroke-linecap:butt;stroke-linejoin:round;white-space:pre;}
  </style>
 </defs>
 <g id="figure_1">
  <g id="patch_1">
   <path d="M 0 180 
L 432 180 
L 432 0 
L 0 0 
z
" style="fill:#ffffff;"/>
  </g>
  <g id="axes_1">
   <g id="patch_2">
    <path d="M 64.8 117 
L 415.907775 117 
L 415.907775 7.426692 
L 64.8 7.426692 
z
" style="fill:#ffffff;"/>
   </g>
   <g id="matplotlib.axis_1">
    <g id="xtick_1">
     <g id="line2d_1">
      <defs>
       <path d="M 0 0 
L 0 3.5 
" id="mc6f2acb14a" style="stroke:#000000;stroke-width:0.8;"/>
      </defs>
      <g>
       <use style="stroke:#000000;stroke-width:0.8;" x="72.902487" xlink:href="#mc6f2acb14a" y="117"/>
      </g>
     </g>
     <g id="text_1">
      <!-- \textbf{BlackScholes} -->
      <defs>
       <path d="M 3.90625 68.28125 
L 3.90625 64 
L 14.5 64 
L 14.5 4.265625 
L 3.90625 4.265625 
L 3.90625 0 
L 49.09375 0 
C 65.59375 0 73.703125 8.828125 73.703125 18.34375 
C 73.703125 27.78125 65.40625 34.625 53.296875 35.515625 
C 67.703125 38.21875 70.5 46.40625 70.5 51.09375 
C 70.5 60.28125 62.09375 68.28125 46.09375 68.28125 
z
M 26.796875 37 
L 26.796875 64 
L 44.90625 64 
C 55.203125 64 57.296875 56.203125 57.296875 51.1875 
C 57.296875 44.1875 53.40625 37 41.703125 37 
z
M 26.796875 4.265625 
L 26.796875 33.71875 
L 46.703125 33.71875 
C 58.40625 33.71875 60.09375 23 60.09375 18.546875 
C 60.09375 12.296875 56.703125 4.265625 45.203125 4.265625 
z
" id="CMBX12-66"/>
       <path d="M 21.703125 69 
L 4.40625 69 
L 4.40625 64.328125 
C 10.59375 64.328125 11.296875 64.328125 11.296875 60.40625 
L 11.296875 4.0625 
L 4.40625 4.0625 
L 4.40625 -0.203125 
C 6.703125 0 13.796875 0 16.5 0 
C 19.203125 0 26.296875 0 28.59375 -0.203125 
L 28.59375 4.0625 
L 21.703125 4.0625 
z
" id="CMBX12-108"/>
       <path d="M 46 29.65625 
C 46 38.8125 38.703125 44.984375 24.59375 44.984375 
C 19 44.984375 7.203125 44.984375 7.203125 36.46875 
C 7.203125 32.203125 10.40625 30.390625 13.09375 30.390625 
C 16.09375 30.390625 19 32.484375 19 36.296875 
C 19 38.203125 18.296875 39.984375 16.59375 41.09375 
C 19.90625 42 22.296875 42 24.203125 42 
C 31 42 35.09375 38.203125 35.09375 29.984375 
L 35.09375 25.984375 
C 19.296875 25.984375 3.40625 21.59375 3.40625 10.5625 
C 3.40625 1.484375 15 -0.5 21.90625 -0.5 
C 29.59375 -0.5 34.5 3.640625 36.5 7.96875 
C 36.5 4.28125 36.5 0 46.59375 0 
L 51.703125 0 
C 53.796875 0 54.59375 0 54.59375 2.265625 
C 54.59375 4.265625 53.703125 4.265625 52.296875 4.265625 
C 46 4.265625 46 5.84375 46 8.15625 
z
M 35.09375 13.78125 
C 35.09375 4.546875 26.703125 2.78125 23.5 2.78125 
C 18.59375 2.78125 14.5 6.09375 14.5 10.71875 
C 14.5 19.890625 25.296875 23 35.09375 23 
z
" id="CMBX12-97"/>
       <path d="M 46.796875 11.765625 
C 46.796875 12.953125 45.703125 12.953125 44.703125 12.953125 
C 43.09375 12.953125 43 12.859375 42.5 11.671875 
C 41.796875 9.765625 39.09375 3.078125 29.90625 3.078125 
C 15.796875 3.078125 15.796875 18.21875 15.796875 22.703125 
C 15.796875 28.578125 15.90625 41.625 29 41.625 
C 29.703125 41.625 35.59375 41.625 35.59375 41.125 
C 35.59375 41 35.5 40.90625 35.296875 40.8125 
C 35 40.515625 33.703125 39 33.703125 36.46875 
C 33.703125 32.25 37.09375 30.53125 39.59375 30.53125 
C 41.703125 30.53125 45.5 31.859375 45.5 36.65625 
C 45.5 45 34 45 28.59375 45 
C 10.796875 45 3.796875 33.515625 3.796875 22.09375 
C 3.796875 8.625 13.296875 -0.5 28 -0.5 
C 43.703125 -0.5 46.796875 11.0625 46.796875 11.765625 
z
" id="CMBX12-99"/>
       <path d="M 33.203125 27.8125 
L 45.796875 38.03125 
C 47 39.03125 48.09375 39.9375 55 39.9375 
L 55 44.203125 
C 52.40625 44 50.40625 44 46.703125 44 
C 44.09375 44 38.5 44 36.203125 44.203125 
L 36.203125 39.9375 
C 37.40625 39.9375 39.796875 39.640625 39.796875 38.828125 
C 39.796875 38.421875 39.203125 38.03125 39 37.828125 
L 20.796875 23.203125 
L 20.796875 69 
L 3.5 69 
L 3.5 64.328125 
C 9.703125 64.328125 10.40625 64.328125 10.40625 60.390625 
L 10.40625 4.0625 
L 3.5 4.0625 
L 3.5 -0.203125 
C 5.796875 0 12.703125 0 15.40625 0 
C 18.09375 0 25 0 27.296875 -0.203125 
L 27.296875 4.0625 
L 20.40625 4.0625 
L 20.40625 17.484375 
C 22 18.703125 23.5 19.984375 25.703125 21.796875 
L 37.796875 6.171875 
C 38.5 5.375 38.5 5.171875 38.5 5.078125 
C 38.5 4.0625 36.5 4.0625 35.09375 4.0625 
L 35.09375 -0.203125 
C 37.5 0 44.09375 0 46.796875 0 
C 51.90625 0 53.296875 0 57.5 0 
L 57.5 4.0625 
C 55.90625 4.0625 53.90625 4.0625 52.796875 4.171875 
C 51.40625 4.46875 51 4.765625 49.90625 6.171875 
z
" id="CMBX12-107"/>
       <path d="M 25.40625 43.46875 
C 15.5 45.625 15.203125 52.75 15.203125 54.140625 
C 15.203125 59.171875 18.5 65.03125 28.203125 65.03125 
C 37.90625 65.03125 46.59375 60.359375 48.703125 47.34375 
C 49 45.25 49 45.25 50.90625 45.25 
C 53 45.25 53 45.546875 53 47.8125 
L 53 66.4375 
C 53 68.3125 53 69.015625 51.5 69.015625 
C 50.796875 69.015625 50.5 68.921875 49.59375 67.921875 
L 45.296875 63.046875 
C 42.796875 65.140625 37.796875 69 28.09375 69 
C 13.796875 69 6.203125 60.09375 6.203125 49.3125 
C 6.203125 42.6875 9.796875 38.03125 11.203125 36.640625 
C 16.40625 31.5 19.203125 30.90625 29.59375 28.625 
C 39.59375 26.453125 40.796875 26.25 43 24.1875 
C 44.296875 22.890625 47.203125 20.125 47.203125 15.078125 
C 47.203125 10.8125 45.09375 3 33.90625 3 
C 25.09375 3 11.203125 5.96875 10.40625 20.421875 
C 10.296875 22.203125 10.296875 22.5 8.296875 22.5 
C 6.203125 22.5 6.203125 22.203125 6.203125 19.921875 
L 6.203125 1.296875 
C 6.203125 -0.59375 6.203125 -1.28125 7.703125 -1.28125 
C 8.40625 -1.28125 8.5 -1.1875 9.5 -0.296875 
C 10.59375 0.796875 11.5 2.09375 14 4.578125 
C 19.796875 0.015625 28 -1.265625 34 -1.265625 
C 49.59375 -1.265625 56.203125 9.21875 56.203125 19.71875 
C 56.203125 29 50 37.90625 39.09375 40.375 
z
" id="CMBX12-83"/>
       <path d="M 53.09375 30.0625 
C 53.09375 39.453125 49 44.28125 38 44.28125 
C 27.90625 44.28125 23 37.25 21.59375 34.28125 
L 21.5 34.28125 
L 21.5 69 
L 4.203125 69 
L 4.203125 64.328125 
C 10.40625 64.328125 11.09375 64.328125 11.09375 60.28125 
L 11.09375 4.0625 
L 4.203125 4.0625 
L 4.203125 -0.203125 
C 6.5 0 13.703125 0 16.5 0 
C 19.296875 0 26.59375 0 28.90625 -0.203125 
L 28.90625 4.0625 
L 22 4.0625 
L 22 25.109375 
C 22 35.765625 30 41 36.40625 41 
C 40.09375 41 42.203125 38.640625 42.203125 31.140625 
L 42.203125 4.0625 
L 35.296875 4.0625 
L 35.296875 -0.203125 
C 37.59375 0 44.796875 0 47.59375 0 
C 50.40625 0 57.703125 0 60 -0.203125 
L 60 4.0625 
L 53.09375 4.0625 
z
" id="CMBX12-104"/>
       <path d="M 53 21.796875 
C 53 35.1875 43.796875 45 28.09375 45 
C 11.796875 45 3.09375 34.6875 3.09375 21.796875 
C 3.09375 8.828125 12.296875 -0.5 28 -0.5 
C 44.296875 -0.5 53 9.3125 53 21.796875 
z
M 28.09375 3.078125 
C 15.09375 3.078125 15.09375 14.671875 15.09375 22.796875 
C 15.09375 27.453125 15.09375 32.40625 17 35.984375 
C 19.203125 39.9375 23.703125 41.71875 28 41.71875 
C 33.703125 41.71875 37.296875 39.046875 39 36.28125 
C 41 32.703125 41 27.546875 41 22.796875 
C 41 14.5625 41 3.078125 28.09375 3.078125 
z
" id="CMBX12-111"/>
       <path d="M 45.203125 22 
C 47.5 22 48.09375 22 48.09375 24.484375 
C 48.09375 27.46875 47.40625 34.890625 42.796875 39.5625 
C 38.59375 43.71875 33 45 27.203125 45 
C 11.59375 45 3.09375 34.890625 3.09375 22.40625 
C 3.09375 8.515625 13.40625 -0.5 28.5 -0.5 
C 43.59375 -0.5 48.09375 10 48.09375 11.6875 
C 48.09375 13.171875 46.59375 13.171875 46 13.171875 
C 44.40625 13.171875 44.296875 12.875 43.703125 11.59375 
C 41.09375 5.15625 34.5 3.078125 29.703125 3.078125 
C 15.203125 3.078125 15.09375 16.453125 15.09375 22 
z
M 15.09375 24.890625 
C 15.296875 28.9375 15.40625 32.8125 17.5 36.375 
C 19.40625 39.546875 22.90625 41.71875 27.203125 41.71875 
C 37.90625 41.71875 38.796875 29.828125 38.90625 24.890625 
z
" id="CMBX12-101"/>
       <path d="M 37.703125 42.421875 
C 37.703125 44.3125 37.703125 45 36.203125 45 
C 35.59375 45 35.40625 45 33.90625 44.109375 
C 33.5 43.8125 32.40625 43.109375 31.90625 42.8125 
C 29.09375 44.40625 25.40625 45 21.796875 45 
C 18.796875 45 3.796875 45 3.796875 32.125 
C 3.796875 21.703125 16.203125 19.53125 19.296875 19.03125 
C 22 18.546875 25.296875 17.9375 25.703125 17.9375 
C 29.703125 17.046875 33.703125 14.5625 33.703125 10.40625 
C 33.703125 2.78125 24.59375 2.78125 22.5 2.78125 
C 17.40625 2.78125 11.09375 4.359375 8.296875 14 
C 7.703125 15.984375 7.59375 15.984375 5.90625 15.984375 
C 3.796875 15.984375 3.796875 15.6875 3.796875 13.40625 
L 3.796875 2.0625 
C 3.796875 0.1875 3.796875 -0.5 5.296875 -0.5 
C 6 -0.5 6.203125 -0.5 8.203125 1.09375 
L 10.796875 2.984375 
C 15.296875 -0.5 20.703125 -0.5 22.5 -0.5 
C 28 -0.5 40.5 0.6875 40.5 13.875 
C 40.5 18.625 37.90625 21.90625 35.90625 23.6875 
C 31.796875 27.046875 28.40625 27.65625 23 28.640625 
C 16.59375 29.734375 10.59375 30.828125 10.59375 35.578125 
C 10.59375 42.015625 19.5 42.015625 21.59375 42.015625 
C 32.703125 42.015625 33.296875 35.078125 33.5 32.609375 
C 33.59375 31.328125 34.40625 31.328125 35.59375 31.328125 
C 37.703125 31.328125 37.703125 31.625 37.703125 33.90625 
z
" id="CMBX12-115"/>
      </defs>
      <g transform="translate(22.701539 170.378633)rotate(-40)scale(0.1 -0.1)">
       <use transform="scale(0.996264)" xlink:href="#CMBX12-66"/>
       <use transform="translate(79.678136 0)scale(0.996264)" xlink:href="#CMBX12-108"/>
       <use transform="translate(110.811386 0)scale(0.996264)" xlink:href="#CMBX12-97"/>
       <use transform="translate(165.294574 0)scale(0.996264)" xlink:href="#CMBX12-99"/>
       <use transform="translate(211.99445 0)scale(0.996264)" xlink:href="#CMBX12-107"/>
       <use transform="translate(271.147625 0)scale(0.996264)" xlink:href="#CMBX12-83"/>
       <use transform="translate(333.414126 0)scale(0.996264)" xlink:href="#CMBX12-99"/>
       <use transform="translate(380.114001 0)scale(0.996264)" xlink:href="#CMBX12-104"/>
       <use transform="translate(442.380502 0)scale(0.996264)" xlink:href="#CMBX12-111"/>
       <use transform="translate(498.420352 0)scale(0.996264)" xlink:href="#CMBX12-108"/>
       <use transform="translate(529.553603 0)scale(0.996264)" xlink:href="#CMBX12-101"/>
       <use transform="translate(580.69287 0)scale(0.996264)" xlink:href="#CMBX12-115"/>
      </g>
     </g>
    </g>
    <g id="xtick_2">
     <g id="line2d_2">
      <g>
       <use style="stroke:#000000;stroke-width:0.8;" x="99.910778" xlink:href="#mc6f2acb14a" y="117"/>
      </g>
     </g>
     <g id="text_2">
      <!-- \textbf{DotProduct} -->
      <defs>
       <path d="M 3.796875 68.28125 
L 3.796875 64 
L 14.40625 64 
L 14.40625 4.265625 
L 3.796875 4.265625 
L 3.796875 0 
L 45.90625 0 
C 65.09375 0 79.90625 12.234375 79.90625 33.546875 
C 79.90625 56.046875 64.703125 68.28125 45.90625 68.28125 
z
M 27.09375 4.265625 
L 27.09375 64 
L 42.09375 64 
C 50.796875 64 57.796875 60.625 61.5 55.4375 
C 64.40625 51.359375 66.296875 46.484375 66.296875 33.640625 
C 66.296875 21.984375 64.796875 16.828125 61.296875 12.140625 
C 57.796875 7.546875 51.09375 4.265625 42.09375 4.265625 
z
" id="CMBX12-68"/>
       <path d="M 21.09375 40 
L 35.5 40 
L 35.5 44.265625 
L 21.09375 44.265625 
L 21.09375 63 
L 16.90625 63 
C 16.796875 53.203125 12 43.375 2.09375 43.375 
L 2.09375 40 
L 10.203125 40 
L 10.203125 12.328125 
C 10.203125 1.78125 18.40625 -0.5 25.59375 -0.5 
C 33 -0.5 37.40625 5.078125 37.40625 12.421875 
L 37.40625 17.703125 
L 33.203125 17.703125 
L 33.203125 12.53125 
C 33.203125 5.953125 30.203125 3.078125 27.09375 3.078125 
C 21.09375 3.078125 21.09375 9.75 21.09375 12.03125 
z
" id="CMBX12-116"/>
       <path d="M 27.59375 30.21875 
L 44.59375 30.21875 
C 61.296875 30.21875 70.59375 38.65625 70.59375 48.875 
C 70.59375 59.5625 61.09375 68 44.59375 68 
L 3.796875 68 
L 3.796875 63.71875 
L 14.40625 63.71875 
L 14.40625 4.171875 
L 3.796875 4.171875 
L 3.796875 0 
C 6.703125 0 17.40625 0 21 0 
C 24.59375 0 35.296875 0 38.203125 0 
L 38.203125 4.171875 
L 27.59375 4.171875 
z
M 41 63.71875 
C 56.5 63.71875 56.5 55.59375 56.5 48.859375 
C 56.5 42.328125 56.5 34 41 34 
L 27.09375 34 
L 27.09375 63.71875 
z
" id="CMBX12-80"/>
       <path d="M 20.796875 22.046875 
C 20.796875 25.296875 21.5 41 33.203125 41 
C 31.796875 39.921875 31.09375 38.25 31.09375 36.5 
C 31.09375 32.484375 34.40625 30.8125 36.90625 30.8125 
C 39.40625 30.8125 42.703125 32.484375 42.703125 36.515625 
C 42.703125 41.53125 37.5 44.28125 32.703125 44.28125 
C 24.796875 44.28125 21.40625 37.515625 20 33.390625 
L 19.90625 33.390625 
L 19.90625 44 
L 3.5 44 
L 3.5 39.328125 
C 9.703125 39.328125 10.40625 39.328125 10.40625 35.46875 
L 10.40625 4.0625 
L 3.5 4.0625 
L 3.5 -0.203125 
C 5.796875 0 13.296875 0 16.09375 0 
C 19 0 27.09375 0 29.5 -0.203125 
L 29.5 4.0625 
L 20.796875 4.0625 
z
" id="CMBX12-114"/>
       <path d="M 34.703125 69 
L 34.703125 64.328125 
C 40.90625 64.328125 41.59375 64.328125 41.59375 60.421875 
L 41.59375 40.234375 
C 39.40625 42.125 35 45 28.09375 45 
C 13.90625 45 3.796875 36.21875 3.796875 22.25 
C 3.796875 7.96875 13.703125 -0.5 27 -0.5 
C 32.5 -0.5 37.203125 1.46875 41.09375 4.859375 
L 41.09375 0 
L 58.90625 0 
L 58.90625 4.5625 
C 52.703125 4.5625 52 4.5625 52 8.4375 
L 52 69 
z
M 41.09375 10.328125 
C 36.90625 4.09375 31.796875 2.78125 28.203125 2.78125 
C 15.796875 2.78125 15.796875 15.453125 15.796875 22.046875 
C 15.796875 26.75 15.796875 31.75 18 35.53125 
C 21.09375 41.125 27 41.71875 29.296875 41.71875 
C 33.40625 41.71875 37.796875 39.9375 41.09375 35.5625 
z
" id="CMBX12-100"/>
       <path d="M 35.296875 44.671875 
L 35.296875 40 
C 41.5 40 42.203125 40 42.203125 36.125 
L 42.203125 16.5 
C 42.203125 8.890625 37.703125 2.78125 29.90625 2.78125 
C 22.40625 2.78125 22 5.265625 22 10.6875 
L 22 44.671875 
L 4.203125 44.671875 
L 4.203125 40 
C 10.40625 40 11.09375 40 11.09375 36.125 
L 11.09375 12.40625 
C 11.09375 2.390625 17.796875 -0.5 28.5 -0.5 
C 30.90625 -0.5 38.296875 -0.5 42.59375 7.75 
L 42.703125 7.75 
L 42.703125 0 
L 60 0 
L 60 4.5625 
C 53.796875 4.5625 53.09375 4.5625 53.09375 8.4375 
L 53.09375 44.671875 
z
" id="CMBX12-117"/>
      </defs>
      <g transform="translate(52.821868 167.767322)rotate(-40)scale(0.1 -0.1)">
       <use transform="scale(0.996264)" xlink:href="#CMBX12-68"/>
       <use transform="translate(85.904786 0)scale(0.996264)" xlink:href="#CMBX12-111"/>
       <use transform="translate(141.944636 0)scale(0.996264)" xlink:href="#CMBX12-116"/>
       <use transform="translate(185.531187 0)scale(0.996264)" xlink:href="#CMBX12-80"/>
       <use transform="translate(262.095997 0)scale(0.996264)" xlink:href="#CMBX12-114"/>
       <use transform="translate(307.873505 0)scale(0.996264)" xlink:href="#CMBX12-111"/>
       <use transform="translate(367.02668 0)scale(0.996264)" xlink:href="#CMBX12-100"/>
       <use transform="translate(429.293181 0)scale(0.996264)" xlink:href="#CMBX12-117"/>
       <use transform="translate(491.559682 0)scale(0.996264)" xlink:href="#CMBX12-99"/>
       <use transform="translate(541.372882 0)scale(0.996264)" xlink:href="#CMBX12-116"/>
      </g>
     </g>
    </g>
    <g id="xtick_3">
     <g id="line2d_3">
      <g>
       <use style="stroke:#000000;stroke-width:0.8;" x="126.919068" xlink:href="#mc6f2acb14a" y="117"/>
      </g>
     </g>
     <g id="text_3">
      <!-- \textbf{GDA} -->
      <defs>
       <path d="M 74.90625 22.828125 
L 82.703125 22.828125 
L 82.703125 27.09375 
C 80.296875 27 69.59375 27 66.40625 27 
C 60.296875 27 53.703125 27 47.59375 27 
L 47.59375 22.828125 
L 61.703125 22.828125 
L 61.703125 12.671875 
C 61.703125 10.578125 61.703125 7.78125 57.703125 5.28125 
C 55.703125 4 52.59375 3 48.40625 3 
C 42.703125 3 32.796875 4.390625 26.59375 11.609375 
C 22.703125 16.046875 20.296875 22.09375 20.296875 33.953125 
C 20.296875 44.15625 22 51.078125 26.5 56.3125 
C 32.90625 63.734375 42.90625 64.734375 47.703125 64.734375 
C 55.203125 64.734375 67.296875 60.578125 70.296875 43.25 
C 70.5 42.359375 71.40625 42.359375 72.59375 42.359375 
C 74.90625 42.359375 74.90625 42.5625 74.90625 44.9375 
L 74.90625 66.453125 
C 74.90625 68.734375 74.90625 69.03125 72.703125 69.03125 
L 65.203125 61.875 
C 59.59375 66.625 52.90625 69 45.5 69 
C 21.59375 69 6.203125 54.640625 6.203125 33.859375 
C 6.203125 13.46875 21.09375 -1.265625 45.59375 -1.265625 
C 52.296875 -1.265625 60.203125 0.21875 64.296875 5.484375 
C 67.703125 2.359375 73.40625 0 73.703125 0 
C 74.90625 0 74.90625 1 74.90625 2.578125 
z
" id="CMBX12-71"/>
       <path d="M 45.796875 67.203125 
C 45.09375 69 44.90625 69.5 42.5 69.5 
C 40 69.5 39.796875 69 39.09375 67.203125 
L 14.296875 6.453125 
C 13.59375 4.859375 13.59375 4.671875 10.796875 4.359375 
C 8.296875 4.0625 7.90625 4.0625 5.703125 4.0625 
L 3.90625 4.0625 
L 3.90625 -0.203125 
C 6.5 0 12.5 0 15.40625 0 
C 18.09375 0 25.40625 0 27.703125 -0.203125 
L 27.703125 4.0625 
C 25.5 4.0625 21.703125 4.0625 18.90625 5.171875 
C 19.203125 6.09375 19.203125 6.28125 19.40625 6.6875 
L 24.703125 19.71875 
L 51.5 19.71875 
L 57.796875 4.0625 
L 48.40625 4.0625 
L 48.40625 0 
C 51.59375 0 61.296875 0 65.09375 0 
C 68.296875 0 78.5 0 81 -0.203125 
L 81 4.0625 
L 71.5 4.0625 
z
M 38.09375 52.609375 
L 49.703125 24 
L 26.40625 24 
z
" id="CMBX12-65"/>
      </defs>
      <g transform="translate(105.651047 146.101024)rotate(-40)scale(0.1 -0.1)">
       <use transform="scale(0.996264)" xlink:href="#CMBX12-71"/>
       <use transform="translate(88.09556 0)scale(0.996264)" xlink:href="#CMBX12-68"/>
       <use transform="translate(170.887021 0)scale(0.996264)" xlink:href="#CMBX12-65"/>
      </g>
     </g>
    </g>
    <g id="xtick_4">
     <g id="line2d_4">
      <g>
       <use style="stroke:#000000;stroke-width:0.8;" x="153.927358" xlink:href="#mc6f2acb14a" y="117"/>
      </g>
     </g>
     <g id="text_4">
      <!-- \textbf{GEMM} -->
      <defs>
       <path d="M 70.59375 26.90625 
L 66.40625 26.90625 
C 64.296875 12.046875 60.59375 4.265625 43.203125 4.265625 
L 27.59375 4.265625 
L 27.59375 33 
L 33.5 33 
C 43.09375 33 44.09375 28.953125 44.09375 21.484375 
L 48.296875 21.484375 
L 48.296875 49 
L 44.09375 49 
C 44.09375 41.484375 43.09375 37.265625 33.5 37.265625 
L 27.59375 37.265625 
L 27.59375 63.71875 
L 43.203125 63.71875 
C 58.5 63.71875 61.796875 57.171875 63.296875 44.1875 
L 67.5 44.1875 
L 64.59375 68 
L 3.796875 68 
L 3.796875 63.71875 
L 14.40625 63.71875 
L 14.40625 4.265625 
L 3.796875 4.265625 
L 3.796875 0 
L 66.296875 0 
z
" id="CMBX12-69"/>
       <path d="M 53.296875 12.453125 
L 29.296875 65.90625 
C 28.40625 68 27.5 68 25.40625 68 
L 4.09375 68 
L 4.09375 63.71875 
L 14.703125 63.71875 
L 14.703125 6.9375 
C 14.703125 4.75 14.59375 4.65625 12 4.25 
C 10.203125 4.0625 8.203125 4.0625 6.40625 4.0625 
L 4.09375 4.0625 
L 4.09375 -0.203125 
C 6.40625 0 14.203125 0 17 0 
C 19.796875 0 27.703125 0 30 -0.203125 
L 30 4.0625 
L 27.703125 4.0625 
C 25 4.0625 24.796875 4.0625 22.40625 4.359375 
C 19.5 4.765625 19.40625 4.859375 19.40625 7.046875 
L 19.40625 62.53125 
L 19.5 62.53125 
L 46.703125 2.09375 
C 47.203125 1 47.796875 0 49.5 0 
C 51.203125 0 51.796875 1 52.296875 2.09375 
L 80 63.71875 
L 80.09375 63.71875 
L 80.09375 4.0625 
L 69.5 4.0625 
L 69.5 -0.203125 
C 72.203125 0 82.59375 0 86 0 
C 89.40625 0 99.796875 0 102.5 -0.203125 
L 102.5 4.0625 
L 91.90625 4.0625 
L 91.90625 63.71875 
L 102.5 63.71875 
L 102.5 68 
L 81.203125 68 
C 79.09375 68 78.203125 68 77.296875 65.90625 
z
" id="CMBX12-77"/>
      </defs>
      <g transform="translate(123.352798 153.910137)rotate(-40)scale(0.1 -0.1)">
       <use transform="scale(0.996264)" xlink:href="#CMBX12-71"/>
       <use transform="translate(88.09556 0)scale(0.996264)" xlink:href="#CMBX12-69"/>
       <use transform="translate(161.662306 0)scale(0.996264)" xlink:href="#CMBX12-77"/>
       <use transform="translate(267.976731 0)scale(0.996264)" xlink:href="#CMBX12-77"/>
      </g>
     </g>
    </g>
    <g id="xtick_5">
     <g id="line2d_5">
      <g>
       <use style="stroke:#000000;stroke-width:0.8;" x="180.935649" xlink:href="#mc6f2acb14a" y="117"/>
      </g>
     </g>
     <g id="text_5">
      <!-- \textbf{GRU} -->
      <defs>
       <path d="M 52.90625 33.65625 
C 66.40625 37.234375 69.703125 44.359375 69.703125 49.734375 
C 69.703125 59.671875 59.203125 68 40.703125 68 
L 3.796875 68 
L 3.796875 63.71875 
L 14.40625 63.71875 
L 14.40625 4.171875 
L 3.796875 4.171875 
L 3.796875 0 
C 6.703125 0 17.09375 0 20.703125 0 
C 24.296875 0 34.796875 0 37.703125 0 
L 37.703125 4.171875 
L 27.09375 4.171875 
L 27.09375 32.71875 
L 39 32.71875 
C 43 32.71875 46.203125 31.515625 48.40625 28.890625 
C 51.40625 25.46875 51.40625 23.25 51.40625 16.515625 
C 51.40625 9.78125 51.40625 5.671875 56.5 2.25 
C 61.703125 -1.28125 69.90625 -1.28125 72.09375 -1.28125 
C 82.296875 -1.28125 83.5 7.71875 83.5 9.109375 
C 83.5 10.8125 82.703125 11.109375 81.40625 11.109375 
C 79.5 11.109375 79.40625 10.421875 79.296875 9.109375 
C 78.796875 4.09375 75.703125 2 72.90625 2 
C 66.5 2 65.796875 8.65625 65 17.765625 
C 64.40625 23.03125 63.703125 30.375 52.90625 33.65625 
z
M 38.796875 36 
L 27.09375 36 
L 27.09375 63.71875 
L 39 63.71875 
C 55.296875 63.71875 55.59375 55.6875 55.59375 49.90625 
C 55.59375 44.515625 55.5 36 38.796875 36 
z
" id="CMBX12-82"/>
       <path d="M 72 61.109375 
C 72 63.296875 72.09375 63.40625 74.703125 63.796875 
C 76.5 64 78.5 64 80.296875 64 
L 82.59375 64 
L 82.59375 68.375 
C 80.296875 68.171875 72.5 68.171875 69.703125 68.171875 
C 66.90625 68.171875 59.09375 68.171875 56.796875 68.375 
L 56.796875 64 
L 59.09375 64 
C 61.796875 64 62 64 64.40625 63.703125 
C 67.296875 63.3125 67.40625 63.203125 67.40625 61.015625 
L 67.40625 23.21875 
C 67.40625 9.03125 57.296875 3.265625 45.5 3.265625 
C 28 3.265625 27.59375 16.5625 27.59375 22.328125 
L 27.59375 64 
L 38.203125 64 
L 38.203125 68.171875 
C 35.296875 68.171875 24.59375 68.171875 21 68.171875 
C 17.40625 68.171875 6.703125 68.171875 3.796875 68.171875 
L 3.796875 64 
L 14.40625 64 
L 14.40625 23.015625 
C 14.40625 9.90625 25 -1 45.09375 -1 
C 63.59375 -1 72 10.421875 72 22.953125 
z
" id="CMBX12-85"/>
      </defs>
      <g transform="translate(159.699431 146.074338)rotate(-40)scale(0.1 -0.1)">
       <use transform="scale(0.996264)" xlink:href="#CMBX12-71"/>
       <use transform="translate(88.09556 0)scale(0.996264)" xlink:href="#CMBX12-82"/>
       <use transform="translate(168.580911 0)scale(0.996264)" xlink:href="#CMBX12-85"/>
      </g>
     </g>
    </g>
    <g id="xtick_6">
     <g id="line2d_6">
      <g>
       <use style="stroke:#000000;stroke-width:0.8;" x="207.943939" xlink:href="#mc6f2acb14a" y="117"/>
      </g>
     </g>
     <g id="text_6">
      <!-- \textbf{Kmeans} -->
      <defs>
       <path d="M 46.90625 41.859375 
L 70.703125 61.9375 
C 72 63.03125 72.90625 63.828125 81.796875 63.828125 
L 81.796875 68 
C 75.796875 68 75.59375 68 71.09375 68 
C 68.09375 68 60.296875 68 57.796875 68.109375 
L 57.796875 63.828125 
C 60 63.828125 62.40625 63.828125 65 62.734375 
L 65 62.640625 
L 27.59375 30.921875 
L 27.59375 63.828125 
L 38.203125 63.828125 
L 38.203125 68 
C 35.296875 68 24.59375 68 21 68 
C 17.40625 68 6.703125 68 3.796875 68 
L 3.796875 63.828125 
L 14.40625 63.828125 
L 14.40625 4.171875 
L 3.796875 4.171875 
L 3.796875 0 
C 6.703125 0 17.40625 0 21 0 
C 24.59375 0 35.296875 0 38.203125 0 
L 38.203125 4.171875 
L 27.59375 4.171875 
L 27.59375 25.453125 
L 37.90625 34.203125 
L 58.796875 6.46875 
C 59 6.171875 59.40625 5.671875 59.40625 5.265625 
C 59.40625 4.171875 54.5 4.171875 52.296875 4.171875 
L 52.296875 0 
C 55.5 0 64.796875 0 68.59375 0 
C 71.59375 0 81 0 83.296875 -0.09375 
L 83.296875 4.171875 
L 80.59375 4.171875 
C 75.203125 4.171875 74.796875 4.671875 73.796875 6.0625 
z
" id="CMBX12-75"/>
       <path d="M 84.40625 30.0625 
C 84.40625 39.15625 80.5 44.28125 69.296875 44.28125 
C 59.203125 44.28125 54.5 37.609375 52.90625 34.46875 
C 51.296875 42.8125 44.5 44.28125 38.09375 44.28125 
C 28.5 44.28125 23.296875 38.203125 21.203125 33.484375 
L 21.09375 33.484375 
L 21.09375 44 
L 4.203125 44 
L 4.203125 39.328125 
C 10.40625 39.328125 11.09375 39.328125 11.09375 35.46875 
L 11.09375 4.0625 
L 4.203125 4.0625 
L 4.203125 -0.203125 
C 6.5 0 13.703125 0 16.5 0 
C 19.296875 0 26.59375 0 28.90625 -0.203125 
L 28.90625 4.0625 
L 22 4.0625 
L 22 25.109375 
C 22 35.875 30.09375 41 36.40625 41 
C 40.09375 41 42.296875 38.828125 42.296875 31.140625 
L 42.296875 4.0625 
L 35.40625 4.0625 
L 35.40625 -0.203125 
C 37.703125 0 44.90625 0 47.703125 0 
C 50.5 0 57.796875 0 60.09375 -0.203125 
L 60.09375 4.0625 
L 53.203125 4.0625 
L 53.203125 25.109375 
C 53.203125 35.875 61.296875 41 67.59375 41 
C 71.296875 41 73.5 38.828125 73.5 31.140625 
L 73.5 4.0625 
L 66.59375 4.0625 
L 66.59375 -0.203125 
C 68.90625 0 76.09375 0 78.90625 0 
C 81.703125 0 89 0 91.296875 -0.203125 
L 91.296875 4.0625 
L 84.40625 4.0625 
z
" id="CMBX12-109"/>
       <path d="M 53.09375 30.0625 
C 53.09375 39.453125 49 44.28125 38 44.28125 
C 30.796875 44.28125 24.59375 40.859375 21.203125 33.484375 
L 21.09375 33.484375 
L 21.09375 44 
L 4.203125 44 
L 4.203125 39.328125 
C 10.40625 39.328125 11.09375 39.328125 11.09375 35.46875 
L 11.09375 4.0625 
L 4.203125 4.0625 
L 4.203125 -0.203125 
C 6.5 0 13.703125 0 16.5 0 
C 19.296875 0 26.59375 0 28.90625 -0.203125 
L 28.90625 4.0625 
L 22 4.0625 
L 22 25.109375 
C 22 35.765625 30 41 36.40625 41 
C 40.09375 41 42.203125 38.640625 42.203125 31.140625 
L 42.203125 4.0625 
L 35.296875 4.0625 
L 35.296875 -0.203125 
C 37.59375 0 44.796875 0 47.59375 0 
C 50.40625 0 57.703125 0 60 -0.203125 
L 60 4.0625 
L 53.09375 4.0625 
z
" id="CMBX12-110"/>
      </defs>
      <g transform="translate(175.879079 155.160647)rotate(-40)scale(0.1 -0.1)">
       <use transform="scale(0.996264)" xlink:href="#CMBX12-75"/>
       <use transform="translate(87.74972 0)scale(0.996264)" xlink:href="#CMBX12-109"/>
       <use transform="translate(181.149471 0)scale(0.996264)" xlink:href="#CMBX12-101"/>
       <use transform="translate(232.288738 0)scale(0.996264)" xlink:href="#CMBX12-97"/>
       <use transform="translate(286.771926 0)scale(0.996264)" xlink:href="#CMBX12-110"/>
       <use transform="translate(349.038426 0)scale(0.996264)" xlink:href="#CMBX12-115"/>
      </g>
     </g>
    </g>
    <g id="xtick_7">
     <g id="line2d_7">
      <g>
       <use style="stroke:#000000;stroke-width:0.8;" x="234.95223" xlink:href="#mc6f2acb14a" y="117"/>
      </g>
     </g>
     <g id="text_7">
      <!-- \textbf{LSTM} -->
      <defs>
       <path d="M 62.796875 26.8125 
L 58.59375 26.8125 
C 57.90625 19.953125 56.296875 4.265625 38.296875 4.265625 
L 27.59375 4.265625 
L 27.59375 63.828125 
L 40.90625 63.828125 
L 40.90625 68 
C 36 68 27.09375 68 21.796875 68 
C 18.09375 68 6.703125 68 3.796875 68 
L 3.796875 63.828125 
L 14.40625 63.828125 
L 14.40625 4.265625 
L 3.796875 4.265625 
L 3.796875 0 
L 59.90625 0 
z
" id="CMBX12-76"/>
       <path d="M 72 67.265625 
L 6.09375 67.265625 
L 4.09375 43.703125 
L 8.296875 43.703125 
C 9.203125 54.546875 10 63 24.40625 63 
L 32.5 63 
L 32.5 4.171875 
L 17.40625 4.171875 
L 17.40625 0 
C 25.40625 0 35.703125 0 39.09375 0 
C 45.203125 0 52.796875 0 60.796875 0 
L 60.796875 4.171875 
L 45.703125 4.171875 
L 45.703125 63 
L 53.703125 63 
C 68.09375 63 68.90625 54.640625 69.796875 43.703125 
L 74 43.703125 
z
" id="CMBX12-84"/>
      </defs>
      <g transform="translate(209.115734 149.93443)rotate(-40)scale(0.1 -0.1)">
       <use transform="scale(0.996264)" xlink:href="#CMBX12-76"/>
       <use transform="translate(67.340095 0)scale(0.996264)" xlink:href="#CMBX12-83"/>
       <use transform="translate(129.606596 0)scale(0.996264)" xlink:href="#CMBX12-84"/>
       <use transform="translate(207.554967 0)scale(0.996264)" xlink:href="#CMBX12-77"/>
      </g>
     </g>
    </g>
    <g id="xtick_8">
     <g id="line2d_8">
      <g>
       <use style="stroke:#000000;stroke-width:0.8;" x="261.96052" xlink:href="#mc6f2acb14a" y="117"/>
      </g>
     </g>
     <g id="text_8">
      <!-- \textbf{Lattice} -->
      <defs>
       <path d="M 22.296875 61.84375 
C 22.296875 65.921875 19 69 15.09375 69 
C 11 69 7.90625 65.625 7.90625 61.84375 
C 7.90625 58.0625 11 54.6875 15.09375 54.6875 
C 19 54.6875 22.296875 57.765625 22.296875 61.84375 
z
M 4.703125 44 
L 4.703125 39.328125 
C 10.59375 39.328125 11.296875 39.328125 11.296875 35.46875 
L 11.296875 4.0625 
L 4.40625 4.0625 
L 4.40625 -0.203125 
C 6.703125 0 13.59375 0 16.296875 0 
C 19.09375 0 25.5 0 27.90625 -0.203125 
L 27.90625 4.0625 
L 21.703125 4.0625 
L 21.703125 44 
z
" id="CMBX12-105"/>
      </defs>
      <g transform="translate(233.982895 151.73105)rotate(-40)scale(0.1 -0.1)">
       <use transform="scale(0.996264)" xlink:href="#CMBX12-76"/>
       <use transform="translate(67.340095 0)scale(0.996264)" xlink:href="#CMBX12-97"/>
       <use transform="translate(121.823284 0)scale(0.996264)" xlink:href="#CMBX12-116"/>
       <use transform="translate(165.409834 0)scale(0.996264)" xlink:href="#CMBX12-116"/>
       <use transform="translate(208.996384 0)scale(0.996264)" xlink:href="#CMBX12-105"/>
       <use transform="translate(240.129635 0)scale(0.996264)" xlink:href="#CMBX12-99"/>
       <use transform="translate(289.942835 0)scale(0.996264)" xlink:href="#CMBX12-101"/>
      </g>
     </g>
    </g>
    <g id="xtick_9">
     <g id="line2d_9">
      <g>
       <use style="stroke:#000000;stroke-width:0.8;" x="288.96881" xlink:href="#mc6f2acb14a" y="117"/>
      </g>
     </g>
     <g id="text_9">
      <!-- \textbf{LeNet} -->
      <defs>
       <path d="M 29 66.90625 
C 28 68 27.90625 68 25.90625 68 
L 3.796875 68 
L 3.796875 63.828125 
L 14.40625 63.828125 
L 14.40625 6.953125 
C 14.40625 4.75 14.296875 4.65625 11.703125 4.25 
C 9.90625 4.0625 7.90625 4.0625 6.09375 4.0625 
L 3.796875 4.0625 
L 3.796875 -0.203125 
C 6.09375 0 13.90625 0 16.703125 0 
C 19.5 0 27.40625 0 29.703125 -0.203125 
L 29.703125 4.0625 
L 27.40625 4.0625 
C 24.703125 4.0625 24.5 4.0625 22.09375 4.359375 
C 19.203125 4.765625 19.09375 4.859375 19.09375 7.046875 
L 19.09375 60.4375 
L 68.59375 1.296875 
C 69.703125 0.09375 69.796875 0 71.09375 0 
C 73.5 0 73.5 0.59375 73.5 2.875 
L 73.5 60.9375 
C 73.5 63.125 73.59375 63.234375 76.203125 63.625 
C 78 63.828125 80 63.828125 81.796875 63.828125 
L 84.09375 63.828125 
L 84.09375 68.109375 
C 81.796875 68 74 68 71.203125 68 
C 68.40625 68 60.5 68 58.203125 68.109375 
L 58.203125 63.828125 
L 60.5 63.828125 
C 63.203125 63.828125 63.40625 63.828125 65.796875 63.53125 
C 68.703125 63.140625 68.796875 63.03125 68.796875 60.828125 
L 68.796875 19.203125 
z
" id="CMBX12-78"/>
      </defs>
      <g transform="translate(264.118072 149.10728)rotate(-40)scale(0.1 -0.1)">
       <use transform="scale(0.996264)" xlink:href="#CMBX12-76"/>
       <use transform="translate(67.340095 0)scale(0.996264)" xlink:href="#CMBX12-101"/>
       <use transform="translate(118.479363 0)scale(0.996264)" xlink:href="#CMBX12-78"/>
       <use transform="translate(206.113838 0)scale(0.996264)" xlink:href="#CMBX12-101"/>
       <use transform="translate(257.253105 0)scale(0.996264)" xlink:href="#CMBX12-116"/>
      </g>
     </g>
    </g>
    <g id="xtick_10">
     <g id="line2d_10">
      <g>
       <use style="stroke:#000000;stroke-width:0.8;" x="315.977101" xlink:href="#mc6f2acb14a" y="117"/>
      </g>
     </g>
     <g id="text_10">
      <!-- \textbf{LogReg} -->
      <defs>
       <path d="M 13 18.578125 
C 17.796875 16 23.40625 16 24.90625 16 
C 38.703125 16 44.203125 23.65625 44.203125 30.625 
C 44.203125 35.703125 41.296875 39.296875 40.09375 40.28125 
C 43 41.8125 45.40625 42.1875 47.09375 42.390625 
C 46.796875 41.90625 46.5 41.53125 46.5 40.28125 
C 46.5 38.28125 47.90625 36.46875 50.5 36.46875 
C 53.09375 36.46875 54.5 38.359375 54.5 40.4375 
C 54.5 42.828125 52.703125 46 48.5 46 
C 44.203125 46 40.09375 43.796875 38 41.90625 
C 33.90625 44.28125 30 45.171875 24.90625 45.171875 
C 11.09375 45.171875 5.59375 37.546875 5.59375 30.578125 
C 5.59375 27.5 6.59375 23.453125 10.796875 20.078125 
C 9.09375 18.140625 7.296875 14.578125 7.296875 10.921875 
C 7.296875 6.5625 9.59375 2.8125 11.703125 1.1875 
C 9.296875 0.609375 3.09375 -1.640625 3.09375 -7.203125 
C 3.09375 -12.96875 9.59375 -19.5 28 -19.5 
C 44.59375 -19.5 53 -14.21875 53 -6.859375 
C 53 1.78125 47.203125 4.609375 44.703125 5.78125 
C 39.90625 8.140625 33.5 8.140625 24.703125 8.140625 
C 22.203125 8.140625 17.796875 8.140625 17.296875 8.234375 
C 13 8.984375 11.796875 12.953125 11.796875 14.953125 
C 11.796875 15.78125 11.90625 17.296875 13 18.578125 
z
M 24.90625 19.171875 
C 16.203125 19.171875 16.203125 26.015625 16.203125 30.578125 
C 16.203125 35.15625 16.203125 42 24.90625 42 
C 33.59375 42 33.59375 35.15625 33.59375 30.578125 
C 33.59375 26.015625 33.59375 19.171875 24.90625 19.171875 
z
M 30.5 -1 
C 37.796875 -1 44.796875 -2.265625 44.796875 -7.296875 
C 44.796875 -10.703125 41.296875 -16.328125 28.09375 -16.328125 
C 14.90625 -16.328125 11.296875 -10.890625 11.296875 -7.203125 
C 11.296875 -1 17.59375 -1 19.09375 -1 
z
" id="CMBX12-103"/>
      </defs>
      <g transform="translate(285.683424 153.674448)rotate(-40)scale(0.1 -0.1)">
       <use transform="scale(0.996264)" xlink:href="#CMBX12-76"/>
       <use transform="translate(67.340095 0)scale(0.996264)" xlink:href="#CMBX12-111"/>
       <use transform="translate(123.379946 0)scale(0.996264)" xlink:href="#CMBX12-103"/>
       <use transform="translate(179.419797 0)scale(0.996264)" xlink:href="#CMBX12-82"/>
       <use transform="translate(263.018472 0)scale(0.996264)" xlink:href="#CMBX12-101"/>
       <use transform="translate(314.157739 0)scale(0.996264)" xlink:href="#CMBX12-103"/>
      </g>
     </g>
    </g>
    <g id="xtick_11">
     <g id="line2d_11">
      <g>
       <use style="stroke:#000000;stroke-width:0.8;" x="342.985391" xlink:href="#mc6f2acb14a" y="117"/>
      </g>
     </g>
     <g id="text_11">
      <!-- \textbf{OuterProduct} -->
      <defs>
       <path d="M 78.203125 33.3125 
C 78.203125 54.453125 64.40625 69 42.203125 69 
C 19.90625 69 6.203125 54.34375 6.203125 33.3125 
C 6.203125 12.28125 20.203125 -1.765625 42.203125 -1.765625 
C 64.203125 -1.765625 78.203125 12.28125 78.203125 33.3125 
z
M 42.203125 2 
C 35.703125 2 29.40625 5.09375 25.59375 10.78125 
C 20.796875 18.0625 20.296875 27.4375 20.296875 34.71875 
C 20.296875 40.796875 20.59375 49.171875 24.703125 55.953125 
C 29.09375 62.921875 36.296875 65.421875 42.203125 65.421875 
C 50.296875 65.421875 56.296875 61.140625 59.203125 56.65625 
C 62.90625 50.875 64.09375 44.6875 64.09375 34.71875 
C 64.09375 24.828125 63 16.5625 58 9.6875 
C 55.5 6.296875 50 2 42.203125 2 
z
" id="CMBX12-79"/>
      </defs>
      <g transform="translate(287.909594 174.469117)rotate(-40)scale(0.1 -0.1)">
       <use transform="scale(0.996264)" xlink:href="#CMBX12-79"/>
       <use transform="translate(84.175021 0)scale(0.996264)" xlink:href="#CMBX12-117"/>
       <use transform="translate(146.441521 0)scale(0.996264)" xlink:href="#CMBX12-116"/>
       <use transform="translate(190.028072 0)scale(0.996264)" xlink:href="#CMBX12-101"/>
       <use transform="translate(241.167339 0)scale(0.996264)" xlink:href="#CMBX12-114"/>
       <use transform="translate(286.944846 0)scale(0.996264)" xlink:href="#CMBX12-80"/>
       <use transform="translate(363.509657 0)scale(0.996264)" xlink:href="#CMBX12-114"/>
       <use transform="translate(409.287164 0)scale(0.996264)" xlink:href="#CMBX12-111"/>
       <use transform="translate(468.44034 0)scale(0.996264)" xlink:href="#CMBX12-100"/>
       <use transform="translate(530.70684 0)scale(0.996264)" xlink:href="#CMBX12-117"/>
       <use transform="translate(592.973341 0)scale(0.996264)" xlink:href="#CMBX12-99"/>
       <use transform="translate(642.786541 0)scale(0.996264)" xlink:href="#CMBX12-116"/>
      </g>
     </g>
    </g>
    <g id="xtick_12">
     <g id="line2d_12">
      <g>
       <use style="stroke:#000000;stroke-width:0.8;" x="369.993682" xlink:href="#mc6f2acb14a" y="117"/>
      </g>
     </g>
     <g id="text_12">
      <!-- \textbf{SGD} -->
      <g transform="translate(350.241417 144.829154)rotate(-40)scale(0.1 -0.1)">
       <use transform="scale(0.996264)" xlink:href="#CMBX12-83"/>
       <use transform="translate(62.266501 0)scale(0.996264)" xlink:href="#CMBX12-71"/>
       <use transform="translate(150.362061 0)scale(0.996264)" xlink:href="#CMBX12-68"/>
      </g>
     </g>
    </g>
    <g id="xtick_13">
     <g id="line2d_13">
      <g>
       <use style="stroke:#000000;stroke-width:0.8;" x="397.001972" xlink:href="#mc6f2acb14a" y="117"/>
      </g>
     </g>
     <g id="text_13">
      <!-- \textbf{TPCHQ6} -->
      <defs>
       <path d="M 74.90625 66.4375 
C 74.90625 68.71875 74.90625 69.015625 72.703125 69.015625 
L 65.203125 61.859375 
C 59.59375 66.609375 52.90625 69 45.5 69 
C 21.59375 69 6.203125 54.640625 6.203125 33.859375 
C 6.203125 13.46875 21.09375 -1.265625 45.59375 -1.265625 
C 63.40625 -1.265625 74.90625 10.796875 74.90625 22.484375 
C 74.90625 24.171875 74.296875 24.171875 72.796875 24.171875 
C 71.796875 24.171875 70.796875 24.171875 70.703125 23.1875 
C 69.796875 8.15625 56.90625 3 47.90625 3 
C 41.40625 3 32.59375 4.796875 27 11.015625 
C 23.5 14.78125 20.296875 20.203125 20.296875 33.859375 
C 20.296875 43.5625 21.796875 50.78125 26.5 56.3125 
C 32.90625 63.734375 42.90625 64.734375 47.703125 64.734375 
C 55.203125 64.734375 67.296875 60.5625 70.296875 43.15625 
C 70.5 42.265625 71.40625 42.265625 72.59375 42.265625 
C 74.90625 42.265625 74.90625 42.46875 74.90625 44.84375 
z
" id="CMBX12-67"/>
       <path d="M 73.5 63.828125 
L 84.09375 63.828125 
L 84.09375 68 
C 81.203125 68 70.5 68 66.90625 68 
C 63.296875 68 52.59375 68 49.703125 68 
L 49.703125 63.828125 
L 60.296875 63.828125 
L 60.296875 37.265625 
L 27.59375 37.265625 
L 27.59375 63.828125 
L 38.203125 63.828125 
L 38.203125 68 
C 35.296875 68 24.59375 68 21 68 
C 17.40625 68 6.703125 68 3.796875 68 
L 3.796875 63.828125 
L 14.40625 63.828125 
L 14.40625 4.171875 
L 3.796875 4.171875 
L 3.796875 0 
C 6.703125 0 17.40625 0 21 0 
C 24.59375 0 35.296875 0 38.203125 0 
L 38.203125 4.171875 
L 27.59375 4.171875 
L 27.59375 33 
L 60.296875 33 
L 60.296875 4.171875 
L 49.703125 4.171875 
L 49.703125 0 
C 52.59375 0 63.296875 0 66.90625 0 
C 70.5 0 81.203125 0 84.09375 0 
L 84.09375 4.171875 
L 73.5 4.171875 
z
" id="CMBX12-72"/>
       <path d="M 57.40625 1.6875 
C 73.5 7.8125 78.203125 22.09375 78.203125 33.734375 
C 78.203125 54.625 64.40625 69 42.203125 69 
C 19.90625 69 6.203125 54.5 6.203125 33.703125 
C 6.203125 12.890625 20.203125 -1 42.203125 -1 
C 43.09375 -1 47.203125 -1 51.90625 -0.015625 
C 54.5 -11.1875 56.40625 -19 65.5 -19 
C 75.796875 -19 78.796875 -6.828125 78.796875 -0.6875 
C 78.796875 0.1875 78.796875 1.671875 77.296875 1.671875 
C 76 1.671875 75.90625 0.59375 75.796875 -0.1875 
C 75.203125 -4.21875 69.703125 -5 66.90625 -5 
C 64.703125 -5 61.5 -5 57.40625 1.6875 
z
M 33.203125 4.359375 
C 19.796875 9.921875 19.796875 27.828125 19.796875 33.640625 
C 19.796875 42.4375 20.703125 49.921875 24.90625 56.4375 
C 28.5 61.859375 35 65.421875 42.203125 65.421875 
C 48 65.421875 55.40625 63.15625 60.09375 55.375 
C 64.296875 48.453125 64.59375 39.578125 64.59375 33.671875 
C 64.59375 27.859375 64.59375 13.15625 54.5 6.359375 
C 50.40625 13.03125 46.59375 15.28125 42.203125 15.28125 
C 37.09375 15.28125 32.703125 11.8125 32.703125 7.140625 
C 32.703125 5.453125 33 4.859375 33.203125 4.359375 
z
M 50.796875 4.234375 
C 50.703125 4.234375 46.796875 2.578125 42.203125 2.578125 
C 37.09375 2.578125 36 5.78125 36 7.25 
C 36 10.0625 38.90625 12 42.296875 12 
C 47.09375 12 49.203125 8.796875 50.796875 4.234375 
z
" id="CMBX12-81"/>
       <path d="M 17.40625 36.25 
C 17.40625 42.328125 17.703125 48.53125 20.5 53.90625 
C 22.703125 58.109375 27.796875 62 34.296875 62 
C 36.203125 62 39.796875 61.703125 42.203125 59.203125 
C 38.40625 58.8125 36.796875 56.015625 36.796875 53.3125 
C 36.796875 49.703125 39.5 47.40625 42.703125 47.40625 
C 45.296875 47.40625 48.59375 49.109375 48.59375 53.5 
C 48.59375 59.484375 44.59375 65.578125 34.09375 65.578125 
C 21.59375 65.578125 4.703125 57.796875 4.703125 31.796875 
C 4.703125 25.109375 4.703125 -1 28.40625 -1 
C 41.59375 -1 51.40625 6.765625 51.40625 20.703125 
C 51.40625 34.640625 41.703125 42 29.796875 42 
C 27.796875 42 21.40625 42 17.40625 33.546875 
z
M 28.296875 2.96875 
C 21.90625 2.96875 19.40625 8.34375 19 9.140625 
C 17.59375 12.4375 17.59375 20.40625 17.59375 21.296875 
C 17.59375 33.546875 22.90625 38.734375 28.796875 38.734375 
C 38.703125 38.734375 38.703125 30.765625 38.703125 20.796875 
C 38.703125 10.9375 38.703125 2.96875 28.296875 2.96875 
z
" id="CMBX12-54"/>
      </defs>
      <g transform="translate(359.463406 159.753632)rotate(-40)scale(0.1 -0.1)">
       <use transform="scale(0.996264)" xlink:href="#CMBX12-84"/>
       <use transform="translate(77.94837 0)scale(0.996264)" xlink:href="#CMBX12-80"/>
       <use transform="translate(154.513181 0)scale(0.996264)" xlink:href="#CMBX12-67"/>
       <use transform="translate(235.459632 0)scale(0.996264)" xlink:href="#CMBX12-72"/>
       <use transform="translate(323.094107 0)scale(0.996264)" xlink:href="#CMBX12-81"/>
       <use transform="translate(407.269127 0)scale(0.996264)" xlink:href="#CMBX12-54"/>
      </g>
     </g>
    </g>
   </g>
   <g id="matplotlib.axis_2">
    <g id="ytick_1">
     <g id="line2d_14">
      <path clip-path="url(#pe8f8e7321d)" d="M 64.8 117 
L 415.907775 117 
" style="fill:none;stroke:#808080;stroke-dasharray:2.96,1.28;stroke-dashoffset:0;stroke-width:0.8;"/>
     </g>
     <g id="line2d_15">
      <defs>
       <path d="M 0 0 
L -3.5 0 
" id="me09af5f135" style="stroke:#000000;stroke-width:0.8;"/>
      </defs>
      <g>
       <use style="stroke:#000000;stroke-width:0.8;" x="64.8" xlink:href="#me09af5f135" y="117"/>
      </g>
     </g>
     <g id="text_14">
      <!-- $0$ -->
      <defs>
       <path d="M 42 31.640625 
C 42 37.75 41.90625 48.125 37.703125 56.109375 
C 34 63.109375 28.09375 65.59375 22.90625 65.59375 
C 18.09375 65.59375 12 63.40625 8.203125 56.203125 
C 4.203125 48.71875 3.796875 39.4375 3.796875 31.640625 
C 3.796875 25.953125 3.90625 17.28125 7 9.671875 
C 11.296875 -0.609375 19 -2 22.90625 -2 
C 27.5 -2 34.5 -0.109375 38.59375 9.375 
C 41.59375 16.28125 42 24.359375 42 31.640625 
z
M 22.90625 -0.40625 
C 16.5 -0.40625 12.703125 5.078125 11.296875 12.6875 
C 10.203125 18.5625 10.203125 27.15625 10.203125 32.75 
C 10.203125 40.4375 10.203125 46.828125 11.5 52.921875 
C 13.40625 61.390625 19 64 22.90625 64 
C 27 64 32.296875 61.296875 34.203125 53.125 
C 35.5 47.4375 35.59375 40.734375 35.59375 32.75 
C 35.59375 26.25 35.59375 18.265625 34.40625 12.375 
C 32.296875 1.484375 26.40625 -0.40625 22.90625 -0.40625 
z
" id="CMR17-48"/>
      </defs>
      <g transform="translate(52.818665 120.459249)scale(0.1 -0.1)">
       <use transform="scale(0.996264)" xlink:href="#CMR17-48"/>
      </g>
     </g>
    </g>
    <g id="ytick_2">
     <g id="line2d_16">
      <path clip-path="url(#pe8f8e7321d)" d="M 64.8 90.911117 
L 415.907775 90.911117 
" style="fill:none;stroke:#808080;stroke-dasharray:2.96,1.28;stroke-dashoffset:0;stroke-width:0.8;"/>
     </g>
     <g id="line2d_17">
      <g>
       <use style="stroke:#000000;stroke-width:0.8;" x="64.8" xlink:href="#me09af5f135" y="90.911117"/>
      </g>
     </g>
     <g id="text_15">
      <!-- $1$ -->
      <defs>
       <path d="M 26.59375 63.40625 
C 26.59375 65.5 26.5 65.5 25.09375 65.5 
C 21.203125 61.1875 15.296875 59.796875 9.703125 59.796875 
C 9.40625 59.796875 8.90625 59.796875 8.796875 59.5 
C 8.703125 59.296875 8.703125 59.09375 8.703125 57 
C 11.796875 57 17 57.59375 21 59.984375 
L 21 7.203125 
C 21 3.6875 20.796875 2.5 12.203125 2.5 
L 9.203125 2.5 
L 9.203125 0 
C 14 0 19 0 23.796875 0 
C 28.59375 0 33.59375 0 38.40625 0 
L 38.40625 2.5 
L 35.40625 2.5 
C 26.796875 2.5 26.59375 3.59375 26.59375 7.15625 
z
" id="CMR17-49"/>
      </defs>
      <g transform="translate(52.818665 94.370366)scale(0.1 -0.1)">
       <use transform="scale(0.996264)" xlink:href="#CMR17-49"/>
      </g>
     </g>
    </g>
    <g id="ytick_3">
     <g id="line2d_18">
      <path clip-path="url(#pe8f8e7321d)" d="M 64.8 64.822234 
L 415.907775 64.822234 
" style="fill:none;stroke:#808080;stroke-dasharray:2.96,1.28;stroke-dashoffset:0;stroke-width:0.8;"/>
     </g>
     <g id="line2d_19">
      <g>
       <use style="stroke:#000000;stroke-width:0.8;" x="64.8" xlink:href="#me09af5f135" y="64.822234"/>
      </g>
     </g>
     <g id="text_16">
      <!-- $2$ -->
      <defs>
       <path d="M 41.703125 15.453125 
L 39.90625 15.453125 
C 38.90625 8.375 38.09375 7.171875 37.703125 6.5625 
C 37.203125 5.765625 30 5.765625 28.59375 5.765625 
L 9.40625 5.765625 
C 13 9.671875 20 16.75 28.5 24.953125 
C 34.59375 30.734375 41.703125 37.53125 41.703125 47.421875 
C 41.703125 59.21875 32.296875 66 21.796875 66 
C 10.796875 66 4.09375 56.3125 4.09375 47.34375 
C 4.09375 43.4375 7 42.9375 8.203125 42.9375 
C 9.203125 42.9375 12.203125 43.546875 12.203125 47.03125 
C 12.203125 50.109375 9.59375 51 8.203125 51 
C 7.59375 51 7 50.90625 6.59375 50.703125 
C 8.5 59.21875 14.296875 63.40625 20.40625 63.40625 
C 29.09375 63.40625 34.796875 56.515625 34.796875 47.421875 
C 34.796875 38.734375 29.703125 31.25 24 24.75 
L 4.09375 2.28125 
L 4.09375 0 
L 39.296875 0 
z
" id="CMR17-50"/>
      </defs>
      <g transform="translate(52.818665 68.281484)scale(0.1 -0.1)">
       <use transform="scale(0.996264)" xlink:href="#CMR17-50"/>
      </g>
     </g>
    </g>
    <g id="ytick_4">
     <g id="line2d_20">
      <path clip-path="url(#pe8f8e7321d)" d="M 64.8 38.733352 
L 415.907775 38.733352 
" style="fill:none;stroke:#808080;stroke-dasharray:2.96,1.28;stroke-dashoffset:0;stroke-width:0.8;"/>
     </g>
     <g id="line2d_21">
      <g>
       <use style="stroke:#000000;stroke-width:0.8;" x="64.8" xlink:href="#me09af5f135" y="38.733352"/>
      </g>
     </g>
     <g id="text_17">
      <!-- $3$ -->
      <defs>
       <path d="M 22.09375 33.703125 
C 31 33.703125 34.90625 25.96875 34.90625 17.03125 
C 34.90625 5 28.5 0.390625 22.703125 0.390625 
C 17.40625 0.390625 8.796875 3.03125 6.09375 10.828125 
C 6.59375 10.625 7.09375 10.625 7.59375 10.625 
C 10 10.625 11.796875 12.21875 11.796875 14.8125 
C 11.796875 17.703125 9.59375 19 7.59375 19 
C 5.90625 19 3.296875 18.203125 3.296875 14.46875 
C 3.296875 5.234375 12.296875 -2 22.90625 -2 
C 34 -2 42.5 6.71875 42.5 16.953125 
C 42.5 26.671875 34.5 33.703125 25 34.796875 
C 32.59375 36.375 39.90625 43.0625 39.90625 52.015625 
C 39.90625 59.6875 32 65.296875 23 65.296875 
C 13.90625 65.296875 5.90625 59.828125 5.90625 52.015625 
C 5.90625 48.59375 8.5 48 9.796875 48 
C 11.90625 48 13.703125 49.296875 13.703125 51.890625 
C 13.703125 54.46875 11.90625 55.765625 9.796875 55.765625 
C 9.40625 55.765625 8.90625 55.765625 8.5 55.578125 
C 11.40625 61.859375 19.296875 63 22.796875 63 
C 26.296875 63 32.90625 61.328125 32.90625 51.875 
C 32.90625 49.109375 32.5 44.1875 29.09375 39.84375 
C 26.09375 36 22.703125 36 19.40625 35.6875 
C 18.90625 35.6875 16.59375 35.453125 16.203125 35.453125 
C 15.5 35.359375 15.09375 35.265625 15.09375 34.5 
C 15.09375 33.796875 15.203125 33.703125 17.203125 33.703125 
z
" id="CMR17-51"/>
      </defs>
      <g transform="translate(52.818665 42.192601)scale(0.1 -0.1)">
       <use transform="scale(0.996264)" xlink:href="#CMR17-51"/>
      </g>
     </g>
    </g>
    <g id="ytick_5">
     <g id="line2d_22">
      <path clip-path="url(#pe8f8e7321d)" d="M 64.8 12.644469 
L 415.907775 12.644469 
" style="fill:none;stroke:#808080;stroke-dasharray:2.96,1.28;stroke-dashoffset:0;stroke-width:0.8;"/>
     </g>
     <g id="line2d_23">
      <g>
       <use style="stroke:#000000;stroke-width:0.8;" x="64.8" xlink:href="#me09af5f135" y="12.644469"/>
      </g>
     </g>
     <g id="text_18">
      <!-- $4$ -->
      <defs>
       <path d="M 33.59375 64.40625 
C 33.59375 66.5 33.5 66.5 31.703125 66.5 
L 2 19.59375 
L 2 17 
L 27.796875 17 
L 27.796875 7.140625 
C 27.796875 3.5 27.59375 2.5 20.59375 2.5 
L 18.703125 2.5 
L 18.703125 0 
C 21.90625 0 27.296875 0 30.703125 0 
C 34.09375 0 39.5 0 42.703125 0 
L 42.703125 2.5 
L 40.796875 2.5 
C 33.796875 2.5 33.59375 3.5 33.59375 7.140625 
L 33.59375 17 
L 43.796875 17 
L 43.796875 19.59375 
L 33.59375 19.59375 
z
M 28.09375 57.859375 
L 28.09375 19.59375 
L 4 19.59375 
z
" id="CMR17-52"/>
      </defs>
      <g transform="translate(52.818665 16.103718)scale(0.1 -0.1)">
       <use transform="scale(0.996264)" xlink:href="#CMR17-52"/>
      </g>
     </g>
    </g>
    <g id="text_19">
     <!-- \textbf{\# VC} -->
     <defs>
      <path d="M 58.203125 11.53125 
L 83.40625 11.53125 
C 84.703125 11.53125 87.40625 11.53125 87.40625 14.21875 
C 87.40625 17 84.796875 17 83.296875 17 
L 59.90625 17 
L 64.796875 33 
L 83.296875 33 
C 84.796875 33 87.40625 33 87.40625 35.78125 
C 87.40625 38.453125 84.703125 38.453125 83.40625 38.453125 
L 66.59375 38.453125 
L 74.40625 64.4375 
C 74.90625 65.921875 74.90625 66.125 74.90625 66.328125 
C 74.90625 67.609375 73.90625 69 72.09375 69 
C 70.09375 69 69.703125 67.515625 69.296875 66.21875 
L 60.796875 38.453125 
L 41.203125 38.453125 
L 49 64.4375 
C 49.5 65.921875 49.5 66.125 49.5 66.328125 
C 49.5 67.609375 48.5 69 46.703125 69 
C 44.703125 69 44.296875 67.515625 43.90625 66.21875 
L 35.40625 38.453125 
L 10.203125 38.453125 
C 8.90625 38.453125 6.203125 38.453125 6.203125 35.78125 
C 6.203125 33 8.796875 33 10.296875 33 
L 33.703125 33 
L 28.796875 17 
L 10.296875 17 
C 8.796875 17 6.203125 17 6.203125 14.21875 
C 6.203125 11.53125 8.90625 11.53125 10.203125 11.53125 
L 27 11.53125 
L 19.203125 -14.4375 
C 18.703125 -15.921875 18.703125 -16.125 18.703125 -16.328125 
C 18.703125 -17.609375 19.703125 -19 21.5 -19 
C 23.5 -19 23.90625 -17.515625 24.296875 -16.21875 
L 32.796875 11.53125 
L 52.40625 11.53125 
L 44.59375 -14.4375 
C 44.09375 -15.921875 44.09375 -16.125 44.09375 -16.328125 
C 44.09375 -17.609375 45.09375 -19 46.90625 -19 
C 48.90625 -19 49.296875 -17.515625 49.703125 -16.21875 
z
M 34.5 17 
L 39.40625 33 
L 59.09375 33 
L 54.203125 17 
z
" id="CMBX12-35"/>
      <path d="M 72.40625 61.734375 
C 73 63.015625 73.40625 64 80.796875 64 
L 82.5 64 
L 82.5 68.171875 
C 79.40625 68.171875 72.203125 68.171875 71.40625 68.171875 
C 68.59375 68.171875 61.5 68.171875 59.203125 68.28125 
L 59.203125 64 
C 61.40625 64 65.09375 64 67.90625 62.90625 
L 67.40625 61.53125 
L 46.90625 15.234375 
L 25.296875 64 
L 34.59375 64 
L 34.59375 68.171875 
C 31.40625 68.171875 21.796875 68.171875 18 68.171875 
C 14.796875 68.171875 4.90625 68.171875 2.40625 68.28125 
L 2.40625 64 
L 11.40625 64 
L 39 1.5625 
C 39.90625 -0.40625 40.796875 -0.5 42.40625 -0.5 
C 44 -0.5 45 -0.5 45.90625 1.5625 
z
" id="CMBX12-86"/>
     </defs>
     <g transform="translate(46.881486 77.205656)rotate(-90)scale(0.1 -0.1)">
      <use transform="scale(0.996264)" xlink:href="#CMBX12-35"/>
      <use transform="translate(130.759651 0)scale(0.996264)" xlink:href="#CMBX12-86"/>
      <use transform="translate(212.282721 0)scale(0.996264)" xlink:href="#CMBX12-67"/>
     </g>
    </g>
   </g>
   <g id="patch_3">
    <path clip-path="url(#pe8f8e7321d)" d="M 64.8 117 
L 70.201658 117 
L 70.201658 12.644469 
L 64.8 12.644469 
z
" style="fill:#a6cee3;"/>
   </g>
   <g id="patch_4">
    <path clip-path="url(#pe8f8e7321d)" d="M 91.80829 117 
L 97.209949 117 
L 97.209949 12.644469 
L 91.80829 12.644469 
z
" style="fill:#a6cee3;"/>
   </g>
   <g id="patch_5">
    <path clip-path="url(#pe8f8e7321d)" d="M 118.816581 117 
L 124.218239 117 
L 124.218239 12.644469 
L 118.816581 12.644469 
z
" style="fill:#a6cee3;"/>
   </g>
   <g id="patch_6">
    <path clip-path="url(#pe8f8e7321d)" d="M 145.824871 117 
L 151.226529 117 
L 151.226529 12.644469 
L 145.824871 12.644469 
z
" style="fill:#a6cee3;"/>
   </g>
   <g id="patch_7">
    <path clip-path="url(#pe8f8e7321d)" d="M 172.833162 117 
L 178.23482 117 
L 178.23482 12.644469 
L 172.833162 12.644469 
z
" style="fill:#a6cee3;"/>
   </g>
   <g id="patch_8">
    <path clip-path="url(#pe8f8e7321d)" d="M 199.841452 117 
L 205.24311 117 
L 205.24311 12.644469 
L 199.841452 12.644469 
z
" style="fill:#a6cee3;"/>
   </g>
   <g id="patch_9">
    <path clip-path="url(#pe8f8e7321d)" d="M 226.849743 117 
L 232.251401 117 
L 232.251401 12.644469 
L 226.849743 12.644469 
z
" style="fill:#a6cee3;"/>
   </g>
   <g id="patch_10">
    <path clip-path="url(#pe8f8e7321d)" d="M 253.858033 117 
L 259.259691 117 
L 259.259691 12.644469 
L 253.858033 12.644469 
z
" style="fill:#a6cee3;"/>
   </g>
   <g id="patch_11">
    <path clip-path="url(#pe8f8e7321d)" d="M 280.866323 117 
L 286.267981 117 
L 286.267981 12.644469 
L 280.866323 12.644469 
z
" style="fill:#a6cee3;"/>
   </g>
   <g id="patch_12">
    <path clip-path="url(#pe8f8e7321d)" d="M 307.874614 117 
L 313.276272 117 
L 313.276272 12.644469 
L 307.874614 12.644469 
z
" style="fill:#a6cee3;"/>
   </g>
   <g id="patch_13">
    <path clip-path="url(#pe8f8e7321d)" d="M 334.882904 117 
L 340.284562 117 
L 340.284562 12.644469 
L 334.882904 12.644469 
z
" style="fill:#a6cee3;"/>
   </g>
   <g id="patch_14">
    <path clip-path="url(#pe8f8e7321d)" d="M 361.891195 117 
L 367.292853 117 
L 367.292853 12.644469 
L 361.891195 12.644469 
z
" style="fill:#a6cee3;"/>
   </g>
   <g id="patch_15">
    <path clip-path="url(#pe8f8e7321d)" d="M 388.899485 117 
L 394.301143 117 
L 394.301143 12.644469 
L 388.899485 12.644469 
z
" style="fill:#a6cee3;"/>
   </g>
   <g id="patch_16">
    <path clip-path="url(#pe8f8e7321d)" d="M 70.201658 117 
L 75.603316 117 
L 75.603316 64.822234 
L 70.201658 64.822234 
z
" style="fill:#1f78b4;"/>
   </g>
   <g id="patch_17">
    <path clip-path="url(#pe8f8e7321d)" d="M 97.209949 117 
L 102.611607 117 
L 102.611607 117 
L 97.209949 117 
z
" style="fill:#1f78b4;"/>
   </g>
   <g id="patch_18">
    <path clip-path="url(#pe8f8e7321d)" d="M 124.218239 117 
L 129.619897 117 
L 129.619897 90.911117 
L 124.218239 90.911117 
z
" style="fill:#1f78b4;"/>
   </g>
   <g id="patch_19">
    <path clip-path="url(#pe8f8e7321d)" d="M 151.226529 117 
L 156.628187 117 
L 156.628187 117 
L 151.226529 117 
z
" style="fill:#1f78b4;"/>
   </g>
   <g id="patch_20">
    <path clip-path="url(#pe8f8e7321d)" d="M 178.23482 117 
L 183.636478 117 
L 183.636478 64.822234 
L 178.23482 64.822234 
z
" style="fill:#1f78b4;"/>
   </g>
   <g id="patch_21">
    <path clip-path="url(#pe8f8e7321d)" d="M 205.24311 117 
L 210.644768 117 
L 210.644768 64.822234 
L 205.24311 64.822234 
z
" style="fill:#1f78b4;"/>
   </g>
   <g id="patch_22">
    <path clip-path="url(#pe8f8e7321d)" d="M 232.251401 117 
L 237.653059 117 
L 237.653059 90.911117 
L 232.251401 90.911117 
z
" style="fill:#1f78b4;"/>
   </g>
   <g id="patch_23">
    <path clip-path="url(#pe8f8e7321d)" d="M 259.259691 117 
L 264.661349 117 
L 264.661349 90.911117 
L 259.259691 90.911117 
z
" style="fill:#1f78b4;"/>
   </g>
   <g id="patch_24">
    <path clip-path="url(#pe8f8e7321d)" d="M 286.267981 117 
L 291.66964 117 
L 291.66964 117 
L 286.267981 117 
z
" style="fill:#1f78b4;"/>
   </g>
   <g id="patch_25">
    <path clip-path="url(#pe8f8e7321d)" d="M 313.276272 117 
L 318.67793 117 
L 318.67793 64.822234 
L 313.276272 64.822234 
z
" style="fill:#1f78b4;"/>
   </g>
   <g id="patch_26">
    <path clip-path="url(#pe8f8e7321d)" d="M 340.284562 117 
L 345.68622 117 
L 345.68622 117 
L 340.284562 117 
z
" style="fill:#1f78b4;"/>
   </g>
   <g id="patch_27">
    <path clip-path="url(#pe8f8e7321d)" d="M 367.292853 117 
L 372.694511 117 
L 372.694511 64.822234 
L 367.292853 64.822234 
z
" style="fill:#1f78b4;"/>
   </g>
   <g id="patch_28">
    <path clip-path="url(#pe8f8e7321d)" d="M 394.301143 117 
L 399.702801 117 
L 399.702801 117 
L 394.301143 117 
z
" style="fill:#1f78b4;"/>
   </g>
   <g id="patch_29">
    <path clip-path="url(#pe8f8e7321d)" d="M 75.603316 117 
L 81.004974 117 
L 81.004974 117 
L 75.603316 117 
z
" style="fill:url(#hb97d468ea4);"/>
   </g>
   <g id="patch_30">
    <path clip-path="url(#pe8f8e7321d)" d="M 102.611607 117 
L 108.013265 117 
L 108.013265 117 
L 102.611607 117 
z
" style="fill:url(#hb97d468ea4);"/>
   </g>
   <g id="patch_31">
    <path clip-path="url(#pe8f8e7321d)" d="M 129.619897 117 
L 135.021555 117 
L 135.021555 117 
L 129.619897 117 
z
" style="fill:url(#hb97d468ea4);"/>
   </g>
   <g id="patch_32">
    <path clip-path="url(#pe8f8e7321d)" d="M 156.628187 117 
L 162.029846 117 
L 162.029846 117 
L 156.628187 117 
z
" style="fill:url(#hb97d468ea4);"/>
   </g>
   <g id="patch_33">
    <path clip-path="url(#pe8f8e7321d)" d="M 183.636478 117 
L 189.038136 117 
L 189.038136 90.911117 
L 183.636478 90.911117 
z
" style="fill:url(#hb97d468ea4);"/>
   </g>
   <g id="patch_34">
    <path clip-path="url(#pe8f8e7321d)" d="M 210.644768 117 
L 216.046426 117 
L 216.046426 64.822234 
L 210.644768 64.822234 
z
" style="fill:url(#hb97d468ea4);"/>
   </g>
   <g id="patch_35">
    <path clip-path="url(#pe8f8e7321d)" d="M 237.653059 117 
L 243.054717 117 
L 243.054717 90.911117 
L 237.653059 90.911117 
z
" style="fill:url(#hb97d468ea4);"/>
   </g>
   <g id="patch_36">
    <path clip-path="url(#pe8f8e7321d)" d="M 264.661349 117 
L 270.063007 117 
L 270.063007 117 
L 264.661349 117 
z
" style="fill:url(#hb97d468ea4);"/>
   </g>
   <g id="patch_37">
    <path clip-path="url(#pe8f8e7321d)" d="M 291.66964 117 
L 297.071298 117 
L 297.071298 117 
L 291.66964 117 
z
" style="fill:url(#hb97d468ea4);"/>
   </g>
   <g id="patch_38">
    <path clip-path="url(#pe8f8e7321d)" d="M 318.67793 117 
L 324.079588 117 
L 324.079588 117 
L 318.67793 117 
z
" style="fill:url(#hb97d468ea4);"/>
   </g>
   <g id="patch_39">
    <path clip-path="url(#pe8f8e7321d)" d="M 345.68622 117 
L 351.087878 117 
L 351.087878 117 
L 345.68622 117 
z
" style="fill:url(#hb97d468ea4);"/>
   </g>
   <g id="patch_40">
    <path clip-path="url(#pe8f8e7321d)" d="M 372.694511 117 
L 378.096169 117 
L 378.096169 90.911117 
L 372.694511 90.911117 
z
" style="fill:url(#hb97d468ea4);"/>
   </g>
   <g id="patch_41">
    <path clip-path="url(#pe8f8e7321d)" d="M 399.702801 117 
L 405.104459 117 
L 405.104459 117 
L 399.702801 117 
z
" style="fill:url(#hb97d468ea4);"/>
   </g>
   <g id="patch_42">
    <path d="M 64.8 117 
L 64.8 7.426692 
" style="fill:none;stroke:#000000;stroke-linecap:square;stroke-linejoin:miter;stroke-width:0.8;"/>
   </g>
   <g id="patch_43">
    <path d="M 415.907775 117 
L 415.907775 7.426692 
" style="fill:none;stroke:#000000;stroke-linecap:square;stroke-linejoin:miter;stroke-width:0.8;"/>
   </g>
   <g id="patch_44">
    <path d="M 64.8 117 
L 415.907775 117 
" style="fill:none;stroke:#000000;stroke-linecap:square;stroke-linejoin:miter;stroke-width:0.8;"/>
   </g>
   <g id="patch_45">
    <path d="M 64.8 7.426692 
L 415.907775 7.426692 
" style="fill:none;stroke:#000000;stroke-linecap:square;stroke-linejoin:miter;stroke-width:0.8;"/>
   </g>
   <g id="legend_1">
    <g id="patch_46">
     <path d="M 70.631 25.700361 
L 242.395869 25.700361 
Q 244.061869 25.700361 244.061869 24.034361 
L 244.061869 13.257692 
Q 244.061869 11.591692 242.395869 11.591692 
L 70.631 11.591692 
Q 68.965 11.591692 68.965 13.257692 
L 68.965 24.034361 
Q 68.965 25.700361 70.631 25.700361 
z
" style="fill:#ffffff;opacity:0.8;stroke:#cccccc;stroke-linejoin:miter;"/>
    </g>
    <g id="patch_47">
     <path d="M 72.297 20.754692 
L 88.957 20.754692 
L 88.957 14.923692 
L 72.297 14.923692 
z
" style="fill:#a6cee3;"/>
    </g>
    <g id="text_20">
     <!-- \textbf{D-x0} -->
     <defs>
      <path d="M 31.203125 17 
L 31.203125 26.140625 
L 1.203125 26.140625 
L 1.203125 17 
z
" id="CMBX12-45"/>
      <path d="M 33.703125 24.484375 
L 45.296875 37.734375 
C 46.40625 39.03125 47.296875 39.828125 55.59375 39.828125 
L 55.59375 44 
C 50 44 49.796875 44 46.40625 44 
C 43.5 44 39.203125 44 36.40625 44.09375 
L 36.40625 39.828125 
C 38.296875 39.828125 40.40625 39.328125 40.40625 38.625 
C 40.40625 38.4375 39.90625 37.734375 39.703125 37.53125 
L 31 27.78125 
L 21.09375 39.828125 
L 25.296875 39.828125 
L 25.296875 44.09375 
C 23 44 16.203125 44 13.5 44 
C 10.5 44 5.09375 44 2.296875 44.09375 
L 2.296875 39.828125 
L 9.40625 39.828125 
L 25 20.90625 
L 12 6.265625 
C 10.796875 4.875 10.09375 4.171875 1.796875 4.171875 
L 1.796875 0 
C 7.796875 0 8 0 11.09375 0 
C 14 0 18.203125 0 21 -0.09375 
L 21 4.171875 
C 19.09375 4.171875 17 4.671875 17 5.375 
C 17 5.46875 17 5.5625 17.703125 6.359375 
L 27.703125 17.625 
L 38.796875 4.171875 
L 34.59375 4.171875 
L 34.59375 -0.09375 
C 37 0 43.703125 0 46.5 0 
C 49.5 0 54.796875 0 57.59375 -0.09375 
L 57.59375 4.171875 
L 50.59375 4.171875 
z
" id="CMBX12-120"/>
      <path d="M 51.703125 31.84375 
C 51.703125 41.375 51.703125 65.28125 28.09375 65.28125 
C 4.40625 65.28125 4.40625 41.46875 4.40625 31.84375 
C 4.40625 22.3125 4.40625 -1 28 -1 
C 51.59375 -1 51.703125 22.015625 51.703125 31.84375 
z
M 28.09375 2.28125 
C 24.90625 2.28125 22.5 3.5625 20.5 5.65625 
C 18 8.140625 16.40625 9.703125 16.40625 33.03125 
C 16.40625 39.984375 16.40625 46.3125 17.203125 51.484375 
C 18.59375 61.3125 25.796875 62 28 62 
C 31.203125 62 37.40625 60.515625 38.796875 52.1875 
C 39.703125 47.109375 39.703125 39.078125 39.703125 33.03125 
C 39.703125 9.609375 38.203125 8.234375 35.203125 5.25 
C 33.203125 3.265625 30.5 2.28125 28.09375 2.28125 
z
" id="CMBX12-48"/>
     </defs>
     <g transform="translate(95.621 20.754692)scale(0.0833 -0.0833)">
      <use transform="scale(0.996264)" xlink:href="#CMBX12-68"/>
      <use transform="translate(85.904786 0)scale(0.996264)" xlink:href="#CMBX12-45"/>
      <use transform="translate(123.264686 0)scale(0.996264)" xlink:href="#CMBX12-120"/>
      <use transform="translate(182.417862 0)scale(0.996264)" xlink:href="#CMBX12-48"/>
     </g>
    </g>
    <g id="patch_48">
     <path d="M 133.898588 20.754692 
L 150.558588 20.754692 
L 150.558588 14.923692 
L 133.898588 14.923692 
z
" style="fill:#1f78b4;"/>
    </g>
    <g id="text_21">
     <!-- \textbf{H-x2} -->
     <defs>
      <path d="M 50.5 21.375 
L 46.296875 21.375 
C 46 19.28125 45.296875 13.40625 43.796875 12.421875 
C 43 11.71875 35.203125 11.71875 33.703125 11.71875 
L 18.203125 11.71875 
C 22 14.90625 31.09375 22.46875 32.59375 23.578125 
C 43.703125 31.84375 50.5 36.90625 50.5 46.46875 
C 50.5 58.203125 39.796875 65.28125 26.59375 65.28125 
C 15.296875 65.28125 5.59375 58.90625 5.59375 49.453125 
C 5.59375 44.171875 9.90625 42.6875 12.203125 42.6875 
C 15.296875 42.6875 18.90625 44.765625 18.90625 49.359375 
C 18.90625 53.546875 15.796875 55.625 12.703125 56.03125 
C 16.703125 60.609375 22 61 24.09375 61 
C 33.296875 61 37.703125 53.546875 37.703125 46.375 
C 37.703125 38.609375 32.40625 31.453125 28.296875 27.171875 
L 6.59375 4.578125 
C 5.59375 3.671875 5.59375 3.484375 5.59375 1.6875 
L 5.59375 0 
L 47.59375 0 
z
" id="CMBX12-50"/>
     </defs>
     <g transform="translate(157.222588 20.754692)scale(0.0833 -0.0833)">
      <use transform="scale(0.996264)" xlink:href="#CMBX12-72"/>
      <use transform="translate(87.634475 0)scale(0.996264)" xlink:href="#CMBX12-45"/>
      <use transform="translate(124.994375 0)scale(0.996264)" xlink:href="#CMBX12-120"/>
      <use transform="translate(184.147551 0)scale(0.996264)" xlink:href="#CMBX12-50"/>
     </g>
    </g>
    <g id="patch_49">
     <path d="M 195.644229 20.754692 
L 212.304229 20.754692 
L 212.304229 14.923692 
L 195.644229 14.923692 
z
" style="fill:url(#hb97d468ea4);"/>
    </g>
    <g id="text_22">
     <!-- \textbf{H-x3} -->
     <defs>
      <path d="M 26.09375 33 
C 37.296875 33 37.296875 22.71875 37.296875 17.984375 
C 37.296875 13.53125 37.296875 3.0625 26.5 3.0625 
C 24.40625 3.0625 17.796875 3.0625 13 6.625 
C 17.296875 7.515625 18.796875 10.59375 18.796875 13.5625 
C 18.796875 17.625 15.90625 20.5 11.796875 20.5 
C 7.59375 20.5 4.703125 17.625 4.703125 13.46875 
C 4.703125 4.34375 14.703125 -1 27 -1 
C 43.5 -1 51.40625 8.015625 51.40625 17.921875 
C 51.40625 22.796875 48.90625 32.203125 33.40625 34.875 
C 42.203125 37.59375 48.296875 43.8125 48.296875 51.71875 
C 48.296875 59.25 41.09375 65.578125 27.203125 65.578125 
C 16 65.578125 7.796875 59.65625 7.796875 51.53125 
C 7.796875 46.515625 11.703125 44.90625 14.296875 44.90625 
C 17.203125 44.90625 20.703125 46.8125 20.703125 51.4375 
C 20.703125 53.765625 19.703125 57.171875 15 57.875 
C 19.203125 62 26 62 26.59375 62 
C 35.5 62 35.5 55.03125 35.5 52.015625 
C 35.5 48.984375 35.09375 44.328125 31.90625 40.203125 
C 29.296875 36.75 26.703125 36.5625 22.90625 36.5625 
C 21.703125 36.265625 19.703125 36.265625 19.296875 36.078125 
C 18.703125 35.78125 18.703125 35.078125 18.703125 34.6875 
C 18.703125 33 19.296875 33 21.296875 33 
z
" id="CMBX12-51"/>
     </defs>
     <g transform="translate(218.968229 20.754692)scale(0.0833 -0.0833)">
      <use transform="scale(0.996264)" xlink:href="#CMBX12-72"/>
      <use transform="translate(87.634475 0)scale(0.996264)" xlink:href="#CMBX12-45"/>
      <use transform="translate(124.994375 0)scale(0.996264)" xlink:href="#CMBX12-120"/>
      <use transform="translate(184.147551 0)scale(0.996264)" xlink:href="#CMBX12-51"/>
     </g>
    </g>
   </g>
  </g>
 </g>
 <defs>
  <clipPath id="pe8f8e7321d">
   <rect height="109.573308" width="351.107775" x="64.8" y="7.426692"/>
  </clipPath>
 </defs>
 <defs>
  <pattern height="72" id="hb97d468ea4" patternUnits="userSpaceOnUse" width="72" x="0" y="0">
   <rect fill="#33a02c" height="73" width="73" x="0" y="0"/>
   <path d="M -36 36 
L 36 -36 
M -33 39 
L 39 -33 
M -30 42 
L 42 -30 
M -27 45 
L 45 -27 
M -24 48 
L 48 -24 
M -21 51 
L 51 -21 
M -18 54 
L 54 -18 
M -15 57 
L 57 -15 
M -12 60 
L 60 -12 
M -9 63 
L 63 -9 
M -6 66 
L 66 -6 
M -3 69 
L 69 -3 
M 0 72 
L 72 0 
M 3 75 
L 75 3 
M 6 78 
L 78 6 
M 9 81 
L 81 9 
M 12 84 
L 84 12 
M 15 87 
L 87 15 
M 18 90 
L 90 18 
M 21 93 
L 93 21 
M 24 96 
L 96 24 
M 27 99 
L 99 27 
M 30 102 
L 102 30 
M 33 105 
L 105 33 
M 36 108 
L 108 36 
" style="fill:#000000;stroke:#000000;stroke-linecap:butt;stroke-linejoin:miter;stroke-width:1.0;"/>
  </pattern>
 </defs>
</svg>
